M48
; DRILL file {KiCad (5.1.5)-3} date 20/02/2020 17:55:50
; FORMAT={3:3/ absolute / metric / suppress leading zeros}
; #@! TF.CreationDate,2020-02-20T17:55:50-08:00
; #@! TF.GenerationSoftware,Kicad,Pcbnew,(5.1.5)-3
; #@! TF.FileFunction,Plated,1,2,PTH
FMAT,2
METRIC,TZ
T1C0.300
T2C1.000
%
G90
G05
T1
X109650Y-117100
X109650Y-123100
X109650Y-166600
X109650Y-169600
X111900Y-117850
X112650Y-123850
X112650Y-150100
X112650Y-153850
X112650Y-156850
X112650Y-161350
X112650Y-164350
X112650Y-167350
X112650Y-170350
X112650Y-173350
X113400Y-114100
X113400Y-119350
X113400Y-159100
X114150Y-116350
X114150Y-125350
X114150Y-148600
X114150Y-151600
X114150Y-168850
X114150Y-171850
X114900Y-120850
X114900Y-163600
X114900Y-166600
X115650Y-114850
X115650Y-117850
X115650Y-126850
X115650Y-147100
X115650Y-150100
X115650Y-153850
X115650Y-157600
X115650Y-161350
X115650Y-170350
X115650Y-173350
X116400Y-122350
X116400Y-168100
X117150Y-116350
X117150Y-119350
X117150Y-128350
X117150Y-145600
X117150Y-148600
X117150Y-151600
X117150Y-156100
X117150Y-159100
X117150Y-164350
X117150Y-171850
X117900Y-114100
X117900Y-123850
X117900Y-166600
X117900Y-169600
X118650Y-117850
X118650Y-121600
X118650Y-130600
X118650Y-147100
X118650Y-150100
X118650Y-154600
X118650Y-157600
X118650Y-161350
X118650Y-173350
X119400Y-115600
X119400Y-127600
X119400Y-163600
X119400Y-168100
X119400Y-171100
X119750Y-143825
X120150Y-123100
X120150Y-132100
X120150Y-145600
X120150Y-148600
X120150Y-153100
X120150Y-156100
X120150Y-159100
X120900Y-114100
X120900Y-129100
X120900Y-141850
X120900Y-166600
X120900Y-169600
X120900Y-172600
X121650Y-133600
X121650Y-147100
X121650Y-151600
X121650Y-154600
X121650Y-157600
X121650Y-161350
X122400Y-116350
X122400Y-168100
X122400Y-171100
X122575Y-141550
X123125Y-146000
X123150Y-150100
X123150Y-153100
X123150Y-156100
X123150Y-159100
X123150Y-165100
X123150Y-173350
X123900Y-117850
X123900Y-121600
X123900Y-124600
X123900Y-128350
X123900Y-134350
X123900Y-169600
X124050Y-143325
X124650Y-157600
X124650Y-163600
X124650Y-166600
X124650Y-171850
X125400Y-123100
X125400Y-129850
X125400Y-155350
X125650Y-153850
X126150Y-118600
X126150Y-126850
X126150Y-132100
X126150Y-162100
X126150Y-165100
X126150Y-168100
X126150Y-173350
X126225Y-151875
X126300Y-133400
X126350Y-136225
X126900Y-120850
X126900Y-138100
X126900Y-141100
X126900Y-153850
X126900Y-156850
X126900Y-170350
X127650Y-160600
X127650Y-163600
X127650Y-166600
X128400Y-129850
X128400Y-155350
X128400Y-168850
X128400Y-171850
X128625Y-141325
X128950Y-148375
X129150Y-144850
X129150Y-150100
X129150Y-153100
X129150Y-159100
X129150Y-162100
X129150Y-165100
X129300Y-141875
X129900Y-118600
X129900Y-128350
X129900Y-138100
X129900Y-167350
X129900Y-170350
X129900Y-173350
X130650Y-120850
X130650Y-123850
X130650Y-140350
X130650Y-157600
X130650Y-160600
X130650Y-163600
X131250Y-129675
X131400Y-165850
X131400Y-168850
X131400Y-171850
X132025Y-117375
X132150Y-119350
X132150Y-125350
X132150Y-135100
X132150Y-149350
X132150Y-152350
X132150Y-155350
X132150Y-159100
X132150Y-162100
X132900Y-123100
X132900Y-142600
X132900Y-164350
X132900Y-167350
X132900Y-170350
X132900Y-173350
X133000Y-147600
X133650Y-114100
X133650Y-117100
X133650Y-120850
X133650Y-128350
X133650Y-150850
X133650Y-153850
X133650Y-156850
X133650Y-160600
X134400Y-124600
X134400Y-134350
X134400Y-147850
X134400Y-162850
X134400Y-165850
X134400Y-168850
X134400Y-171850
X135150Y-118600
X135150Y-129850
X135150Y-144850
X135150Y-152350
X135150Y-155350
X135150Y-158350
X135500Y-136600
X135900Y-116350
X135900Y-123100
X135900Y-149350
X135900Y-161350
X135900Y-164350
X135900Y-167350
X135900Y-170350
X135900Y-173350
X136650Y-114100
X136650Y-125350
X136650Y-136600
X136650Y-146350
X136650Y-153850
X136650Y-156850
X137400Y-117850
X137400Y-120850
X137400Y-128350
X137400Y-134350
X137400Y-150850
X137400Y-159100
X137400Y-162850
X137400Y-165850
X137400Y-168850
X137400Y-171850
X138150Y-123850
X138150Y-138100
X138150Y-147850
X138150Y-155350
X138900Y-116350
X138900Y-119350
X138900Y-126100
X138900Y-129850
X138900Y-135850
X138900Y-152350
X138900Y-157600
X138900Y-160600
X138900Y-164350
X138900Y-167350
X138900Y-170350
X138900Y-173350
X139650Y-114100
X139650Y-121600
X139650Y-139600
X139650Y-149350
X140400Y-117850
X140400Y-124600
X140400Y-128350
X140400Y-137350
X140400Y-153850
X140400Y-159100
X140400Y-162100
X140400Y-165850
X140400Y-168850
X140400Y-171850
X141150Y-120100
X141150Y-141100
X141150Y-150850
X141150Y-156100
X141900Y-116350
X141900Y-122350
X141900Y-138850
X141900Y-143350
X141900Y-163600
X141900Y-167350
X141900Y-170350
X141900Y-173350
X142650Y-114100
X142650Y-118600
X143400Y-120850
X143400Y-140350
X143400Y-165100
X143400Y-168850
X143400Y-171850
X144150Y-144100
X145650Y-169600
X146400Y-117100
X147150Y-166600
T2
X145900Y-119550
X145900Y-122090
X145900Y-124630
X145900Y-127170
X145900Y-129710
X145900Y-132250
X145900Y-134790
X145900Y-137330
X145900Y-139870
X145900Y-142410
X145900Y-144950
X145900Y-147490
X145900Y-150030
X145900Y-152570
X145900Y-155110
X145900Y-157650
X145900Y-160190
X145900Y-162730
X145900Y-165270
X145900Y-167810
X110900Y-119550
X110900Y-122090
X110900Y-124630
X110900Y-127170
X110900Y-129710
X110900Y-132250
X110900Y-134790
X110900Y-137330
X110900Y-139870
X110900Y-142410
X110900Y-144950
X110900Y-147490
X110900Y-150030
X110900Y-152570
X110900Y-155110
X110900Y-157650
X110900Y-160190
X110900Y-162730
X110900Y-165270
X110900Y-167810
T0
M30
