G04 #@! TF.GenerationSoftware,KiCad,Pcbnew,(5.1.5)-3*
G04 #@! TF.CreationDate,2020-02-15T00:19:20-08:00*
G04 #@! TF.ProjectId,SimpleF303,53696d70-6c65-4463-9330-332e6b696361,0.1*
G04 #@! TF.SameCoordinates,Original*
G04 #@! TF.FileFunction,Soldermask,Bot*
G04 #@! TF.FilePolarity,Negative*
%FSLAX46Y46*%
G04 Gerber Fmt 4.6, Leading zero omitted, Abs format (unit mm)*
G04 Created by KiCad (PCBNEW (5.1.5)-3) date 2020-02-15 00:19:20*
%MOMM*%
%LPD*%
G04 APERTURE LIST*
%ADD10C,0.100000*%
G04 APERTURE END LIST*
D10*
G36*
X146114794Y-170870155D02*
G01*
X146221150Y-170891311D01*
X146421520Y-170974307D01*
X146601844Y-171094795D01*
X146755205Y-171248156D01*
X146875693Y-171428480D01*
X146958689Y-171628851D01*
X147001000Y-171841560D01*
X147001000Y-172058440D01*
X146958689Y-172271149D01*
X146875693Y-172471520D01*
X146755205Y-172651844D01*
X146601844Y-172805205D01*
X146421520Y-172925693D01*
X146321334Y-172967191D01*
X146221150Y-173008689D01*
X146114795Y-173029844D01*
X146008440Y-173051000D01*
X145791560Y-173051000D01*
X145685205Y-173029844D01*
X145578850Y-173008689D01*
X145478666Y-172967191D01*
X145378480Y-172925693D01*
X145198156Y-172805205D01*
X145044795Y-172651844D01*
X144924307Y-172471520D01*
X144841311Y-172271149D01*
X144799000Y-172058440D01*
X144799000Y-171841560D01*
X144841311Y-171628851D01*
X144924307Y-171428480D01*
X145044795Y-171248156D01*
X145198156Y-171094795D01*
X145378480Y-170974307D01*
X145478666Y-170932809D01*
X145578850Y-170891311D01*
X145685206Y-170870155D01*
X145791560Y-170849000D01*
X146008440Y-170849000D01*
X146114794Y-170870155D01*
G37*
G36*
X111114794Y-170870155D02*
G01*
X111221150Y-170891311D01*
X111421520Y-170974307D01*
X111601844Y-171094795D01*
X111755205Y-171248156D01*
X111875693Y-171428480D01*
X111958689Y-171628851D01*
X112001000Y-171841560D01*
X112001000Y-172058440D01*
X111958689Y-172271149D01*
X111875693Y-172471520D01*
X111755205Y-172651844D01*
X111601844Y-172805205D01*
X111421520Y-172925693D01*
X111321334Y-172967191D01*
X111221150Y-173008689D01*
X111114795Y-173029844D01*
X111008440Y-173051000D01*
X110791560Y-173051000D01*
X110685205Y-173029844D01*
X110578850Y-173008689D01*
X110478666Y-172967191D01*
X110378480Y-172925693D01*
X110198156Y-172805205D01*
X110044795Y-172651844D01*
X109924307Y-172471520D01*
X109841311Y-172271149D01*
X109799000Y-172058440D01*
X109799000Y-171841560D01*
X109841311Y-171628851D01*
X109924307Y-171428480D01*
X110044795Y-171248156D01*
X110198156Y-171094795D01*
X110378480Y-170974307D01*
X110578850Y-170891311D01*
X110685206Y-170870155D01*
X110791560Y-170849000D01*
X111008440Y-170849000D01*
X111114794Y-170870155D01*
G37*
G36*
X146013512Y-166913927D02*
G01*
X146162812Y-166943624D01*
X146326784Y-167011544D01*
X146474354Y-167110147D01*
X146599853Y-167235646D01*
X146698456Y-167383216D01*
X146766376Y-167547188D01*
X146801000Y-167721259D01*
X146801000Y-167898741D01*
X146766376Y-168072812D01*
X146698456Y-168236784D01*
X146599853Y-168384354D01*
X146474354Y-168509853D01*
X146326784Y-168608456D01*
X146162812Y-168676376D01*
X146013512Y-168706073D01*
X145988742Y-168711000D01*
X145811258Y-168711000D01*
X145786488Y-168706073D01*
X145637188Y-168676376D01*
X145473216Y-168608456D01*
X145325646Y-168509853D01*
X145200147Y-168384354D01*
X145101544Y-168236784D01*
X145033624Y-168072812D01*
X144999000Y-167898741D01*
X144999000Y-167721259D01*
X145033624Y-167547188D01*
X145101544Y-167383216D01*
X145200147Y-167235646D01*
X145325646Y-167110147D01*
X145473216Y-167011544D01*
X145637188Y-166943624D01*
X145786488Y-166913927D01*
X145811258Y-166909000D01*
X145988742Y-166909000D01*
X146013512Y-166913927D01*
G37*
G36*
X111013512Y-166913927D02*
G01*
X111162812Y-166943624D01*
X111326784Y-167011544D01*
X111474354Y-167110147D01*
X111599853Y-167235646D01*
X111698456Y-167383216D01*
X111766376Y-167547188D01*
X111801000Y-167721259D01*
X111801000Y-167898741D01*
X111766376Y-168072812D01*
X111698456Y-168236784D01*
X111599853Y-168384354D01*
X111474354Y-168509853D01*
X111326784Y-168608456D01*
X111162812Y-168676376D01*
X111013512Y-168706073D01*
X110988742Y-168711000D01*
X110811258Y-168711000D01*
X110786488Y-168706073D01*
X110637188Y-168676376D01*
X110473216Y-168608456D01*
X110325646Y-168509853D01*
X110200147Y-168384354D01*
X110101544Y-168236784D01*
X110033624Y-168072812D01*
X109999000Y-167898741D01*
X109999000Y-167721259D01*
X110033624Y-167547188D01*
X110101544Y-167383216D01*
X110200147Y-167235646D01*
X110325646Y-167110147D01*
X110473216Y-167011544D01*
X110637188Y-166943624D01*
X110786488Y-166913927D01*
X110811258Y-166909000D01*
X110988742Y-166909000D01*
X111013512Y-166913927D01*
G37*
G36*
X146013512Y-164373927D02*
G01*
X146162812Y-164403624D01*
X146326784Y-164471544D01*
X146474354Y-164570147D01*
X146599853Y-164695646D01*
X146698456Y-164843216D01*
X146766376Y-165007188D01*
X146801000Y-165181259D01*
X146801000Y-165358741D01*
X146766376Y-165532812D01*
X146698456Y-165696784D01*
X146599853Y-165844354D01*
X146474354Y-165969853D01*
X146326784Y-166068456D01*
X146162812Y-166136376D01*
X146013512Y-166166073D01*
X145988742Y-166171000D01*
X145811258Y-166171000D01*
X145786488Y-166166073D01*
X145637188Y-166136376D01*
X145473216Y-166068456D01*
X145325646Y-165969853D01*
X145200147Y-165844354D01*
X145101544Y-165696784D01*
X145033624Y-165532812D01*
X144999000Y-165358741D01*
X144999000Y-165181259D01*
X145033624Y-165007188D01*
X145101544Y-164843216D01*
X145200147Y-164695646D01*
X145325646Y-164570147D01*
X145473216Y-164471544D01*
X145637188Y-164403624D01*
X145786488Y-164373927D01*
X145811258Y-164369000D01*
X145988742Y-164369000D01*
X146013512Y-164373927D01*
G37*
G36*
X111013512Y-164373927D02*
G01*
X111162812Y-164403624D01*
X111326784Y-164471544D01*
X111474354Y-164570147D01*
X111599853Y-164695646D01*
X111698456Y-164843216D01*
X111766376Y-165007188D01*
X111801000Y-165181259D01*
X111801000Y-165358741D01*
X111766376Y-165532812D01*
X111698456Y-165696784D01*
X111599853Y-165844354D01*
X111474354Y-165969853D01*
X111326784Y-166068456D01*
X111162812Y-166136376D01*
X111013512Y-166166073D01*
X110988742Y-166171000D01*
X110811258Y-166171000D01*
X110786488Y-166166073D01*
X110637188Y-166136376D01*
X110473216Y-166068456D01*
X110325646Y-165969853D01*
X110200147Y-165844354D01*
X110101544Y-165696784D01*
X110033624Y-165532812D01*
X109999000Y-165358741D01*
X109999000Y-165181259D01*
X110033624Y-165007188D01*
X110101544Y-164843216D01*
X110200147Y-164695646D01*
X110325646Y-164570147D01*
X110473216Y-164471544D01*
X110637188Y-164403624D01*
X110786488Y-164373927D01*
X110811258Y-164369000D01*
X110988742Y-164369000D01*
X111013512Y-164373927D01*
G37*
G36*
X111013512Y-161833927D02*
G01*
X111162812Y-161863624D01*
X111326784Y-161931544D01*
X111474354Y-162030147D01*
X111599853Y-162155646D01*
X111698456Y-162303216D01*
X111766376Y-162467188D01*
X111801000Y-162641259D01*
X111801000Y-162818741D01*
X111766376Y-162992812D01*
X111698456Y-163156784D01*
X111599853Y-163304354D01*
X111474354Y-163429853D01*
X111326784Y-163528456D01*
X111162812Y-163596376D01*
X111013512Y-163626073D01*
X110988742Y-163631000D01*
X110811258Y-163631000D01*
X110786488Y-163626073D01*
X110637188Y-163596376D01*
X110473216Y-163528456D01*
X110325646Y-163429853D01*
X110200147Y-163304354D01*
X110101544Y-163156784D01*
X110033624Y-162992812D01*
X109999000Y-162818741D01*
X109999000Y-162641259D01*
X110033624Y-162467188D01*
X110101544Y-162303216D01*
X110200147Y-162155646D01*
X110325646Y-162030147D01*
X110473216Y-161931544D01*
X110637188Y-161863624D01*
X110786488Y-161833927D01*
X110811258Y-161829000D01*
X110988742Y-161829000D01*
X111013512Y-161833927D01*
G37*
G36*
X146013512Y-161833927D02*
G01*
X146162812Y-161863624D01*
X146326784Y-161931544D01*
X146474354Y-162030147D01*
X146599853Y-162155646D01*
X146698456Y-162303216D01*
X146766376Y-162467188D01*
X146801000Y-162641259D01*
X146801000Y-162818741D01*
X146766376Y-162992812D01*
X146698456Y-163156784D01*
X146599853Y-163304354D01*
X146474354Y-163429853D01*
X146326784Y-163528456D01*
X146162812Y-163596376D01*
X146013512Y-163626073D01*
X145988742Y-163631000D01*
X145811258Y-163631000D01*
X145786488Y-163626073D01*
X145637188Y-163596376D01*
X145473216Y-163528456D01*
X145325646Y-163429853D01*
X145200147Y-163304354D01*
X145101544Y-163156784D01*
X145033624Y-162992812D01*
X144999000Y-162818741D01*
X144999000Y-162641259D01*
X145033624Y-162467188D01*
X145101544Y-162303216D01*
X145200147Y-162155646D01*
X145325646Y-162030147D01*
X145473216Y-161931544D01*
X145637188Y-161863624D01*
X145786488Y-161833927D01*
X145811258Y-161829000D01*
X145988742Y-161829000D01*
X146013512Y-161833927D01*
G37*
G36*
X111013512Y-159293927D02*
G01*
X111162812Y-159323624D01*
X111326784Y-159391544D01*
X111474354Y-159490147D01*
X111599853Y-159615646D01*
X111698456Y-159763216D01*
X111766376Y-159927188D01*
X111801000Y-160101259D01*
X111801000Y-160278741D01*
X111766376Y-160452812D01*
X111698456Y-160616784D01*
X111599853Y-160764354D01*
X111474354Y-160889853D01*
X111326784Y-160988456D01*
X111162812Y-161056376D01*
X111013512Y-161086073D01*
X110988742Y-161091000D01*
X110811258Y-161091000D01*
X110786488Y-161086073D01*
X110637188Y-161056376D01*
X110473216Y-160988456D01*
X110325646Y-160889853D01*
X110200147Y-160764354D01*
X110101544Y-160616784D01*
X110033624Y-160452812D01*
X109999000Y-160278741D01*
X109999000Y-160101259D01*
X110033624Y-159927188D01*
X110101544Y-159763216D01*
X110200147Y-159615646D01*
X110325646Y-159490147D01*
X110473216Y-159391544D01*
X110637188Y-159323624D01*
X110786488Y-159293927D01*
X110811258Y-159289000D01*
X110988742Y-159289000D01*
X111013512Y-159293927D01*
G37*
G36*
X146013512Y-159293927D02*
G01*
X146162812Y-159323624D01*
X146326784Y-159391544D01*
X146474354Y-159490147D01*
X146599853Y-159615646D01*
X146698456Y-159763216D01*
X146766376Y-159927188D01*
X146801000Y-160101259D01*
X146801000Y-160278741D01*
X146766376Y-160452812D01*
X146698456Y-160616784D01*
X146599853Y-160764354D01*
X146474354Y-160889853D01*
X146326784Y-160988456D01*
X146162812Y-161056376D01*
X146013512Y-161086073D01*
X145988742Y-161091000D01*
X145811258Y-161091000D01*
X145786488Y-161086073D01*
X145637188Y-161056376D01*
X145473216Y-160988456D01*
X145325646Y-160889853D01*
X145200147Y-160764354D01*
X145101544Y-160616784D01*
X145033624Y-160452812D01*
X144999000Y-160278741D01*
X144999000Y-160101259D01*
X145033624Y-159927188D01*
X145101544Y-159763216D01*
X145200147Y-159615646D01*
X145325646Y-159490147D01*
X145473216Y-159391544D01*
X145637188Y-159323624D01*
X145786488Y-159293927D01*
X145811258Y-159289000D01*
X145988742Y-159289000D01*
X146013512Y-159293927D01*
G37*
G36*
X111013512Y-156753927D02*
G01*
X111162812Y-156783624D01*
X111326784Y-156851544D01*
X111474354Y-156950147D01*
X111599853Y-157075646D01*
X111698456Y-157223216D01*
X111766376Y-157387188D01*
X111801000Y-157561259D01*
X111801000Y-157738741D01*
X111766376Y-157912812D01*
X111698456Y-158076784D01*
X111599853Y-158224354D01*
X111474354Y-158349853D01*
X111326784Y-158448456D01*
X111162812Y-158516376D01*
X111013512Y-158546073D01*
X110988742Y-158551000D01*
X110811258Y-158551000D01*
X110786488Y-158546073D01*
X110637188Y-158516376D01*
X110473216Y-158448456D01*
X110325646Y-158349853D01*
X110200147Y-158224354D01*
X110101544Y-158076784D01*
X110033624Y-157912812D01*
X109999000Y-157738741D01*
X109999000Y-157561259D01*
X110033624Y-157387188D01*
X110101544Y-157223216D01*
X110200147Y-157075646D01*
X110325646Y-156950147D01*
X110473216Y-156851544D01*
X110637188Y-156783624D01*
X110786488Y-156753927D01*
X110811258Y-156749000D01*
X110988742Y-156749000D01*
X111013512Y-156753927D01*
G37*
G36*
X146013512Y-156753927D02*
G01*
X146162812Y-156783624D01*
X146326784Y-156851544D01*
X146474354Y-156950147D01*
X146599853Y-157075646D01*
X146698456Y-157223216D01*
X146766376Y-157387188D01*
X146801000Y-157561259D01*
X146801000Y-157738741D01*
X146766376Y-157912812D01*
X146698456Y-158076784D01*
X146599853Y-158224354D01*
X146474354Y-158349853D01*
X146326784Y-158448456D01*
X146162812Y-158516376D01*
X146013512Y-158546073D01*
X145988742Y-158551000D01*
X145811258Y-158551000D01*
X145786488Y-158546073D01*
X145637188Y-158516376D01*
X145473216Y-158448456D01*
X145325646Y-158349853D01*
X145200147Y-158224354D01*
X145101544Y-158076784D01*
X145033624Y-157912812D01*
X144999000Y-157738741D01*
X144999000Y-157561259D01*
X145033624Y-157387188D01*
X145101544Y-157223216D01*
X145200147Y-157075646D01*
X145325646Y-156950147D01*
X145473216Y-156851544D01*
X145637188Y-156783624D01*
X145786488Y-156753927D01*
X145811258Y-156749000D01*
X145988742Y-156749000D01*
X146013512Y-156753927D01*
G37*
G36*
X146013512Y-154213927D02*
G01*
X146162812Y-154243624D01*
X146326784Y-154311544D01*
X146474354Y-154410147D01*
X146599853Y-154535646D01*
X146698456Y-154683216D01*
X146766376Y-154847188D01*
X146801000Y-155021259D01*
X146801000Y-155198741D01*
X146766376Y-155372812D01*
X146698456Y-155536784D01*
X146599853Y-155684354D01*
X146474354Y-155809853D01*
X146326784Y-155908456D01*
X146162812Y-155976376D01*
X146013512Y-156006073D01*
X145988742Y-156011000D01*
X145811258Y-156011000D01*
X145786488Y-156006073D01*
X145637188Y-155976376D01*
X145473216Y-155908456D01*
X145325646Y-155809853D01*
X145200147Y-155684354D01*
X145101544Y-155536784D01*
X145033624Y-155372812D01*
X144999000Y-155198741D01*
X144999000Y-155021259D01*
X145033624Y-154847188D01*
X145101544Y-154683216D01*
X145200147Y-154535646D01*
X145325646Y-154410147D01*
X145473216Y-154311544D01*
X145637188Y-154243624D01*
X145786488Y-154213927D01*
X145811258Y-154209000D01*
X145988742Y-154209000D01*
X146013512Y-154213927D01*
G37*
G36*
X111013512Y-154213927D02*
G01*
X111162812Y-154243624D01*
X111326784Y-154311544D01*
X111474354Y-154410147D01*
X111599853Y-154535646D01*
X111698456Y-154683216D01*
X111766376Y-154847188D01*
X111801000Y-155021259D01*
X111801000Y-155198741D01*
X111766376Y-155372812D01*
X111698456Y-155536784D01*
X111599853Y-155684354D01*
X111474354Y-155809853D01*
X111326784Y-155908456D01*
X111162812Y-155976376D01*
X111013512Y-156006073D01*
X110988742Y-156011000D01*
X110811258Y-156011000D01*
X110786488Y-156006073D01*
X110637188Y-155976376D01*
X110473216Y-155908456D01*
X110325646Y-155809853D01*
X110200147Y-155684354D01*
X110101544Y-155536784D01*
X110033624Y-155372812D01*
X109999000Y-155198741D01*
X109999000Y-155021259D01*
X110033624Y-154847188D01*
X110101544Y-154683216D01*
X110200147Y-154535646D01*
X110325646Y-154410147D01*
X110473216Y-154311544D01*
X110637188Y-154243624D01*
X110786488Y-154213927D01*
X110811258Y-154209000D01*
X110988742Y-154209000D01*
X111013512Y-154213927D01*
G37*
G36*
X146013512Y-151673927D02*
G01*
X146162812Y-151703624D01*
X146326784Y-151771544D01*
X146474354Y-151870147D01*
X146599853Y-151995646D01*
X146698456Y-152143216D01*
X146766376Y-152307188D01*
X146801000Y-152481259D01*
X146801000Y-152658741D01*
X146766376Y-152832812D01*
X146698456Y-152996784D01*
X146599853Y-153144354D01*
X146474354Y-153269853D01*
X146326784Y-153368456D01*
X146162812Y-153436376D01*
X146013512Y-153466073D01*
X145988742Y-153471000D01*
X145811258Y-153471000D01*
X145786488Y-153466073D01*
X145637188Y-153436376D01*
X145473216Y-153368456D01*
X145325646Y-153269853D01*
X145200147Y-153144354D01*
X145101544Y-152996784D01*
X145033624Y-152832812D01*
X144999000Y-152658741D01*
X144999000Y-152481259D01*
X145033624Y-152307188D01*
X145101544Y-152143216D01*
X145200147Y-151995646D01*
X145325646Y-151870147D01*
X145473216Y-151771544D01*
X145637188Y-151703624D01*
X145786488Y-151673927D01*
X145811258Y-151669000D01*
X145988742Y-151669000D01*
X146013512Y-151673927D01*
G37*
G36*
X111013512Y-151673927D02*
G01*
X111162812Y-151703624D01*
X111326784Y-151771544D01*
X111474354Y-151870147D01*
X111599853Y-151995646D01*
X111698456Y-152143216D01*
X111766376Y-152307188D01*
X111801000Y-152481259D01*
X111801000Y-152658741D01*
X111766376Y-152832812D01*
X111698456Y-152996784D01*
X111599853Y-153144354D01*
X111474354Y-153269853D01*
X111326784Y-153368456D01*
X111162812Y-153436376D01*
X111013512Y-153466073D01*
X110988742Y-153471000D01*
X110811258Y-153471000D01*
X110786488Y-153466073D01*
X110637188Y-153436376D01*
X110473216Y-153368456D01*
X110325646Y-153269853D01*
X110200147Y-153144354D01*
X110101544Y-152996784D01*
X110033624Y-152832812D01*
X109999000Y-152658741D01*
X109999000Y-152481259D01*
X110033624Y-152307188D01*
X110101544Y-152143216D01*
X110200147Y-151995646D01*
X110325646Y-151870147D01*
X110473216Y-151771544D01*
X110637188Y-151703624D01*
X110786488Y-151673927D01*
X110811258Y-151669000D01*
X110988742Y-151669000D01*
X111013512Y-151673927D01*
G37*
G36*
X146013512Y-149133927D02*
G01*
X146162812Y-149163624D01*
X146326784Y-149231544D01*
X146474354Y-149330147D01*
X146599853Y-149455646D01*
X146698456Y-149603216D01*
X146766376Y-149767188D01*
X146801000Y-149941259D01*
X146801000Y-150118741D01*
X146766376Y-150292812D01*
X146698456Y-150456784D01*
X146599853Y-150604354D01*
X146474354Y-150729853D01*
X146326784Y-150828456D01*
X146162812Y-150896376D01*
X146013512Y-150926073D01*
X145988742Y-150931000D01*
X145811258Y-150931000D01*
X145786488Y-150926073D01*
X145637188Y-150896376D01*
X145473216Y-150828456D01*
X145325646Y-150729853D01*
X145200147Y-150604354D01*
X145101544Y-150456784D01*
X145033624Y-150292812D01*
X144999000Y-150118741D01*
X144999000Y-149941259D01*
X145033624Y-149767188D01*
X145101544Y-149603216D01*
X145200147Y-149455646D01*
X145325646Y-149330147D01*
X145473216Y-149231544D01*
X145637188Y-149163624D01*
X145786488Y-149133927D01*
X145811258Y-149129000D01*
X145988742Y-149129000D01*
X146013512Y-149133927D01*
G37*
G36*
X111013512Y-149133927D02*
G01*
X111162812Y-149163624D01*
X111326784Y-149231544D01*
X111474354Y-149330147D01*
X111599853Y-149455646D01*
X111698456Y-149603216D01*
X111766376Y-149767188D01*
X111801000Y-149941259D01*
X111801000Y-150118741D01*
X111766376Y-150292812D01*
X111698456Y-150456784D01*
X111599853Y-150604354D01*
X111474354Y-150729853D01*
X111326784Y-150828456D01*
X111162812Y-150896376D01*
X111013512Y-150926073D01*
X110988742Y-150931000D01*
X110811258Y-150931000D01*
X110786488Y-150926073D01*
X110637188Y-150896376D01*
X110473216Y-150828456D01*
X110325646Y-150729853D01*
X110200147Y-150604354D01*
X110101544Y-150456784D01*
X110033624Y-150292812D01*
X109999000Y-150118741D01*
X109999000Y-149941259D01*
X110033624Y-149767188D01*
X110101544Y-149603216D01*
X110200147Y-149455646D01*
X110325646Y-149330147D01*
X110473216Y-149231544D01*
X110637188Y-149163624D01*
X110786488Y-149133927D01*
X110811258Y-149129000D01*
X110988742Y-149129000D01*
X111013512Y-149133927D01*
G37*
G36*
X111013512Y-146593927D02*
G01*
X111162812Y-146623624D01*
X111326784Y-146691544D01*
X111474354Y-146790147D01*
X111599853Y-146915646D01*
X111698456Y-147063216D01*
X111766376Y-147227188D01*
X111801000Y-147401259D01*
X111801000Y-147578741D01*
X111766376Y-147752812D01*
X111698456Y-147916784D01*
X111599853Y-148064354D01*
X111474354Y-148189853D01*
X111326784Y-148288456D01*
X111162812Y-148356376D01*
X111013512Y-148386073D01*
X110988742Y-148391000D01*
X110811258Y-148391000D01*
X110786488Y-148386073D01*
X110637188Y-148356376D01*
X110473216Y-148288456D01*
X110325646Y-148189853D01*
X110200147Y-148064354D01*
X110101544Y-147916784D01*
X110033624Y-147752812D01*
X109999000Y-147578741D01*
X109999000Y-147401259D01*
X110033624Y-147227188D01*
X110101544Y-147063216D01*
X110200147Y-146915646D01*
X110325646Y-146790147D01*
X110473216Y-146691544D01*
X110637188Y-146623624D01*
X110786488Y-146593927D01*
X110811258Y-146589000D01*
X110988742Y-146589000D01*
X111013512Y-146593927D01*
G37*
G36*
X146013512Y-146593927D02*
G01*
X146162812Y-146623624D01*
X146326784Y-146691544D01*
X146474354Y-146790147D01*
X146599853Y-146915646D01*
X146698456Y-147063216D01*
X146766376Y-147227188D01*
X146801000Y-147401259D01*
X146801000Y-147578741D01*
X146766376Y-147752812D01*
X146698456Y-147916784D01*
X146599853Y-148064354D01*
X146474354Y-148189853D01*
X146326784Y-148288456D01*
X146162812Y-148356376D01*
X146013512Y-148386073D01*
X145988742Y-148391000D01*
X145811258Y-148391000D01*
X145786488Y-148386073D01*
X145637188Y-148356376D01*
X145473216Y-148288456D01*
X145325646Y-148189853D01*
X145200147Y-148064354D01*
X145101544Y-147916784D01*
X145033624Y-147752812D01*
X144999000Y-147578741D01*
X144999000Y-147401259D01*
X145033624Y-147227188D01*
X145101544Y-147063216D01*
X145200147Y-146915646D01*
X145325646Y-146790147D01*
X145473216Y-146691544D01*
X145637188Y-146623624D01*
X145786488Y-146593927D01*
X145811258Y-146589000D01*
X145988742Y-146589000D01*
X146013512Y-146593927D01*
G37*
G36*
X146013512Y-144053927D02*
G01*
X146162812Y-144083624D01*
X146326784Y-144151544D01*
X146474354Y-144250147D01*
X146599853Y-144375646D01*
X146698456Y-144523216D01*
X146766376Y-144687188D01*
X146801000Y-144861259D01*
X146801000Y-145038741D01*
X146766376Y-145212812D01*
X146698456Y-145376784D01*
X146599853Y-145524354D01*
X146474354Y-145649853D01*
X146326784Y-145748456D01*
X146162812Y-145816376D01*
X146013512Y-145846073D01*
X145988742Y-145851000D01*
X145811258Y-145851000D01*
X145786488Y-145846073D01*
X145637188Y-145816376D01*
X145473216Y-145748456D01*
X145325646Y-145649853D01*
X145200147Y-145524354D01*
X145101544Y-145376784D01*
X145033624Y-145212812D01*
X144999000Y-145038741D01*
X144999000Y-144861259D01*
X145033624Y-144687188D01*
X145101544Y-144523216D01*
X145200147Y-144375646D01*
X145325646Y-144250147D01*
X145473216Y-144151544D01*
X145637188Y-144083624D01*
X145786488Y-144053927D01*
X145811258Y-144049000D01*
X145988742Y-144049000D01*
X146013512Y-144053927D01*
G37*
G36*
X111013512Y-144053927D02*
G01*
X111162812Y-144083624D01*
X111326784Y-144151544D01*
X111474354Y-144250147D01*
X111599853Y-144375646D01*
X111698456Y-144523216D01*
X111766376Y-144687188D01*
X111801000Y-144861259D01*
X111801000Y-145038741D01*
X111766376Y-145212812D01*
X111698456Y-145376784D01*
X111599853Y-145524354D01*
X111474354Y-145649853D01*
X111326784Y-145748456D01*
X111162812Y-145816376D01*
X111013512Y-145846073D01*
X110988742Y-145851000D01*
X110811258Y-145851000D01*
X110786488Y-145846073D01*
X110637188Y-145816376D01*
X110473216Y-145748456D01*
X110325646Y-145649853D01*
X110200147Y-145524354D01*
X110101544Y-145376784D01*
X110033624Y-145212812D01*
X109999000Y-145038741D01*
X109999000Y-144861259D01*
X110033624Y-144687188D01*
X110101544Y-144523216D01*
X110200147Y-144375646D01*
X110325646Y-144250147D01*
X110473216Y-144151544D01*
X110637188Y-144083624D01*
X110786488Y-144053927D01*
X110811258Y-144049000D01*
X110988742Y-144049000D01*
X111013512Y-144053927D01*
G37*
G36*
X111013512Y-141513927D02*
G01*
X111162812Y-141543624D01*
X111326784Y-141611544D01*
X111474354Y-141710147D01*
X111599853Y-141835646D01*
X111698456Y-141983216D01*
X111766376Y-142147188D01*
X111801000Y-142321259D01*
X111801000Y-142498741D01*
X111766376Y-142672812D01*
X111698456Y-142836784D01*
X111599853Y-142984354D01*
X111474354Y-143109853D01*
X111326784Y-143208456D01*
X111162812Y-143276376D01*
X111013512Y-143306073D01*
X110988742Y-143311000D01*
X110811258Y-143311000D01*
X110786488Y-143306073D01*
X110637188Y-143276376D01*
X110473216Y-143208456D01*
X110325646Y-143109853D01*
X110200147Y-142984354D01*
X110101544Y-142836784D01*
X110033624Y-142672812D01*
X109999000Y-142498741D01*
X109999000Y-142321259D01*
X110033624Y-142147188D01*
X110101544Y-141983216D01*
X110200147Y-141835646D01*
X110325646Y-141710147D01*
X110473216Y-141611544D01*
X110637188Y-141543624D01*
X110786488Y-141513927D01*
X110811258Y-141509000D01*
X110988742Y-141509000D01*
X111013512Y-141513927D01*
G37*
G36*
X146013512Y-141513927D02*
G01*
X146162812Y-141543624D01*
X146326784Y-141611544D01*
X146474354Y-141710147D01*
X146599853Y-141835646D01*
X146698456Y-141983216D01*
X146766376Y-142147188D01*
X146801000Y-142321259D01*
X146801000Y-142498741D01*
X146766376Y-142672812D01*
X146698456Y-142836784D01*
X146599853Y-142984354D01*
X146474354Y-143109853D01*
X146326784Y-143208456D01*
X146162812Y-143276376D01*
X146013512Y-143306073D01*
X145988742Y-143311000D01*
X145811258Y-143311000D01*
X145786488Y-143306073D01*
X145637188Y-143276376D01*
X145473216Y-143208456D01*
X145325646Y-143109853D01*
X145200147Y-142984354D01*
X145101544Y-142836784D01*
X145033624Y-142672812D01*
X144999000Y-142498741D01*
X144999000Y-142321259D01*
X145033624Y-142147188D01*
X145101544Y-141983216D01*
X145200147Y-141835646D01*
X145325646Y-141710147D01*
X145473216Y-141611544D01*
X145637188Y-141543624D01*
X145786488Y-141513927D01*
X145811258Y-141509000D01*
X145988742Y-141509000D01*
X146013512Y-141513927D01*
G37*
G36*
X111013512Y-138973927D02*
G01*
X111162812Y-139003624D01*
X111326784Y-139071544D01*
X111474354Y-139170147D01*
X111599853Y-139295646D01*
X111698456Y-139443216D01*
X111766376Y-139607188D01*
X111801000Y-139781259D01*
X111801000Y-139958741D01*
X111766376Y-140132812D01*
X111698456Y-140296784D01*
X111599853Y-140444354D01*
X111474354Y-140569853D01*
X111326784Y-140668456D01*
X111162812Y-140736376D01*
X111013512Y-140766073D01*
X110988742Y-140771000D01*
X110811258Y-140771000D01*
X110786488Y-140766073D01*
X110637188Y-140736376D01*
X110473216Y-140668456D01*
X110325646Y-140569853D01*
X110200147Y-140444354D01*
X110101544Y-140296784D01*
X110033624Y-140132812D01*
X109999000Y-139958741D01*
X109999000Y-139781259D01*
X110033624Y-139607188D01*
X110101544Y-139443216D01*
X110200147Y-139295646D01*
X110325646Y-139170147D01*
X110473216Y-139071544D01*
X110637188Y-139003624D01*
X110786488Y-138973927D01*
X110811258Y-138969000D01*
X110988742Y-138969000D01*
X111013512Y-138973927D01*
G37*
G36*
X146013512Y-138973927D02*
G01*
X146162812Y-139003624D01*
X146326784Y-139071544D01*
X146474354Y-139170147D01*
X146599853Y-139295646D01*
X146698456Y-139443216D01*
X146766376Y-139607188D01*
X146801000Y-139781259D01*
X146801000Y-139958741D01*
X146766376Y-140132812D01*
X146698456Y-140296784D01*
X146599853Y-140444354D01*
X146474354Y-140569853D01*
X146326784Y-140668456D01*
X146162812Y-140736376D01*
X146013512Y-140766073D01*
X145988742Y-140771000D01*
X145811258Y-140771000D01*
X145786488Y-140766073D01*
X145637188Y-140736376D01*
X145473216Y-140668456D01*
X145325646Y-140569853D01*
X145200147Y-140444354D01*
X145101544Y-140296784D01*
X145033624Y-140132812D01*
X144999000Y-139958741D01*
X144999000Y-139781259D01*
X145033624Y-139607188D01*
X145101544Y-139443216D01*
X145200147Y-139295646D01*
X145325646Y-139170147D01*
X145473216Y-139071544D01*
X145637188Y-139003624D01*
X145786488Y-138973927D01*
X145811258Y-138969000D01*
X145988742Y-138969000D01*
X146013512Y-138973927D01*
G37*
G36*
X111013512Y-136433927D02*
G01*
X111162812Y-136463624D01*
X111326784Y-136531544D01*
X111474354Y-136630147D01*
X111599853Y-136755646D01*
X111698456Y-136903216D01*
X111766376Y-137067188D01*
X111801000Y-137241259D01*
X111801000Y-137418741D01*
X111766376Y-137592812D01*
X111698456Y-137756784D01*
X111599853Y-137904354D01*
X111474354Y-138029853D01*
X111326784Y-138128456D01*
X111162812Y-138196376D01*
X111013512Y-138226073D01*
X110988742Y-138231000D01*
X110811258Y-138231000D01*
X110786488Y-138226073D01*
X110637188Y-138196376D01*
X110473216Y-138128456D01*
X110325646Y-138029853D01*
X110200147Y-137904354D01*
X110101544Y-137756784D01*
X110033624Y-137592812D01*
X109999000Y-137418741D01*
X109999000Y-137241259D01*
X110033624Y-137067188D01*
X110101544Y-136903216D01*
X110200147Y-136755646D01*
X110325646Y-136630147D01*
X110473216Y-136531544D01*
X110637188Y-136463624D01*
X110786488Y-136433927D01*
X110811258Y-136429000D01*
X110988742Y-136429000D01*
X111013512Y-136433927D01*
G37*
G36*
X146013512Y-136433927D02*
G01*
X146162812Y-136463624D01*
X146326784Y-136531544D01*
X146474354Y-136630147D01*
X146599853Y-136755646D01*
X146698456Y-136903216D01*
X146766376Y-137067188D01*
X146801000Y-137241259D01*
X146801000Y-137418741D01*
X146766376Y-137592812D01*
X146698456Y-137756784D01*
X146599853Y-137904354D01*
X146474354Y-138029853D01*
X146326784Y-138128456D01*
X146162812Y-138196376D01*
X146013512Y-138226073D01*
X145988742Y-138231000D01*
X145811258Y-138231000D01*
X145786488Y-138226073D01*
X145637188Y-138196376D01*
X145473216Y-138128456D01*
X145325646Y-138029853D01*
X145200147Y-137904354D01*
X145101544Y-137756784D01*
X145033624Y-137592812D01*
X144999000Y-137418741D01*
X144999000Y-137241259D01*
X145033624Y-137067188D01*
X145101544Y-136903216D01*
X145200147Y-136755646D01*
X145325646Y-136630147D01*
X145473216Y-136531544D01*
X145637188Y-136463624D01*
X145786488Y-136433927D01*
X145811258Y-136429000D01*
X145988742Y-136429000D01*
X146013512Y-136433927D01*
G37*
G36*
X146013512Y-133893927D02*
G01*
X146162812Y-133923624D01*
X146326784Y-133991544D01*
X146474354Y-134090147D01*
X146599853Y-134215646D01*
X146698456Y-134363216D01*
X146766376Y-134527188D01*
X146801000Y-134701259D01*
X146801000Y-134878741D01*
X146766376Y-135052812D01*
X146698456Y-135216784D01*
X146599853Y-135364354D01*
X146474354Y-135489853D01*
X146326784Y-135588456D01*
X146162812Y-135656376D01*
X146013512Y-135686073D01*
X145988742Y-135691000D01*
X145811258Y-135691000D01*
X145786488Y-135686073D01*
X145637188Y-135656376D01*
X145473216Y-135588456D01*
X145325646Y-135489853D01*
X145200147Y-135364354D01*
X145101544Y-135216784D01*
X145033624Y-135052812D01*
X144999000Y-134878741D01*
X144999000Y-134701259D01*
X145033624Y-134527188D01*
X145101544Y-134363216D01*
X145200147Y-134215646D01*
X145325646Y-134090147D01*
X145473216Y-133991544D01*
X145637188Y-133923624D01*
X145786488Y-133893927D01*
X145811258Y-133889000D01*
X145988742Y-133889000D01*
X146013512Y-133893927D01*
G37*
G36*
X111013512Y-133893927D02*
G01*
X111162812Y-133923624D01*
X111326784Y-133991544D01*
X111474354Y-134090147D01*
X111599853Y-134215646D01*
X111698456Y-134363216D01*
X111766376Y-134527188D01*
X111801000Y-134701259D01*
X111801000Y-134878741D01*
X111766376Y-135052812D01*
X111698456Y-135216784D01*
X111599853Y-135364354D01*
X111474354Y-135489853D01*
X111326784Y-135588456D01*
X111162812Y-135656376D01*
X111013512Y-135686073D01*
X110988742Y-135691000D01*
X110811258Y-135691000D01*
X110786488Y-135686073D01*
X110637188Y-135656376D01*
X110473216Y-135588456D01*
X110325646Y-135489853D01*
X110200147Y-135364354D01*
X110101544Y-135216784D01*
X110033624Y-135052812D01*
X109999000Y-134878741D01*
X109999000Y-134701259D01*
X110033624Y-134527188D01*
X110101544Y-134363216D01*
X110200147Y-134215646D01*
X110325646Y-134090147D01*
X110473216Y-133991544D01*
X110637188Y-133923624D01*
X110786488Y-133893927D01*
X110811258Y-133889000D01*
X110988742Y-133889000D01*
X111013512Y-133893927D01*
G37*
G36*
X146013512Y-131353927D02*
G01*
X146162812Y-131383624D01*
X146326784Y-131451544D01*
X146474354Y-131550147D01*
X146599853Y-131675646D01*
X146698456Y-131823216D01*
X146766376Y-131987188D01*
X146801000Y-132161259D01*
X146801000Y-132338741D01*
X146766376Y-132512812D01*
X146698456Y-132676784D01*
X146599853Y-132824354D01*
X146474354Y-132949853D01*
X146326784Y-133048456D01*
X146162812Y-133116376D01*
X146013512Y-133146073D01*
X145988742Y-133151000D01*
X145811258Y-133151000D01*
X145786488Y-133146073D01*
X145637188Y-133116376D01*
X145473216Y-133048456D01*
X145325646Y-132949853D01*
X145200147Y-132824354D01*
X145101544Y-132676784D01*
X145033624Y-132512812D01*
X144999000Y-132338741D01*
X144999000Y-132161259D01*
X145033624Y-131987188D01*
X145101544Y-131823216D01*
X145200147Y-131675646D01*
X145325646Y-131550147D01*
X145473216Y-131451544D01*
X145637188Y-131383624D01*
X145786488Y-131353927D01*
X145811258Y-131349000D01*
X145988742Y-131349000D01*
X146013512Y-131353927D01*
G37*
G36*
X111013512Y-131353927D02*
G01*
X111162812Y-131383624D01*
X111326784Y-131451544D01*
X111474354Y-131550147D01*
X111599853Y-131675646D01*
X111698456Y-131823216D01*
X111766376Y-131987188D01*
X111801000Y-132161259D01*
X111801000Y-132338741D01*
X111766376Y-132512812D01*
X111698456Y-132676784D01*
X111599853Y-132824354D01*
X111474354Y-132949853D01*
X111326784Y-133048456D01*
X111162812Y-133116376D01*
X111013512Y-133146073D01*
X110988742Y-133151000D01*
X110811258Y-133151000D01*
X110786488Y-133146073D01*
X110637188Y-133116376D01*
X110473216Y-133048456D01*
X110325646Y-132949853D01*
X110200147Y-132824354D01*
X110101544Y-132676784D01*
X110033624Y-132512812D01*
X109999000Y-132338741D01*
X109999000Y-132161259D01*
X110033624Y-131987188D01*
X110101544Y-131823216D01*
X110200147Y-131675646D01*
X110325646Y-131550147D01*
X110473216Y-131451544D01*
X110637188Y-131383624D01*
X110786488Y-131353927D01*
X110811258Y-131349000D01*
X110988742Y-131349000D01*
X111013512Y-131353927D01*
G37*
G36*
X146013512Y-128813927D02*
G01*
X146162812Y-128843624D01*
X146326784Y-128911544D01*
X146474354Y-129010147D01*
X146599853Y-129135646D01*
X146698456Y-129283216D01*
X146766376Y-129447188D01*
X146801000Y-129621259D01*
X146801000Y-129798741D01*
X146766376Y-129972812D01*
X146698456Y-130136784D01*
X146599853Y-130284354D01*
X146474354Y-130409853D01*
X146326784Y-130508456D01*
X146162812Y-130576376D01*
X146013512Y-130606073D01*
X145988742Y-130611000D01*
X145811258Y-130611000D01*
X145786488Y-130606073D01*
X145637188Y-130576376D01*
X145473216Y-130508456D01*
X145325646Y-130409853D01*
X145200147Y-130284354D01*
X145101544Y-130136784D01*
X145033624Y-129972812D01*
X144999000Y-129798741D01*
X144999000Y-129621259D01*
X145033624Y-129447188D01*
X145101544Y-129283216D01*
X145200147Y-129135646D01*
X145325646Y-129010147D01*
X145473216Y-128911544D01*
X145637188Y-128843624D01*
X145786488Y-128813927D01*
X145811258Y-128809000D01*
X145988742Y-128809000D01*
X146013512Y-128813927D01*
G37*
G36*
X111013512Y-128813927D02*
G01*
X111162812Y-128843624D01*
X111326784Y-128911544D01*
X111474354Y-129010147D01*
X111599853Y-129135646D01*
X111698456Y-129283216D01*
X111766376Y-129447188D01*
X111801000Y-129621259D01*
X111801000Y-129798741D01*
X111766376Y-129972812D01*
X111698456Y-130136784D01*
X111599853Y-130284354D01*
X111474354Y-130409853D01*
X111326784Y-130508456D01*
X111162812Y-130576376D01*
X111013512Y-130606073D01*
X110988742Y-130611000D01*
X110811258Y-130611000D01*
X110786488Y-130606073D01*
X110637188Y-130576376D01*
X110473216Y-130508456D01*
X110325646Y-130409853D01*
X110200147Y-130284354D01*
X110101544Y-130136784D01*
X110033624Y-129972812D01*
X109999000Y-129798741D01*
X109999000Y-129621259D01*
X110033624Y-129447188D01*
X110101544Y-129283216D01*
X110200147Y-129135646D01*
X110325646Y-129010147D01*
X110473216Y-128911544D01*
X110637188Y-128843624D01*
X110786488Y-128813927D01*
X110811258Y-128809000D01*
X110988742Y-128809000D01*
X111013512Y-128813927D01*
G37*
G36*
X146013512Y-126273927D02*
G01*
X146162812Y-126303624D01*
X146326784Y-126371544D01*
X146474354Y-126470147D01*
X146599853Y-126595646D01*
X146698456Y-126743216D01*
X146766376Y-126907188D01*
X146801000Y-127081259D01*
X146801000Y-127258741D01*
X146766376Y-127432812D01*
X146698456Y-127596784D01*
X146599853Y-127744354D01*
X146474354Y-127869853D01*
X146326784Y-127968456D01*
X146162812Y-128036376D01*
X146013512Y-128066073D01*
X145988742Y-128071000D01*
X145811258Y-128071000D01*
X145786488Y-128066073D01*
X145637188Y-128036376D01*
X145473216Y-127968456D01*
X145325646Y-127869853D01*
X145200147Y-127744354D01*
X145101544Y-127596784D01*
X145033624Y-127432812D01*
X144999000Y-127258741D01*
X144999000Y-127081259D01*
X145033624Y-126907188D01*
X145101544Y-126743216D01*
X145200147Y-126595646D01*
X145325646Y-126470147D01*
X145473216Y-126371544D01*
X145637188Y-126303624D01*
X145786488Y-126273927D01*
X145811258Y-126269000D01*
X145988742Y-126269000D01*
X146013512Y-126273927D01*
G37*
G36*
X111013512Y-126273927D02*
G01*
X111162812Y-126303624D01*
X111326784Y-126371544D01*
X111474354Y-126470147D01*
X111599853Y-126595646D01*
X111698456Y-126743216D01*
X111766376Y-126907188D01*
X111801000Y-127081259D01*
X111801000Y-127258741D01*
X111766376Y-127432812D01*
X111698456Y-127596784D01*
X111599853Y-127744354D01*
X111474354Y-127869853D01*
X111326784Y-127968456D01*
X111162812Y-128036376D01*
X111013512Y-128066073D01*
X110988742Y-128071000D01*
X110811258Y-128071000D01*
X110786488Y-128066073D01*
X110637188Y-128036376D01*
X110473216Y-127968456D01*
X110325646Y-127869853D01*
X110200147Y-127744354D01*
X110101544Y-127596784D01*
X110033624Y-127432812D01*
X109999000Y-127258741D01*
X109999000Y-127081259D01*
X110033624Y-126907188D01*
X110101544Y-126743216D01*
X110200147Y-126595646D01*
X110325646Y-126470147D01*
X110473216Y-126371544D01*
X110637188Y-126303624D01*
X110786488Y-126273927D01*
X110811258Y-126269000D01*
X110988742Y-126269000D01*
X111013512Y-126273927D01*
G37*
G36*
X146013512Y-123733927D02*
G01*
X146162812Y-123763624D01*
X146326784Y-123831544D01*
X146474354Y-123930147D01*
X146599853Y-124055646D01*
X146698456Y-124203216D01*
X146766376Y-124367188D01*
X146801000Y-124541259D01*
X146801000Y-124718741D01*
X146766376Y-124892812D01*
X146698456Y-125056784D01*
X146599853Y-125204354D01*
X146474354Y-125329853D01*
X146326784Y-125428456D01*
X146162812Y-125496376D01*
X146013512Y-125526073D01*
X145988742Y-125531000D01*
X145811258Y-125531000D01*
X145786488Y-125526073D01*
X145637188Y-125496376D01*
X145473216Y-125428456D01*
X145325646Y-125329853D01*
X145200147Y-125204354D01*
X145101544Y-125056784D01*
X145033624Y-124892812D01*
X144999000Y-124718741D01*
X144999000Y-124541259D01*
X145033624Y-124367188D01*
X145101544Y-124203216D01*
X145200147Y-124055646D01*
X145325646Y-123930147D01*
X145473216Y-123831544D01*
X145637188Y-123763624D01*
X145786488Y-123733927D01*
X145811258Y-123729000D01*
X145988742Y-123729000D01*
X146013512Y-123733927D01*
G37*
G36*
X111013512Y-123733927D02*
G01*
X111162812Y-123763624D01*
X111326784Y-123831544D01*
X111474354Y-123930147D01*
X111599853Y-124055646D01*
X111698456Y-124203216D01*
X111766376Y-124367188D01*
X111801000Y-124541259D01*
X111801000Y-124718741D01*
X111766376Y-124892812D01*
X111698456Y-125056784D01*
X111599853Y-125204354D01*
X111474354Y-125329853D01*
X111326784Y-125428456D01*
X111162812Y-125496376D01*
X111013512Y-125526073D01*
X110988742Y-125531000D01*
X110811258Y-125531000D01*
X110786488Y-125526073D01*
X110637188Y-125496376D01*
X110473216Y-125428456D01*
X110325646Y-125329853D01*
X110200147Y-125204354D01*
X110101544Y-125056784D01*
X110033624Y-124892812D01*
X109999000Y-124718741D01*
X109999000Y-124541259D01*
X110033624Y-124367188D01*
X110101544Y-124203216D01*
X110200147Y-124055646D01*
X110325646Y-123930147D01*
X110473216Y-123831544D01*
X110637188Y-123763624D01*
X110786488Y-123733927D01*
X110811258Y-123729000D01*
X110988742Y-123729000D01*
X111013512Y-123733927D01*
G37*
G36*
X146013512Y-121193927D02*
G01*
X146162812Y-121223624D01*
X146326784Y-121291544D01*
X146474354Y-121390147D01*
X146599853Y-121515646D01*
X146698456Y-121663216D01*
X146766376Y-121827188D01*
X146801000Y-122001259D01*
X146801000Y-122178741D01*
X146766376Y-122352812D01*
X146698456Y-122516784D01*
X146599853Y-122664354D01*
X146474354Y-122789853D01*
X146326784Y-122888456D01*
X146162812Y-122956376D01*
X146013512Y-122986073D01*
X145988742Y-122991000D01*
X145811258Y-122991000D01*
X145786488Y-122986073D01*
X145637188Y-122956376D01*
X145473216Y-122888456D01*
X145325646Y-122789853D01*
X145200147Y-122664354D01*
X145101544Y-122516784D01*
X145033624Y-122352812D01*
X144999000Y-122178741D01*
X144999000Y-122001259D01*
X145033624Y-121827188D01*
X145101544Y-121663216D01*
X145200147Y-121515646D01*
X145325646Y-121390147D01*
X145473216Y-121291544D01*
X145637188Y-121223624D01*
X145786488Y-121193927D01*
X145811258Y-121189000D01*
X145988742Y-121189000D01*
X146013512Y-121193927D01*
G37*
G36*
X111013512Y-121193927D02*
G01*
X111162812Y-121223624D01*
X111326784Y-121291544D01*
X111474354Y-121390147D01*
X111599853Y-121515646D01*
X111698456Y-121663216D01*
X111766376Y-121827188D01*
X111801000Y-122001259D01*
X111801000Y-122178741D01*
X111766376Y-122352812D01*
X111698456Y-122516784D01*
X111599853Y-122664354D01*
X111474354Y-122789853D01*
X111326784Y-122888456D01*
X111162812Y-122956376D01*
X111013512Y-122986073D01*
X110988742Y-122991000D01*
X110811258Y-122991000D01*
X110786488Y-122986073D01*
X110637188Y-122956376D01*
X110473216Y-122888456D01*
X110325646Y-122789853D01*
X110200147Y-122664354D01*
X110101544Y-122516784D01*
X110033624Y-122352812D01*
X109999000Y-122178741D01*
X109999000Y-122001259D01*
X110033624Y-121827188D01*
X110101544Y-121663216D01*
X110200147Y-121515646D01*
X110325646Y-121390147D01*
X110473216Y-121291544D01*
X110637188Y-121223624D01*
X110786488Y-121193927D01*
X110811258Y-121189000D01*
X110988742Y-121189000D01*
X111013512Y-121193927D01*
G37*
G36*
X111801000Y-120451000D02*
G01*
X109999000Y-120451000D01*
X109999000Y-118649000D01*
X111801000Y-118649000D01*
X111801000Y-120451000D01*
G37*
G36*
X146801000Y-120451000D02*
G01*
X144999000Y-120451000D01*
X144999000Y-118649000D01*
X146801000Y-118649000D01*
X146801000Y-120451000D01*
G37*
G36*
X146114794Y-113870155D02*
G01*
X146221150Y-113891311D01*
X146321334Y-113932809D01*
X146421520Y-113974307D01*
X146601844Y-114094795D01*
X146755205Y-114248156D01*
X146875693Y-114428480D01*
X146958689Y-114628851D01*
X147001000Y-114841560D01*
X147001000Y-115058440D01*
X146958689Y-115271149D01*
X146875693Y-115471520D01*
X146755205Y-115651844D01*
X146601844Y-115805205D01*
X146421520Y-115925693D01*
X146321334Y-115967191D01*
X146221150Y-116008689D01*
X146114795Y-116029844D01*
X146008440Y-116051000D01*
X145791560Y-116051000D01*
X145685205Y-116029844D01*
X145578850Y-116008689D01*
X145478666Y-115967191D01*
X145378480Y-115925693D01*
X145198156Y-115805205D01*
X145044795Y-115651844D01*
X144924307Y-115471520D01*
X144841311Y-115271149D01*
X144799000Y-115058440D01*
X144799000Y-114841560D01*
X144841311Y-114628851D01*
X144924307Y-114428480D01*
X145044795Y-114248156D01*
X145198156Y-114094795D01*
X145378480Y-113974307D01*
X145478666Y-113932809D01*
X145578850Y-113891311D01*
X145685206Y-113870155D01*
X145791560Y-113849000D01*
X146008440Y-113849000D01*
X146114794Y-113870155D01*
G37*
G36*
X111114794Y-113870155D02*
G01*
X111221150Y-113891311D01*
X111321334Y-113932809D01*
X111421520Y-113974307D01*
X111601844Y-114094795D01*
X111755205Y-114248156D01*
X111875693Y-114428480D01*
X111958689Y-114628851D01*
X112001000Y-114841560D01*
X112001000Y-115058440D01*
X111958689Y-115271149D01*
X111875693Y-115471520D01*
X111755205Y-115651844D01*
X111601844Y-115805205D01*
X111421520Y-115925693D01*
X111321334Y-115967191D01*
X111221150Y-116008689D01*
X111114795Y-116029844D01*
X111008440Y-116051000D01*
X110791560Y-116051000D01*
X110685205Y-116029844D01*
X110578850Y-116008689D01*
X110478666Y-115967191D01*
X110378480Y-115925693D01*
X110198156Y-115805205D01*
X110044795Y-115651844D01*
X109924307Y-115471520D01*
X109841311Y-115271149D01*
X109799000Y-115058440D01*
X109799000Y-114841560D01*
X109841311Y-114628851D01*
X109924307Y-114428480D01*
X110044795Y-114248156D01*
X110198156Y-114094795D01*
X110378480Y-113974307D01*
X110478666Y-113932809D01*
X110578850Y-113891311D01*
X110685206Y-113870155D01*
X110791560Y-113849000D01*
X111008440Y-113849000D01*
X111114794Y-113870155D01*
G37*
M02*
