M48
; DRILL file {KiCad (5.1.5)-3} date 19/02/2020 21:31:56
; FORMAT={3:3/ absolute / metric / suppress leading zeros}
; #@! TF.CreationDate,2020-02-19T21:31:56-08:00
; #@! TF.GenerationSoftware,Kicad,Pcbnew,(5.1.5)-3
; #@! TF.FileFunction,Plated,1,2,PTH
FMAT,2
METRIC,TZ
T1C0.300
T2C1.000
%
G90
G05
T1
X109650Y-117100
X109650Y-123100
X109650Y-166600
X109650Y-170350
X112650Y-116350
X112650Y-121600
X112650Y-150100
X112650Y-153850
X112650Y-158350
X112650Y-163600
X112650Y-167350
X112650Y-173350
X113400Y-170350
X114150Y-114100
X114150Y-118600
X114150Y-126100
X114150Y-156100
X114150Y-161350
X114900Y-147850
X114900Y-151600
X115650Y-123850
X115650Y-159100
X115650Y-164350
X115650Y-168100
X115650Y-171850
X116400Y-115600
X116400Y-127600
X117150Y-145600
X117150Y-149350
X117150Y-156850
X117900Y-117850
X117900Y-122350
X117900Y-129850
X117900Y-161350
X117900Y-166600
X117900Y-170350
X118650Y-114100
X118650Y-154600
X118650Y-173350
X119400Y-147100
X119400Y-158350
X119400Y-163600
X119750Y-143825
X120150Y-116350
X120150Y-168100
X120900Y-124600
X120900Y-128350
X120900Y-141850
X120900Y-152350
X120900Y-156100
X120900Y-171100
X121650Y-131350
X121650Y-145600
X121650Y-161350
X122400Y-114100
X122400Y-165850
X122400Y-173350
X122575Y-141550
X123100Y-132350
X123125Y-146000
X123150Y-126850
X123150Y-150100
X123150Y-153850
X123150Y-157600
X123150Y-168850
X123525Y-114625
X123550Y-125650
X123900Y-129850
X124050Y-143325
X124650Y-122350
X124650Y-163600
X124650Y-171100
X124700Y-116950
X124700Y-117750
X125400Y-125350
X125400Y-132100
X125400Y-155350
X125400Y-166600
X125650Y-153850
X126150Y-128350
X126150Y-173350
X126225Y-151875
X126300Y-133400
X126350Y-136225
X126900Y-120850
X126900Y-138100
X126900Y-141850
X126900Y-153850
X126900Y-161350
X126900Y-168850
X127650Y-123850
X127650Y-164350
X128400Y-129850
X128400Y-171100
X128625Y-131575
X128625Y-141325
X128950Y-148375
X129150Y-144850
X129150Y-150100
X129150Y-153850
X129150Y-159100
X129150Y-166600
X129300Y-141875
X129900Y-118600
X129900Y-138850
X129900Y-162100
X129900Y-173350
X130650Y-121600
X130650Y-125350
X130650Y-168850
X131400Y-128350
X131400Y-156850
X131400Y-164350
X132025Y-117375
X132150Y-135100
X132150Y-149350
X132150Y-153100
X132150Y-159850
X132150Y-171100
X132900Y-119350
X132900Y-123100
X132900Y-166600
X133000Y-147600
X133200Y-114800
X133650Y-126100
X133650Y-143350
X133650Y-155350
X133650Y-162100
X133650Y-173350
X134400Y-114100
X134400Y-147850
X134400Y-151600
X134400Y-158350
X134400Y-168850
X135150Y-117100
X135150Y-120850
X135150Y-129850
X135150Y-134350
X135150Y-164350
X135500Y-136600
X135900Y-123850
X135900Y-145600
X135900Y-153850
X135900Y-160600
X135900Y-171100
X136650Y-136600
X136650Y-149350
X136650Y-156850
X136650Y-166600
X137400Y-114850
X137400Y-118600
X137400Y-127600
X137400Y-162850
X137400Y-173350
X138150Y-121600
X138150Y-138850
X138150Y-151600
X138150Y-159100
X138150Y-168850
X138900Y-129850
X138900Y-134350
X138900Y-154600
X138900Y-165100
X139650Y-117100
X139650Y-126100
X139650Y-161350
X139650Y-171100
X140400Y-114100
X140400Y-120100
X140400Y-136600
X140400Y-140350
X140400Y-150100
X140400Y-156850
X140400Y-167350
X141150Y-123850
X141150Y-153100
X141150Y-163600
X141150Y-173350
X141900Y-143350
X141900Y-169600
X142650Y-138100
X142650Y-165850
X143400Y-114850
X143400Y-118600
X143400Y-125350
X143400Y-141100
X143400Y-171850
X144150Y-146350
X144150Y-168100
X146400Y-117100
X146400Y-169600
X147150Y-166600
T2
X110900Y-119550
X110900Y-122090
X110900Y-124630
X110900Y-127170
X110900Y-129710
X110900Y-132250
X110900Y-134790
X110900Y-137330
X110900Y-139870
X110900Y-142410
X110900Y-144950
X110900Y-147490
X110900Y-150030
X110900Y-152570
X110900Y-155110
X110900Y-157650
X110900Y-160190
X110900Y-162730
X110900Y-165270
X110900Y-167810
X145900Y-119550
X145900Y-122090
X145900Y-124630
X145900Y-127170
X145900Y-129710
X145900Y-132250
X145900Y-134790
X145900Y-137330
X145900Y-139870
X145900Y-142410
X145900Y-144950
X145900Y-147490
X145900Y-150030
X145900Y-152570
X145900Y-155110
X145900Y-157650
X145900Y-160190
X145900Y-162730
X145900Y-165270
X145900Y-167810
T0
M30
