G04 #@! TF.GenerationSoftware,KiCad,Pcbnew,(5.1.5)-3*
G04 #@! TF.CreationDate,2020-02-16T15:54:26-08:00*
G04 #@! TF.ProjectId,SimpleF303,53696d70-6c65-4463-9330-332e6b696361,0.1*
G04 #@! TF.SameCoordinates,Original*
G04 #@! TF.FileFunction,Soldermask,Top*
G04 #@! TF.FilePolarity,Negative*
%FSLAX46Y46*%
G04 Gerber Fmt 4.6, Leading zero omitted, Abs format (unit mm)*
G04 Created by KiCad (PCBNEW (5.1.5)-3) date 2020-02-16 15:54:26*
%MOMM*%
%LPD*%
G04 APERTURE LIST*
%ADD10C,0.100000*%
G04 APERTURE END LIST*
D10*
G36*
X146114794Y-170870155D02*
G01*
X146221150Y-170891311D01*
X146421520Y-170974307D01*
X146601844Y-171094795D01*
X146755205Y-171248156D01*
X146875693Y-171428480D01*
X146958689Y-171628851D01*
X147001000Y-171841560D01*
X147001000Y-172058440D01*
X146958689Y-172271149D01*
X146875693Y-172471520D01*
X146755205Y-172651844D01*
X146601844Y-172805205D01*
X146421520Y-172925693D01*
X146321334Y-172967191D01*
X146221150Y-173008689D01*
X146114795Y-173029844D01*
X146008440Y-173051000D01*
X145791560Y-173051000D01*
X145685205Y-173029844D01*
X145578850Y-173008689D01*
X145478666Y-172967191D01*
X145378480Y-172925693D01*
X145198156Y-172805205D01*
X145044795Y-172651844D01*
X144924307Y-172471520D01*
X144841311Y-172271149D01*
X144799000Y-172058440D01*
X144799000Y-171841560D01*
X144841311Y-171628851D01*
X144924307Y-171428480D01*
X145044795Y-171248156D01*
X145198156Y-171094795D01*
X145378480Y-170974307D01*
X145478666Y-170932809D01*
X145578850Y-170891311D01*
X145685206Y-170870155D01*
X145791560Y-170849000D01*
X146008440Y-170849000D01*
X146114794Y-170870155D01*
G37*
G36*
X111114794Y-170870155D02*
G01*
X111221150Y-170891311D01*
X111421520Y-170974307D01*
X111601844Y-171094795D01*
X111755205Y-171248156D01*
X111875693Y-171428480D01*
X111958689Y-171628851D01*
X112001000Y-171841560D01*
X112001000Y-172058440D01*
X111958689Y-172271149D01*
X111875693Y-172471520D01*
X111755205Y-172651844D01*
X111601844Y-172805205D01*
X111421520Y-172925693D01*
X111321334Y-172967191D01*
X111221150Y-173008689D01*
X111114795Y-173029844D01*
X111008440Y-173051000D01*
X110791560Y-173051000D01*
X110685205Y-173029844D01*
X110578850Y-173008689D01*
X110478666Y-172967191D01*
X110378480Y-172925693D01*
X110198156Y-172805205D01*
X110044795Y-172651844D01*
X109924307Y-172471520D01*
X109841311Y-172271149D01*
X109799000Y-172058440D01*
X109799000Y-171841560D01*
X109841311Y-171628851D01*
X109924307Y-171428480D01*
X110044795Y-171248156D01*
X110198156Y-171094795D01*
X110378480Y-170974307D01*
X110578850Y-170891311D01*
X110685206Y-170870155D01*
X110791560Y-170849000D01*
X111008440Y-170849000D01*
X111114794Y-170870155D01*
G37*
G36*
X111013512Y-166913927D02*
G01*
X111162812Y-166943624D01*
X111326784Y-167011544D01*
X111474354Y-167110147D01*
X111599853Y-167235646D01*
X111698456Y-167383216D01*
X111766376Y-167547188D01*
X111801000Y-167721259D01*
X111801000Y-167898741D01*
X111766376Y-168072812D01*
X111698456Y-168236784D01*
X111599853Y-168384354D01*
X111474354Y-168509853D01*
X111326784Y-168608456D01*
X111162812Y-168676376D01*
X111013512Y-168706073D01*
X110988742Y-168711000D01*
X110811258Y-168711000D01*
X110786488Y-168706073D01*
X110637188Y-168676376D01*
X110473216Y-168608456D01*
X110325646Y-168509853D01*
X110200147Y-168384354D01*
X110101544Y-168236784D01*
X110033624Y-168072812D01*
X109999000Y-167898741D01*
X109999000Y-167721259D01*
X110033624Y-167547188D01*
X110101544Y-167383216D01*
X110200147Y-167235646D01*
X110325646Y-167110147D01*
X110473216Y-167011544D01*
X110637188Y-166943624D01*
X110786488Y-166913927D01*
X110811258Y-166909000D01*
X110988742Y-166909000D01*
X111013512Y-166913927D01*
G37*
G36*
X146013512Y-166913927D02*
G01*
X146162812Y-166943624D01*
X146326784Y-167011544D01*
X146474354Y-167110147D01*
X146599853Y-167235646D01*
X146698456Y-167383216D01*
X146766376Y-167547188D01*
X146801000Y-167721259D01*
X146801000Y-167898741D01*
X146766376Y-168072812D01*
X146698456Y-168236784D01*
X146599853Y-168384354D01*
X146474354Y-168509853D01*
X146326784Y-168608456D01*
X146162812Y-168676376D01*
X146013512Y-168706073D01*
X145988742Y-168711000D01*
X145811258Y-168711000D01*
X145786488Y-168706073D01*
X145637188Y-168676376D01*
X145473216Y-168608456D01*
X145325646Y-168509853D01*
X145200147Y-168384354D01*
X145101544Y-168236784D01*
X145033624Y-168072812D01*
X144999000Y-167898741D01*
X144999000Y-167721259D01*
X145033624Y-167547188D01*
X145101544Y-167383216D01*
X145200147Y-167235646D01*
X145325646Y-167110147D01*
X145473216Y-167011544D01*
X145637188Y-166943624D01*
X145786488Y-166913927D01*
X145811258Y-166909000D01*
X145988742Y-166909000D01*
X146013512Y-166913927D01*
G37*
G36*
X111013512Y-164373927D02*
G01*
X111162812Y-164403624D01*
X111326784Y-164471544D01*
X111474354Y-164570147D01*
X111599853Y-164695646D01*
X111698456Y-164843216D01*
X111766376Y-165007188D01*
X111801000Y-165181259D01*
X111801000Y-165358741D01*
X111766376Y-165532812D01*
X111698456Y-165696784D01*
X111599853Y-165844354D01*
X111474354Y-165969853D01*
X111326784Y-166068456D01*
X111162812Y-166136376D01*
X111013512Y-166166073D01*
X110988742Y-166171000D01*
X110811258Y-166171000D01*
X110786488Y-166166073D01*
X110637188Y-166136376D01*
X110473216Y-166068456D01*
X110325646Y-165969853D01*
X110200147Y-165844354D01*
X110101544Y-165696784D01*
X110033624Y-165532812D01*
X109999000Y-165358741D01*
X109999000Y-165181259D01*
X110033624Y-165007188D01*
X110101544Y-164843216D01*
X110200147Y-164695646D01*
X110325646Y-164570147D01*
X110473216Y-164471544D01*
X110637188Y-164403624D01*
X110786488Y-164373927D01*
X110811258Y-164369000D01*
X110988742Y-164369000D01*
X111013512Y-164373927D01*
G37*
G36*
X146013512Y-164373927D02*
G01*
X146162812Y-164403624D01*
X146326784Y-164471544D01*
X146474354Y-164570147D01*
X146599853Y-164695646D01*
X146698456Y-164843216D01*
X146766376Y-165007188D01*
X146801000Y-165181259D01*
X146801000Y-165358741D01*
X146766376Y-165532812D01*
X146698456Y-165696784D01*
X146599853Y-165844354D01*
X146474354Y-165969853D01*
X146326784Y-166068456D01*
X146162812Y-166136376D01*
X146013512Y-166166073D01*
X145988742Y-166171000D01*
X145811258Y-166171000D01*
X145786488Y-166166073D01*
X145637188Y-166136376D01*
X145473216Y-166068456D01*
X145325646Y-165969853D01*
X145200147Y-165844354D01*
X145101544Y-165696784D01*
X145033624Y-165532812D01*
X144999000Y-165358741D01*
X144999000Y-165181259D01*
X145033624Y-165007188D01*
X145101544Y-164843216D01*
X145200147Y-164695646D01*
X145325646Y-164570147D01*
X145473216Y-164471544D01*
X145637188Y-164403624D01*
X145786488Y-164373927D01*
X145811258Y-164369000D01*
X145988742Y-164369000D01*
X146013512Y-164373927D01*
G37*
G36*
X111013512Y-161833927D02*
G01*
X111162812Y-161863624D01*
X111326784Y-161931544D01*
X111474354Y-162030147D01*
X111599853Y-162155646D01*
X111698456Y-162303216D01*
X111766376Y-162467188D01*
X111801000Y-162641259D01*
X111801000Y-162818741D01*
X111766376Y-162992812D01*
X111698456Y-163156784D01*
X111599853Y-163304354D01*
X111474354Y-163429853D01*
X111326784Y-163528456D01*
X111162812Y-163596376D01*
X111013512Y-163626073D01*
X110988742Y-163631000D01*
X110811258Y-163631000D01*
X110786488Y-163626073D01*
X110637188Y-163596376D01*
X110473216Y-163528456D01*
X110325646Y-163429853D01*
X110200147Y-163304354D01*
X110101544Y-163156784D01*
X110033624Y-162992812D01*
X109999000Y-162818741D01*
X109999000Y-162641259D01*
X110033624Y-162467188D01*
X110101544Y-162303216D01*
X110200147Y-162155646D01*
X110325646Y-162030147D01*
X110473216Y-161931544D01*
X110637188Y-161863624D01*
X110786488Y-161833927D01*
X110811258Y-161829000D01*
X110988742Y-161829000D01*
X111013512Y-161833927D01*
G37*
G36*
X146013512Y-161833927D02*
G01*
X146162812Y-161863624D01*
X146326784Y-161931544D01*
X146474354Y-162030147D01*
X146599853Y-162155646D01*
X146698456Y-162303216D01*
X146766376Y-162467188D01*
X146801000Y-162641259D01*
X146801000Y-162818741D01*
X146766376Y-162992812D01*
X146698456Y-163156784D01*
X146599853Y-163304354D01*
X146474354Y-163429853D01*
X146326784Y-163528456D01*
X146162812Y-163596376D01*
X146013512Y-163626073D01*
X145988742Y-163631000D01*
X145811258Y-163631000D01*
X145786488Y-163626073D01*
X145637188Y-163596376D01*
X145473216Y-163528456D01*
X145325646Y-163429853D01*
X145200147Y-163304354D01*
X145101544Y-163156784D01*
X145033624Y-162992812D01*
X144999000Y-162818741D01*
X144999000Y-162641259D01*
X145033624Y-162467188D01*
X145101544Y-162303216D01*
X145200147Y-162155646D01*
X145325646Y-162030147D01*
X145473216Y-161931544D01*
X145637188Y-161863624D01*
X145786488Y-161833927D01*
X145811258Y-161829000D01*
X145988742Y-161829000D01*
X146013512Y-161833927D01*
G37*
G36*
X111013512Y-159293927D02*
G01*
X111162812Y-159323624D01*
X111326784Y-159391544D01*
X111474354Y-159490147D01*
X111599853Y-159615646D01*
X111698456Y-159763216D01*
X111766376Y-159927188D01*
X111801000Y-160101259D01*
X111801000Y-160278741D01*
X111766376Y-160452812D01*
X111698456Y-160616784D01*
X111599853Y-160764354D01*
X111474354Y-160889853D01*
X111326784Y-160988456D01*
X111162812Y-161056376D01*
X111013512Y-161086073D01*
X110988742Y-161091000D01*
X110811258Y-161091000D01*
X110786488Y-161086073D01*
X110637188Y-161056376D01*
X110473216Y-160988456D01*
X110325646Y-160889853D01*
X110200147Y-160764354D01*
X110101544Y-160616784D01*
X110033624Y-160452812D01*
X109999000Y-160278741D01*
X109999000Y-160101259D01*
X110033624Y-159927188D01*
X110101544Y-159763216D01*
X110200147Y-159615646D01*
X110325646Y-159490147D01*
X110473216Y-159391544D01*
X110637188Y-159323624D01*
X110786488Y-159293927D01*
X110811258Y-159289000D01*
X110988742Y-159289000D01*
X111013512Y-159293927D01*
G37*
G36*
X146013512Y-159293927D02*
G01*
X146162812Y-159323624D01*
X146326784Y-159391544D01*
X146474354Y-159490147D01*
X146599853Y-159615646D01*
X146698456Y-159763216D01*
X146766376Y-159927188D01*
X146801000Y-160101259D01*
X146801000Y-160278741D01*
X146766376Y-160452812D01*
X146698456Y-160616784D01*
X146599853Y-160764354D01*
X146474354Y-160889853D01*
X146326784Y-160988456D01*
X146162812Y-161056376D01*
X146013512Y-161086073D01*
X145988742Y-161091000D01*
X145811258Y-161091000D01*
X145786488Y-161086073D01*
X145637188Y-161056376D01*
X145473216Y-160988456D01*
X145325646Y-160889853D01*
X145200147Y-160764354D01*
X145101544Y-160616784D01*
X145033624Y-160452812D01*
X144999000Y-160278741D01*
X144999000Y-160101259D01*
X145033624Y-159927188D01*
X145101544Y-159763216D01*
X145200147Y-159615646D01*
X145325646Y-159490147D01*
X145473216Y-159391544D01*
X145637188Y-159323624D01*
X145786488Y-159293927D01*
X145811258Y-159289000D01*
X145988742Y-159289000D01*
X146013512Y-159293927D01*
G37*
G36*
X111013512Y-156753927D02*
G01*
X111162812Y-156783624D01*
X111326784Y-156851544D01*
X111474354Y-156950147D01*
X111599853Y-157075646D01*
X111698456Y-157223216D01*
X111766376Y-157387188D01*
X111801000Y-157561259D01*
X111801000Y-157738741D01*
X111766376Y-157912812D01*
X111698456Y-158076784D01*
X111599853Y-158224354D01*
X111474354Y-158349853D01*
X111326784Y-158448456D01*
X111162812Y-158516376D01*
X111013512Y-158546073D01*
X110988742Y-158551000D01*
X110811258Y-158551000D01*
X110786488Y-158546073D01*
X110637188Y-158516376D01*
X110473216Y-158448456D01*
X110325646Y-158349853D01*
X110200147Y-158224354D01*
X110101544Y-158076784D01*
X110033624Y-157912812D01*
X109999000Y-157738741D01*
X109999000Y-157561259D01*
X110033624Y-157387188D01*
X110101544Y-157223216D01*
X110200147Y-157075646D01*
X110325646Y-156950147D01*
X110473216Y-156851544D01*
X110637188Y-156783624D01*
X110786488Y-156753927D01*
X110811258Y-156749000D01*
X110988742Y-156749000D01*
X111013512Y-156753927D01*
G37*
G36*
X146013512Y-156753927D02*
G01*
X146162812Y-156783624D01*
X146326784Y-156851544D01*
X146474354Y-156950147D01*
X146599853Y-157075646D01*
X146698456Y-157223216D01*
X146766376Y-157387188D01*
X146801000Y-157561259D01*
X146801000Y-157738741D01*
X146766376Y-157912812D01*
X146698456Y-158076784D01*
X146599853Y-158224354D01*
X146474354Y-158349853D01*
X146326784Y-158448456D01*
X146162812Y-158516376D01*
X146013512Y-158546073D01*
X145988742Y-158551000D01*
X145811258Y-158551000D01*
X145786488Y-158546073D01*
X145637188Y-158516376D01*
X145473216Y-158448456D01*
X145325646Y-158349853D01*
X145200147Y-158224354D01*
X145101544Y-158076784D01*
X145033624Y-157912812D01*
X144999000Y-157738741D01*
X144999000Y-157561259D01*
X145033624Y-157387188D01*
X145101544Y-157223216D01*
X145200147Y-157075646D01*
X145325646Y-156950147D01*
X145473216Y-156851544D01*
X145637188Y-156783624D01*
X145786488Y-156753927D01*
X145811258Y-156749000D01*
X145988742Y-156749000D01*
X146013512Y-156753927D01*
G37*
G36*
X146013512Y-154213927D02*
G01*
X146162812Y-154243624D01*
X146326784Y-154311544D01*
X146474354Y-154410147D01*
X146599853Y-154535646D01*
X146698456Y-154683216D01*
X146766376Y-154847188D01*
X146801000Y-155021259D01*
X146801000Y-155198741D01*
X146766376Y-155372812D01*
X146698456Y-155536784D01*
X146599853Y-155684354D01*
X146474354Y-155809853D01*
X146326784Y-155908456D01*
X146162812Y-155976376D01*
X146013512Y-156006073D01*
X145988742Y-156011000D01*
X145811258Y-156011000D01*
X145786488Y-156006073D01*
X145637188Y-155976376D01*
X145473216Y-155908456D01*
X145325646Y-155809853D01*
X145200147Y-155684354D01*
X145101544Y-155536784D01*
X145033624Y-155372812D01*
X144999000Y-155198741D01*
X144999000Y-155021259D01*
X145033624Y-154847188D01*
X145101544Y-154683216D01*
X145200147Y-154535646D01*
X145325646Y-154410147D01*
X145473216Y-154311544D01*
X145637188Y-154243624D01*
X145786488Y-154213927D01*
X145811258Y-154209000D01*
X145988742Y-154209000D01*
X146013512Y-154213927D01*
G37*
G36*
X111013512Y-154213927D02*
G01*
X111162812Y-154243624D01*
X111326784Y-154311544D01*
X111474354Y-154410147D01*
X111599853Y-154535646D01*
X111698456Y-154683216D01*
X111766376Y-154847188D01*
X111801000Y-155021259D01*
X111801000Y-155198741D01*
X111766376Y-155372812D01*
X111698456Y-155536784D01*
X111599853Y-155684354D01*
X111474354Y-155809853D01*
X111326784Y-155908456D01*
X111162812Y-155976376D01*
X111013512Y-156006073D01*
X110988742Y-156011000D01*
X110811258Y-156011000D01*
X110786488Y-156006073D01*
X110637188Y-155976376D01*
X110473216Y-155908456D01*
X110325646Y-155809853D01*
X110200147Y-155684354D01*
X110101544Y-155536784D01*
X110033624Y-155372812D01*
X109999000Y-155198741D01*
X109999000Y-155021259D01*
X110033624Y-154847188D01*
X110101544Y-154683216D01*
X110200147Y-154535646D01*
X110325646Y-154410147D01*
X110473216Y-154311544D01*
X110637188Y-154243624D01*
X110786488Y-154213927D01*
X110811258Y-154209000D01*
X110988742Y-154209000D01*
X111013512Y-154213927D01*
G37*
G36*
X146013512Y-151673927D02*
G01*
X146162812Y-151703624D01*
X146326784Y-151771544D01*
X146474354Y-151870147D01*
X146599853Y-151995646D01*
X146698456Y-152143216D01*
X146766376Y-152307188D01*
X146801000Y-152481259D01*
X146801000Y-152658741D01*
X146766376Y-152832812D01*
X146698456Y-152996784D01*
X146599853Y-153144354D01*
X146474354Y-153269853D01*
X146326784Y-153368456D01*
X146162812Y-153436376D01*
X146013512Y-153466073D01*
X145988742Y-153471000D01*
X145811258Y-153471000D01*
X145786488Y-153466073D01*
X145637188Y-153436376D01*
X145473216Y-153368456D01*
X145325646Y-153269853D01*
X145200147Y-153144354D01*
X145101544Y-152996784D01*
X145033624Y-152832812D01*
X144999000Y-152658741D01*
X144999000Y-152481259D01*
X145033624Y-152307188D01*
X145101544Y-152143216D01*
X145200147Y-151995646D01*
X145325646Y-151870147D01*
X145473216Y-151771544D01*
X145637188Y-151703624D01*
X145786488Y-151673927D01*
X145811258Y-151669000D01*
X145988742Y-151669000D01*
X146013512Y-151673927D01*
G37*
G36*
X111013512Y-151673927D02*
G01*
X111162812Y-151703624D01*
X111326784Y-151771544D01*
X111474354Y-151870147D01*
X111599853Y-151995646D01*
X111698456Y-152143216D01*
X111766376Y-152307188D01*
X111801000Y-152481259D01*
X111801000Y-152658741D01*
X111766376Y-152832812D01*
X111698456Y-152996784D01*
X111599853Y-153144354D01*
X111474354Y-153269853D01*
X111326784Y-153368456D01*
X111162812Y-153436376D01*
X111013512Y-153466073D01*
X110988742Y-153471000D01*
X110811258Y-153471000D01*
X110786488Y-153466073D01*
X110637188Y-153436376D01*
X110473216Y-153368456D01*
X110325646Y-153269853D01*
X110200147Y-153144354D01*
X110101544Y-152996784D01*
X110033624Y-152832812D01*
X109999000Y-152658741D01*
X109999000Y-152481259D01*
X110033624Y-152307188D01*
X110101544Y-152143216D01*
X110200147Y-151995646D01*
X110325646Y-151870147D01*
X110473216Y-151771544D01*
X110637188Y-151703624D01*
X110786488Y-151673927D01*
X110811258Y-151669000D01*
X110988742Y-151669000D01*
X111013512Y-151673927D01*
G37*
G36*
X126594591Y-151688085D02*
G01*
X126628569Y-151698393D01*
X126659890Y-151715134D01*
X126687339Y-151737661D01*
X126709866Y-151765110D01*
X126726607Y-151796431D01*
X126736915Y-151830409D01*
X126741000Y-151871890D01*
X126741000Y-152548110D01*
X126736915Y-152589591D01*
X126726607Y-152623569D01*
X126709866Y-152654890D01*
X126687339Y-152682339D01*
X126659890Y-152704866D01*
X126628569Y-152721607D01*
X126594591Y-152731915D01*
X126553110Y-152736000D01*
X125951890Y-152736000D01*
X125910409Y-152731915D01*
X125876431Y-152721607D01*
X125845110Y-152704866D01*
X125817661Y-152682339D01*
X125795134Y-152654890D01*
X125778393Y-152623569D01*
X125768085Y-152589591D01*
X125764000Y-152548110D01*
X125764000Y-151871890D01*
X125768085Y-151830409D01*
X125778393Y-151796431D01*
X125795134Y-151765110D01*
X125817661Y-151737661D01*
X125845110Y-151715134D01*
X125876431Y-151698393D01*
X125910409Y-151688085D01*
X125951890Y-151684000D01*
X126553110Y-151684000D01*
X126594591Y-151688085D01*
G37*
G36*
X128169591Y-151688085D02*
G01*
X128203569Y-151698393D01*
X128234890Y-151715134D01*
X128262339Y-151737661D01*
X128284866Y-151765110D01*
X128301607Y-151796431D01*
X128311915Y-151830409D01*
X128316000Y-151871890D01*
X128316000Y-152548110D01*
X128311915Y-152589591D01*
X128301607Y-152623569D01*
X128284866Y-152654890D01*
X128262339Y-152682339D01*
X128234890Y-152704866D01*
X128203569Y-152721607D01*
X128169591Y-152731915D01*
X128128110Y-152736000D01*
X127526890Y-152736000D01*
X127485409Y-152731915D01*
X127451431Y-152721607D01*
X127420110Y-152704866D01*
X127392661Y-152682339D01*
X127370134Y-152654890D01*
X127353393Y-152623569D01*
X127343085Y-152589591D01*
X127339000Y-152548110D01*
X127339000Y-151871890D01*
X127343085Y-151830409D01*
X127353393Y-151796431D01*
X127370134Y-151765110D01*
X127392661Y-151737661D01*
X127420110Y-151715134D01*
X127451431Y-151698393D01*
X127485409Y-151688085D01*
X127526890Y-151684000D01*
X128128110Y-151684000D01*
X128169591Y-151688085D01*
G37*
G36*
X129461000Y-151201000D02*
G01*
X127959000Y-151201000D01*
X127959000Y-149899000D01*
X129461000Y-149899000D01*
X129461000Y-151201000D01*
G37*
G36*
X127261000Y-151201000D02*
G01*
X125759000Y-151201000D01*
X125759000Y-149899000D01*
X127261000Y-149899000D01*
X127261000Y-151201000D01*
G37*
G36*
X146013512Y-149133927D02*
G01*
X146162812Y-149163624D01*
X146326784Y-149231544D01*
X146474354Y-149330147D01*
X146599853Y-149455646D01*
X146698456Y-149603216D01*
X146766376Y-149767188D01*
X146801000Y-149941259D01*
X146801000Y-150118741D01*
X146766376Y-150292812D01*
X146698456Y-150456784D01*
X146599853Y-150604354D01*
X146474354Y-150729853D01*
X146326784Y-150828456D01*
X146162812Y-150896376D01*
X146013512Y-150926073D01*
X145988742Y-150931000D01*
X145811258Y-150931000D01*
X145786488Y-150926073D01*
X145637188Y-150896376D01*
X145473216Y-150828456D01*
X145325646Y-150729853D01*
X145200147Y-150604354D01*
X145101544Y-150456784D01*
X145033624Y-150292812D01*
X144999000Y-150118741D01*
X144999000Y-149941259D01*
X145033624Y-149767188D01*
X145101544Y-149603216D01*
X145200147Y-149455646D01*
X145325646Y-149330147D01*
X145473216Y-149231544D01*
X145637188Y-149163624D01*
X145786488Y-149133927D01*
X145811258Y-149129000D01*
X145988742Y-149129000D01*
X146013512Y-149133927D01*
G37*
G36*
X111013512Y-149133927D02*
G01*
X111162812Y-149163624D01*
X111326784Y-149231544D01*
X111474354Y-149330147D01*
X111599853Y-149455646D01*
X111698456Y-149603216D01*
X111766376Y-149767188D01*
X111801000Y-149941259D01*
X111801000Y-150118741D01*
X111766376Y-150292812D01*
X111698456Y-150456784D01*
X111599853Y-150604354D01*
X111474354Y-150729853D01*
X111326784Y-150828456D01*
X111162812Y-150896376D01*
X111013512Y-150926073D01*
X110988742Y-150931000D01*
X110811258Y-150931000D01*
X110786488Y-150926073D01*
X110637188Y-150896376D01*
X110473216Y-150828456D01*
X110325646Y-150729853D01*
X110200147Y-150604354D01*
X110101544Y-150456784D01*
X110033624Y-150292812D01*
X109999000Y-150118741D01*
X109999000Y-149941259D01*
X110033624Y-149767188D01*
X110101544Y-149603216D01*
X110200147Y-149455646D01*
X110325646Y-149330147D01*
X110473216Y-149231544D01*
X110637188Y-149163624D01*
X110786488Y-149133927D01*
X110811258Y-149129000D01*
X110988742Y-149129000D01*
X111013512Y-149133927D01*
G37*
G36*
X127261000Y-149501000D02*
G01*
X125759000Y-149501000D01*
X125759000Y-148199000D01*
X127261000Y-148199000D01*
X127261000Y-149501000D01*
G37*
G36*
X129461000Y-149501000D02*
G01*
X127959000Y-149501000D01*
X127959000Y-148199000D01*
X129461000Y-148199000D01*
X129461000Y-149501000D01*
G37*
G36*
X146013512Y-146593927D02*
G01*
X146162812Y-146623624D01*
X146326784Y-146691544D01*
X146474354Y-146790147D01*
X146599853Y-146915646D01*
X146698456Y-147063216D01*
X146766376Y-147227188D01*
X146801000Y-147401259D01*
X146801000Y-147578741D01*
X146766376Y-147752812D01*
X146698456Y-147916784D01*
X146599853Y-148064354D01*
X146474354Y-148189853D01*
X146326784Y-148288456D01*
X146162812Y-148356376D01*
X146013512Y-148386073D01*
X145988742Y-148391000D01*
X145811258Y-148391000D01*
X145786488Y-148386073D01*
X145637188Y-148356376D01*
X145473216Y-148288456D01*
X145325646Y-148189853D01*
X145200147Y-148064354D01*
X145101544Y-147916784D01*
X145033624Y-147752812D01*
X144999000Y-147578741D01*
X144999000Y-147401259D01*
X145033624Y-147227188D01*
X145101544Y-147063216D01*
X145200147Y-146915646D01*
X145325646Y-146790147D01*
X145473216Y-146691544D01*
X145637188Y-146623624D01*
X145786488Y-146593927D01*
X145811258Y-146589000D01*
X145988742Y-146589000D01*
X146013512Y-146593927D01*
G37*
G36*
X111013512Y-146593927D02*
G01*
X111162812Y-146623624D01*
X111326784Y-146691544D01*
X111474354Y-146790147D01*
X111599853Y-146915646D01*
X111698456Y-147063216D01*
X111766376Y-147227188D01*
X111801000Y-147401259D01*
X111801000Y-147578741D01*
X111766376Y-147752812D01*
X111698456Y-147916784D01*
X111599853Y-148064354D01*
X111474354Y-148189853D01*
X111326784Y-148288456D01*
X111162812Y-148356376D01*
X111013512Y-148386073D01*
X110988742Y-148391000D01*
X110811258Y-148391000D01*
X110786488Y-148386073D01*
X110637188Y-148356376D01*
X110473216Y-148288456D01*
X110325646Y-148189853D01*
X110200147Y-148064354D01*
X110101544Y-147916784D01*
X110033624Y-147752812D01*
X109999000Y-147578741D01*
X109999000Y-147401259D01*
X110033624Y-147227188D01*
X110101544Y-147063216D01*
X110200147Y-146915646D01*
X110325646Y-146790147D01*
X110473216Y-146691544D01*
X110637188Y-146623624D01*
X110786488Y-146593927D01*
X110811258Y-146589000D01*
X110988742Y-146589000D01*
X111013512Y-146593927D01*
G37*
G36*
X126684591Y-146698085D02*
G01*
X126718569Y-146708393D01*
X126749890Y-146725134D01*
X126777339Y-146747661D01*
X126799866Y-146775110D01*
X126816607Y-146806431D01*
X126826915Y-146840409D01*
X126831000Y-146881890D01*
X126831000Y-147558110D01*
X126826915Y-147599591D01*
X126816607Y-147633569D01*
X126799866Y-147664890D01*
X126777339Y-147692339D01*
X126749890Y-147714866D01*
X126718569Y-147731607D01*
X126684591Y-147741915D01*
X126643110Y-147746000D01*
X126041890Y-147746000D01*
X126000409Y-147741915D01*
X125966431Y-147731607D01*
X125935110Y-147714866D01*
X125907661Y-147692339D01*
X125885134Y-147664890D01*
X125868393Y-147633569D01*
X125858085Y-147599591D01*
X125854000Y-147558110D01*
X125854000Y-146881890D01*
X125858085Y-146840409D01*
X125868393Y-146806431D01*
X125885134Y-146775110D01*
X125907661Y-146747661D01*
X125935110Y-146725134D01*
X125966431Y-146708393D01*
X126000409Y-146698085D01*
X126041890Y-146694000D01*
X126643110Y-146694000D01*
X126684591Y-146698085D01*
G37*
G36*
X129769591Y-146773085D02*
G01*
X129803569Y-146783393D01*
X129834890Y-146800134D01*
X129862339Y-146822661D01*
X129884866Y-146850110D01*
X129901607Y-146881431D01*
X129911915Y-146915409D01*
X129916000Y-146956890D01*
X129916000Y-147558110D01*
X129911915Y-147599591D01*
X129901607Y-147633569D01*
X129884866Y-147664890D01*
X129862339Y-147692339D01*
X129834890Y-147714866D01*
X129803569Y-147731607D01*
X129769591Y-147741915D01*
X129728110Y-147746000D01*
X129051890Y-147746000D01*
X129010409Y-147741915D01*
X128976431Y-147731607D01*
X128945110Y-147714866D01*
X128917661Y-147692339D01*
X128895134Y-147664890D01*
X128878393Y-147633569D01*
X128868085Y-147599591D01*
X128864000Y-147558110D01*
X128864000Y-146956890D01*
X128868085Y-146915409D01*
X128878393Y-146881431D01*
X128895134Y-146850110D01*
X128917661Y-146822661D01*
X128945110Y-146800134D01*
X128976431Y-146783393D01*
X129010409Y-146773085D01*
X129051890Y-146769000D01*
X129728110Y-146769000D01*
X129769591Y-146773085D01*
G37*
G36*
X128259591Y-146698085D02*
G01*
X128293569Y-146708393D01*
X128324890Y-146725134D01*
X128352339Y-146747661D01*
X128374866Y-146775110D01*
X128391607Y-146806431D01*
X128401915Y-146840409D01*
X128406000Y-146881890D01*
X128406000Y-147558110D01*
X128401915Y-147599591D01*
X128391607Y-147633569D01*
X128374866Y-147664890D01*
X128352339Y-147692339D01*
X128324890Y-147714866D01*
X128293569Y-147731607D01*
X128259591Y-147741915D01*
X128218110Y-147746000D01*
X127616890Y-147746000D01*
X127575409Y-147741915D01*
X127541431Y-147731607D01*
X127510110Y-147714866D01*
X127482661Y-147692339D01*
X127460134Y-147664890D01*
X127443393Y-147633569D01*
X127433085Y-147599591D01*
X127429000Y-147558110D01*
X127429000Y-146881890D01*
X127433085Y-146840409D01*
X127443393Y-146806431D01*
X127460134Y-146775110D01*
X127482661Y-146747661D01*
X127510110Y-146725134D01*
X127541431Y-146708393D01*
X127575409Y-146698085D01*
X127616890Y-146694000D01*
X128218110Y-146694000D01*
X128259591Y-146698085D01*
G37*
G36*
X129769591Y-145198085D02*
G01*
X129803569Y-145208393D01*
X129834890Y-145225134D01*
X129862339Y-145247661D01*
X129884866Y-145275110D01*
X129901607Y-145306431D01*
X129911915Y-145340409D01*
X129916000Y-145381890D01*
X129916000Y-145983110D01*
X129911915Y-146024591D01*
X129901607Y-146058569D01*
X129884866Y-146089890D01*
X129862339Y-146117339D01*
X129834890Y-146139866D01*
X129803569Y-146156607D01*
X129769591Y-146166915D01*
X129728110Y-146171000D01*
X129051890Y-146171000D01*
X129010409Y-146166915D01*
X128976431Y-146156607D01*
X128945110Y-146139866D01*
X128917661Y-146117339D01*
X128895134Y-146089890D01*
X128878393Y-146058569D01*
X128868085Y-146024591D01*
X128864000Y-145983110D01*
X128864000Y-145381890D01*
X128868085Y-145340409D01*
X128878393Y-145306431D01*
X128895134Y-145275110D01*
X128917661Y-145247661D01*
X128945110Y-145225134D01*
X128976431Y-145208393D01*
X129010409Y-145198085D01*
X129051890Y-145194000D01*
X129728110Y-145194000D01*
X129769591Y-145198085D01*
G37*
G36*
X111013512Y-144053927D02*
G01*
X111162812Y-144083624D01*
X111326784Y-144151544D01*
X111474354Y-144250147D01*
X111599853Y-144375646D01*
X111698456Y-144523216D01*
X111766376Y-144687188D01*
X111789191Y-144801890D01*
X111800402Y-144858250D01*
X111801000Y-144861259D01*
X111801000Y-145038741D01*
X111766376Y-145212812D01*
X111698456Y-145376784D01*
X111599853Y-145524354D01*
X111474354Y-145649853D01*
X111326784Y-145748456D01*
X111162812Y-145816376D01*
X111013512Y-145846073D01*
X110988742Y-145851000D01*
X110811258Y-145851000D01*
X110786488Y-145846073D01*
X110637188Y-145816376D01*
X110473216Y-145748456D01*
X110325646Y-145649853D01*
X110200147Y-145524354D01*
X110101544Y-145376784D01*
X110033624Y-145212812D01*
X109999000Y-145038741D01*
X109999000Y-144861259D01*
X109999599Y-144858250D01*
X110010809Y-144801890D01*
X110033624Y-144687188D01*
X110101544Y-144523216D01*
X110200147Y-144375646D01*
X110325646Y-144250147D01*
X110473216Y-144151544D01*
X110637188Y-144083624D01*
X110786488Y-144053927D01*
X110811258Y-144049000D01*
X110988742Y-144049000D01*
X111013512Y-144053927D01*
G37*
G36*
X146013512Y-144053927D02*
G01*
X146162812Y-144083624D01*
X146326784Y-144151544D01*
X146474354Y-144250147D01*
X146599853Y-144375646D01*
X146698456Y-144523216D01*
X146766376Y-144687188D01*
X146789191Y-144801890D01*
X146800402Y-144858250D01*
X146801000Y-144861259D01*
X146801000Y-145038741D01*
X146766376Y-145212812D01*
X146698456Y-145376784D01*
X146599853Y-145524354D01*
X146474354Y-145649853D01*
X146326784Y-145748456D01*
X146162812Y-145816376D01*
X146013512Y-145846073D01*
X145988742Y-145851000D01*
X145811258Y-145851000D01*
X145786488Y-145846073D01*
X145637188Y-145816376D01*
X145473216Y-145748456D01*
X145325646Y-145649853D01*
X145200147Y-145524354D01*
X145101544Y-145376784D01*
X145033624Y-145212812D01*
X144999000Y-145038741D01*
X144999000Y-144861259D01*
X144999599Y-144858250D01*
X145010809Y-144801890D01*
X145033624Y-144687188D01*
X145101544Y-144523216D01*
X145200147Y-144375646D01*
X145325646Y-144250147D01*
X145473216Y-144151544D01*
X145637188Y-144083624D01*
X145786488Y-144053927D01*
X145811258Y-144049000D01*
X145988742Y-144049000D01*
X146013512Y-144053927D01*
G37*
G36*
X124249591Y-144703085D02*
G01*
X124283569Y-144713393D01*
X124314890Y-144730134D01*
X124342339Y-144752661D01*
X124364866Y-144780110D01*
X124381607Y-144811431D01*
X124391915Y-144845409D01*
X124396000Y-144886890D01*
X124396000Y-145488110D01*
X124391915Y-145529591D01*
X124381607Y-145563569D01*
X124364866Y-145594890D01*
X124342339Y-145622339D01*
X124314890Y-145644866D01*
X124283569Y-145661607D01*
X124249591Y-145671915D01*
X124208110Y-145676000D01*
X123531890Y-145676000D01*
X123490409Y-145671915D01*
X123456431Y-145661607D01*
X123425110Y-145644866D01*
X123397661Y-145622339D01*
X123375134Y-145594890D01*
X123358393Y-145563569D01*
X123348085Y-145529591D01*
X123344000Y-145488110D01*
X123344000Y-144886890D01*
X123348085Y-144845409D01*
X123358393Y-144811431D01*
X123375134Y-144780110D01*
X123397661Y-144752661D01*
X123425110Y-144730134D01*
X123456431Y-144713393D01*
X123490409Y-144703085D01*
X123531890Y-144699000D01*
X124208110Y-144699000D01*
X124249591Y-144703085D01*
G37*
G36*
X122729591Y-144703085D02*
G01*
X122763569Y-144713393D01*
X122794890Y-144730134D01*
X122822339Y-144752661D01*
X122844866Y-144780110D01*
X122861607Y-144811431D01*
X122871915Y-144845409D01*
X122876000Y-144886890D01*
X122876000Y-145488110D01*
X122871915Y-145529591D01*
X122861607Y-145563569D01*
X122844866Y-145594890D01*
X122822339Y-145622339D01*
X122794890Y-145644866D01*
X122763569Y-145661607D01*
X122729591Y-145671915D01*
X122688110Y-145676000D01*
X122011890Y-145676000D01*
X121970409Y-145671915D01*
X121936431Y-145661607D01*
X121905110Y-145644866D01*
X121877661Y-145622339D01*
X121855134Y-145594890D01*
X121838393Y-145563569D01*
X121828085Y-145529591D01*
X121824000Y-145488110D01*
X121824000Y-144886890D01*
X121828085Y-144845409D01*
X121838393Y-144811431D01*
X121855134Y-144780110D01*
X121877661Y-144752661D01*
X121905110Y-144730134D01*
X121936431Y-144713393D01*
X121970409Y-144703085D01*
X122011890Y-144699000D01*
X122688110Y-144699000D01*
X122729591Y-144703085D01*
G37*
G36*
X134789591Y-144618085D02*
G01*
X134823569Y-144628393D01*
X134854890Y-144645134D01*
X134882339Y-144667661D01*
X134904866Y-144695110D01*
X134921607Y-144726431D01*
X134931915Y-144760409D01*
X134936000Y-144801890D01*
X134936000Y-145478110D01*
X134931915Y-145519591D01*
X134921607Y-145553569D01*
X134904866Y-145584890D01*
X134882339Y-145612339D01*
X134854890Y-145634866D01*
X134823569Y-145651607D01*
X134789591Y-145661915D01*
X134748110Y-145666000D01*
X134146890Y-145666000D01*
X134105409Y-145661915D01*
X134071431Y-145651607D01*
X134040110Y-145634866D01*
X134012661Y-145612339D01*
X133990134Y-145584890D01*
X133973393Y-145553569D01*
X133963085Y-145519591D01*
X133959000Y-145478110D01*
X133959000Y-144801890D01*
X133963085Y-144760409D01*
X133973393Y-144726431D01*
X133990134Y-144695110D01*
X134012661Y-144667661D01*
X134040110Y-144645134D01*
X134071431Y-144628393D01*
X134105409Y-144618085D01*
X134146890Y-144614000D01*
X134748110Y-144614000D01*
X134789591Y-144618085D01*
G37*
G36*
X133214591Y-144618085D02*
G01*
X133248569Y-144628393D01*
X133279890Y-144645134D01*
X133307339Y-144667661D01*
X133329866Y-144695110D01*
X133346607Y-144726431D01*
X133356915Y-144760409D01*
X133361000Y-144801890D01*
X133361000Y-145478110D01*
X133356915Y-145519591D01*
X133346607Y-145553569D01*
X133329866Y-145584890D01*
X133307339Y-145612339D01*
X133279890Y-145634866D01*
X133248569Y-145651607D01*
X133214591Y-145661915D01*
X133173110Y-145666000D01*
X132571890Y-145666000D01*
X132530409Y-145661915D01*
X132496431Y-145651607D01*
X132465110Y-145634866D01*
X132437661Y-145612339D01*
X132415134Y-145584890D01*
X132398393Y-145553569D01*
X132388085Y-145519591D01*
X132384000Y-145478110D01*
X132384000Y-144801890D01*
X132388085Y-144760409D01*
X132398393Y-144726431D01*
X132415134Y-144695110D01*
X132437661Y-144667661D01*
X132465110Y-144645134D01*
X132496431Y-144628393D01*
X132530409Y-144618085D01*
X132571890Y-144614000D01*
X133173110Y-144614000D01*
X133214591Y-144618085D01*
G37*
G36*
X133214591Y-143108085D02*
G01*
X133248569Y-143118393D01*
X133279890Y-143135134D01*
X133307339Y-143157661D01*
X133329866Y-143185110D01*
X133346607Y-143216431D01*
X133356915Y-143250409D01*
X133361000Y-143291890D01*
X133361000Y-143968110D01*
X133356915Y-144009591D01*
X133346607Y-144043569D01*
X133329866Y-144074890D01*
X133307339Y-144102339D01*
X133279890Y-144124866D01*
X133248569Y-144141607D01*
X133214591Y-144151915D01*
X133173110Y-144156000D01*
X132571890Y-144156000D01*
X132530409Y-144151915D01*
X132496431Y-144141607D01*
X132465110Y-144124866D01*
X132437661Y-144102339D01*
X132415134Y-144074890D01*
X132398393Y-144043569D01*
X132388085Y-144009591D01*
X132384000Y-143968110D01*
X132384000Y-143291890D01*
X132388085Y-143250409D01*
X132398393Y-143216431D01*
X132415134Y-143185110D01*
X132437661Y-143157661D01*
X132465110Y-143135134D01*
X132496431Y-143118393D01*
X132530409Y-143108085D01*
X132571890Y-143104000D01*
X133173110Y-143104000D01*
X133214591Y-143108085D01*
G37*
G36*
X134789591Y-143108085D02*
G01*
X134823569Y-143118393D01*
X134854890Y-143135134D01*
X134882339Y-143157661D01*
X134904866Y-143185110D01*
X134921607Y-143216431D01*
X134931915Y-143250409D01*
X134936000Y-143291890D01*
X134936000Y-143968110D01*
X134931915Y-144009591D01*
X134921607Y-144043569D01*
X134904866Y-144074890D01*
X134882339Y-144102339D01*
X134854890Y-144124866D01*
X134823569Y-144141607D01*
X134789591Y-144151915D01*
X134748110Y-144156000D01*
X134146890Y-144156000D01*
X134105409Y-144151915D01*
X134071431Y-144141607D01*
X134040110Y-144124866D01*
X134012661Y-144102339D01*
X133990134Y-144074890D01*
X133973393Y-144043569D01*
X133963085Y-144009591D01*
X133959000Y-143968110D01*
X133959000Y-143291890D01*
X133963085Y-143250409D01*
X133973393Y-143216431D01*
X133990134Y-143185110D01*
X134012661Y-143157661D01*
X134040110Y-143135134D01*
X134071431Y-143118393D01*
X134105409Y-143108085D01*
X134146890Y-143104000D01*
X134748110Y-143104000D01*
X134789591Y-143108085D01*
G37*
G36*
X124249591Y-143128085D02*
G01*
X124283569Y-143138393D01*
X124314890Y-143155134D01*
X124342339Y-143177661D01*
X124364866Y-143205110D01*
X124381607Y-143236431D01*
X124391915Y-143270409D01*
X124396000Y-143311890D01*
X124396000Y-143913110D01*
X124391915Y-143954591D01*
X124381607Y-143988569D01*
X124364866Y-144019890D01*
X124342339Y-144047339D01*
X124314890Y-144069866D01*
X124283569Y-144086607D01*
X124249591Y-144096915D01*
X124208110Y-144101000D01*
X123531890Y-144101000D01*
X123490409Y-144096915D01*
X123456431Y-144086607D01*
X123425110Y-144069866D01*
X123397661Y-144047339D01*
X123375134Y-144019890D01*
X123358393Y-143988569D01*
X123348085Y-143954591D01*
X123344000Y-143913110D01*
X123344000Y-143311890D01*
X123348085Y-143270409D01*
X123358393Y-143236431D01*
X123375134Y-143205110D01*
X123397661Y-143177661D01*
X123425110Y-143155134D01*
X123456431Y-143138393D01*
X123490409Y-143128085D01*
X123531890Y-143124000D01*
X124208110Y-143124000D01*
X124249591Y-143128085D01*
G37*
G36*
X122729591Y-143128085D02*
G01*
X122763569Y-143138393D01*
X122794890Y-143155134D01*
X122822339Y-143177661D01*
X122844866Y-143205110D01*
X122861607Y-143236431D01*
X122871915Y-143270409D01*
X122876000Y-143311890D01*
X122876000Y-143913110D01*
X122871915Y-143954591D01*
X122861607Y-143988569D01*
X122844866Y-144019890D01*
X122822339Y-144047339D01*
X122794890Y-144069866D01*
X122763569Y-144086607D01*
X122729591Y-144096915D01*
X122688110Y-144101000D01*
X122011890Y-144101000D01*
X121970409Y-144096915D01*
X121936431Y-144086607D01*
X121905110Y-144069866D01*
X121877661Y-144047339D01*
X121855134Y-144019890D01*
X121838393Y-143988569D01*
X121828085Y-143954591D01*
X121824000Y-143913110D01*
X121824000Y-143311890D01*
X121828085Y-143270409D01*
X121838393Y-143236431D01*
X121855134Y-143205110D01*
X121877661Y-143177661D01*
X121905110Y-143155134D01*
X121936431Y-143138393D01*
X121970409Y-143128085D01*
X122011890Y-143124000D01*
X122688110Y-143124000D01*
X122729591Y-143128085D01*
G37*
G36*
X125800295Y-142513542D02*
G01*
X125807309Y-142515670D01*
X125821077Y-142523029D01*
X125843716Y-142532406D01*
X125867749Y-142537186D01*
X125892253Y-142537186D01*
X125916286Y-142532405D01*
X125938923Y-142523029D01*
X125952691Y-142515670D01*
X125959705Y-142513542D01*
X125973140Y-142512219D01*
X126286860Y-142512219D01*
X126300295Y-142513542D01*
X126307309Y-142515670D01*
X126321077Y-142523029D01*
X126343716Y-142532406D01*
X126367749Y-142537186D01*
X126392253Y-142537186D01*
X126416286Y-142532405D01*
X126438923Y-142523029D01*
X126452691Y-142515670D01*
X126459705Y-142513542D01*
X126473140Y-142512219D01*
X126786860Y-142512219D01*
X126800295Y-142513542D01*
X126807309Y-142515670D01*
X126821077Y-142523029D01*
X126843716Y-142532406D01*
X126867749Y-142537186D01*
X126892253Y-142537186D01*
X126916286Y-142532405D01*
X126938923Y-142523029D01*
X126952691Y-142515670D01*
X126959705Y-142513542D01*
X126973140Y-142512219D01*
X127286860Y-142512219D01*
X127300295Y-142513542D01*
X127307309Y-142515670D01*
X127321077Y-142523029D01*
X127343716Y-142532406D01*
X127367749Y-142537186D01*
X127392253Y-142537186D01*
X127416286Y-142532405D01*
X127438923Y-142523029D01*
X127452691Y-142515670D01*
X127459705Y-142513542D01*
X127473140Y-142512219D01*
X127786860Y-142512219D01*
X127800295Y-142513542D01*
X127807309Y-142515670D01*
X127821077Y-142523029D01*
X127843716Y-142532406D01*
X127867749Y-142537186D01*
X127892253Y-142537186D01*
X127916286Y-142532405D01*
X127938923Y-142523029D01*
X127952691Y-142515670D01*
X127959705Y-142513542D01*
X127973140Y-142512219D01*
X128286860Y-142512219D01*
X128300295Y-142513542D01*
X128307309Y-142515670D01*
X128321077Y-142523029D01*
X128343716Y-142532406D01*
X128367749Y-142537186D01*
X128392253Y-142537186D01*
X128416286Y-142532405D01*
X128438923Y-142523029D01*
X128452691Y-142515670D01*
X128459705Y-142513542D01*
X128473140Y-142512219D01*
X128786860Y-142512219D01*
X128800295Y-142513542D01*
X128807309Y-142515670D01*
X128821077Y-142523029D01*
X128843716Y-142532406D01*
X128867749Y-142537186D01*
X128892253Y-142537186D01*
X128916286Y-142532405D01*
X128938923Y-142523029D01*
X128952691Y-142515670D01*
X128959705Y-142513542D01*
X128973140Y-142512219D01*
X129286860Y-142512219D01*
X129300295Y-142513542D01*
X129307309Y-142515670D01*
X129321077Y-142523029D01*
X129343716Y-142532406D01*
X129367749Y-142537186D01*
X129392253Y-142537186D01*
X129416286Y-142532405D01*
X129438923Y-142523029D01*
X129452691Y-142515670D01*
X129459705Y-142513542D01*
X129473140Y-142512219D01*
X129786860Y-142512219D01*
X129800295Y-142513542D01*
X129807309Y-142515670D01*
X129821077Y-142523029D01*
X129843716Y-142532406D01*
X129867749Y-142537186D01*
X129892253Y-142537186D01*
X129916286Y-142532405D01*
X129938923Y-142523029D01*
X129952691Y-142515670D01*
X129959705Y-142513542D01*
X129973140Y-142512219D01*
X130286860Y-142512219D01*
X130300295Y-142513542D01*
X130307309Y-142515670D01*
X130321077Y-142523029D01*
X130343716Y-142532406D01*
X130367749Y-142537186D01*
X130392253Y-142537186D01*
X130416286Y-142532405D01*
X130438923Y-142523029D01*
X130452691Y-142515670D01*
X130459705Y-142513542D01*
X130473140Y-142512219D01*
X130786860Y-142512219D01*
X130800295Y-142513542D01*
X130807309Y-142515670D01*
X130821077Y-142523029D01*
X130843716Y-142532406D01*
X130867749Y-142537186D01*
X130892253Y-142537186D01*
X130916286Y-142532405D01*
X130938923Y-142523029D01*
X130952691Y-142515670D01*
X130959705Y-142513542D01*
X130973140Y-142512219D01*
X131286860Y-142512219D01*
X131300295Y-142513542D01*
X131307310Y-142515670D01*
X131313776Y-142519127D01*
X131319442Y-142523777D01*
X131324092Y-142529443D01*
X131327549Y-142535909D01*
X131329677Y-142542924D01*
X131331000Y-142556359D01*
X131331000Y-144045079D01*
X131329677Y-144058514D01*
X131327549Y-144065529D01*
X131324092Y-144071995D01*
X131319442Y-144077661D01*
X131313776Y-144082311D01*
X131307310Y-144085768D01*
X131300295Y-144087896D01*
X131286860Y-144089219D01*
X130973140Y-144089219D01*
X130959705Y-144087896D01*
X130952691Y-144085768D01*
X130938923Y-144078409D01*
X130916284Y-144069032D01*
X130892251Y-144064252D01*
X130867747Y-144064252D01*
X130843714Y-144069033D01*
X130821077Y-144078409D01*
X130807309Y-144085768D01*
X130800295Y-144087896D01*
X130786860Y-144089219D01*
X130473140Y-144089219D01*
X130459705Y-144087896D01*
X130452691Y-144085768D01*
X130438923Y-144078409D01*
X130416284Y-144069032D01*
X130392251Y-144064252D01*
X130367747Y-144064252D01*
X130343714Y-144069033D01*
X130321077Y-144078409D01*
X130307309Y-144085768D01*
X130300295Y-144087896D01*
X130286860Y-144089219D01*
X129973140Y-144089219D01*
X129959705Y-144087896D01*
X129952691Y-144085768D01*
X129938923Y-144078409D01*
X129916284Y-144069032D01*
X129892251Y-144064252D01*
X129867747Y-144064252D01*
X129843714Y-144069033D01*
X129821077Y-144078409D01*
X129807309Y-144085768D01*
X129800295Y-144087896D01*
X129786860Y-144089219D01*
X129473140Y-144089219D01*
X129459705Y-144087896D01*
X129452691Y-144085768D01*
X129438923Y-144078409D01*
X129416284Y-144069032D01*
X129392251Y-144064252D01*
X129367747Y-144064252D01*
X129343714Y-144069033D01*
X129321077Y-144078409D01*
X129307309Y-144085768D01*
X129300295Y-144087896D01*
X129286860Y-144089219D01*
X128973140Y-144089219D01*
X128959705Y-144087896D01*
X128952691Y-144085768D01*
X128938923Y-144078409D01*
X128916284Y-144069032D01*
X128892251Y-144064252D01*
X128867747Y-144064252D01*
X128843714Y-144069033D01*
X128821077Y-144078409D01*
X128807309Y-144085768D01*
X128800295Y-144087896D01*
X128786860Y-144089219D01*
X128473140Y-144089219D01*
X128459705Y-144087896D01*
X128452691Y-144085768D01*
X128438923Y-144078409D01*
X128416284Y-144069032D01*
X128392251Y-144064252D01*
X128367747Y-144064252D01*
X128343714Y-144069033D01*
X128321077Y-144078409D01*
X128307309Y-144085768D01*
X128300295Y-144087896D01*
X128286860Y-144089219D01*
X127973140Y-144089219D01*
X127959705Y-144087896D01*
X127952691Y-144085768D01*
X127938923Y-144078409D01*
X127916284Y-144069032D01*
X127892251Y-144064252D01*
X127867747Y-144064252D01*
X127843714Y-144069033D01*
X127821077Y-144078409D01*
X127807309Y-144085768D01*
X127800295Y-144087896D01*
X127786860Y-144089219D01*
X127473140Y-144089219D01*
X127459705Y-144087896D01*
X127452691Y-144085768D01*
X127438923Y-144078409D01*
X127416284Y-144069032D01*
X127392251Y-144064252D01*
X127367747Y-144064252D01*
X127343714Y-144069033D01*
X127321077Y-144078409D01*
X127307309Y-144085768D01*
X127300295Y-144087896D01*
X127286860Y-144089219D01*
X126973140Y-144089219D01*
X126959705Y-144087896D01*
X126952691Y-144085768D01*
X126938923Y-144078409D01*
X126916284Y-144069032D01*
X126892251Y-144064252D01*
X126867747Y-144064252D01*
X126843714Y-144069033D01*
X126821077Y-144078409D01*
X126807309Y-144085768D01*
X126800295Y-144087896D01*
X126786860Y-144089219D01*
X126473140Y-144089219D01*
X126459705Y-144087896D01*
X126452691Y-144085768D01*
X126438923Y-144078409D01*
X126416284Y-144069032D01*
X126392251Y-144064252D01*
X126367747Y-144064252D01*
X126343714Y-144069033D01*
X126321077Y-144078409D01*
X126307309Y-144085768D01*
X126300295Y-144087896D01*
X126286860Y-144089219D01*
X125973140Y-144089219D01*
X125959705Y-144087896D01*
X125952691Y-144085768D01*
X125938923Y-144078409D01*
X125916284Y-144069032D01*
X125892251Y-144064252D01*
X125867747Y-144064252D01*
X125843714Y-144069033D01*
X125821077Y-144078409D01*
X125807309Y-144085768D01*
X125800295Y-144087896D01*
X125786860Y-144089219D01*
X125473140Y-144089219D01*
X125459705Y-144087896D01*
X125452690Y-144085768D01*
X125446224Y-144082311D01*
X125440558Y-144077661D01*
X125435908Y-144071995D01*
X125432451Y-144065529D01*
X125430323Y-144058514D01*
X125429000Y-144045079D01*
X125429000Y-142556359D01*
X125430323Y-142542924D01*
X125432451Y-142535909D01*
X125435908Y-142529443D01*
X125440558Y-142523777D01*
X125446224Y-142519127D01*
X125452690Y-142515670D01*
X125459705Y-142513542D01*
X125473140Y-142512219D01*
X125786860Y-142512219D01*
X125800295Y-142513542D01*
G37*
G36*
X111013512Y-141513927D02*
G01*
X111162812Y-141543624D01*
X111326784Y-141611544D01*
X111474354Y-141710147D01*
X111599853Y-141835646D01*
X111698456Y-141983216D01*
X111766376Y-142147188D01*
X111796073Y-142296488D01*
X111801000Y-142321258D01*
X111801000Y-142498742D01*
X111796169Y-142523029D01*
X111766376Y-142672812D01*
X111698456Y-142836784D01*
X111599853Y-142984354D01*
X111474354Y-143109853D01*
X111326784Y-143208456D01*
X111162812Y-143276376D01*
X111013512Y-143306073D01*
X110988742Y-143311000D01*
X110811258Y-143311000D01*
X110786488Y-143306073D01*
X110637188Y-143276376D01*
X110473216Y-143208456D01*
X110325646Y-143109853D01*
X110200147Y-142984354D01*
X110101544Y-142836784D01*
X110033624Y-142672812D01*
X110003831Y-142523029D01*
X109999000Y-142498742D01*
X109999000Y-142321258D01*
X110003927Y-142296488D01*
X110033624Y-142147188D01*
X110101544Y-141983216D01*
X110200147Y-141835646D01*
X110325646Y-141710147D01*
X110473216Y-141611544D01*
X110637188Y-141543624D01*
X110786488Y-141513927D01*
X110811258Y-141509000D01*
X110988742Y-141509000D01*
X111013512Y-141513927D01*
G37*
G36*
X146013512Y-141513927D02*
G01*
X146162812Y-141543624D01*
X146326784Y-141611544D01*
X146474354Y-141710147D01*
X146599853Y-141835646D01*
X146698456Y-141983216D01*
X146766376Y-142147188D01*
X146796073Y-142296488D01*
X146801000Y-142321258D01*
X146801000Y-142498742D01*
X146796169Y-142523029D01*
X146766376Y-142672812D01*
X146698456Y-142836784D01*
X146599853Y-142984354D01*
X146474354Y-143109853D01*
X146326784Y-143208456D01*
X146162812Y-143276376D01*
X146013512Y-143306073D01*
X145988742Y-143311000D01*
X145811258Y-143311000D01*
X145786488Y-143306073D01*
X145637188Y-143276376D01*
X145473216Y-143208456D01*
X145325646Y-143109853D01*
X145200147Y-142984354D01*
X145101544Y-142836784D01*
X145033624Y-142672812D01*
X145003831Y-142523029D01*
X144999000Y-142498742D01*
X144999000Y-142321258D01*
X145003927Y-142296488D01*
X145033624Y-142147188D01*
X145101544Y-141983216D01*
X145200147Y-141835646D01*
X145325646Y-141710147D01*
X145473216Y-141611544D01*
X145637188Y-141543624D01*
X145786488Y-141513927D01*
X145811258Y-141509000D01*
X145988742Y-141509000D01*
X146013512Y-141513927D01*
G37*
G36*
X133300295Y-136188542D02*
G01*
X133307310Y-136190670D01*
X133313776Y-136194127D01*
X133319442Y-136198777D01*
X133324092Y-136204443D01*
X133327549Y-136210909D01*
X133329677Y-136217924D01*
X133331000Y-136231359D01*
X133331000Y-136545079D01*
X133329677Y-136558514D01*
X133327549Y-136565528D01*
X133320190Y-136579296D01*
X133310813Y-136601935D01*
X133306033Y-136625968D01*
X133306033Y-136650472D01*
X133310814Y-136674505D01*
X133320190Y-136697142D01*
X133327549Y-136710910D01*
X133329677Y-136717924D01*
X133331000Y-136731359D01*
X133331000Y-137045079D01*
X133329677Y-137058514D01*
X133327549Y-137065528D01*
X133320190Y-137079296D01*
X133310813Y-137101935D01*
X133306033Y-137125968D01*
X133306033Y-137150472D01*
X133310814Y-137174505D01*
X133320190Y-137197142D01*
X133327549Y-137210910D01*
X133329677Y-137217924D01*
X133331000Y-137231359D01*
X133331000Y-137545079D01*
X133329677Y-137558514D01*
X133327549Y-137565528D01*
X133320190Y-137579296D01*
X133310813Y-137601935D01*
X133306033Y-137625968D01*
X133306033Y-137650472D01*
X133310814Y-137674505D01*
X133320190Y-137697142D01*
X133327549Y-137710910D01*
X133329677Y-137717924D01*
X133331000Y-137731359D01*
X133331000Y-138045079D01*
X133329677Y-138058514D01*
X133327549Y-138065528D01*
X133320190Y-138079296D01*
X133310813Y-138101935D01*
X133306033Y-138125968D01*
X133306033Y-138150472D01*
X133310814Y-138174505D01*
X133320190Y-138197142D01*
X133327549Y-138210910D01*
X133329677Y-138217924D01*
X133331000Y-138231359D01*
X133331000Y-138545079D01*
X133329677Y-138558514D01*
X133327549Y-138565528D01*
X133320190Y-138579296D01*
X133310813Y-138601935D01*
X133306033Y-138625968D01*
X133306033Y-138650472D01*
X133310814Y-138674505D01*
X133320190Y-138697142D01*
X133327549Y-138710910D01*
X133329677Y-138717924D01*
X133331000Y-138731359D01*
X133331000Y-139045079D01*
X133329677Y-139058514D01*
X133327549Y-139065528D01*
X133320190Y-139079296D01*
X133310813Y-139101935D01*
X133306033Y-139125968D01*
X133306033Y-139150472D01*
X133310814Y-139174505D01*
X133320190Y-139197142D01*
X133327549Y-139210910D01*
X133329677Y-139217924D01*
X133331000Y-139231359D01*
X133331000Y-139545079D01*
X133329677Y-139558514D01*
X133327549Y-139565528D01*
X133320190Y-139579296D01*
X133310813Y-139601935D01*
X133306033Y-139625968D01*
X133306033Y-139650472D01*
X133310814Y-139674505D01*
X133320190Y-139697142D01*
X133327549Y-139710910D01*
X133329677Y-139717924D01*
X133331000Y-139731359D01*
X133331000Y-140045079D01*
X133329677Y-140058514D01*
X133327549Y-140065528D01*
X133320190Y-140079296D01*
X133310813Y-140101935D01*
X133306033Y-140125968D01*
X133306033Y-140150472D01*
X133310814Y-140174505D01*
X133320190Y-140197142D01*
X133327549Y-140210910D01*
X133329677Y-140217924D01*
X133331000Y-140231359D01*
X133331000Y-140545079D01*
X133329677Y-140558514D01*
X133327549Y-140565528D01*
X133320190Y-140579296D01*
X133310813Y-140601935D01*
X133306033Y-140625968D01*
X133306033Y-140650472D01*
X133310814Y-140674505D01*
X133320190Y-140697142D01*
X133327549Y-140710910D01*
X133329677Y-140717924D01*
X133331000Y-140731359D01*
X133331000Y-141045079D01*
X133329677Y-141058514D01*
X133327549Y-141065528D01*
X133320190Y-141079296D01*
X133310813Y-141101935D01*
X133306033Y-141125968D01*
X133306033Y-141150472D01*
X133310814Y-141174505D01*
X133320190Y-141197142D01*
X133327549Y-141210910D01*
X133329677Y-141217924D01*
X133331000Y-141231359D01*
X133331000Y-141545079D01*
X133329677Y-141558514D01*
X133327549Y-141565528D01*
X133320190Y-141579296D01*
X133310813Y-141601935D01*
X133306033Y-141625968D01*
X133306033Y-141650472D01*
X133310814Y-141674505D01*
X133320190Y-141697142D01*
X133327549Y-141710910D01*
X133329677Y-141717924D01*
X133331000Y-141731359D01*
X133331000Y-142045079D01*
X133329677Y-142058514D01*
X133327549Y-142065529D01*
X133324092Y-142071995D01*
X133319442Y-142077661D01*
X133313776Y-142082311D01*
X133307310Y-142085768D01*
X133300295Y-142087896D01*
X133286860Y-142089219D01*
X131798140Y-142089219D01*
X131784705Y-142087896D01*
X131777690Y-142085768D01*
X131771224Y-142082311D01*
X131765558Y-142077661D01*
X131760908Y-142071995D01*
X131757451Y-142065529D01*
X131755323Y-142058514D01*
X131754000Y-142045079D01*
X131754000Y-141731359D01*
X131755323Y-141717924D01*
X131757451Y-141710910D01*
X131764810Y-141697142D01*
X131774187Y-141674503D01*
X131778967Y-141650470D01*
X131778967Y-141625966D01*
X131774186Y-141601933D01*
X131764810Y-141579296D01*
X131757451Y-141565528D01*
X131755323Y-141558514D01*
X131754000Y-141545079D01*
X131754000Y-141231359D01*
X131755323Y-141217924D01*
X131757451Y-141210910D01*
X131764810Y-141197142D01*
X131774187Y-141174503D01*
X131778967Y-141150470D01*
X131778967Y-141125966D01*
X131774186Y-141101933D01*
X131764810Y-141079296D01*
X131757451Y-141065528D01*
X131755323Y-141058514D01*
X131754000Y-141045079D01*
X131754000Y-140731359D01*
X131755323Y-140717924D01*
X131757451Y-140710910D01*
X131764810Y-140697142D01*
X131774187Y-140674503D01*
X131778967Y-140650470D01*
X131778967Y-140625966D01*
X131774186Y-140601933D01*
X131764810Y-140579296D01*
X131757451Y-140565528D01*
X131755323Y-140558514D01*
X131754000Y-140545079D01*
X131754000Y-140231359D01*
X131755323Y-140217924D01*
X131757451Y-140210910D01*
X131764810Y-140197142D01*
X131774187Y-140174503D01*
X131778967Y-140150470D01*
X131778967Y-140125966D01*
X131774186Y-140101933D01*
X131764810Y-140079296D01*
X131757451Y-140065528D01*
X131755323Y-140058514D01*
X131754000Y-140045079D01*
X131754000Y-139731359D01*
X131755323Y-139717924D01*
X131757451Y-139710910D01*
X131764810Y-139697142D01*
X131774187Y-139674503D01*
X131778967Y-139650470D01*
X131778967Y-139625966D01*
X131774186Y-139601933D01*
X131764810Y-139579296D01*
X131757451Y-139565528D01*
X131755323Y-139558514D01*
X131754000Y-139545079D01*
X131754000Y-139231359D01*
X131755323Y-139217924D01*
X131757451Y-139210910D01*
X131764810Y-139197142D01*
X131774187Y-139174503D01*
X131778967Y-139150470D01*
X131778967Y-139125966D01*
X131774186Y-139101933D01*
X131764810Y-139079296D01*
X131757451Y-139065528D01*
X131755323Y-139058514D01*
X131754000Y-139045079D01*
X131754000Y-138731359D01*
X131755323Y-138717924D01*
X131757451Y-138710910D01*
X131764810Y-138697142D01*
X131774187Y-138674503D01*
X131778967Y-138650470D01*
X131778967Y-138625966D01*
X131774186Y-138601933D01*
X131764810Y-138579296D01*
X131757451Y-138565528D01*
X131755323Y-138558514D01*
X131754000Y-138545079D01*
X131754000Y-138231359D01*
X131755323Y-138217924D01*
X131757451Y-138210910D01*
X131764810Y-138197142D01*
X131774187Y-138174503D01*
X131778967Y-138150470D01*
X131778967Y-138125966D01*
X131774186Y-138101933D01*
X131764810Y-138079296D01*
X131757451Y-138065528D01*
X131755323Y-138058514D01*
X131754000Y-138045079D01*
X131754000Y-137731359D01*
X131755323Y-137717924D01*
X131757451Y-137710910D01*
X131764810Y-137697142D01*
X131774187Y-137674503D01*
X131778967Y-137650470D01*
X131778967Y-137625966D01*
X131774186Y-137601933D01*
X131764810Y-137579296D01*
X131757451Y-137565528D01*
X131755323Y-137558514D01*
X131754000Y-137545079D01*
X131754000Y-137231359D01*
X131755323Y-137217924D01*
X131757451Y-137210910D01*
X131764810Y-137197142D01*
X131774187Y-137174503D01*
X131778967Y-137150470D01*
X131778967Y-137125966D01*
X131774186Y-137101933D01*
X131764810Y-137079296D01*
X131757451Y-137065528D01*
X131755323Y-137058514D01*
X131754000Y-137045079D01*
X131754000Y-136731359D01*
X131755323Y-136717924D01*
X131757451Y-136710910D01*
X131764810Y-136697142D01*
X131774187Y-136674503D01*
X131778967Y-136650470D01*
X131778967Y-136625966D01*
X131774186Y-136601933D01*
X131764810Y-136579296D01*
X131757451Y-136565528D01*
X131755323Y-136558514D01*
X131754000Y-136545079D01*
X131754000Y-136231359D01*
X131755323Y-136217924D01*
X131757451Y-136210909D01*
X131760908Y-136204443D01*
X131765558Y-136198777D01*
X131771224Y-136194127D01*
X131777690Y-136190670D01*
X131784705Y-136188542D01*
X131798140Y-136187219D01*
X133286860Y-136187219D01*
X133300295Y-136188542D01*
G37*
G36*
X124975295Y-136188542D02*
G01*
X124982310Y-136190670D01*
X124988776Y-136194127D01*
X124994442Y-136198777D01*
X124999092Y-136204443D01*
X125002549Y-136210909D01*
X125004677Y-136217924D01*
X125006000Y-136231359D01*
X125006000Y-136545079D01*
X125004677Y-136558514D01*
X125002549Y-136565528D01*
X124995190Y-136579296D01*
X124985813Y-136601935D01*
X124981033Y-136625968D01*
X124981033Y-136650472D01*
X124985814Y-136674505D01*
X124995190Y-136697142D01*
X125002549Y-136710910D01*
X125004677Y-136717924D01*
X125006000Y-136731359D01*
X125006000Y-137045079D01*
X125004677Y-137058514D01*
X125002549Y-137065528D01*
X124995190Y-137079296D01*
X124985813Y-137101935D01*
X124981033Y-137125968D01*
X124981033Y-137150472D01*
X124985814Y-137174505D01*
X124995190Y-137197142D01*
X125002549Y-137210910D01*
X125004677Y-137217924D01*
X125006000Y-137231359D01*
X125006000Y-137545079D01*
X125004677Y-137558514D01*
X125002549Y-137565528D01*
X124995190Y-137579296D01*
X124985813Y-137601935D01*
X124981033Y-137625968D01*
X124981033Y-137650472D01*
X124985814Y-137674505D01*
X124995190Y-137697142D01*
X125002549Y-137710910D01*
X125004677Y-137717924D01*
X125006000Y-137731359D01*
X125006000Y-138045079D01*
X125004677Y-138058514D01*
X125002549Y-138065528D01*
X124995190Y-138079296D01*
X124985813Y-138101935D01*
X124981033Y-138125968D01*
X124981033Y-138150472D01*
X124985814Y-138174505D01*
X124995190Y-138197142D01*
X125002549Y-138210910D01*
X125004677Y-138217924D01*
X125006000Y-138231359D01*
X125006000Y-138545079D01*
X125004677Y-138558514D01*
X125002549Y-138565528D01*
X124995190Y-138579296D01*
X124985813Y-138601935D01*
X124981033Y-138625968D01*
X124981033Y-138650472D01*
X124985814Y-138674505D01*
X124995190Y-138697142D01*
X125002549Y-138710910D01*
X125004677Y-138717924D01*
X125006000Y-138731359D01*
X125006000Y-139045079D01*
X125004677Y-139058514D01*
X125002549Y-139065528D01*
X124995190Y-139079296D01*
X124985813Y-139101935D01*
X124981033Y-139125968D01*
X124981033Y-139150472D01*
X124985814Y-139174505D01*
X124995190Y-139197142D01*
X125002549Y-139210910D01*
X125004677Y-139217924D01*
X125006000Y-139231359D01*
X125006000Y-139545079D01*
X125004677Y-139558514D01*
X125002549Y-139565528D01*
X124995190Y-139579296D01*
X124985813Y-139601935D01*
X124981033Y-139625968D01*
X124981033Y-139650472D01*
X124985814Y-139674505D01*
X124995190Y-139697142D01*
X125002549Y-139710910D01*
X125004677Y-139717924D01*
X125006000Y-139731359D01*
X125006000Y-140045079D01*
X125004677Y-140058514D01*
X125002549Y-140065528D01*
X124995190Y-140079296D01*
X124985813Y-140101935D01*
X124981033Y-140125968D01*
X124981033Y-140150472D01*
X124985814Y-140174505D01*
X124995190Y-140197142D01*
X125002549Y-140210910D01*
X125004677Y-140217924D01*
X125006000Y-140231359D01*
X125006000Y-140545079D01*
X125004677Y-140558514D01*
X125002549Y-140565528D01*
X124995190Y-140579296D01*
X124985813Y-140601935D01*
X124981033Y-140625968D01*
X124981033Y-140650472D01*
X124985814Y-140674505D01*
X124995190Y-140697142D01*
X125002549Y-140710910D01*
X125004677Y-140717924D01*
X125006000Y-140731359D01*
X125006000Y-141045079D01*
X125004677Y-141058514D01*
X125002549Y-141065528D01*
X124995190Y-141079296D01*
X124985813Y-141101935D01*
X124981033Y-141125968D01*
X124981033Y-141150472D01*
X124985814Y-141174505D01*
X124995190Y-141197142D01*
X125002549Y-141210910D01*
X125004677Y-141217924D01*
X125006000Y-141231359D01*
X125006000Y-141545079D01*
X125004677Y-141558514D01*
X125002549Y-141565528D01*
X124995190Y-141579296D01*
X124985813Y-141601935D01*
X124981033Y-141625968D01*
X124981033Y-141650472D01*
X124985814Y-141674505D01*
X124995190Y-141697142D01*
X125002549Y-141710910D01*
X125004677Y-141717924D01*
X125006000Y-141731359D01*
X125006000Y-142045079D01*
X125004677Y-142058514D01*
X125002549Y-142065529D01*
X124999092Y-142071995D01*
X124994442Y-142077661D01*
X124988776Y-142082311D01*
X124982310Y-142085768D01*
X124975295Y-142087896D01*
X124961860Y-142089219D01*
X123473140Y-142089219D01*
X123459705Y-142087896D01*
X123452690Y-142085768D01*
X123446224Y-142082311D01*
X123440558Y-142077661D01*
X123435908Y-142071995D01*
X123432451Y-142065529D01*
X123430323Y-142058514D01*
X123429000Y-142045079D01*
X123429000Y-141731359D01*
X123430323Y-141717924D01*
X123432451Y-141710910D01*
X123439810Y-141697142D01*
X123449187Y-141674503D01*
X123453967Y-141650470D01*
X123453967Y-141625966D01*
X123449186Y-141601933D01*
X123439810Y-141579296D01*
X123432451Y-141565528D01*
X123430323Y-141558514D01*
X123429000Y-141545079D01*
X123429000Y-141231359D01*
X123430323Y-141217924D01*
X123432451Y-141210910D01*
X123439810Y-141197142D01*
X123449187Y-141174503D01*
X123453967Y-141150470D01*
X123453967Y-141125966D01*
X123449186Y-141101933D01*
X123439810Y-141079296D01*
X123432451Y-141065528D01*
X123430323Y-141058514D01*
X123429000Y-141045079D01*
X123429000Y-140731359D01*
X123430323Y-140717924D01*
X123432451Y-140710910D01*
X123439810Y-140697142D01*
X123449187Y-140674503D01*
X123453967Y-140650470D01*
X123453967Y-140625966D01*
X123449186Y-140601933D01*
X123439810Y-140579296D01*
X123432451Y-140565528D01*
X123430323Y-140558514D01*
X123429000Y-140545079D01*
X123429000Y-140231359D01*
X123430323Y-140217924D01*
X123432451Y-140210910D01*
X123439810Y-140197142D01*
X123449187Y-140174503D01*
X123453967Y-140150470D01*
X123453967Y-140125966D01*
X123449186Y-140101933D01*
X123439810Y-140079296D01*
X123432451Y-140065528D01*
X123430323Y-140058514D01*
X123429000Y-140045079D01*
X123429000Y-139731359D01*
X123430323Y-139717924D01*
X123432451Y-139710910D01*
X123439810Y-139697142D01*
X123449187Y-139674503D01*
X123453967Y-139650470D01*
X123453967Y-139625966D01*
X123449186Y-139601933D01*
X123439810Y-139579296D01*
X123432451Y-139565528D01*
X123430323Y-139558514D01*
X123429000Y-139545079D01*
X123429000Y-139231359D01*
X123430323Y-139217924D01*
X123432451Y-139210910D01*
X123439810Y-139197142D01*
X123449187Y-139174503D01*
X123453967Y-139150470D01*
X123453967Y-139125966D01*
X123449186Y-139101933D01*
X123439810Y-139079296D01*
X123432451Y-139065528D01*
X123430323Y-139058514D01*
X123429000Y-139045079D01*
X123429000Y-138731359D01*
X123430323Y-138717924D01*
X123432451Y-138710910D01*
X123439810Y-138697142D01*
X123449187Y-138674503D01*
X123453967Y-138650470D01*
X123453967Y-138625966D01*
X123449186Y-138601933D01*
X123439810Y-138579296D01*
X123432451Y-138565528D01*
X123430323Y-138558514D01*
X123429000Y-138545079D01*
X123429000Y-138231359D01*
X123430323Y-138217924D01*
X123432451Y-138210910D01*
X123439810Y-138197142D01*
X123449187Y-138174503D01*
X123453967Y-138150470D01*
X123453967Y-138125966D01*
X123449186Y-138101933D01*
X123439810Y-138079296D01*
X123432451Y-138065528D01*
X123430323Y-138058514D01*
X123429000Y-138045079D01*
X123429000Y-137731359D01*
X123430323Y-137717924D01*
X123432451Y-137710910D01*
X123439810Y-137697142D01*
X123449187Y-137674503D01*
X123453967Y-137650470D01*
X123453967Y-137625966D01*
X123449186Y-137601933D01*
X123439810Y-137579296D01*
X123432451Y-137565528D01*
X123430323Y-137558514D01*
X123429000Y-137545079D01*
X123429000Y-137231359D01*
X123430323Y-137217924D01*
X123432451Y-137210910D01*
X123439810Y-137197142D01*
X123449187Y-137174503D01*
X123453967Y-137150470D01*
X123453967Y-137125966D01*
X123449186Y-137101933D01*
X123439810Y-137079296D01*
X123432451Y-137065528D01*
X123430323Y-137058514D01*
X123429000Y-137045079D01*
X123429000Y-136731359D01*
X123430323Y-136717924D01*
X123432451Y-136710910D01*
X123439810Y-136697142D01*
X123449187Y-136674503D01*
X123453967Y-136650470D01*
X123453967Y-136625966D01*
X123449186Y-136601933D01*
X123439810Y-136579296D01*
X123432451Y-136565528D01*
X123430323Y-136558514D01*
X123429000Y-136545079D01*
X123429000Y-136231359D01*
X123430323Y-136217924D01*
X123432451Y-136210909D01*
X123435908Y-136204443D01*
X123440558Y-136198777D01*
X123446224Y-136194127D01*
X123452690Y-136190670D01*
X123459705Y-136188542D01*
X123473140Y-136187219D01*
X124961860Y-136187219D01*
X124975295Y-136188542D01*
G37*
G36*
X146013512Y-138973927D02*
G01*
X146162812Y-139003624D01*
X146326784Y-139071544D01*
X146474354Y-139170147D01*
X146599853Y-139295646D01*
X146698456Y-139443216D01*
X146766376Y-139607188D01*
X146801000Y-139781259D01*
X146801000Y-139958741D01*
X146766376Y-140132812D01*
X146698456Y-140296784D01*
X146599853Y-140444354D01*
X146474354Y-140569853D01*
X146326784Y-140668456D01*
X146162812Y-140736376D01*
X146013512Y-140766073D01*
X145988742Y-140771000D01*
X145811258Y-140771000D01*
X145786488Y-140766073D01*
X145637188Y-140736376D01*
X145473216Y-140668456D01*
X145325646Y-140569853D01*
X145200147Y-140444354D01*
X145101544Y-140296784D01*
X145033624Y-140132812D01*
X144999000Y-139958741D01*
X144999000Y-139781259D01*
X145033624Y-139607188D01*
X145101544Y-139443216D01*
X145200147Y-139295646D01*
X145325646Y-139170147D01*
X145473216Y-139071544D01*
X145637188Y-139003624D01*
X145786488Y-138973927D01*
X145811258Y-138969000D01*
X145988742Y-138969000D01*
X146013512Y-138973927D01*
G37*
G36*
X111013512Y-138973927D02*
G01*
X111162812Y-139003624D01*
X111326784Y-139071544D01*
X111474354Y-139170147D01*
X111599853Y-139295646D01*
X111698456Y-139443216D01*
X111766376Y-139607188D01*
X111801000Y-139781259D01*
X111801000Y-139958741D01*
X111766376Y-140132812D01*
X111698456Y-140296784D01*
X111599853Y-140444354D01*
X111474354Y-140569853D01*
X111326784Y-140668456D01*
X111162812Y-140736376D01*
X111013512Y-140766073D01*
X110988742Y-140771000D01*
X110811258Y-140771000D01*
X110786488Y-140766073D01*
X110637188Y-140736376D01*
X110473216Y-140668456D01*
X110325646Y-140569853D01*
X110200147Y-140444354D01*
X110101544Y-140296784D01*
X110033624Y-140132812D01*
X109999000Y-139958741D01*
X109999000Y-139781259D01*
X110033624Y-139607188D01*
X110101544Y-139443216D01*
X110200147Y-139295646D01*
X110325646Y-139170147D01*
X110473216Y-139071544D01*
X110637188Y-139003624D01*
X110786488Y-138973927D01*
X110811258Y-138969000D01*
X110988742Y-138969000D01*
X111013512Y-138973927D01*
G37*
G36*
X146013512Y-136433927D02*
G01*
X146162812Y-136463624D01*
X146326784Y-136531544D01*
X146474354Y-136630147D01*
X146599853Y-136755646D01*
X146698456Y-136903216D01*
X146766376Y-137067188D01*
X146787722Y-137174505D01*
X146796359Y-137217924D01*
X146801000Y-137241259D01*
X146801000Y-137418741D01*
X146766376Y-137592812D01*
X146698456Y-137756784D01*
X146599853Y-137904354D01*
X146474354Y-138029853D01*
X146326784Y-138128456D01*
X146162812Y-138196376D01*
X146013512Y-138226073D01*
X145988742Y-138231000D01*
X145811258Y-138231000D01*
X145786488Y-138226073D01*
X145637188Y-138196376D01*
X145473216Y-138128456D01*
X145325646Y-138029853D01*
X145200147Y-137904354D01*
X145101544Y-137756784D01*
X145033624Y-137592812D01*
X144999000Y-137418741D01*
X144999000Y-137241259D01*
X145003642Y-137217924D01*
X145012278Y-137174505D01*
X145033624Y-137067188D01*
X145101544Y-136903216D01*
X145200147Y-136755646D01*
X145325646Y-136630147D01*
X145473216Y-136531544D01*
X145637188Y-136463624D01*
X145786488Y-136433927D01*
X145811258Y-136429000D01*
X145988742Y-136429000D01*
X146013512Y-136433927D01*
G37*
G36*
X111013512Y-136433927D02*
G01*
X111162812Y-136463624D01*
X111326784Y-136531544D01*
X111474354Y-136630147D01*
X111599853Y-136755646D01*
X111698456Y-136903216D01*
X111766376Y-137067188D01*
X111787722Y-137174505D01*
X111796359Y-137217924D01*
X111801000Y-137241259D01*
X111801000Y-137418741D01*
X111766376Y-137592812D01*
X111698456Y-137756784D01*
X111599853Y-137904354D01*
X111474354Y-138029853D01*
X111326784Y-138128456D01*
X111162812Y-138196376D01*
X111013512Y-138226073D01*
X110988742Y-138231000D01*
X110811258Y-138231000D01*
X110786488Y-138226073D01*
X110637188Y-138196376D01*
X110473216Y-138128456D01*
X110325646Y-138029853D01*
X110200147Y-137904354D01*
X110101544Y-137756784D01*
X110033624Y-137592812D01*
X109999000Y-137418741D01*
X109999000Y-137241259D01*
X110003642Y-137217924D01*
X110012278Y-137174505D01*
X110033624Y-137067188D01*
X110101544Y-136903216D01*
X110200147Y-136755646D01*
X110325646Y-136630147D01*
X110473216Y-136531544D01*
X110637188Y-136463624D01*
X110786488Y-136433927D01*
X110811258Y-136429000D01*
X110988742Y-136429000D01*
X111013512Y-136433927D01*
G37*
G36*
X116646000Y-135951000D02*
G01*
X115244000Y-135951000D01*
X115244000Y-133849000D01*
X116646000Y-133849000D01*
X116646000Y-135951000D01*
G37*
G36*
X135079591Y-134903085D02*
G01*
X135113569Y-134913393D01*
X135144890Y-134930134D01*
X135172339Y-134952661D01*
X135194866Y-134980110D01*
X135211607Y-135011431D01*
X135221915Y-135045409D01*
X135226000Y-135086890D01*
X135226000Y-135763110D01*
X135221915Y-135804591D01*
X135211607Y-135838569D01*
X135194866Y-135869890D01*
X135172339Y-135897339D01*
X135144890Y-135919866D01*
X135113569Y-135936607D01*
X135079591Y-135946915D01*
X135038110Y-135951000D01*
X134436890Y-135951000D01*
X134395409Y-135946915D01*
X134361431Y-135936607D01*
X134330110Y-135919866D01*
X134302661Y-135897339D01*
X134280134Y-135869890D01*
X134263393Y-135838569D01*
X134253085Y-135804591D01*
X134249000Y-135763110D01*
X134249000Y-135086890D01*
X134253085Y-135045409D01*
X134263393Y-135011431D01*
X134280134Y-134980110D01*
X134302661Y-134952661D01*
X134330110Y-134930134D01*
X134361431Y-134913393D01*
X134395409Y-134903085D01*
X134436890Y-134899000D01*
X135038110Y-134899000D01*
X135079591Y-134903085D01*
G37*
G36*
X136654591Y-134903085D02*
G01*
X136688569Y-134913393D01*
X136719890Y-134930134D01*
X136747339Y-134952661D01*
X136769866Y-134980110D01*
X136786607Y-135011431D01*
X136796915Y-135045409D01*
X136801000Y-135086890D01*
X136801000Y-135763110D01*
X136796915Y-135804591D01*
X136786607Y-135838569D01*
X136769866Y-135869890D01*
X136747339Y-135897339D01*
X136719890Y-135919866D01*
X136688569Y-135936607D01*
X136654591Y-135946915D01*
X136613110Y-135951000D01*
X136011890Y-135951000D01*
X135970409Y-135946915D01*
X135936431Y-135936607D01*
X135905110Y-135919866D01*
X135877661Y-135897339D01*
X135855134Y-135869890D01*
X135838393Y-135838569D01*
X135828085Y-135804591D01*
X135824000Y-135763110D01*
X135824000Y-135086890D01*
X135828085Y-135045409D01*
X135838393Y-135011431D01*
X135855134Y-134980110D01*
X135877661Y-134952661D01*
X135905110Y-134930134D01*
X135936431Y-134913393D01*
X135970409Y-134903085D01*
X136011890Y-134899000D01*
X136613110Y-134899000D01*
X136654591Y-134903085D01*
G37*
G36*
X120356000Y-135951000D02*
G01*
X118954000Y-135951000D01*
X118954000Y-133849000D01*
X120356000Y-133849000D01*
X120356000Y-135951000D01*
G37*
G36*
X125800295Y-134188542D02*
G01*
X125807309Y-134190670D01*
X125821077Y-134198029D01*
X125843716Y-134207406D01*
X125867749Y-134212186D01*
X125892253Y-134212186D01*
X125916286Y-134207405D01*
X125938923Y-134198029D01*
X125952691Y-134190670D01*
X125959705Y-134188542D01*
X125973140Y-134187219D01*
X126286860Y-134187219D01*
X126300295Y-134188542D01*
X126307309Y-134190670D01*
X126321077Y-134198029D01*
X126343716Y-134207406D01*
X126367749Y-134212186D01*
X126392253Y-134212186D01*
X126416286Y-134207405D01*
X126438923Y-134198029D01*
X126452691Y-134190670D01*
X126459705Y-134188542D01*
X126473140Y-134187219D01*
X126786860Y-134187219D01*
X126800295Y-134188542D01*
X126807309Y-134190670D01*
X126821077Y-134198029D01*
X126843716Y-134207406D01*
X126867749Y-134212186D01*
X126892253Y-134212186D01*
X126916286Y-134207405D01*
X126938923Y-134198029D01*
X126952691Y-134190670D01*
X126959705Y-134188542D01*
X126973140Y-134187219D01*
X127286860Y-134187219D01*
X127300295Y-134188542D01*
X127307309Y-134190670D01*
X127321077Y-134198029D01*
X127343716Y-134207406D01*
X127367749Y-134212186D01*
X127392253Y-134212186D01*
X127416286Y-134207405D01*
X127438923Y-134198029D01*
X127452691Y-134190670D01*
X127459705Y-134188542D01*
X127473140Y-134187219D01*
X127786860Y-134187219D01*
X127800295Y-134188542D01*
X127807309Y-134190670D01*
X127821077Y-134198029D01*
X127843716Y-134207406D01*
X127867749Y-134212186D01*
X127892253Y-134212186D01*
X127916286Y-134207405D01*
X127938923Y-134198029D01*
X127952691Y-134190670D01*
X127959705Y-134188542D01*
X127973140Y-134187219D01*
X128286860Y-134187219D01*
X128300295Y-134188542D01*
X128307309Y-134190670D01*
X128321077Y-134198029D01*
X128343716Y-134207406D01*
X128367749Y-134212186D01*
X128392253Y-134212186D01*
X128416286Y-134207405D01*
X128438923Y-134198029D01*
X128452691Y-134190670D01*
X128459705Y-134188542D01*
X128473140Y-134187219D01*
X128786860Y-134187219D01*
X128800295Y-134188542D01*
X128807309Y-134190670D01*
X128821077Y-134198029D01*
X128843716Y-134207406D01*
X128867749Y-134212186D01*
X128892253Y-134212186D01*
X128916286Y-134207405D01*
X128938923Y-134198029D01*
X128952691Y-134190670D01*
X128959705Y-134188542D01*
X128973140Y-134187219D01*
X129286860Y-134187219D01*
X129300295Y-134188542D01*
X129307309Y-134190670D01*
X129321077Y-134198029D01*
X129343716Y-134207406D01*
X129367749Y-134212186D01*
X129392253Y-134212186D01*
X129416286Y-134207405D01*
X129438923Y-134198029D01*
X129452691Y-134190670D01*
X129459705Y-134188542D01*
X129473140Y-134187219D01*
X129786860Y-134187219D01*
X129800295Y-134188542D01*
X129807309Y-134190670D01*
X129821077Y-134198029D01*
X129843716Y-134207406D01*
X129867749Y-134212186D01*
X129892253Y-134212186D01*
X129916286Y-134207405D01*
X129938923Y-134198029D01*
X129952691Y-134190670D01*
X129959705Y-134188542D01*
X129973140Y-134187219D01*
X130286860Y-134187219D01*
X130300295Y-134188542D01*
X130307309Y-134190670D01*
X130321077Y-134198029D01*
X130343716Y-134207406D01*
X130367749Y-134212186D01*
X130392253Y-134212186D01*
X130416286Y-134207405D01*
X130438923Y-134198029D01*
X130452691Y-134190670D01*
X130459705Y-134188542D01*
X130473140Y-134187219D01*
X130786860Y-134187219D01*
X130800295Y-134188542D01*
X130807309Y-134190670D01*
X130821077Y-134198029D01*
X130843716Y-134207406D01*
X130867749Y-134212186D01*
X130892253Y-134212186D01*
X130916286Y-134207405D01*
X130938923Y-134198029D01*
X130952691Y-134190670D01*
X130959705Y-134188542D01*
X130973140Y-134187219D01*
X131286860Y-134187219D01*
X131300295Y-134188542D01*
X131307310Y-134190670D01*
X131313776Y-134194127D01*
X131319442Y-134198777D01*
X131324092Y-134204443D01*
X131327549Y-134210909D01*
X131329677Y-134217924D01*
X131331000Y-134231359D01*
X131331000Y-135720079D01*
X131329677Y-135733514D01*
X131327549Y-135740529D01*
X131324092Y-135746995D01*
X131319442Y-135752661D01*
X131313776Y-135757311D01*
X131307310Y-135760768D01*
X131300295Y-135762896D01*
X131286860Y-135764219D01*
X130973140Y-135764219D01*
X130959705Y-135762896D01*
X130952691Y-135760768D01*
X130938923Y-135753409D01*
X130916284Y-135744032D01*
X130892251Y-135739252D01*
X130867747Y-135739252D01*
X130843714Y-135744033D01*
X130821077Y-135753409D01*
X130807309Y-135760768D01*
X130800295Y-135762896D01*
X130786860Y-135764219D01*
X130473140Y-135764219D01*
X130459705Y-135762896D01*
X130452691Y-135760768D01*
X130438923Y-135753409D01*
X130416284Y-135744032D01*
X130392251Y-135739252D01*
X130367747Y-135739252D01*
X130343714Y-135744033D01*
X130321077Y-135753409D01*
X130307309Y-135760768D01*
X130300295Y-135762896D01*
X130286860Y-135764219D01*
X129973140Y-135764219D01*
X129959705Y-135762896D01*
X129952691Y-135760768D01*
X129938923Y-135753409D01*
X129916284Y-135744032D01*
X129892251Y-135739252D01*
X129867747Y-135739252D01*
X129843714Y-135744033D01*
X129821077Y-135753409D01*
X129807309Y-135760768D01*
X129800295Y-135762896D01*
X129786860Y-135764219D01*
X129473140Y-135764219D01*
X129459705Y-135762896D01*
X129452691Y-135760768D01*
X129438923Y-135753409D01*
X129416284Y-135744032D01*
X129392251Y-135739252D01*
X129367747Y-135739252D01*
X129343714Y-135744033D01*
X129321077Y-135753409D01*
X129307309Y-135760768D01*
X129300295Y-135762896D01*
X129286860Y-135764219D01*
X128973140Y-135764219D01*
X128959705Y-135762896D01*
X128952691Y-135760768D01*
X128938923Y-135753409D01*
X128916284Y-135744032D01*
X128892251Y-135739252D01*
X128867747Y-135739252D01*
X128843714Y-135744033D01*
X128821077Y-135753409D01*
X128807309Y-135760768D01*
X128800295Y-135762896D01*
X128786860Y-135764219D01*
X128473140Y-135764219D01*
X128459705Y-135762896D01*
X128452691Y-135760768D01*
X128438923Y-135753409D01*
X128416284Y-135744032D01*
X128392251Y-135739252D01*
X128367747Y-135739252D01*
X128343714Y-135744033D01*
X128321077Y-135753409D01*
X128307309Y-135760768D01*
X128300295Y-135762896D01*
X128286860Y-135764219D01*
X127973140Y-135764219D01*
X127959705Y-135762896D01*
X127952691Y-135760768D01*
X127938923Y-135753409D01*
X127916284Y-135744032D01*
X127892251Y-135739252D01*
X127867747Y-135739252D01*
X127843714Y-135744033D01*
X127821077Y-135753409D01*
X127807309Y-135760768D01*
X127800295Y-135762896D01*
X127786860Y-135764219D01*
X127473140Y-135764219D01*
X127459705Y-135762896D01*
X127452691Y-135760768D01*
X127438923Y-135753409D01*
X127416284Y-135744032D01*
X127392251Y-135739252D01*
X127367747Y-135739252D01*
X127343714Y-135744033D01*
X127321077Y-135753409D01*
X127307309Y-135760768D01*
X127300295Y-135762896D01*
X127286860Y-135764219D01*
X126973140Y-135764219D01*
X126959705Y-135762896D01*
X126952691Y-135760768D01*
X126938923Y-135753409D01*
X126916284Y-135744032D01*
X126892251Y-135739252D01*
X126867747Y-135739252D01*
X126843714Y-135744033D01*
X126821077Y-135753409D01*
X126807309Y-135760768D01*
X126800295Y-135762896D01*
X126786860Y-135764219D01*
X126473140Y-135764219D01*
X126459705Y-135762896D01*
X126452691Y-135760768D01*
X126438923Y-135753409D01*
X126416284Y-135744032D01*
X126392251Y-135739252D01*
X126367747Y-135739252D01*
X126343714Y-135744033D01*
X126321077Y-135753409D01*
X126307309Y-135760768D01*
X126300295Y-135762896D01*
X126286860Y-135764219D01*
X125973140Y-135764219D01*
X125959705Y-135762896D01*
X125952691Y-135760768D01*
X125938923Y-135753409D01*
X125916284Y-135744032D01*
X125892251Y-135739252D01*
X125867747Y-135739252D01*
X125843714Y-135744033D01*
X125821077Y-135753409D01*
X125807309Y-135760768D01*
X125800295Y-135762896D01*
X125786860Y-135764219D01*
X125473140Y-135764219D01*
X125459705Y-135762896D01*
X125452690Y-135760768D01*
X125446224Y-135757311D01*
X125440558Y-135752661D01*
X125435908Y-135746995D01*
X125432451Y-135740529D01*
X125430323Y-135733514D01*
X125429000Y-135720079D01*
X125429000Y-134231359D01*
X125430323Y-134217924D01*
X125432451Y-134210909D01*
X125435908Y-134204443D01*
X125440558Y-134198777D01*
X125446224Y-134194127D01*
X125452690Y-134190670D01*
X125459705Y-134188542D01*
X125473140Y-134187219D01*
X125786860Y-134187219D01*
X125800295Y-134188542D01*
G37*
G36*
X146013512Y-133893927D02*
G01*
X146162812Y-133923624D01*
X146326784Y-133991544D01*
X146474354Y-134090147D01*
X146599853Y-134215646D01*
X146698456Y-134363216D01*
X146766376Y-134527188D01*
X146801000Y-134701259D01*
X146801000Y-134878741D01*
X146766376Y-135052812D01*
X146698456Y-135216784D01*
X146599853Y-135364354D01*
X146474354Y-135489853D01*
X146326784Y-135588456D01*
X146162812Y-135656376D01*
X146013512Y-135686073D01*
X145988742Y-135691000D01*
X145811258Y-135691000D01*
X145786488Y-135686073D01*
X145637188Y-135656376D01*
X145473216Y-135588456D01*
X145325646Y-135489853D01*
X145200147Y-135364354D01*
X145101544Y-135216784D01*
X145033624Y-135052812D01*
X144999000Y-134878741D01*
X144999000Y-134701259D01*
X145033624Y-134527188D01*
X145101544Y-134363216D01*
X145200147Y-134215646D01*
X145325646Y-134090147D01*
X145473216Y-133991544D01*
X145637188Y-133923624D01*
X145786488Y-133893927D01*
X145811258Y-133889000D01*
X145988742Y-133889000D01*
X146013512Y-133893927D01*
G37*
G36*
X111013512Y-133893927D02*
G01*
X111162812Y-133923624D01*
X111326784Y-133991544D01*
X111474354Y-134090147D01*
X111599853Y-134215646D01*
X111698456Y-134363216D01*
X111766376Y-134527188D01*
X111801000Y-134701259D01*
X111801000Y-134878741D01*
X111766376Y-135052812D01*
X111698456Y-135216784D01*
X111599853Y-135364354D01*
X111474354Y-135489853D01*
X111326784Y-135588456D01*
X111162812Y-135656376D01*
X111013512Y-135686073D01*
X110988742Y-135691000D01*
X110811258Y-135691000D01*
X110786488Y-135686073D01*
X110637188Y-135656376D01*
X110473216Y-135588456D01*
X110325646Y-135489853D01*
X110200147Y-135364354D01*
X110101544Y-135216784D01*
X110033624Y-135052812D01*
X109999000Y-134878741D01*
X109999000Y-134701259D01*
X110033624Y-134527188D01*
X110101544Y-134363216D01*
X110200147Y-134215646D01*
X110325646Y-134090147D01*
X110473216Y-133991544D01*
X110637188Y-133923624D01*
X110786488Y-133893927D01*
X110811258Y-133889000D01*
X110988742Y-133889000D01*
X111013512Y-133893927D01*
G37*
G36*
X122729591Y-134173085D02*
G01*
X122763569Y-134183393D01*
X122794890Y-134200134D01*
X122822339Y-134222661D01*
X122844866Y-134250110D01*
X122861607Y-134281431D01*
X122871915Y-134315409D01*
X122876000Y-134356890D01*
X122876000Y-134958110D01*
X122871915Y-134999591D01*
X122861607Y-135033569D01*
X122844866Y-135064890D01*
X122822339Y-135092339D01*
X122794890Y-135114866D01*
X122763569Y-135131607D01*
X122729591Y-135141915D01*
X122688110Y-135146000D01*
X122011890Y-135146000D01*
X121970409Y-135141915D01*
X121936431Y-135131607D01*
X121905110Y-135114866D01*
X121877661Y-135092339D01*
X121855134Y-135064890D01*
X121838393Y-135033569D01*
X121828085Y-134999591D01*
X121824000Y-134958110D01*
X121824000Y-134356890D01*
X121828085Y-134315409D01*
X121838393Y-134281431D01*
X121855134Y-134250110D01*
X121877661Y-134222661D01*
X121905110Y-134200134D01*
X121936431Y-134183393D01*
X121970409Y-134173085D01*
X122011890Y-134169000D01*
X122688110Y-134169000D01*
X122729591Y-134173085D01*
G37*
G36*
X124249591Y-134173085D02*
G01*
X124283569Y-134183393D01*
X124314890Y-134200134D01*
X124342339Y-134222661D01*
X124364866Y-134250110D01*
X124381607Y-134281431D01*
X124391915Y-134315409D01*
X124396000Y-134356890D01*
X124396000Y-134958110D01*
X124391915Y-134999591D01*
X124381607Y-135033569D01*
X124364866Y-135064890D01*
X124342339Y-135092339D01*
X124314890Y-135114866D01*
X124283569Y-135131607D01*
X124249591Y-135141915D01*
X124208110Y-135146000D01*
X123531890Y-135146000D01*
X123490409Y-135141915D01*
X123456431Y-135131607D01*
X123425110Y-135114866D01*
X123397661Y-135092339D01*
X123375134Y-135064890D01*
X123358393Y-135033569D01*
X123348085Y-134999591D01*
X123344000Y-134958110D01*
X123344000Y-134356890D01*
X123348085Y-134315409D01*
X123358393Y-134281431D01*
X123375134Y-134250110D01*
X123397661Y-134222661D01*
X123425110Y-134200134D01*
X123456431Y-134183393D01*
X123490409Y-134173085D01*
X123531890Y-134169000D01*
X124208110Y-134169000D01*
X124249591Y-134173085D01*
G37*
G36*
X122729591Y-132598085D02*
G01*
X122763569Y-132608393D01*
X122794890Y-132625134D01*
X122822339Y-132647661D01*
X122844866Y-132675110D01*
X122861607Y-132706431D01*
X122871915Y-132740409D01*
X122876000Y-132781890D01*
X122876000Y-133383110D01*
X122871915Y-133424591D01*
X122861607Y-133458569D01*
X122844866Y-133489890D01*
X122822339Y-133517339D01*
X122794890Y-133539866D01*
X122763569Y-133556607D01*
X122729591Y-133566915D01*
X122688110Y-133571000D01*
X122011890Y-133571000D01*
X121970409Y-133566915D01*
X121936431Y-133556607D01*
X121905110Y-133539866D01*
X121877661Y-133517339D01*
X121855134Y-133489890D01*
X121838393Y-133458569D01*
X121828085Y-133424591D01*
X121824000Y-133383110D01*
X121824000Y-132781890D01*
X121828085Y-132740409D01*
X121838393Y-132706431D01*
X121855134Y-132675110D01*
X121877661Y-132647661D01*
X121905110Y-132625134D01*
X121936431Y-132608393D01*
X121970409Y-132598085D01*
X122011890Y-132594000D01*
X122688110Y-132594000D01*
X122729591Y-132598085D01*
G37*
G36*
X124249591Y-132598085D02*
G01*
X124283569Y-132608393D01*
X124314890Y-132625134D01*
X124342339Y-132647661D01*
X124364866Y-132675110D01*
X124381607Y-132706431D01*
X124391915Y-132740409D01*
X124396000Y-132781890D01*
X124396000Y-133383110D01*
X124391915Y-133424591D01*
X124381607Y-133458569D01*
X124364866Y-133489890D01*
X124342339Y-133517339D01*
X124314890Y-133539866D01*
X124283569Y-133556607D01*
X124249591Y-133566915D01*
X124208110Y-133571000D01*
X123531890Y-133571000D01*
X123490409Y-133566915D01*
X123456431Y-133556607D01*
X123425110Y-133539866D01*
X123397661Y-133517339D01*
X123375134Y-133489890D01*
X123358393Y-133458569D01*
X123348085Y-133424591D01*
X123344000Y-133383110D01*
X123344000Y-132781890D01*
X123348085Y-132740409D01*
X123358393Y-132706431D01*
X123375134Y-132675110D01*
X123397661Y-132647661D01*
X123425110Y-132625134D01*
X123456431Y-132608393D01*
X123490409Y-132598085D01*
X123531890Y-132594000D01*
X124208110Y-132594000D01*
X124249591Y-132598085D01*
G37*
G36*
X146013512Y-131353927D02*
G01*
X146162812Y-131383624D01*
X146326784Y-131451544D01*
X146474354Y-131550147D01*
X146599853Y-131675646D01*
X146698456Y-131823216D01*
X146766376Y-131987188D01*
X146801000Y-132161259D01*
X146801000Y-132338741D01*
X146766376Y-132512812D01*
X146698456Y-132676784D01*
X146599853Y-132824354D01*
X146474354Y-132949853D01*
X146326784Y-133048456D01*
X146162812Y-133116376D01*
X146013512Y-133146073D01*
X145988742Y-133151000D01*
X145811258Y-133151000D01*
X145786488Y-133146073D01*
X145637188Y-133116376D01*
X145473216Y-133048456D01*
X145325646Y-132949853D01*
X145200147Y-132824354D01*
X145101544Y-132676784D01*
X145033624Y-132512812D01*
X144999000Y-132338741D01*
X144999000Y-132161259D01*
X145033624Y-131987188D01*
X145101544Y-131823216D01*
X145200147Y-131675646D01*
X145325646Y-131550147D01*
X145473216Y-131451544D01*
X145637188Y-131383624D01*
X145786488Y-131353927D01*
X145811258Y-131349000D01*
X145988742Y-131349000D01*
X146013512Y-131353927D01*
G37*
G36*
X111013512Y-131353927D02*
G01*
X111162812Y-131383624D01*
X111326784Y-131451544D01*
X111474354Y-131550147D01*
X111599853Y-131675646D01*
X111698456Y-131823216D01*
X111766376Y-131987188D01*
X111801000Y-132161259D01*
X111801000Y-132338741D01*
X111766376Y-132512812D01*
X111698456Y-132676784D01*
X111599853Y-132824354D01*
X111474354Y-132949853D01*
X111326784Y-133048456D01*
X111162812Y-133116376D01*
X111013512Y-133146073D01*
X110988742Y-133151000D01*
X110811258Y-133151000D01*
X110786488Y-133146073D01*
X110637188Y-133116376D01*
X110473216Y-133048456D01*
X110325646Y-132949853D01*
X110200147Y-132824354D01*
X110101544Y-132676784D01*
X110033624Y-132512812D01*
X109999000Y-132338741D01*
X109999000Y-132161259D01*
X110033624Y-131987188D01*
X110101544Y-131823216D01*
X110200147Y-131675646D01*
X110325646Y-131550147D01*
X110473216Y-131451544D01*
X110637188Y-131383624D01*
X110786488Y-131353927D01*
X110811258Y-131349000D01*
X110988742Y-131349000D01*
X111013512Y-131353927D01*
G37*
G36*
X146013512Y-128813927D02*
G01*
X146162812Y-128843624D01*
X146326784Y-128911544D01*
X146474354Y-129010147D01*
X146599853Y-129135646D01*
X146698456Y-129283216D01*
X146766376Y-129447188D01*
X146801000Y-129621259D01*
X146801000Y-129798741D01*
X146766376Y-129972812D01*
X146698456Y-130136784D01*
X146599853Y-130284354D01*
X146474354Y-130409853D01*
X146326784Y-130508456D01*
X146162812Y-130576376D01*
X146013512Y-130606073D01*
X145988742Y-130611000D01*
X145811258Y-130611000D01*
X145786488Y-130606073D01*
X145637188Y-130576376D01*
X145473216Y-130508456D01*
X145325646Y-130409853D01*
X145200147Y-130284354D01*
X145101544Y-130136784D01*
X145033624Y-129972812D01*
X144999000Y-129798741D01*
X144999000Y-129621259D01*
X145033624Y-129447188D01*
X145101544Y-129283216D01*
X145200147Y-129135646D01*
X145325646Y-129010147D01*
X145473216Y-128911544D01*
X145637188Y-128843624D01*
X145786488Y-128813927D01*
X145811258Y-128809000D01*
X145988742Y-128809000D01*
X146013512Y-128813927D01*
G37*
G36*
X111013512Y-128813927D02*
G01*
X111162812Y-128843624D01*
X111326784Y-128911544D01*
X111474354Y-129010147D01*
X111599853Y-129135646D01*
X111698456Y-129283216D01*
X111766376Y-129447188D01*
X111801000Y-129621259D01*
X111801000Y-129798741D01*
X111766376Y-129972812D01*
X111698456Y-130136784D01*
X111599853Y-130284354D01*
X111474354Y-130409853D01*
X111326784Y-130508456D01*
X111162812Y-130576376D01*
X111013512Y-130606073D01*
X110988742Y-130611000D01*
X110811258Y-130611000D01*
X110786488Y-130606073D01*
X110637188Y-130576376D01*
X110473216Y-130508456D01*
X110325646Y-130409853D01*
X110200147Y-130284354D01*
X110101544Y-130136784D01*
X110033624Y-129972812D01*
X109999000Y-129798741D01*
X109999000Y-129621259D01*
X110033624Y-129447188D01*
X110101544Y-129283216D01*
X110200147Y-129135646D01*
X110325646Y-129010147D01*
X110473216Y-128911544D01*
X110637188Y-128843624D01*
X110786488Y-128813927D01*
X110811258Y-128809000D01*
X110988742Y-128809000D01*
X111013512Y-128813927D01*
G37*
G36*
X116646000Y-129751000D02*
G01*
X115244000Y-129751000D01*
X115244000Y-127649000D01*
X116646000Y-127649000D01*
X116646000Y-129751000D01*
G37*
G36*
X120356000Y-129751000D02*
G01*
X118954000Y-129751000D01*
X118954000Y-127649000D01*
X120356000Y-127649000D01*
X120356000Y-129751000D01*
G37*
G36*
X128567626Y-127156015D02*
G01*
X128601604Y-127166323D01*
X128632925Y-127183064D01*
X128665139Y-127209502D01*
X128704990Y-127249353D01*
X128704996Y-127249358D01*
X129103451Y-127647813D01*
X129103456Y-127647819D01*
X129143307Y-127687670D01*
X129169745Y-127719884D01*
X129186486Y-127751205D01*
X129196794Y-127785183D01*
X129200274Y-127820524D01*
X129196794Y-127855865D01*
X129186486Y-127889843D01*
X129169745Y-127921164D01*
X129143307Y-127953378D01*
X129103456Y-127993229D01*
X129103451Y-127993235D01*
X128758030Y-128338656D01*
X128758024Y-128338661D01*
X128718173Y-128378512D01*
X128685959Y-128404950D01*
X128654638Y-128421691D01*
X128620660Y-128431999D01*
X128585319Y-128435479D01*
X128549978Y-128431999D01*
X128516000Y-128421691D01*
X128484679Y-128404950D01*
X128452465Y-128378512D01*
X128412614Y-128338661D01*
X128412608Y-128338656D01*
X128014153Y-127940201D01*
X128014148Y-127940195D01*
X127974297Y-127900344D01*
X127947859Y-127868130D01*
X127931118Y-127836809D01*
X127920810Y-127802831D01*
X127917330Y-127767490D01*
X127920810Y-127732149D01*
X127931118Y-127698171D01*
X127947859Y-127666850D01*
X127974297Y-127634636D01*
X128014148Y-127594785D01*
X128014153Y-127594779D01*
X128359574Y-127249358D01*
X128359580Y-127249353D01*
X128399431Y-127209502D01*
X128431645Y-127183064D01*
X128462966Y-127166323D01*
X128496944Y-127156015D01*
X128532285Y-127152535D01*
X128567626Y-127156015D01*
G37*
G36*
X111013512Y-126273927D02*
G01*
X111162812Y-126303624D01*
X111326784Y-126371544D01*
X111474354Y-126470147D01*
X111599853Y-126595646D01*
X111698456Y-126743216D01*
X111766376Y-126907188D01*
X111801000Y-127081259D01*
X111801000Y-127258741D01*
X111766376Y-127432812D01*
X111698456Y-127596784D01*
X111599853Y-127744354D01*
X111474354Y-127869853D01*
X111326784Y-127968456D01*
X111162812Y-128036376D01*
X111013512Y-128066073D01*
X110988742Y-128071000D01*
X110811258Y-128071000D01*
X110786488Y-128066073D01*
X110637188Y-128036376D01*
X110473216Y-127968456D01*
X110325646Y-127869853D01*
X110200147Y-127744354D01*
X110101544Y-127596784D01*
X110033624Y-127432812D01*
X109999000Y-127258741D01*
X109999000Y-127081259D01*
X110033624Y-126907188D01*
X110101544Y-126743216D01*
X110200147Y-126595646D01*
X110325646Y-126470147D01*
X110473216Y-126371544D01*
X110637188Y-126303624D01*
X110786488Y-126273927D01*
X110811258Y-126269000D01*
X110988742Y-126269000D01*
X111013512Y-126273927D01*
G37*
G36*
X146013512Y-126273927D02*
G01*
X146162812Y-126303624D01*
X146326784Y-126371544D01*
X146474354Y-126470147D01*
X146599853Y-126595646D01*
X146698456Y-126743216D01*
X146766376Y-126907188D01*
X146801000Y-127081259D01*
X146801000Y-127258741D01*
X146766376Y-127432812D01*
X146698456Y-127596784D01*
X146599853Y-127744354D01*
X146474354Y-127869853D01*
X146326784Y-127968456D01*
X146162812Y-128036376D01*
X146013512Y-128066073D01*
X145988742Y-128071000D01*
X145811258Y-128071000D01*
X145786488Y-128066073D01*
X145637188Y-128036376D01*
X145473216Y-127968456D01*
X145325646Y-127869853D01*
X145200147Y-127744354D01*
X145101544Y-127596784D01*
X145033624Y-127432812D01*
X144999000Y-127258741D01*
X144999000Y-127081259D01*
X145033624Y-126907188D01*
X145101544Y-126743216D01*
X145200147Y-126595646D01*
X145325646Y-126470147D01*
X145473216Y-126371544D01*
X145637188Y-126303624D01*
X145786488Y-126273927D01*
X145811258Y-126269000D01*
X145988742Y-126269000D01*
X146013512Y-126273927D01*
G37*
G36*
X121499591Y-126763085D02*
G01*
X121533569Y-126773393D01*
X121564890Y-126790134D01*
X121592339Y-126812661D01*
X121614866Y-126840110D01*
X121631607Y-126871431D01*
X121641915Y-126905409D01*
X121646000Y-126946890D01*
X121646000Y-127548110D01*
X121641915Y-127589591D01*
X121631607Y-127623569D01*
X121614866Y-127654890D01*
X121592339Y-127682339D01*
X121564890Y-127704866D01*
X121533569Y-127721607D01*
X121499591Y-127731915D01*
X121458110Y-127736000D01*
X120781890Y-127736000D01*
X120740409Y-127731915D01*
X120706431Y-127721607D01*
X120675110Y-127704866D01*
X120647661Y-127682339D01*
X120625134Y-127654890D01*
X120608392Y-127623569D01*
X120600615Y-127597930D01*
X120591238Y-127575291D01*
X120585873Y-127567261D01*
X120591598Y-127548387D01*
X120594000Y-127524001D01*
X120594000Y-126946890D01*
X120598085Y-126905409D01*
X120608393Y-126871431D01*
X120625134Y-126840110D01*
X120647661Y-126812661D01*
X120675110Y-126790134D01*
X120706431Y-126773393D01*
X120740409Y-126763085D01*
X120781890Y-126759000D01*
X121458110Y-126759000D01*
X121499591Y-126763085D01*
G37*
G36*
X127494082Y-126089014D02*
G01*
X127528060Y-126099322D01*
X127559381Y-126116063D01*
X127591595Y-126142501D01*
X127631446Y-126182352D01*
X127631452Y-126182357D01*
X128029907Y-126580812D01*
X128029912Y-126580818D01*
X128069763Y-126620669D01*
X128096201Y-126652883D01*
X128112942Y-126684204D01*
X128123250Y-126718182D01*
X128126730Y-126753523D01*
X128123250Y-126788864D01*
X128112942Y-126822842D01*
X128096201Y-126854163D01*
X128069763Y-126886377D01*
X128029912Y-126926228D01*
X128029907Y-126926234D01*
X127684486Y-127271655D01*
X127684480Y-127271660D01*
X127644629Y-127311511D01*
X127612415Y-127337949D01*
X127581094Y-127354690D01*
X127547116Y-127364998D01*
X127511775Y-127368478D01*
X127476434Y-127364998D01*
X127442456Y-127354690D01*
X127411135Y-127337949D01*
X127378921Y-127311511D01*
X127339070Y-127271660D01*
X127339064Y-127271655D01*
X126940609Y-126873200D01*
X126940604Y-126873194D01*
X126900753Y-126833343D01*
X126874315Y-126801129D01*
X126857574Y-126769808D01*
X126847266Y-126735830D01*
X126843786Y-126700489D01*
X126847266Y-126665148D01*
X126857574Y-126631170D01*
X126874315Y-126599849D01*
X126900753Y-126567635D01*
X126940604Y-126527784D01*
X126940609Y-126527778D01*
X127286030Y-126182357D01*
X127286036Y-126182352D01*
X127325887Y-126142501D01*
X127358101Y-126116063D01*
X127389422Y-126099322D01*
X127423400Y-126089014D01*
X127458741Y-126085534D01*
X127494082Y-126089014D01*
G37*
G36*
X129681320Y-126042321D02*
G01*
X129715298Y-126052629D01*
X129746619Y-126069370D01*
X129778833Y-126095808D01*
X129818684Y-126135659D01*
X129818690Y-126135664D01*
X130217145Y-126534119D01*
X130217150Y-126534125D01*
X130257001Y-126573976D01*
X130283439Y-126606190D01*
X130300180Y-126637511D01*
X130310488Y-126671489D01*
X130313968Y-126706830D01*
X130310488Y-126742171D01*
X130300180Y-126776149D01*
X130283439Y-126807470D01*
X130257001Y-126839684D01*
X130217150Y-126879535D01*
X130217145Y-126879541D01*
X129871724Y-127224962D01*
X129871718Y-127224967D01*
X129831867Y-127264818D01*
X129799653Y-127291256D01*
X129768332Y-127307997D01*
X129734354Y-127318305D01*
X129699013Y-127321785D01*
X129663672Y-127318305D01*
X129629694Y-127307997D01*
X129598373Y-127291256D01*
X129566159Y-127264818D01*
X129526308Y-127224967D01*
X129526302Y-127224962D01*
X129127847Y-126826507D01*
X129127842Y-126826501D01*
X129087991Y-126786650D01*
X129061553Y-126754436D01*
X129044812Y-126723115D01*
X129034504Y-126689137D01*
X129031024Y-126653796D01*
X129034504Y-126618455D01*
X129044812Y-126584477D01*
X129061553Y-126553156D01*
X129087991Y-126520942D01*
X129127842Y-126481091D01*
X129127847Y-126481085D01*
X129473268Y-126135664D01*
X129473274Y-126135659D01*
X129513125Y-126095808D01*
X129545339Y-126069370D01*
X129576660Y-126052629D01*
X129610638Y-126042321D01*
X129645979Y-126038841D01*
X129681320Y-126042321D01*
G37*
G36*
X128607776Y-124975320D02*
G01*
X128641754Y-124985628D01*
X128673075Y-125002369D01*
X128705289Y-125028807D01*
X128745140Y-125068658D01*
X128745146Y-125068663D01*
X129143601Y-125467118D01*
X129143606Y-125467124D01*
X129183457Y-125506975D01*
X129209895Y-125539189D01*
X129226636Y-125570510D01*
X129236944Y-125604488D01*
X129240424Y-125639829D01*
X129236944Y-125675170D01*
X129226636Y-125709148D01*
X129209895Y-125740469D01*
X129183457Y-125772683D01*
X129143606Y-125812534D01*
X129143601Y-125812540D01*
X128798180Y-126157961D01*
X128798174Y-126157966D01*
X128758323Y-126197817D01*
X128726109Y-126224255D01*
X128694788Y-126240996D01*
X128660810Y-126251304D01*
X128625469Y-126254784D01*
X128590128Y-126251304D01*
X128556150Y-126240996D01*
X128524829Y-126224255D01*
X128492615Y-126197817D01*
X128452764Y-126157966D01*
X128452758Y-126157961D01*
X128054303Y-125759506D01*
X128054298Y-125759500D01*
X128014447Y-125719649D01*
X127988009Y-125687435D01*
X127971268Y-125656114D01*
X127960960Y-125622136D01*
X127957480Y-125586795D01*
X127960960Y-125551454D01*
X127971268Y-125517476D01*
X127988009Y-125486155D01*
X128014447Y-125453941D01*
X128054298Y-125414090D01*
X128054303Y-125414084D01*
X128399724Y-125068663D01*
X128399730Y-125068658D01*
X128439581Y-125028807D01*
X128471795Y-125002369D01*
X128503116Y-124985628D01*
X128537094Y-124975320D01*
X128572435Y-124971840D01*
X128607776Y-124975320D01*
G37*
G36*
X117947091Y-125148085D02*
G01*
X117981069Y-125158393D01*
X118012390Y-125175134D01*
X118039839Y-125197661D01*
X118062366Y-125225110D01*
X118079107Y-125256431D01*
X118089415Y-125290409D01*
X118093500Y-125331890D01*
X118093500Y-126008110D01*
X118089415Y-126049591D01*
X118079107Y-126083569D01*
X118062366Y-126114890D01*
X118039839Y-126142339D01*
X118012390Y-126164866D01*
X117981069Y-126181607D01*
X117947091Y-126191915D01*
X117905610Y-126196000D01*
X117304390Y-126196000D01*
X117262909Y-126191915D01*
X117228931Y-126181607D01*
X117197610Y-126164866D01*
X117170161Y-126142339D01*
X117147634Y-126114890D01*
X117130893Y-126083569D01*
X117120585Y-126049591D01*
X117116500Y-126008110D01*
X117116500Y-125331890D01*
X117120585Y-125290409D01*
X117130893Y-125256431D01*
X117147634Y-125225110D01*
X117170161Y-125197661D01*
X117197610Y-125175134D01*
X117228931Y-125158393D01*
X117262909Y-125148085D01*
X117304390Y-125144000D01*
X117905610Y-125144000D01*
X117947091Y-125148085D01*
G37*
G36*
X119522091Y-125148085D02*
G01*
X119556069Y-125158393D01*
X119587390Y-125175134D01*
X119614839Y-125197661D01*
X119637366Y-125225110D01*
X119654107Y-125256431D01*
X119664415Y-125290409D01*
X119668500Y-125331890D01*
X119668500Y-126008110D01*
X119664415Y-126049591D01*
X119654107Y-126083569D01*
X119637366Y-126114890D01*
X119614839Y-126142339D01*
X119587390Y-126164866D01*
X119556069Y-126181607D01*
X119522091Y-126191915D01*
X119480610Y-126196000D01*
X118879390Y-126196000D01*
X118837909Y-126191915D01*
X118803931Y-126181607D01*
X118772610Y-126164866D01*
X118745161Y-126142339D01*
X118722634Y-126114890D01*
X118705893Y-126083569D01*
X118695585Y-126049591D01*
X118691500Y-126008110D01*
X118691500Y-125331890D01*
X118695585Y-125290409D01*
X118705893Y-125256431D01*
X118722634Y-125225110D01*
X118745161Y-125197661D01*
X118772610Y-125175134D01*
X118803931Y-125158393D01*
X118837909Y-125148085D01*
X118879390Y-125144000D01*
X119480610Y-125144000D01*
X119522091Y-125148085D01*
G37*
G36*
X121499591Y-125188085D02*
G01*
X121533569Y-125198393D01*
X121564890Y-125215134D01*
X121592339Y-125237661D01*
X121614866Y-125265110D01*
X121631607Y-125296431D01*
X121641915Y-125330409D01*
X121646000Y-125371890D01*
X121646000Y-125973110D01*
X121641915Y-126014591D01*
X121631607Y-126048569D01*
X121614866Y-126079890D01*
X121592339Y-126107339D01*
X121564890Y-126129866D01*
X121533569Y-126146607D01*
X121499591Y-126156915D01*
X121458110Y-126161000D01*
X120781890Y-126161000D01*
X120740409Y-126156915D01*
X120706431Y-126146607D01*
X120675110Y-126129866D01*
X120647661Y-126107339D01*
X120625134Y-126079890D01*
X120608393Y-126048569D01*
X120598085Y-126014591D01*
X120594000Y-125973110D01*
X120594000Y-125371890D01*
X120598085Y-125330409D01*
X120608393Y-125296431D01*
X120625134Y-125265110D01*
X120647661Y-125237661D01*
X120675110Y-125215134D01*
X120706431Y-125198393D01*
X120740409Y-125188085D01*
X120781890Y-125184000D01*
X121458110Y-125184000D01*
X121499591Y-125188085D01*
G37*
G36*
X146013512Y-123733927D02*
G01*
X146162812Y-123763624D01*
X146326784Y-123831544D01*
X146474354Y-123930147D01*
X146599853Y-124055646D01*
X146698456Y-124203216D01*
X146766376Y-124367188D01*
X146790036Y-124486139D01*
X146800441Y-124538446D01*
X146801000Y-124541259D01*
X146801000Y-124718741D01*
X146766376Y-124892812D01*
X146698456Y-125056784D01*
X146599853Y-125204354D01*
X146474354Y-125329853D01*
X146326784Y-125428456D01*
X146162812Y-125496376D01*
X146013512Y-125526073D01*
X145988742Y-125531000D01*
X145811258Y-125531000D01*
X145786488Y-125526073D01*
X145637188Y-125496376D01*
X145473216Y-125428456D01*
X145325646Y-125329853D01*
X145200147Y-125204354D01*
X145101544Y-125056784D01*
X145033624Y-124892812D01*
X144999000Y-124718741D01*
X144999000Y-124541259D01*
X144999560Y-124538446D01*
X145009964Y-124486139D01*
X145033624Y-124367188D01*
X145101544Y-124203216D01*
X145200147Y-124055646D01*
X145325646Y-123930147D01*
X145473216Y-123831544D01*
X145637188Y-123763624D01*
X145786488Y-123733927D01*
X145811258Y-123729000D01*
X145988742Y-123729000D01*
X146013512Y-123733927D01*
G37*
G36*
X111013512Y-123733927D02*
G01*
X111162812Y-123763624D01*
X111326784Y-123831544D01*
X111474354Y-123930147D01*
X111599853Y-124055646D01*
X111698456Y-124203216D01*
X111766376Y-124367188D01*
X111790036Y-124486139D01*
X111800441Y-124538446D01*
X111801000Y-124541259D01*
X111801000Y-124718741D01*
X111766376Y-124892812D01*
X111698456Y-125056784D01*
X111599853Y-125204354D01*
X111474354Y-125329853D01*
X111326784Y-125428456D01*
X111162812Y-125496376D01*
X111013512Y-125526073D01*
X110988742Y-125531000D01*
X110811258Y-125531000D01*
X110786488Y-125526073D01*
X110637188Y-125496376D01*
X110473216Y-125428456D01*
X110325646Y-125329853D01*
X110200147Y-125204354D01*
X110101544Y-125056784D01*
X110033624Y-124892812D01*
X109999000Y-124718741D01*
X109999000Y-124541259D01*
X109999560Y-124538446D01*
X110009964Y-124486139D01*
X110033624Y-124367188D01*
X110101544Y-124203216D01*
X110200147Y-124055646D01*
X110325646Y-123930147D01*
X110473216Y-123831544D01*
X110637188Y-123763624D01*
X110786488Y-123733927D01*
X110811258Y-123729000D01*
X110988742Y-123729000D01*
X111013512Y-123733927D01*
G37*
G36*
X126822798Y-123073247D02*
G01*
X126858367Y-123084037D01*
X126891139Y-123101554D01*
X126919869Y-123125131D01*
X126943446Y-123153861D01*
X126960963Y-123186633D01*
X126971753Y-123222202D01*
X126976000Y-123265325D01*
X126976000Y-124374675D01*
X126971753Y-124417798D01*
X126960963Y-124453367D01*
X126943446Y-124486139D01*
X126919869Y-124514869D01*
X126891139Y-124538446D01*
X126858367Y-124555963D01*
X126822798Y-124566753D01*
X126779675Y-124571000D01*
X125720325Y-124571000D01*
X125677202Y-124566753D01*
X125641633Y-124555963D01*
X125608861Y-124538446D01*
X125580131Y-124514869D01*
X125556554Y-124486139D01*
X125539037Y-124453367D01*
X125528247Y-124417798D01*
X125524000Y-124374675D01*
X125524000Y-123265325D01*
X125528247Y-123222202D01*
X125539037Y-123186633D01*
X125556554Y-123153861D01*
X125580131Y-123125131D01*
X125608861Y-123101554D01*
X125641633Y-123084037D01*
X125677202Y-123073247D01*
X125720325Y-123069000D01*
X126779675Y-123069000D01*
X126822798Y-123073247D01*
G37*
G36*
X123451000Y-124001000D02*
G01*
X121349000Y-124001000D01*
X121349000Y-122399000D01*
X123451000Y-122399000D01*
X123451000Y-124001000D01*
G37*
G36*
X146013512Y-121193927D02*
G01*
X146162812Y-121223624D01*
X146326784Y-121291544D01*
X146474354Y-121390147D01*
X146599853Y-121515646D01*
X146698456Y-121663216D01*
X146766376Y-121827188D01*
X146801000Y-122001259D01*
X146801000Y-122178741D01*
X146766376Y-122352812D01*
X146698456Y-122516784D01*
X146599853Y-122664354D01*
X146474354Y-122789853D01*
X146326784Y-122888456D01*
X146162812Y-122956376D01*
X146013512Y-122986073D01*
X145988742Y-122991000D01*
X145811258Y-122991000D01*
X145786488Y-122986073D01*
X145637188Y-122956376D01*
X145473216Y-122888456D01*
X145325646Y-122789853D01*
X145200147Y-122664354D01*
X145101544Y-122516784D01*
X145033624Y-122352812D01*
X144999000Y-122178741D01*
X144999000Y-122001259D01*
X145033624Y-121827188D01*
X145101544Y-121663216D01*
X145200147Y-121515646D01*
X145325646Y-121390147D01*
X145473216Y-121291544D01*
X145637188Y-121223624D01*
X145786488Y-121193927D01*
X145811258Y-121189000D01*
X145988742Y-121189000D01*
X146013512Y-121193927D01*
G37*
G36*
X111013512Y-121193927D02*
G01*
X111162812Y-121223624D01*
X111326784Y-121291544D01*
X111474354Y-121390147D01*
X111599853Y-121515646D01*
X111698456Y-121663216D01*
X111766376Y-121827188D01*
X111801000Y-122001259D01*
X111801000Y-122178741D01*
X111766376Y-122352812D01*
X111698456Y-122516784D01*
X111599853Y-122664354D01*
X111474354Y-122789853D01*
X111326784Y-122888456D01*
X111162812Y-122956376D01*
X111013512Y-122986073D01*
X110988742Y-122991000D01*
X110811258Y-122991000D01*
X110786488Y-122986073D01*
X110637188Y-122956376D01*
X110473216Y-122888456D01*
X110325646Y-122789853D01*
X110200147Y-122664354D01*
X110101544Y-122516784D01*
X110033624Y-122352812D01*
X109999000Y-122178741D01*
X109999000Y-122001259D01*
X110033624Y-121827188D01*
X110101544Y-121663216D01*
X110200147Y-121515646D01*
X110325646Y-121390147D01*
X110473216Y-121291544D01*
X110637188Y-121223624D01*
X110786488Y-121193927D01*
X110811258Y-121189000D01*
X110988742Y-121189000D01*
X111013512Y-121193927D01*
G37*
G36*
X117151000Y-122851000D02*
G01*
X115049000Y-122851000D01*
X115049000Y-118949000D01*
X117151000Y-118949000D01*
X117151000Y-122851000D01*
G37*
G36*
X126822798Y-120373247D02*
G01*
X126858367Y-120384037D01*
X126891139Y-120401554D01*
X126919869Y-120425131D01*
X126943446Y-120453861D01*
X126960963Y-120486633D01*
X126971753Y-120522202D01*
X126976000Y-120565325D01*
X126976000Y-121674675D01*
X126971753Y-121717798D01*
X126960963Y-121753367D01*
X126943446Y-121786139D01*
X126919869Y-121814869D01*
X126891139Y-121838446D01*
X126858367Y-121855963D01*
X126822798Y-121866753D01*
X126779675Y-121871000D01*
X125720325Y-121871000D01*
X125677202Y-121866753D01*
X125641633Y-121855963D01*
X125608861Y-121838446D01*
X125580131Y-121814869D01*
X125556554Y-121786139D01*
X125539037Y-121753367D01*
X125528247Y-121717798D01*
X125524000Y-121674675D01*
X125524000Y-120565325D01*
X125528247Y-120522202D01*
X125539037Y-120486633D01*
X125556554Y-120453861D01*
X125580131Y-120425131D01*
X125608861Y-120401554D01*
X125641633Y-120384037D01*
X125677202Y-120373247D01*
X125720325Y-120369000D01*
X126779675Y-120369000D01*
X126822798Y-120373247D01*
G37*
G36*
X123451000Y-121701000D02*
G01*
X121349000Y-121701000D01*
X121349000Y-120099000D01*
X123451000Y-120099000D01*
X123451000Y-121701000D01*
G37*
G36*
X124819591Y-120393085D02*
G01*
X124853569Y-120403393D01*
X124884890Y-120420134D01*
X124912339Y-120442661D01*
X124934866Y-120470110D01*
X124951607Y-120501431D01*
X124961915Y-120535409D01*
X124966000Y-120576890D01*
X124966000Y-121178110D01*
X124961915Y-121219591D01*
X124951607Y-121253569D01*
X124934866Y-121284890D01*
X124912339Y-121312339D01*
X124884890Y-121334866D01*
X124853569Y-121351607D01*
X124819591Y-121361915D01*
X124778110Y-121366000D01*
X124101890Y-121366000D01*
X124060409Y-121361915D01*
X124026431Y-121351607D01*
X123995110Y-121334866D01*
X123967661Y-121312339D01*
X123945134Y-121284890D01*
X123928393Y-121253569D01*
X123918085Y-121219591D01*
X123914000Y-121178110D01*
X123914000Y-120576890D01*
X123918085Y-120535409D01*
X123928393Y-120501431D01*
X123945134Y-120470110D01*
X123967661Y-120442661D01*
X123995110Y-120420134D01*
X124026431Y-120403393D01*
X124060409Y-120393085D01*
X124101890Y-120389000D01*
X124778110Y-120389000D01*
X124819591Y-120393085D01*
G37*
G36*
X146801000Y-120451000D02*
G01*
X144999000Y-120451000D01*
X144999000Y-118649000D01*
X146801000Y-118649000D01*
X146801000Y-120451000D01*
G37*
G36*
X111801000Y-120451000D02*
G01*
X109999000Y-120451000D01*
X109999000Y-118649000D01*
X111801000Y-118649000D01*
X111801000Y-120451000D01*
G37*
G36*
X127829591Y-118828085D02*
G01*
X127863569Y-118838393D01*
X127894890Y-118855134D01*
X127922339Y-118877661D01*
X127944866Y-118905110D01*
X127961607Y-118936431D01*
X127971915Y-118970409D01*
X127976000Y-119011890D01*
X127976000Y-119688110D01*
X127971915Y-119729591D01*
X127961607Y-119763569D01*
X127944866Y-119794890D01*
X127922339Y-119822339D01*
X127894890Y-119844866D01*
X127863569Y-119861607D01*
X127829591Y-119871915D01*
X127788110Y-119876000D01*
X127186890Y-119876000D01*
X127145409Y-119871915D01*
X127111431Y-119861607D01*
X127080110Y-119844866D01*
X127052661Y-119822339D01*
X127030134Y-119794890D01*
X127013393Y-119763569D01*
X127003085Y-119729591D01*
X126999000Y-119688110D01*
X126999000Y-119011890D01*
X127003085Y-118970409D01*
X127013393Y-118936431D01*
X127030134Y-118905110D01*
X127052661Y-118877661D01*
X127080110Y-118855134D01*
X127111431Y-118838393D01*
X127145409Y-118828085D01*
X127186890Y-118824000D01*
X127788110Y-118824000D01*
X127829591Y-118828085D01*
G37*
G36*
X126254591Y-118828085D02*
G01*
X126288569Y-118838393D01*
X126319890Y-118855134D01*
X126347339Y-118877661D01*
X126369866Y-118905110D01*
X126386607Y-118936431D01*
X126396915Y-118970409D01*
X126401000Y-119011890D01*
X126401000Y-119688110D01*
X126396915Y-119729591D01*
X126386607Y-119763569D01*
X126369866Y-119794890D01*
X126347339Y-119822339D01*
X126319890Y-119844866D01*
X126288569Y-119861607D01*
X126254591Y-119871915D01*
X126213110Y-119876000D01*
X125611890Y-119876000D01*
X125570409Y-119871915D01*
X125536431Y-119861607D01*
X125505110Y-119844866D01*
X125477661Y-119822339D01*
X125455134Y-119794890D01*
X125438393Y-119763569D01*
X125428085Y-119729591D01*
X125424000Y-119688110D01*
X125424000Y-119011890D01*
X125428085Y-118970409D01*
X125438393Y-118936431D01*
X125455134Y-118905110D01*
X125477661Y-118877661D01*
X125505110Y-118855134D01*
X125536431Y-118838393D01*
X125570409Y-118828085D01*
X125611890Y-118824000D01*
X126213110Y-118824000D01*
X126254591Y-118828085D01*
G37*
G36*
X124819591Y-118818085D02*
G01*
X124853569Y-118828393D01*
X124884890Y-118845134D01*
X124912339Y-118867661D01*
X124934866Y-118895110D01*
X124951607Y-118926431D01*
X124961915Y-118960409D01*
X124966000Y-119001890D01*
X124966000Y-119603110D01*
X124961915Y-119644591D01*
X124951607Y-119678569D01*
X124934866Y-119709890D01*
X124912339Y-119737339D01*
X124884890Y-119759866D01*
X124853569Y-119776607D01*
X124819591Y-119786915D01*
X124778110Y-119791000D01*
X124101890Y-119791000D01*
X124060409Y-119786915D01*
X124026431Y-119776607D01*
X123995110Y-119759866D01*
X123967661Y-119737339D01*
X123945134Y-119709890D01*
X123928393Y-119678569D01*
X123918085Y-119644591D01*
X123914000Y-119603110D01*
X123914000Y-119001890D01*
X123918085Y-118960409D01*
X123928393Y-118926431D01*
X123945134Y-118895110D01*
X123967661Y-118867661D01*
X123995110Y-118845134D01*
X124026431Y-118828393D01*
X124060409Y-118818085D01*
X124101890Y-118814000D01*
X124778110Y-118814000D01*
X124819591Y-118818085D01*
G37*
G36*
X123451000Y-119401000D02*
G01*
X121349000Y-119401000D01*
X121349000Y-117799000D01*
X123451000Y-117799000D01*
X123451000Y-119401000D01*
G37*
G36*
X126656000Y-116494001D02*
G01*
X126658402Y-116518387D01*
X126665515Y-116541836D01*
X126677066Y-116563447D01*
X126692611Y-116582389D01*
X126711553Y-116597934D01*
X126733164Y-116609485D01*
X126756613Y-116616598D01*
X126780999Y-116619000D01*
X129979001Y-116619000D01*
X130003387Y-116616598D01*
X130026836Y-116609485D01*
X130048447Y-116597934D01*
X130067389Y-116582389D01*
X130082934Y-116563447D01*
X130094485Y-116541836D01*
X130101598Y-116518387D01*
X130104000Y-116494001D01*
X130104000Y-116449000D01*
X131631000Y-116449000D01*
X131631000Y-118101000D01*
X125129000Y-118101000D01*
X125129000Y-116449000D01*
X126656000Y-116449000D01*
X126656000Y-116494001D01*
G37*
G36*
X146114794Y-113870155D02*
G01*
X146221150Y-113891311D01*
X146321334Y-113932809D01*
X146421520Y-113974307D01*
X146601844Y-114094795D01*
X146755205Y-114248156D01*
X146875693Y-114428480D01*
X146958689Y-114628851D01*
X147001000Y-114841560D01*
X147001000Y-115058440D01*
X146958689Y-115271149D01*
X146875693Y-115471520D01*
X146755205Y-115651844D01*
X146601844Y-115805205D01*
X146421520Y-115925693D01*
X146321334Y-115967191D01*
X146221150Y-116008689D01*
X146114795Y-116029844D01*
X146008440Y-116051000D01*
X145791560Y-116051000D01*
X145685205Y-116029844D01*
X145578850Y-116008689D01*
X145478666Y-115967191D01*
X145378480Y-115925693D01*
X145198156Y-115805205D01*
X145044795Y-115651844D01*
X144924307Y-115471520D01*
X144841311Y-115271149D01*
X144799000Y-115058440D01*
X144799000Y-114841560D01*
X144841311Y-114628851D01*
X144924307Y-114428480D01*
X145044795Y-114248156D01*
X145198156Y-114094795D01*
X145378480Y-113974307D01*
X145478666Y-113932809D01*
X145578850Y-113891311D01*
X145685206Y-113870155D01*
X145791560Y-113849000D01*
X146008440Y-113849000D01*
X146114794Y-113870155D01*
G37*
G36*
X111114794Y-113870155D02*
G01*
X111221150Y-113891311D01*
X111321334Y-113932809D01*
X111421520Y-113974307D01*
X111601844Y-114094795D01*
X111755205Y-114248156D01*
X111875693Y-114428480D01*
X111958689Y-114628851D01*
X112001000Y-114841560D01*
X112001000Y-115058440D01*
X111958689Y-115271149D01*
X111875693Y-115471520D01*
X111755205Y-115651844D01*
X111601844Y-115805205D01*
X111421520Y-115925693D01*
X111321334Y-115967191D01*
X111221150Y-116008689D01*
X111114795Y-116029844D01*
X111008440Y-116051000D01*
X110791560Y-116051000D01*
X110685205Y-116029844D01*
X110578850Y-116008689D01*
X110478666Y-115967191D01*
X110378480Y-115925693D01*
X110198156Y-115805205D01*
X110044795Y-115651844D01*
X109924307Y-115471520D01*
X109841311Y-115271149D01*
X109799000Y-115058440D01*
X109799000Y-114841560D01*
X109841311Y-114628851D01*
X109924307Y-114428480D01*
X110044795Y-114248156D01*
X110198156Y-114094795D01*
X110378480Y-113974307D01*
X110478666Y-113932809D01*
X110578850Y-113891311D01*
X110685206Y-113870155D01*
X110791560Y-113849000D01*
X111008440Y-113849000D01*
X111114794Y-113870155D01*
G37*
G36*
X127381000Y-115701000D02*
G01*
X126279000Y-115701000D01*
X126279000Y-113699000D01*
X127381000Y-113699000D01*
X127381000Y-115701000D01*
G37*
G36*
X130481000Y-115701000D02*
G01*
X128579000Y-115701000D01*
X128579000Y-113699000D01*
X130481000Y-113699000D01*
X130481000Y-115701000D01*
G37*
G36*
X132631000Y-115401000D02*
G01*
X130879000Y-115401000D01*
X130879000Y-113999000D01*
X132631000Y-113999000D01*
X132631000Y-115401000D01*
G37*
G36*
X125881000Y-115401000D02*
G01*
X124129000Y-115401000D01*
X124129000Y-113999000D01*
X125881000Y-113999000D01*
X125881000Y-115401000D01*
G37*
M02*
