G04 #@! TF.GenerationSoftware,KiCad,Pcbnew,(5.1.5)-3*
G04 #@! TF.CreationDate,2020-02-15T00:19:20-08:00*
G04 #@! TF.ProjectId,SimpleF303,53696d70-6c65-4463-9330-332e6b696361,0.1*
G04 #@! TF.SameCoordinates,Original*
G04 #@! TF.FileFunction,Paste,Top*
G04 #@! TF.FilePolarity,Positive*
%FSLAX46Y46*%
G04 Gerber Fmt 4.6, Leading zero omitted, Abs format (unit mm)*
G04 Created by KiCad (PCBNEW (5.1.5)-3) date 2020-02-15 00:19:20*
%MOMM*%
%LPD*%
G04 APERTURE LIST*
%ADD10C,0.100000*%
%ADD11R,1.400000X1.200000*%
%ADD12R,2.000000X1.500000*%
%ADD13R,2.000000X3.800000*%
%ADD14R,1.700000X0.900000*%
%ADD15R,1.000000X1.900000*%
%ADD16R,1.800000X1.900000*%
%ADD17R,1.650000X1.300000*%
%ADD18R,1.425000X1.550000*%
%ADD19R,0.450000X1.380000*%
G04 APERTURE END LIST*
D10*
G36*
X126699505Y-120421204D02*
G01*
X126723773Y-120424804D01*
X126747572Y-120430765D01*
X126770671Y-120439030D01*
X126792850Y-120449520D01*
X126813893Y-120462132D01*
X126833599Y-120476747D01*
X126851777Y-120493223D01*
X126868253Y-120511401D01*
X126882868Y-120531107D01*
X126895480Y-120552150D01*
X126905970Y-120574329D01*
X126914235Y-120597428D01*
X126920196Y-120621227D01*
X126923796Y-120645495D01*
X126925000Y-120669999D01*
X126925000Y-121570001D01*
X126923796Y-121594505D01*
X126920196Y-121618773D01*
X126914235Y-121642572D01*
X126905970Y-121665671D01*
X126895480Y-121687850D01*
X126882868Y-121708893D01*
X126868253Y-121728599D01*
X126851777Y-121746777D01*
X126833599Y-121763253D01*
X126813893Y-121777868D01*
X126792850Y-121790480D01*
X126770671Y-121800970D01*
X126747572Y-121809235D01*
X126723773Y-121815196D01*
X126699505Y-121818796D01*
X126675001Y-121820000D01*
X125824999Y-121820000D01*
X125800495Y-121818796D01*
X125776227Y-121815196D01*
X125752428Y-121809235D01*
X125729329Y-121800970D01*
X125707150Y-121790480D01*
X125686107Y-121777868D01*
X125666401Y-121763253D01*
X125648223Y-121746777D01*
X125631747Y-121728599D01*
X125617132Y-121708893D01*
X125604520Y-121687850D01*
X125594030Y-121665671D01*
X125585765Y-121642572D01*
X125579804Y-121618773D01*
X125576204Y-121594505D01*
X125575000Y-121570001D01*
X125575000Y-120669999D01*
X125576204Y-120645495D01*
X125579804Y-120621227D01*
X125585765Y-120597428D01*
X125594030Y-120574329D01*
X125604520Y-120552150D01*
X125617132Y-120531107D01*
X125631747Y-120511401D01*
X125648223Y-120493223D01*
X125666401Y-120476747D01*
X125686107Y-120462132D01*
X125707150Y-120449520D01*
X125729329Y-120439030D01*
X125752428Y-120430765D01*
X125776227Y-120424804D01*
X125800495Y-120421204D01*
X125824999Y-120420000D01*
X126675001Y-120420000D01*
X126699505Y-120421204D01*
G37*
G36*
X126699505Y-123121204D02*
G01*
X126723773Y-123124804D01*
X126747572Y-123130765D01*
X126770671Y-123139030D01*
X126792850Y-123149520D01*
X126813893Y-123162132D01*
X126833599Y-123176747D01*
X126851777Y-123193223D01*
X126868253Y-123211401D01*
X126882868Y-123231107D01*
X126895480Y-123252150D01*
X126905970Y-123274329D01*
X126914235Y-123297428D01*
X126920196Y-123321227D01*
X126923796Y-123345495D01*
X126925000Y-123369999D01*
X126925000Y-124270001D01*
X126923796Y-124294505D01*
X126920196Y-124318773D01*
X126914235Y-124342572D01*
X126905970Y-124365671D01*
X126895480Y-124387850D01*
X126882868Y-124408893D01*
X126868253Y-124428599D01*
X126851777Y-124446777D01*
X126833599Y-124463253D01*
X126813893Y-124477868D01*
X126792850Y-124490480D01*
X126770671Y-124500970D01*
X126747572Y-124509235D01*
X126723773Y-124515196D01*
X126699505Y-124518796D01*
X126675001Y-124520000D01*
X125824999Y-124520000D01*
X125800495Y-124518796D01*
X125776227Y-124515196D01*
X125752428Y-124509235D01*
X125729329Y-124500970D01*
X125707150Y-124490480D01*
X125686107Y-124477868D01*
X125666401Y-124463253D01*
X125648223Y-124446777D01*
X125631747Y-124428599D01*
X125617132Y-124408893D01*
X125604520Y-124387850D01*
X125594030Y-124365671D01*
X125585765Y-124342572D01*
X125579804Y-124318773D01*
X125576204Y-124294505D01*
X125575000Y-124270001D01*
X125575000Y-123369999D01*
X125576204Y-123345495D01*
X125579804Y-123321227D01*
X125585765Y-123297428D01*
X125594030Y-123274329D01*
X125604520Y-123252150D01*
X125617132Y-123231107D01*
X125631747Y-123211401D01*
X125648223Y-123193223D01*
X125666401Y-123176747D01*
X125686107Y-123162132D01*
X125707150Y-123149520D01*
X125729329Y-123139030D01*
X125752428Y-123130765D01*
X125776227Y-123124804D01*
X125800495Y-123121204D01*
X125824999Y-123120000D01*
X126675001Y-123120000D01*
X126699505Y-123121204D01*
G37*
D11*
X126510000Y-148850000D03*
X128710000Y-148850000D03*
X128710000Y-150550000D03*
X126510000Y-150550000D03*
D10*
G36*
X124887351Y-141738580D02*
G01*
X124894632Y-141739660D01*
X124901771Y-141741448D01*
X124908701Y-141743928D01*
X124915355Y-141747075D01*
X124921668Y-141750859D01*
X124927579Y-141755243D01*
X124933033Y-141760186D01*
X124937976Y-141765640D01*
X124942360Y-141771551D01*
X124946144Y-141777864D01*
X124949291Y-141784518D01*
X124951771Y-141791448D01*
X124953559Y-141798587D01*
X124954639Y-141805868D01*
X124955000Y-141813219D01*
X124955000Y-141963219D01*
X124954639Y-141970570D01*
X124953559Y-141977851D01*
X124951771Y-141984990D01*
X124949291Y-141991920D01*
X124946144Y-141998574D01*
X124942360Y-142004887D01*
X124937976Y-142010798D01*
X124933033Y-142016252D01*
X124927579Y-142021195D01*
X124921668Y-142025579D01*
X124915355Y-142029363D01*
X124908701Y-142032510D01*
X124901771Y-142034990D01*
X124894632Y-142036778D01*
X124887351Y-142037858D01*
X124880000Y-142038219D01*
X123555000Y-142038219D01*
X123547649Y-142037858D01*
X123540368Y-142036778D01*
X123533229Y-142034990D01*
X123526299Y-142032510D01*
X123519645Y-142029363D01*
X123513332Y-142025579D01*
X123507421Y-142021195D01*
X123501967Y-142016252D01*
X123497024Y-142010798D01*
X123492640Y-142004887D01*
X123488856Y-141998574D01*
X123485709Y-141991920D01*
X123483229Y-141984990D01*
X123481441Y-141977851D01*
X123480361Y-141970570D01*
X123480000Y-141963219D01*
X123480000Y-141813219D01*
X123480361Y-141805868D01*
X123481441Y-141798587D01*
X123483229Y-141791448D01*
X123485709Y-141784518D01*
X123488856Y-141777864D01*
X123492640Y-141771551D01*
X123497024Y-141765640D01*
X123501967Y-141760186D01*
X123507421Y-141755243D01*
X123513332Y-141750859D01*
X123519645Y-141747075D01*
X123526299Y-141743928D01*
X123533229Y-141741448D01*
X123540368Y-141739660D01*
X123547649Y-141738580D01*
X123555000Y-141738219D01*
X124880000Y-141738219D01*
X124887351Y-141738580D01*
G37*
G36*
X124887351Y-141238580D02*
G01*
X124894632Y-141239660D01*
X124901771Y-141241448D01*
X124908701Y-141243928D01*
X124915355Y-141247075D01*
X124921668Y-141250859D01*
X124927579Y-141255243D01*
X124933033Y-141260186D01*
X124937976Y-141265640D01*
X124942360Y-141271551D01*
X124946144Y-141277864D01*
X124949291Y-141284518D01*
X124951771Y-141291448D01*
X124953559Y-141298587D01*
X124954639Y-141305868D01*
X124955000Y-141313219D01*
X124955000Y-141463219D01*
X124954639Y-141470570D01*
X124953559Y-141477851D01*
X124951771Y-141484990D01*
X124949291Y-141491920D01*
X124946144Y-141498574D01*
X124942360Y-141504887D01*
X124937976Y-141510798D01*
X124933033Y-141516252D01*
X124927579Y-141521195D01*
X124921668Y-141525579D01*
X124915355Y-141529363D01*
X124908701Y-141532510D01*
X124901771Y-141534990D01*
X124894632Y-141536778D01*
X124887351Y-141537858D01*
X124880000Y-141538219D01*
X123555000Y-141538219D01*
X123547649Y-141537858D01*
X123540368Y-141536778D01*
X123533229Y-141534990D01*
X123526299Y-141532510D01*
X123519645Y-141529363D01*
X123513332Y-141525579D01*
X123507421Y-141521195D01*
X123501967Y-141516252D01*
X123497024Y-141510798D01*
X123492640Y-141504887D01*
X123488856Y-141498574D01*
X123485709Y-141491920D01*
X123483229Y-141484990D01*
X123481441Y-141477851D01*
X123480361Y-141470570D01*
X123480000Y-141463219D01*
X123480000Y-141313219D01*
X123480361Y-141305868D01*
X123481441Y-141298587D01*
X123483229Y-141291448D01*
X123485709Y-141284518D01*
X123488856Y-141277864D01*
X123492640Y-141271551D01*
X123497024Y-141265640D01*
X123501967Y-141260186D01*
X123507421Y-141255243D01*
X123513332Y-141250859D01*
X123519645Y-141247075D01*
X123526299Y-141243928D01*
X123533229Y-141241448D01*
X123540368Y-141239660D01*
X123547649Y-141238580D01*
X123555000Y-141238219D01*
X124880000Y-141238219D01*
X124887351Y-141238580D01*
G37*
G36*
X124887351Y-140738580D02*
G01*
X124894632Y-140739660D01*
X124901771Y-140741448D01*
X124908701Y-140743928D01*
X124915355Y-140747075D01*
X124921668Y-140750859D01*
X124927579Y-140755243D01*
X124933033Y-140760186D01*
X124937976Y-140765640D01*
X124942360Y-140771551D01*
X124946144Y-140777864D01*
X124949291Y-140784518D01*
X124951771Y-140791448D01*
X124953559Y-140798587D01*
X124954639Y-140805868D01*
X124955000Y-140813219D01*
X124955000Y-140963219D01*
X124954639Y-140970570D01*
X124953559Y-140977851D01*
X124951771Y-140984990D01*
X124949291Y-140991920D01*
X124946144Y-140998574D01*
X124942360Y-141004887D01*
X124937976Y-141010798D01*
X124933033Y-141016252D01*
X124927579Y-141021195D01*
X124921668Y-141025579D01*
X124915355Y-141029363D01*
X124908701Y-141032510D01*
X124901771Y-141034990D01*
X124894632Y-141036778D01*
X124887351Y-141037858D01*
X124880000Y-141038219D01*
X123555000Y-141038219D01*
X123547649Y-141037858D01*
X123540368Y-141036778D01*
X123533229Y-141034990D01*
X123526299Y-141032510D01*
X123519645Y-141029363D01*
X123513332Y-141025579D01*
X123507421Y-141021195D01*
X123501967Y-141016252D01*
X123497024Y-141010798D01*
X123492640Y-141004887D01*
X123488856Y-140998574D01*
X123485709Y-140991920D01*
X123483229Y-140984990D01*
X123481441Y-140977851D01*
X123480361Y-140970570D01*
X123480000Y-140963219D01*
X123480000Y-140813219D01*
X123480361Y-140805868D01*
X123481441Y-140798587D01*
X123483229Y-140791448D01*
X123485709Y-140784518D01*
X123488856Y-140777864D01*
X123492640Y-140771551D01*
X123497024Y-140765640D01*
X123501967Y-140760186D01*
X123507421Y-140755243D01*
X123513332Y-140750859D01*
X123519645Y-140747075D01*
X123526299Y-140743928D01*
X123533229Y-140741448D01*
X123540368Y-140739660D01*
X123547649Y-140738580D01*
X123555000Y-140738219D01*
X124880000Y-140738219D01*
X124887351Y-140738580D01*
G37*
G36*
X124887351Y-140238580D02*
G01*
X124894632Y-140239660D01*
X124901771Y-140241448D01*
X124908701Y-140243928D01*
X124915355Y-140247075D01*
X124921668Y-140250859D01*
X124927579Y-140255243D01*
X124933033Y-140260186D01*
X124937976Y-140265640D01*
X124942360Y-140271551D01*
X124946144Y-140277864D01*
X124949291Y-140284518D01*
X124951771Y-140291448D01*
X124953559Y-140298587D01*
X124954639Y-140305868D01*
X124955000Y-140313219D01*
X124955000Y-140463219D01*
X124954639Y-140470570D01*
X124953559Y-140477851D01*
X124951771Y-140484990D01*
X124949291Y-140491920D01*
X124946144Y-140498574D01*
X124942360Y-140504887D01*
X124937976Y-140510798D01*
X124933033Y-140516252D01*
X124927579Y-140521195D01*
X124921668Y-140525579D01*
X124915355Y-140529363D01*
X124908701Y-140532510D01*
X124901771Y-140534990D01*
X124894632Y-140536778D01*
X124887351Y-140537858D01*
X124880000Y-140538219D01*
X123555000Y-140538219D01*
X123547649Y-140537858D01*
X123540368Y-140536778D01*
X123533229Y-140534990D01*
X123526299Y-140532510D01*
X123519645Y-140529363D01*
X123513332Y-140525579D01*
X123507421Y-140521195D01*
X123501967Y-140516252D01*
X123497024Y-140510798D01*
X123492640Y-140504887D01*
X123488856Y-140498574D01*
X123485709Y-140491920D01*
X123483229Y-140484990D01*
X123481441Y-140477851D01*
X123480361Y-140470570D01*
X123480000Y-140463219D01*
X123480000Y-140313219D01*
X123480361Y-140305868D01*
X123481441Y-140298587D01*
X123483229Y-140291448D01*
X123485709Y-140284518D01*
X123488856Y-140277864D01*
X123492640Y-140271551D01*
X123497024Y-140265640D01*
X123501967Y-140260186D01*
X123507421Y-140255243D01*
X123513332Y-140250859D01*
X123519645Y-140247075D01*
X123526299Y-140243928D01*
X123533229Y-140241448D01*
X123540368Y-140239660D01*
X123547649Y-140238580D01*
X123555000Y-140238219D01*
X124880000Y-140238219D01*
X124887351Y-140238580D01*
G37*
G36*
X124887351Y-139738580D02*
G01*
X124894632Y-139739660D01*
X124901771Y-139741448D01*
X124908701Y-139743928D01*
X124915355Y-139747075D01*
X124921668Y-139750859D01*
X124927579Y-139755243D01*
X124933033Y-139760186D01*
X124937976Y-139765640D01*
X124942360Y-139771551D01*
X124946144Y-139777864D01*
X124949291Y-139784518D01*
X124951771Y-139791448D01*
X124953559Y-139798587D01*
X124954639Y-139805868D01*
X124955000Y-139813219D01*
X124955000Y-139963219D01*
X124954639Y-139970570D01*
X124953559Y-139977851D01*
X124951771Y-139984990D01*
X124949291Y-139991920D01*
X124946144Y-139998574D01*
X124942360Y-140004887D01*
X124937976Y-140010798D01*
X124933033Y-140016252D01*
X124927579Y-140021195D01*
X124921668Y-140025579D01*
X124915355Y-140029363D01*
X124908701Y-140032510D01*
X124901771Y-140034990D01*
X124894632Y-140036778D01*
X124887351Y-140037858D01*
X124880000Y-140038219D01*
X123555000Y-140038219D01*
X123547649Y-140037858D01*
X123540368Y-140036778D01*
X123533229Y-140034990D01*
X123526299Y-140032510D01*
X123519645Y-140029363D01*
X123513332Y-140025579D01*
X123507421Y-140021195D01*
X123501967Y-140016252D01*
X123497024Y-140010798D01*
X123492640Y-140004887D01*
X123488856Y-139998574D01*
X123485709Y-139991920D01*
X123483229Y-139984990D01*
X123481441Y-139977851D01*
X123480361Y-139970570D01*
X123480000Y-139963219D01*
X123480000Y-139813219D01*
X123480361Y-139805868D01*
X123481441Y-139798587D01*
X123483229Y-139791448D01*
X123485709Y-139784518D01*
X123488856Y-139777864D01*
X123492640Y-139771551D01*
X123497024Y-139765640D01*
X123501967Y-139760186D01*
X123507421Y-139755243D01*
X123513332Y-139750859D01*
X123519645Y-139747075D01*
X123526299Y-139743928D01*
X123533229Y-139741448D01*
X123540368Y-139739660D01*
X123547649Y-139738580D01*
X123555000Y-139738219D01*
X124880000Y-139738219D01*
X124887351Y-139738580D01*
G37*
G36*
X124887351Y-139238580D02*
G01*
X124894632Y-139239660D01*
X124901771Y-139241448D01*
X124908701Y-139243928D01*
X124915355Y-139247075D01*
X124921668Y-139250859D01*
X124927579Y-139255243D01*
X124933033Y-139260186D01*
X124937976Y-139265640D01*
X124942360Y-139271551D01*
X124946144Y-139277864D01*
X124949291Y-139284518D01*
X124951771Y-139291448D01*
X124953559Y-139298587D01*
X124954639Y-139305868D01*
X124955000Y-139313219D01*
X124955000Y-139463219D01*
X124954639Y-139470570D01*
X124953559Y-139477851D01*
X124951771Y-139484990D01*
X124949291Y-139491920D01*
X124946144Y-139498574D01*
X124942360Y-139504887D01*
X124937976Y-139510798D01*
X124933033Y-139516252D01*
X124927579Y-139521195D01*
X124921668Y-139525579D01*
X124915355Y-139529363D01*
X124908701Y-139532510D01*
X124901771Y-139534990D01*
X124894632Y-139536778D01*
X124887351Y-139537858D01*
X124880000Y-139538219D01*
X123555000Y-139538219D01*
X123547649Y-139537858D01*
X123540368Y-139536778D01*
X123533229Y-139534990D01*
X123526299Y-139532510D01*
X123519645Y-139529363D01*
X123513332Y-139525579D01*
X123507421Y-139521195D01*
X123501967Y-139516252D01*
X123497024Y-139510798D01*
X123492640Y-139504887D01*
X123488856Y-139498574D01*
X123485709Y-139491920D01*
X123483229Y-139484990D01*
X123481441Y-139477851D01*
X123480361Y-139470570D01*
X123480000Y-139463219D01*
X123480000Y-139313219D01*
X123480361Y-139305868D01*
X123481441Y-139298587D01*
X123483229Y-139291448D01*
X123485709Y-139284518D01*
X123488856Y-139277864D01*
X123492640Y-139271551D01*
X123497024Y-139265640D01*
X123501967Y-139260186D01*
X123507421Y-139255243D01*
X123513332Y-139250859D01*
X123519645Y-139247075D01*
X123526299Y-139243928D01*
X123533229Y-139241448D01*
X123540368Y-139239660D01*
X123547649Y-139238580D01*
X123555000Y-139238219D01*
X124880000Y-139238219D01*
X124887351Y-139238580D01*
G37*
G36*
X124887351Y-138738580D02*
G01*
X124894632Y-138739660D01*
X124901771Y-138741448D01*
X124908701Y-138743928D01*
X124915355Y-138747075D01*
X124921668Y-138750859D01*
X124927579Y-138755243D01*
X124933033Y-138760186D01*
X124937976Y-138765640D01*
X124942360Y-138771551D01*
X124946144Y-138777864D01*
X124949291Y-138784518D01*
X124951771Y-138791448D01*
X124953559Y-138798587D01*
X124954639Y-138805868D01*
X124955000Y-138813219D01*
X124955000Y-138963219D01*
X124954639Y-138970570D01*
X124953559Y-138977851D01*
X124951771Y-138984990D01*
X124949291Y-138991920D01*
X124946144Y-138998574D01*
X124942360Y-139004887D01*
X124937976Y-139010798D01*
X124933033Y-139016252D01*
X124927579Y-139021195D01*
X124921668Y-139025579D01*
X124915355Y-139029363D01*
X124908701Y-139032510D01*
X124901771Y-139034990D01*
X124894632Y-139036778D01*
X124887351Y-139037858D01*
X124880000Y-139038219D01*
X123555000Y-139038219D01*
X123547649Y-139037858D01*
X123540368Y-139036778D01*
X123533229Y-139034990D01*
X123526299Y-139032510D01*
X123519645Y-139029363D01*
X123513332Y-139025579D01*
X123507421Y-139021195D01*
X123501967Y-139016252D01*
X123497024Y-139010798D01*
X123492640Y-139004887D01*
X123488856Y-138998574D01*
X123485709Y-138991920D01*
X123483229Y-138984990D01*
X123481441Y-138977851D01*
X123480361Y-138970570D01*
X123480000Y-138963219D01*
X123480000Y-138813219D01*
X123480361Y-138805868D01*
X123481441Y-138798587D01*
X123483229Y-138791448D01*
X123485709Y-138784518D01*
X123488856Y-138777864D01*
X123492640Y-138771551D01*
X123497024Y-138765640D01*
X123501967Y-138760186D01*
X123507421Y-138755243D01*
X123513332Y-138750859D01*
X123519645Y-138747075D01*
X123526299Y-138743928D01*
X123533229Y-138741448D01*
X123540368Y-138739660D01*
X123547649Y-138738580D01*
X123555000Y-138738219D01*
X124880000Y-138738219D01*
X124887351Y-138738580D01*
G37*
G36*
X124887351Y-138238580D02*
G01*
X124894632Y-138239660D01*
X124901771Y-138241448D01*
X124908701Y-138243928D01*
X124915355Y-138247075D01*
X124921668Y-138250859D01*
X124927579Y-138255243D01*
X124933033Y-138260186D01*
X124937976Y-138265640D01*
X124942360Y-138271551D01*
X124946144Y-138277864D01*
X124949291Y-138284518D01*
X124951771Y-138291448D01*
X124953559Y-138298587D01*
X124954639Y-138305868D01*
X124955000Y-138313219D01*
X124955000Y-138463219D01*
X124954639Y-138470570D01*
X124953559Y-138477851D01*
X124951771Y-138484990D01*
X124949291Y-138491920D01*
X124946144Y-138498574D01*
X124942360Y-138504887D01*
X124937976Y-138510798D01*
X124933033Y-138516252D01*
X124927579Y-138521195D01*
X124921668Y-138525579D01*
X124915355Y-138529363D01*
X124908701Y-138532510D01*
X124901771Y-138534990D01*
X124894632Y-138536778D01*
X124887351Y-138537858D01*
X124880000Y-138538219D01*
X123555000Y-138538219D01*
X123547649Y-138537858D01*
X123540368Y-138536778D01*
X123533229Y-138534990D01*
X123526299Y-138532510D01*
X123519645Y-138529363D01*
X123513332Y-138525579D01*
X123507421Y-138521195D01*
X123501967Y-138516252D01*
X123497024Y-138510798D01*
X123492640Y-138504887D01*
X123488856Y-138498574D01*
X123485709Y-138491920D01*
X123483229Y-138484990D01*
X123481441Y-138477851D01*
X123480361Y-138470570D01*
X123480000Y-138463219D01*
X123480000Y-138313219D01*
X123480361Y-138305868D01*
X123481441Y-138298587D01*
X123483229Y-138291448D01*
X123485709Y-138284518D01*
X123488856Y-138277864D01*
X123492640Y-138271551D01*
X123497024Y-138265640D01*
X123501967Y-138260186D01*
X123507421Y-138255243D01*
X123513332Y-138250859D01*
X123519645Y-138247075D01*
X123526299Y-138243928D01*
X123533229Y-138241448D01*
X123540368Y-138239660D01*
X123547649Y-138238580D01*
X123555000Y-138238219D01*
X124880000Y-138238219D01*
X124887351Y-138238580D01*
G37*
G36*
X124887351Y-137738580D02*
G01*
X124894632Y-137739660D01*
X124901771Y-137741448D01*
X124908701Y-137743928D01*
X124915355Y-137747075D01*
X124921668Y-137750859D01*
X124927579Y-137755243D01*
X124933033Y-137760186D01*
X124937976Y-137765640D01*
X124942360Y-137771551D01*
X124946144Y-137777864D01*
X124949291Y-137784518D01*
X124951771Y-137791448D01*
X124953559Y-137798587D01*
X124954639Y-137805868D01*
X124955000Y-137813219D01*
X124955000Y-137963219D01*
X124954639Y-137970570D01*
X124953559Y-137977851D01*
X124951771Y-137984990D01*
X124949291Y-137991920D01*
X124946144Y-137998574D01*
X124942360Y-138004887D01*
X124937976Y-138010798D01*
X124933033Y-138016252D01*
X124927579Y-138021195D01*
X124921668Y-138025579D01*
X124915355Y-138029363D01*
X124908701Y-138032510D01*
X124901771Y-138034990D01*
X124894632Y-138036778D01*
X124887351Y-138037858D01*
X124880000Y-138038219D01*
X123555000Y-138038219D01*
X123547649Y-138037858D01*
X123540368Y-138036778D01*
X123533229Y-138034990D01*
X123526299Y-138032510D01*
X123519645Y-138029363D01*
X123513332Y-138025579D01*
X123507421Y-138021195D01*
X123501967Y-138016252D01*
X123497024Y-138010798D01*
X123492640Y-138004887D01*
X123488856Y-137998574D01*
X123485709Y-137991920D01*
X123483229Y-137984990D01*
X123481441Y-137977851D01*
X123480361Y-137970570D01*
X123480000Y-137963219D01*
X123480000Y-137813219D01*
X123480361Y-137805868D01*
X123481441Y-137798587D01*
X123483229Y-137791448D01*
X123485709Y-137784518D01*
X123488856Y-137777864D01*
X123492640Y-137771551D01*
X123497024Y-137765640D01*
X123501967Y-137760186D01*
X123507421Y-137755243D01*
X123513332Y-137750859D01*
X123519645Y-137747075D01*
X123526299Y-137743928D01*
X123533229Y-137741448D01*
X123540368Y-137739660D01*
X123547649Y-137738580D01*
X123555000Y-137738219D01*
X124880000Y-137738219D01*
X124887351Y-137738580D01*
G37*
G36*
X124887351Y-137238580D02*
G01*
X124894632Y-137239660D01*
X124901771Y-137241448D01*
X124908701Y-137243928D01*
X124915355Y-137247075D01*
X124921668Y-137250859D01*
X124927579Y-137255243D01*
X124933033Y-137260186D01*
X124937976Y-137265640D01*
X124942360Y-137271551D01*
X124946144Y-137277864D01*
X124949291Y-137284518D01*
X124951771Y-137291448D01*
X124953559Y-137298587D01*
X124954639Y-137305868D01*
X124955000Y-137313219D01*
X124955000Y-137463219D01*
X124954639Y-137470570D01*
X124953559Y-137477851D01*
X124951771Y-137484990D01*
X124949291Y-137491920D01*
X124946144Y-137498574D01*
X124942360Y-137504887D01*
X124937976Y-137510798D01*
X124933033Y-137516252D01*
X124927579Y-137521195D01*
X124921668Y-137525579D01*
X124915355Y-137529363D01*
X124908701Y-137532510D01*
X124901771Y-137534990D01*
X124894632Y-137536778D01*
X124887351Y-137537858D01*
X124880000Y-137538219D01*
X123555000Y-137538219D01*
X123547649Y-137537858D01*
X123540368Y-137536778D01*
X123533229Y-137534990D01*
X123526299Y-137532510D01*
X123519645Y-137529363D01*
X123513332Y-137525579D01*
X123507421Y-137521195D01*
X123501967Y-137516252D01*
X123497024Y-137510798D01*
X123492640Y-137504887D01*
X123488856Y-137498574D01*
X123485709Y-137491920D01*
X123483229Y-137484990D01*
X123481441Y-137477851D01*
X123480361Y-137470570D01*
X123480000Y-137463219D01*
X123480000Y-137313219D01*
X123480361Y-137305868D01*
X123481441Y-137298587D01*
X123483229Y-137291448D01*
X123485709Y-137284518D01*
X123488856Y-137277864D01*
X123492640Y-137271551D01*
X123497024Y-137265640D01*
X123501967Y-137260186D01*
X123507421Y-137255243D01*
X123513332Y-137250859D01*
X123519645Y-137247075D01*
X123526299Y-137243928D01*
X123533229Y-137241448D01*
X123540368Y-137239660D01*
X123547649Y-137238580D01*
X123555000Y-137238219D01*
X124880000Y-137238219D01*
X124887351Y-137238580D01*
G37*
G36*
X124887351Y-136738580D02*
G01*
X124894632Y-136739660D01*
X124901771Y-136741448D01*
X124908701Y-136743928D01*
X124915355Y-136747075D01*
X124921668Y-136750859D01*
X124927579Y-136755243D01*
X124933033Y-136760186D01*
X124937976Y-136765640D01*
X124942360Y-136771551D01*
X124946144Y-136777864D01*
X124949291Y-136784518D01*
X124951771Y-136791448D01*
X124953559Y-136798587D01*
X124954639Y-136805868D01*
X124955000Y-136813219D01*
X124955000Y-136963219D01*
X124954639Y-136970570D01*
X124953559Y-136977851D01*
X124951771Y-136984990D01*
X124949291Y-136991920D01*
X124946144Y-136998574D01*
X124942360Y-137004887D01*
X124937976Y-137010798D01*
X124933033Y-137016252D01*
X124927579Y-137021195D01*
X124921668Y-137025579D01*
X124915355Y-137029363D01*
X124908701Y-137032510D01*
X124901771Y-137034990D01*
X124894632Y-137036778D01*
X124887351Y-137037858D01*
X124880000Y-137038219D01*
X123555000Y-137038219D01*
X123547649Y-137037858D01*
X123540368Y-137036778D01*
X123533229Y-137034990D01*
X123526299Y-137032510D01*
X123519645Y-137029363D01*
X123513332Y-137025579D01*
X123507421Y-137021195D01*
X123501967Y-137016252D01*
X123497024Y-137010798D01*
X123492640Y-137004887D01*
X123488856Y-136998574D01*
X123485709Y-136991920D01*
X123483229Y-136984990D01*
X123481441Y-136977851D01*
X123480361Y-136970570D01*
X123480000Y-136963219D01*
X123480000Y-136813219D01*
X123480361Y-136805868D01*
X123481441Y-136798587D01*
X123483229Y-136791448D01*
X123485709Y-136784518D01*
X123488856Y-136777864D01*
X123492640Y-136771551D01*
X123497024Y-136765640D01*
X123501967Y-136760186D01*
X123507421Y-136755243D01*
X123513332Y-136750859D01*
X123519645Y-136747075D01*
X123526299Y-136743928D01*
X123533229Y-136741448D01*
X123540368Y-136739660D01*
X123547649Y-136738580D01*
X123555000Y-136738219D01*
X124880000Y-136738219D01*
X124887351Y-136738580D01*
G37*
G36*
X124887351Y-136238580D02*
G01*
X124894632Y-136239660D01*
X124901771Y-136241448D01*
X124908701Y-136243928D01*
X124915355Y-136247075D01*
X124921668Y-136250859D01*
X124927579Y-136255243D01*
X124933033Y-136260186D01*
X124937976Y-136265640D01*
X124942360Y-136271551D01*
X124946144Y-136277864D01*
X124949291Y-136284518D01*
X124951771Y-136291448D01*
X124953559Y-136298587D01*
X124954639Y-136305868D01*
X124955000Y-136313219D01*
X124955000Y-136463219D01*
X124954639Y-136470570D01*
X124953559Y-136477851D01*
X124951771Y-136484990D01*
X124949291Y-136491920D01*
X124946144Y-136498574D01*
X124942360Y-136504887D01*
X124937976Y-136510798D01*
X124933033Y-136516252D01*
X124927579Y-136521195D01*
X124921668Y-136525579D01*
X124915355Y-136529363D01*
X124908701Y-136532510D01*
X124901771Y-136534990D01*
X124894632Y-136536778D01*
X124887351Y-136537858D01*
X124880000Y-136538219D01*
X123555000Y-136538219D01*
X123547649Y-136537858D01*
X123540368Y-136536778D01*
X123533229Y-136534990D01*
X123526299Y-136532510D01*
X123519645Y-136529363D01*
X123513332Y-136525579D01*
X123507421Y-136521195D01*
X123501967Y-136516252D01*
X123497024Y-136510798D01*
X123492640Y-136504887D01*
X123488856Y-136498574D01*
X123485709Y-136491920D01*
X123483229Y-136484990D01*
X123481441Y-136477851D01*
X123480361Y-136470570D01*
X123480000Y-136463219D01*
X123480000Y-136313219D01*
X123480361Y-136305868D01*
X123481441Y-136298587D01*
X123483229Y-136291448D01*
X123485709Y-136284518D01*
X123488856Y-136277864D01*
X123492640Y-136271551D01*
X123497024Y-136265640D01*
X123501967Y-136260186D01*
X123507421Y-136255243D01*
X123513332Y-136250859D01*
X123519645Y-136247075D01*
X123526299Y-136243928D01*
X123533229Y-136241448D01*
X123540368Y-136239660D01*
X123547649Y-136238580D01*
X123555000Y-136238219D01*
X124880000Y-136238219D01*
X124887351Y-136238580D01*
G37*
G36*
X125712351Y-134238580D02*
G01*
X125719632Y-134239660D01*
X125726771Y-134241448D01*
X125733701Y-134243928D01*
X125740355Y-134247075D01*
X125746668Y-134250859D01*
X125752579Y-134255243D01*
X125758033Y-134260186D01*
X125762976Y-134265640D01*
X125767360Y-134271551D01*
X125771144Y-134277864D01*
X125774291Y-134284518D01*
X125776771Y-134291448D01*
X125778559Y-134298587D01*
X125779639Y-134305868D01*
X125780000Y-134313219D01*
X125780000Y-135638219D01*
X125779639Y-135645570D01*
X125778559Y-135652851D01*
X125776771Y-135659990D01*
X125774291Y-135666920D01*
X125771144Y-135673574D01*
X125767360Y-135679887D01*
X125762976Y-135685798D01*
X125758033Y-135691252D01*
X125752579Y-135696195D01*
X125746668Y-135700579D01*
X125740355Y-135704363D01*
X125733701Y-135707510D01*
X125726771Y-135709990D01*
X125719632Y-135711778D01*
X125712351Y-135712858D01*
X125705000Y-135713219D01*
X125555000Y-135713219D01*
X125547649Y-135712858D01*
X125540368Y-135711778D01*
X125533229Y-135709990D01*
X125526299Y-135707510D01*
X125519645Y-135704363D01*
X125513332Y-135700579D01*
X125507421Y-135696195D01*
X125501967Y-135691252D01*
X125497024Y-135685798D01*
X125492640Y-135679887D01*
X125488856Y-135673574D01*
X125485709Y-135666920D01*
X125483229Y-135659990D01*
X125481441Y-135652851D01*
X125480361Y-135645570D01*
X125480000Y-135638219D01*
X125480000Y-134313219D01*
X125480361Y-134305868D01*
X125481441Y-134298587D01*
X125483229Y-134291448D01*
X125485709Y-134284518D01*
X125488856Y-134277864D01*
X125492640Y-134271551D01*
X125497024Y-134265640D01*
X125501967Y-134260186D01*
X125507421Y-134255243D01*
X125513332Y-134250859D01*
X125519645Y-134247075D01*
X125526299Y-134243928D01*
X125533229Y-134241448D01*
X125540368Y-134239660D01*
X125547649Y-134238580D01*
X125555000Y-134238219D01*
X125705000Y-134238219D01*
X125712351Y-134238580D01*
G37*
G36*
X126212351Y-134238580D02*
G01*
X126219632Y-134239660D01*
X126226771Y-134241448D01*
X126233701Y-134243928D01*
X126240355Y-134247075D01*
X126246668Y-134250859D01*
X126252579Y-134255243D01*
X126258033Y-134260186D01*
X126262976Y-134265640D01*
X126267360Y-134271551D01*
X126271144Y-134277864D01*
X126274291Y-134284518D01*
X126276771Y-134291448D01*
X126278559Y-134298587D01*
X126279639Y-134305868D01*
X126280000Y-134313219D01*
X126280000Y-135638219D01*
X126279639Y-135645570D01*
X126278559Y-135652851D01*
X126276771Y-135659990D01*
X126274291Y-135666920D01*
X126271144Y-135673574D01*
X126267360Y-135679887D01*
X126262976Y-135685798D01*
X126258033Y-135691252D01*
X126252579Y-135696195D01*
X126246668Y-135700579D01*
X126240355Y-135704363D01*
X126233701Y-135707510D01*
X126226771Y-135709990D01*
X126219632Y-135711778D01*
X126212351Y-135712858D01*
X126205000Y-135713219D01*
X126055000Y-135713219D01*
X126047649Y-135712858D01*
X126040368Y-135711778D01*
X126033229Y-135709990D01*
X126026299Y-135707510D01*
X126019645Y-135704363D01*
X126013332Y-135700579D01*
X126007421Y-135696195D01*
X126001967Y-135691252D01*
X125997024Y-135685798D01*
X125992640Y-135679887D01*
X125988856Y-135673574D01*
X125985709Y-135666920D01*
X125983229Y-135659990D01*
X125981441Y-135652851D01*
X125980361Y-135645570D01*
X125980000Y-135638219D01*
X125980000Y-134313219D01*
X125980361Y-134305868D01*
X125981441Y-134298587D01*
X125983229Y-134291448D01*
X125985709Y-134284518D01*
X125988856Y-134277864D01*
X125992640Y-134271551D01*
X125997024Y-134265640D01*
X126001967Y-134260186D01*
X126007421Y-134255243D01*
X126013332Y-134250859D01*
X126019645Y-134247075D01*
X126026299Y-134243928D01*
X126033229Y-134241448D01*
X126040368Y-134239660D01*
X126047649Y-134238580D01*
X126055000Y-134238219D01*
X126205000Y-134238219D01*
X126212351Y-134238580D01*
G37*
G36*
X126712351Y-134238580D02*
G01*
X126719632Y-134239660D01*
X126726771Y-134241448D01*
X126733701Y-134243928D01*
X126740355Y-134247075D01*
X126746668Y-134250859D01*
X126752579Y-134255243D01*
X126758033Y-134260186D01*
X126762976Y-134265640D01*
X126767360Y-134271551D01*
X126771144Y-134277864D01*
X126774291Y-134284518D01*
X126776771Y-134291448D01*
X126778559Y-134298587D01*
X126779639Y-134305868D01*
X126780000Y-134313219D01*
X126780000Y-135638219D01*
X126779639Y-135645570D01*
X126778559Y-135652851D01*
X126776771Y-135659990D01*
X126774291Y-135666920D01*
X126771144Y-135673574D01*
X126767360Y-135679887D01*
X126762976Y-135685798D01*
X126758033Y-135691252D01*
X126752579Y-135696195D01*
X126746668Y-135700579D01*
X126740355Y-135704363D01*
X126733701Y-135707510D01*
X126726771Y-135709990D01*
X126719632Y-135711778D01*
X126712351Y-135712858D01*
X126705000Y-135713219D01*
X126555000Y-135713219D01*
X126547649Y-135712858D01*
X126540368Y-135711778D01*
X126533229Y-135709990D01*
X126526299Y-135707510D01*
X126519645Y-135704363D01*
X126513332Y-135700579D01*
X126507421Y-135696195D01*
X126501967Y-135691252D01*
X126497024Y-135685798D01*
X126492640Y-135679887D01*
X126488856Y-135673574D01*
X126485709Y-135666920D01*
X126483229Y-135659990D01*
X126481441Y-135652851D01*
X126480361Y-135645570D01*
X126480000Y-135638219D01*
X126480000Y-134313219D01*
X126480361Y-134305868D01*
X126481441Y-134298587D01*
X126483229Y-134291448D01*
X126485709Y-134284518D01*
X126488856Y-134277864D01*
X126492640Y-134271551D01*
X126497024Y-134265640D01*
X126501967Y-134260186D01*
X126507421Y-134255243D01*
X126513332Y-134250859D01*
X126519645Y-134247075D01*
X126526299Y-134243928D01*
X126533229Y-134241448D01*
X126540368Y-134239660D01*
X126547649Y-134238580D01*
X126555000Y-134238219D01*
X126705000Y-134238219D01*
X126712351Y-134238580D01*
G37*
G36*
X127212351Y-134238580D02*
G01*
X127219632Y-134239660D01*
X127226771Y-134241448D01*
X127233701Y-134243928D01*
X127240355Y-134247075D01*
X127246668Y-134250859D01*
X127252579Y-134255243D01*
X127258033Y-134260186D01*
X127262976Y-134265640D01*
X127267360Y-134271551D01*
X127271144Y-134277864D01*
X127274291Y-134284518D01*
X127276771Y-134291448D01*
X127278559Y-134298587D01*
X127279639Y-134305868D01*
X127280000Y-134313219D01*
X127280000Y-135638219D01*
X127279639Y-135645570D01*
X127278559Y-135652851D01*
X127276771Y-135659990D01*
X127274291Y-135666920D01*
X127271144Y-135673574D01*
X127267360Y-135679887D01*
X127262976Y-135685798D01*
X127258033Y-135691252D01*
X127252579Y-135696195D01*
X127246668Y-135700579D01*
X127240355Y-135704363D01*
X127233701Y-135707510D01*
X127226771Y-135709990D01*
X127219632Y-135711778D01*
X127212351Y-135712858D01*
X127205000Y-135713219D01*
X127055000Y-135713219D01*
X127047649Y-135712858D01*
X127040368Y-135711778D01*
X127033229Y-135709990D01*
X127026299Y-135707510D01*
X127019645Y-135704363D01*
X127013332Y-135700579D01*
X127007421Y-135696195D01*
X127001967Y-135691252D01*
X126997024Y-135685798D01*
X126992640Y-135679887D01*
X126988856Y-135673574D01*
X126985709Y-135666920D01*
X126983229Y-135659990D01*
X126981441Y-135652851D01*
X126980361Y-135645570D01*
X126980000Y-135638219D01*
X126980000Y-134313219D01*
X126980361Y-134305868D01*
X126981441Y-134298587D01*
X126983229Y-134291448D01*
X126985709Y-134284518D01*
X126988856Y-134277864D01*
X126992640Y-134271551D01*
X126997024Y-134265640D01*
X127001967Y-134260186D01*
X127007421Y-134255243D01*
X127013332Y-134250859D01*
X127019645Y-134247075D01*
X127026299Y-134243928D01*
X127033229Y-134241448D01*
X127040368Y-134239660D01*
X127047649Y-134238580D01*
X127055000Y-134238219D01*
X127205000Y-134238219D01*
X127212351Y-134238580D01*
G37*
G36*
X127712351Y-134238580D02*
G01*
X127719632Y-134239660D01*
X127726771Y-134241448D01*
X127733701Y-134243928D01*
X127740355Y-134247075D01*
X127746668Y-134250859D01*
X127752579Y-134255243D01*
X127758033Y-134260186D01*
X127762976Y-134265640D01*
X127767360Y-134271551D01*
X127771144Y-134277864D01*
X127774291Y-134284518D01*
X127776771Y-134291448D01*
X127778559Y-134298587D01*
X127779639Y-134305868D01*
X127780000Y-134313219D01*
X127780000Y-135638219D01*
X127779639Y-135645570D01*
X127778559Y-135652851D01*
X127776771Y-135659990D01*
X127774291Y-135666920D01*
X127771144Y-135673574D01*
X127767360Y-135679887D01*
X127762976Y-135685798D01*
X127758033Y-135691252D01*
X127752579Y-135696195D01*
X127746668Y-135700579D01*
X127740355Y-135704363D01*
X127733701Y-135707510D01*
X127726771Y-135709990D01*
X127719632Y-135711778D01*
X127712351Y-135712858D01*
X127705000Y-135713219D01*
X127555000Y-135713219D01*
X127547649Y-135712858D01*
X127540368Y-135711778D01*
X127533229Y-135709990D01*
X127526299Y-135707510D01*
X127519645Y-135704363D01*
X127513332Y-135700579D01*
X127507421Y-135696195D01*
X127501967Y-135691252D01*
X127497024Y-135685798D01*
X127492640Y-135679887D01*
X127488856Y-135673574D01*
X127485709Y-135666920D01*
X127483229Y-135659990D01*
X127481441Y-135652851D01*
X127480361Y-135645570D01*
X127480000Y-135638219D01*
X127480000Y-134313219D01*
X127480361Y-134305868D01*
X127481441Y-134298587D01*
X127483229Y-134291448D01*
X127485709Y-134284518D01*
X127488856Y-134277864D01*
X127492640Y-134271551D01*
X127497024Y-134265640D01*
X127501967Y-134260186D01*
X127507421Y-134255243D01*
X127513332Y-134250859D01*
X127519645Y-134247075D01*
X127526299Y-134243928D01*
X127533229Y-134241448D01*
X127540368Y-134239660D01*
X127547649Y-134238580D01*
X127555000Y-134238219D01*
X127705000Y-134238219D01*
X127712351Y-134238580D01*
G37*
G36*
X128212351Y-134238580D02*
G01*
X128219632Y-134239660D01*
X128226771Y-134241448D01*
X128233701Y-134243928D01*
X128240355Y-134247075D01*
X128246668Y-134250859D01*
X128252579Y-134255243D01*
X128258033Y-134260186D01*
X128262976Y-134265640D01*
X128267360Y-134271551D01*
X128271144Y-134277864D01*
X128274291Y-134284518D01*
X128276771Y-134291448D01*
X128278559Y-134298587D01*
X128279639Y-134305868D01*
X128280000Y-134313219D01*
X128280000Y-135638219D01*
X128279639Y-135645570D01*
X128278559Y-135652851D01*
X128276771Y-135659990D01*
X128274291Y-135666920D01*
X128271144Y-135673574D01*
X128267360Y-135679887D01*
X128262976Y-135685798D01*
X128258033Y-135691252D01*
X128252579Y-135696195D01*
X128246668Y-135700579D01*
X128240355Y-135704363D01*
X128233701Y-135707510D01*
X128226771Y-135709990D01*
X128219632Y-135711778D01*
X128212351Y-135712858D01*
X128205000Y-135713219D01*
X128055000Y-135713219D01*
X128047649Y-135712858D01*
X128040368Y-135711778D01*
X128033229Y-135709990D01*
X128026299Y-135707510D01*
X128019645Y-135704363D01*
X128013332Y-135700579D01*
X128007421Y-135696195D01*
X128001967Y-135691252D01*
X127997024Y-135685798D01*
X127992640Y-135679887D01*
X127988856Y-135673574D01*
X127985709Y-135666920D01*
X127983229Y-135659990D01*
X127981441Y-135652851D01*
X127980361Y-135645570D01*
X127980000Y-135638219D01*
X127980000Y-134313219D01*
X127980361Y-134305868D01*
X127981441Y-134298587D01*
X127983229Y-134291448D01*
X127985709Y-134284518D01*
X127988856Y-134277864D01*
X127992640Y-134271551D01*
X127997024Y-134265640D01*
X128001967Y-134260186D01*
X128007421Y-134255243D01*
X128013332Y-134250859D01*
X128019645Y-134247075D01*
X128026299Y-134243928D01*
X128033229Y-134241448D01*
X128040368Y-134239660D01*
X128047649Y-134238580D01*
X128055000Y-134238219D01*
X128205000Y-134238219D01*
X128212351Y-134238580D01*
G37*
G36*
X128712351Y-134238580D02*
G01*
X128719632Y-134239660D01*
X128726771Y-134241448D01*
X128733701Y-134243928D01*
X128740355Y-134247075D01*
X128746668Y-134250859D01*
X128752579Y-134255243D01*
X128758033Y-134260186D01*
X128762976Y-134265640D01*
X128767360Y-134271551D01*
X128771144Y-134277864D01*
X128774291Y-134284518D01*
X128776771Y-134291448D01*
X128778559Y-134298587D01*
X128779639Y-134305868D01*
X128780000Y-134313219D01*
X128780000Y-135638219D01*
X128779639Y-135645570D01*
X128778559Y-135652851D01*
X128776771Y-135659990D01*
X128774291Y-135666920D01*
X128771144Y-135673574D01*
X128767360Y-135679887D01*
X128762976Y-135685798D01*
X128758033Y-135691252D01*
X128752579Y-135696195D01*
X128746668Y-135700579D01*
X128740355Y-135704363D01*
X128733701Y-135707510D01*
X128726771Y-135709990D01*
X128719632Y-135711778D01*
X128712351Y-135712858D01*
X128705000Y-135713219D01*
X128555000Y-135713219D01*
X128547649Y-135712858D01*
X128540368Y-135711778D01*
X128533229Y-135709990D01*
X128526299Y-135707510D01*
X128519645Y-135704363D01*
X128513332Y-135700579D01*
X128507421Y-135696195D01*
X128501967Y-135691252D01*
X128497024Y-135685798D01*
X128492640Y-135679887D01*
X128488856Y-135673574D01*
X128485709Y-135666920D01*
X128483229Y-135659990D01*
X128481441Y-135652851D01*
X128480361Y-135645570D01*
X128480000Y-135638219D01*
X128480000Y-134313219D01*
X128480361Y-134305868D01*
X128481441Y-134298587D01*
X128483229Y-134291448D01*
X128485709Y-134284518D01*
X128488856Y-134277864D01*
X128492640Y-134271551D01*
X128497024Y-134265640D01*
X128501967Y-134260186D01*
X128507421Y-134255243D01*
X128513332Y-134250859D01*
X128519645Y-134247075D01*
X128526299Y-134243928D01*
X128533229Y-134241448D01*
X128540368Y-134239660D01*
X128547649Y-134238580D01*
X128555000Y-134238219D01*
X128705000Y-134238219D01*
X128712351Y-134238580D01*
G37*
G36*
X129212351Y-134238580D02*
G01*
X129219632Y-134239660D01*
X129226771Y-134241448D01*
X129233701Y-134243928D01*
X129240355Y-134247075D01*
X129246668Y-134250859D01*
X129252579Y-134255243D01*
X129258033Y-134260186D01*
X129262976Y-134265640D01*
X129267360Y-134271551D01*
X129271144Y-134277864D01*
X129274291Y-134284518D01*
X129276771Y-134291448D01*
X129278559Y-134298587D01*
X129279639Y-134305868D01*
X129280000Y-134313219D01*
X129280000Y-135638219D01*
X129279639Y-135645570D01*
X129278559Y-135652851D01*
X129276771Y-135659990D01*
X129274291Y-135666920D01*
X129271144Y-135673574D01*
X129267360Y-135679887D01*
X129262976Y-135685798D01*
X129258033Y-135691252D01*
X129252579Y-135696195D01*
X129246668Y-135700579D01*
X129240355Y-135704363D01*
X129233701Y-135707510D01*
X129226771Y-135709990D01*
X129219632Y-135711778D01*
X129212351Y-135712858D01*
X129205000Y-135713219D01*
X129055000Y-135713219D01*
X129047649Y-135712858D01*
X129040368Y-135711778D01*
X129033229Y-135709990D01*
X129026299Y-135707510D01*
X129019645Y-135704363D01*
X129013332Y-135700579D01*
X129007421Y-135696195D01*
X129001967Y-135691252D01*
X128997024Y-135685798D01*
X128992640Y-135679887D01*
X128988856Y-135673574D01*
X128985709Y-135666920D01*
X128983229Y-135659990D01*
X128981441Y-135652851D01*
X128980361Y-135645570D01*
X128980000Y-135638219D01*
X128980000Y-134313219D01*
X128980361Y-134305868D01*
X128981441Y-134298587D01*
X128983229Y-134291448D01*
X128985709Y-134284518D01*
X128988856Y-134277864D01*
X128992640Y-134271551D01*
X128997024Y-134265640D01*
X129001967Y-134260186D01*
X129007421Y-134255243D01*
X129013332Y-134250859D01*
X129019645Y-134247075D01*
X129026299Y-134243928D01*
X129033229Y-134241448D01*
X129040368Y-134239660D01*
X129047649Y-134238580D01*
X129055000Y-134238219D01*
X129205000Y-134238219D01*
X129212351Y-134238580D01*
G37*
G36*
X129712351Y-134238580D02*
G01*
X129719632Y-134239660D01*
X129726771Y-134241448D01*
X129733701Y-134243928D01*
X129740355Y-134247075D01*
X129746668Y-134250859D01*
X129752579Y-134255243D01*
X129758033Y-134260186D01*
X129762976Y-134265640D01*
X129767360Y-134271551D01*
X129771144Y-134277864D01*
X129774291Y-134284518D01*
X129776771Y-134291448D01*
X129778559Y-134298587D01*
X129779639Y-134305868D01*
X129780000Y-134313219D01*
X129780000Y-135638219D01*
X129779639Y-135645570D01*
X129778559Y-135652851D01*
X129776771Y-135659990D01*
X129774291Y-135666920D01*
X129771144Y-135673574D01*
X129767360Y-135679887D01*
X129762976Y-135685798D01*
X129758033Y-135691252D01*
X129752579Y-135696195D01*
X129746668Y-135700579D01*
X129740355Y-135704363D01*
X129733701Y-135707510D01*
X129726771Y-135709990D01*
X129719632Y-135711778D01*
X129712351Y-135712858D01*
X129705000Y-135713219D01*
X129555000Y-135713219D01*
X129547649Y-135712858D01*
X129540368Y-135711778D01*
X129533229Y-135709990D01*
X129526299Y-135707510D01*
X129519645Y-135704363D01*
X129513332Y-135700579D01*
X129507421Y-135696195D01*
X129501967Y-135691252D01*
X129497024Y-135685798D01*
X129492640Y-135679887D01*
X129488856Y-135673574D01*
X129485709Y-135666920D01*
X129483229Y-135659990D01*
X129481441Y-135652851D01*
X129480361Y-135645570D01*
X129480000Y-135638219D01*
X129480000Y-134313219D01*
X129480361Y-134305868D01*
X129481441Y-134298587D01*
X129483229Y-134291448D01*
X129485709Y-134284518D01*
X129488856Y-134277864D01*
X129492640Y-134271551D01*
X129497024Y-134265640D01*
X129501967Y-134260186D01*
X129507421Y-134255243D01*
X129513332Y-134250859D01*
X129519645Y-134247075D01*
X129526299Y-134243928D01*
X129533229Y-134241448D01*
X129540368Y-134239660D01*
X129547649Y-134238580D01*
X129555000Y-134238219D01*
X129705000Y-134238219D01*
X129712351Y-134238580D01*
G37*
G36*
X130212351Y-134238580D02*
G01*
X130219632Y-134239660D01*
X130226771Y-134241448D01*
X130233701Y-134243928D01*
X130240355Y-134247075D01*
X130246668Y-134250859D01*
X130252579Y-134255243D01*
X130258033Y-134260186D01*
X130262976Y-134265640D01*
X130267360Y-134271551D01*
X130271144Y-134277864D01*
X130274291Y-134284518D01*
X130276771Y-134291448D01*
X130278559Y-134298587D01*
X130279639Y-134305868D01*
X130280000Y-134313219D01*
X130280000Y-135638219D01*
X130279639Y-135645570D01*
X130278559Y-135652851D01*
X130276771Y-135659990D01*
X130274291Y-135666920D01*
X130271144Y-135673574D01*
X130267360Y-135679887D01*
X130262976Y-135685798D01*
X130258033Y-135691252D01*
X130252579Y-135696195D01*
X130246668Y-135700579D01*
X130240355Y-135704363D01*
X130233701Y-135707510D01*
X130226771Y-135709990D01*
X130219632Y-135711778D01*
X130212351Y-135712858D01*
X130205000Y-135713219D01*
X130055000Y-135713219D01*
X130047649Y-135712858D01*
X130040368Y-135711778D01*
X130033229Y-135709990D01*
X130026299Y-135707510D01*
X130019645Y-135704363D01*
X130013332Y-135700579D01*
X130007421Y-135696195D01*
X130001967Y-135691252D01*
X129997024Y-135685798D01*
X129992640Y-135679887D01*
X129988856Y-135673574D01*
X129985709Y-135666920D01*
X129983229Y-135659990D01*
X129981441Y-135652851D01*
X129980361Y-135645570D01*
X129980000Y-135638219D01*
X129980000Y-134313219D01*
X129980361Y-134305868D01*
X129981441Y-134298587D01*
X129983229Y-134291448D01*
X129985709Y-134284518D01*
X129988856Y-134277864D01*
X129992640Y-134271551D01*
X129997024Y-134265640D01*
X130001967Y-134260186D01*
X130007421Y-134255243D01*
X130013332Y-134250859D01*
X130019645Y-134247075D01*
X130026299Y-134243928D01*
X130033229Y-134241448D01*
X130040368Y-134239660D01*
X130047649Y-134238580D01*
X130055000Y-134238219D01*
X130205000Y-134238219D01*
X130212351Y-134238580D01*
G37*
G36*
X130712351Y-134238580D02*
G01*
X130719632Y-134239660D01*
X130726771Y-134241448D01*
X130733701Y-134243928D01*
X130740355Y-134247075D01*
X130746668Y-134250859D01*
X130752579Y-134255243D01*
X130758033Y-134260186D01*
X130762976Y-134265640D01*
X130767360Y-134271551D01*
X130771144Y-134277864D01*
X130774291Y-134284518D01*
X130776771Y-134291448D01*
X130778559Y-134298587D01*
X130779639Y-134305868D01*
X130780000Y-134313219D01*
X130780000Y-135638219D01*
X130779639Y-135645570D01*
X130778559Y-135652851D01*
X130776771Y-135659990D01*
X130774291Y-135666920D01*
X130771144Y-135673574D01*
X130767360Y-135679887D01*
X130762976Y-135685798D01*
X130758033Y-135691252D01*
X130752579Y-135696195D01*
X130746668Y-135700579D01*
X130740355Y-135704363D01*
X130733701Y-135707510D01*
X130726771Y-135709990D01*
X130719632Y-135711778D01*
X130712351Y-135712858D01*
X130705000Y-135713219D01*
X130555000Y-135713219D01*
X130547649Y-135712858D01*
X130540368Y-135711778D01*
X130533229Y-135709990D01*
X130526299Y-135707510D01*
X130519645Y-135704363D01*
X130513332Y-135700579D01*
X130507421Y-135696195D01*
X130501967Y-135691252D01*
X130497024Y-135685798D01*
X130492640Y-135679887D01*
X130488856Y-135673574D01*
X130485709Y-135666920D01*
X130483229Y-135659990D01*
X130481441Y-135652851D01*
X130480361Y-135645570D01*
X130480000Y-135638219D01*
X130480000Y-134313219D01*
X130480361Y-134305868D01*
X130481441Y-134298587D01*
X130483229Y-134291448D01*
X130485709Y-134284518D01*
X130488856Y-134277864D01*
X130492640Y-134271551D01*
X130497024Y-134265640D01*
X130501967Y-134260186D01*
X130507421Y-134255243D01*
X130513332Y-134250859D01*
X130519645Y-134247075D01*
X130526299Y-134243928D01*
X130533229Y-134241448D01*
X130540368Y-134239660D01*
X130547649Y-134238580D01*
X130555000Y-134238219D01*
X130705000Y-134238219D01*
X130712351Y-134238580D01*
G37*
G36*
X131212351Y-134238580D02*
G01*
X131219632Y-134239660D01*
X131226771Y-134241448D01*
X131233701Y-134243928D01*
X131240355Y-134247075D01*
X131246668Y-134250859D01*
X131252579Y-134255243D01*
X131258033Y-134260186D01*
X131262976Y-134265640D01*
X131267360Y-134271551D01*
X131271144Y-134277864D01*
X131274291Y-134284518D01*
X131276771Y-134291448D01*
X131278559Y-134298587D01*
X131279639Y-134305868D01*
X131280000Y-134313219D01*
X131280000Y-135638219D01*
X131279639Y-135645570D01*
X131278559Y-135652851D01*
X131276771Y-135659990D01*
X131274291Y-135666920D01*
X131271144Y-135673574D01*
X131267360Y-135679887D01*
X131262976Y-135685798D01*
X131258033Y-135691252D01*
X131252579Y-135696195D01*
X131246668Y-135700579D01*
X131240355Y-135704363D01*
X131233701Y-135707510D01*
X131226771Y-135709990D01*
X131219632Y-135711778D01*
X131212351Y-135712858D01*
X131205000Y-135713219D01*
X131055000Y-135713219D01*
X131047649Y-135712858D01*
X131040368Y-135711778D01*
X131033229Y-135709990D01*
X131026299Y-135707510D01*
X131019645Y-135704363D01*
X131013332Y-135700579D01*
X131007421Y-135696195D01*
X131001967Y-135691252D01*
X130997024Y-135685798D01*
X130992640Y-135679887D01*
X130988856Y-135673574D01*
X130985709Y-135666920D01*
X130983229Y-135659990D01*
X130981441Y-135652851D01*
X130980361Y-135645570D01*
X130980000Y-135638219D01*
X130980000Y-134313219D01*
X130980361Y-134305868D01*
X130981441Y-134298587D01*
X130983229Y-134291448D01*
X130985709Y-134284518D01*
X130988856Y-134277864D01*
X130992640Y-134271551D01*
X130997024Y-134265640D01*
X131001967Y-134260186D01*
X131007421Y-134255243D01*
X131013332Y-134250859D01*
X131019645Y-134247075D01*
X131026299Y-134243928D01*
X131033229Y-134241448D01*
X131040368Y-134239660D01*
X131047649Y-134238580D01*
X131055000Y-134238219D01*
X131205000Y-134238219D01*
X131212351Y-134238580D01*
G37*
G36*
X133212351Y-136238580D02*
G01*
X133219632Y-136239660D01*
X133226771Y-136241448D01*
X133233701Y-136243928D01*
X133240355Y-136247075D01*
X133246668Y-136250859D01*
X133252579Y-136255243D01*
X133258033Y-136260186D01*
X133262976Y-136265640D01*
X133267360Y-136271551D01*
X133271144Y-136277864D01*
X133274291Y-136284518D01*
X133276771Y-136291448D01*
X133278559Y-136298587D01*
X133279639Y-136305868D01*
X133280000Y-136313219D01*
X133280000Y-136463219D01*
X133279639Y-136470570D01*
X133278559Y-136477851D01*
X133276771Y-136484990D01*
X133274291Y-136491920D01*
X133271144Y-136498574D01*
X133267360Y-136504887D01*
X133262976Y-136510798D01*
X133258033Y-136516252D01*
X133252579Y-136521195D01*
X133246668Y-136525579D01*
X133240355Y-136529363D01*
X133233701Y-136532510D01*
X133226771Y-136534990D01*
X133219632Y-136536778D01*
X133212351Y-136537858D01*
X133205000Y-136538219D01*
X131880000Y-136538219D01*
X131872649Y-136537858D01*
X131865368Y-136536778D01*
X131858229Y-136534990D01*
X131851299Y-136532510D01*
X131844645Y-136529363D01*
X131838332Y-136525579D01*
X131832421Y-136521195D01*
X131826967Y-136516252D01*
X131822024Y-136510798D01*
X131817640Y-136504887D01*
X131813856Y-136498574D01*
X131810709Y-136491920D01*
X131808229Y-136484990D01*
X131806441Y-136477851D01*
X131805361Y-136470570D01*
X131805000Y-136463219D01*
X131805000Y-136313219D01*
X131805361Y-136305868D01*
X131806441Y-136298587D01*
X131808229Y-136291448D01*
X131810709Y-136284518D01*
X131813856Y-136277864D01*
X131817640Y-136271551D01*
X131822024Y-136265640D01*
X131826967Y-136260186D01*
X131832421Y-136255243D01*
X131838332Y-136250859D01*
X131844645Y-136247075D01*
X131851299Y-136243928D01*
X131858229Y-136241448D01*
X131865368Y-136239660D01*
X131872649Y-136238580D01*
X131880000Y-136238219D01*
X133205000Y-136238219D01*
X133212351Y-136238580D01*
G37*
G36*
X133212351Y-136738580D02*
G01*
X133219632Y-136739660D01*
X133226771Y-136741448D01*
X133233701Y-136743928D01*
X133240355Y-136747075D01*
X133246668Y-136750859D01*
X133252579Y-136755243D01*
X133258033Y-136760186D01*
X133262976Y-136765640D01*
X133267360Y-136771551D01*
X133271144Y-136777864D01*
X133274291Y-136784518D01*
X133276771Y-136791448D01*
X133278559Y-136798587D01*
X133279639Y-136805868D01*
X133280000Y-136813219D01*
X133280000Y-136963219D01*
X133279639Y-136970570D01*
X133278559Y-136977851D01*
X133276771Y-136984990D01*
X133274291Y-136991920D01*
X133271144Y-136998574D01*
X133267360Y-137004887D01*
X133262976Y-137010798D01*
X133258033Y-137016252D01*
X133252579Y-137021195D01*
X133246668Y-137025579D01*
X133240355Y-137029363D01*
X133233701Y-137032510D01*
X133226771Y-137034990D01*
X133219632Y-137036778D01*
X133212351Y-137037858D01*
X133205000Y-137038219D01*
X131880000Y-137038219D01*
X131872649Y-137037858D01*
X131865368Y-137036778D01*
X131858229Y-137034990D01*
X131851299Y-137032510D01*
X131844645Y-137029363D01*
X131838332Y-137025579D01*
X131832421Y-137021195D01*
X131826967Y-137016252D01*
X131822024Y-137010798D01*
X131817640Y-137004887D01*
X131813856Y-136998574D01*
X131810709Y-136991920D01*
X131808229Y-136984990D01*
X131806441Y-136977851D01*
X131805361Y-136970570D01*
X131805000Y-136963219D01*
X131805000Y-136813219D01*
X131805361Y-136805868D01*
X131806441Y-136798587D01*
X131808229Y-136791448D01*
X131810709Y-136784518D01*
X131813856Y-136777864D01*
X131817640Y-136771551D01*
X131822024Y-136765640D01*
X131826967Y-136760186D01*
X131832421Y-136755243D01*
X131838332Y-136750859D01*
X131844645Y-136747075D01*
X131851299Y-136743928D01*
X131858229Y-136741448D01*
X131865368Y-136739660D01*
X131872649Y-136738580D01*
X131880000Y-136738219D01*
X133205000Y-136738219D01*
X133212351Y-136738580D01*
G37*
G36*
X133212351Y-137238580D02*
G01*
X133219632Y-137239660D01*
X133226771Y-137241448D01*
X133233701Y-137243928D01*
X133240355Y-137247075D01*
X133246668Y-137250859D01*
X133252579Y-137255243D01*
X133258033Y-137260186D01*
X133262976Y-137265640D01*
X133267360Y-137271551D01*
X133271144Y-137277864D01*
X133274291Y-137284518D01*
X133276771Y-137291448D01*
X133278559Y-137298587D01*
X133279639Y-137305868D01*
X133280000Y-137313219D01*
X133280000Y-137463219D01*
X133279639Y-137470570D01*
X133278559Y-137477851D01*
X133276771Y-137484990D01*
X133274291Y-137491920D01*
X133271144Y-137498574D01*
X133267360Y-137504887D01*
X133262976Y-137510798D01*
X133258033Y-137516252D01*
X133252579Y-137521195D01*
X133246668Y-137525579D01*
X133240355Y-137529363D01*
X133233701Y-137532510D01*
X133226771Y-137534990D01*
X133219632Y-137536778D01*
X133212351Y-137537858D01*
X133205000Y-137538219D01*
X131880000Y-137538219D01*
X131872649Y-137537858D01*
X131865368Y-137536778D01*
X131858229Y-137534990D01*
X131851299Y-137532510D01*
X131844645Y-137529363D01*
X131838332Y-137525579D01*
X131832421Y-137521195D01*
X131826967Y-137516252D01*
X131822024Y-137510798D01*
X131817640Y-137504887D01*
X131813856Y-137498574D01*
X131810709Y-137491920D01*
X131808229Y-137484990D01*
X131806441Y-137477851D01*
X131805361Y-137470570D01*
X131805000Y-137463219D01*
X131805000Y-137313219D01*
X131805361Y-137305868D01*
X131806441Y-137298587D01*
X131808229Y-137291448D01*
X131810709Y-137284518D01*
X131813856Y-137277864D01*
X131817640Y-137271551D01*
X131822024Y-137265640D01*
X131826967Y-137260186D01*
X131832421Y-137255243D01*
X131838332Y-137250859D01*
X131844645Y-137247075D01*
X131851299Y-137243928D01*
X131858229Y-137241448D01*
X131865368Y-137239660D01*
X131872649Y-137238580D01*
X131880000Y-137238219D01*
X133205000Y-137238219D01*
X133212351Y-137238580D01*
G37*
G36*
X133212351Y-137738580D02*
G01*
X133219632Y-137739660D01*
X133226771Y-137741448D01*
X133233701Y-137743928D01*
X133240355Y-137747075D01*
X133246668Y-137750859D01*
X133252579Y-137755243D01*
X133258033Y-137760186D01*
X133262976Y-137765640D01*
X133267360Y-137771551D01*
X133271144Y-137777864D01*
X133274291Y-137784518D01*
X133276771Y-137791448D01*
X133278559Y-137798587D01*
X133279639Y-137805868D01*
X133280000Y-137813219D01*
X133280000Y-137963219D01*
X133279639Y-137970570D01*
X133278559Y-137977851D01*
X133276771Y-137984990D01*
X133274291Y-137991920D01*
X133271144Y-137998574D01*
X133267360Y-138004887D01*
X133262976Y-138010798D01*
X133258033Y-138016252D01*
X133252579Y-138021195D01*
X133246668Y-138025579D01*
X133240355Y-138029363D01*
X133233701Y-138032510D01*
X133226771Y-138034990D01*
X133219632Y-138036778D01*
X133212351Y-138037858D01*
X133205000Y-138038219D01*
X131880000Y-138038219D01*
X131872649Y-138037858D01*
X131865368Y-138036778D01*
X131858229Y-138034990D01*
X131851299Y-138032510D01*
X131844645Y-138029363D01*
X131838332Y-138025579D01*
X131832421Y-138021195D01*
X131826967Y-138016252D01*
X131822024Y-138010798D01*
X131817640Y-138004887D01*
X131813856Y-137998574D01*
X131810709Y-137991920D01*
X131808229Y-137984990D01*
X131806441Y-137977851D01*
X131805361Y-137970570D01*
X131805000Y-137963219D01*
X131805000Y-137813219D01*
X131805361Y-137805868D01*
X131806441Y-137798587D01*
X131808229Y-137791448D01*
X131810709Y-137784518D01*
X131813856Y-137777864D01*
X131817640Y-137771551D01*
X131822024Y-137765640D01*
X131826967Y-137760186D01*
X131832421Y-137755243D01*
X131838332Y-137750859D01*
X131844645Y-137747075D01*
X131851299Y-137743928D01*
X131858229Y-137741448D01*
X131865368Y-137739660D01*
X131872649Y-137738580D01*
X131880000Y-137738219D01*
X133205000Y-137738219D01*
X133212351Y-137738580D01*
G37*
G36*
X133212351Y-138238580D02*
G01*
X133219632Y-138239660D01*
X133226771Y-138241448D01*
X133233701Y-138243928D01*
X133240355Y-138247075D01*
X133246668Y-138250859D01*
X133252579Y-138255243D01*
X133258033Y-138260186D01*
X133262976Y-138265640D01*
X133267360Y-138271551D01*
X133271144Y-138277864D01*
X133274291Y-138284518D01*
X133276771Y-138291448D01*
X133278559Y-138298587D01*
X133279639Y-138305868D01*
X133280000Y-138313219D01*
X133280000Y-138463219D01*
X133279639Y-138470570D01*
X133278559Y-138477851D01*
X133276771Y-138484990D01*
X133274291Y-138491920D01*
X133271144Y-138498574D01*
X133267360Y-138504887D01*
X133262976Y-138510798D01*
X133258033Y-138516252D01*
X133252579Y-138521195D01*
X133246668Y-138525579D01*
X133240355Y-138529363D01*
X133233701Y-138532510D01*
X133226771Y-138534990D01*
X133219632Y-138536778D01*
X133212351Y-138537858D01*
X133205000Y-138538219D01*
X131880000Y-138538219D01*
X131872649Y-138537858D01*
X131865368Y-138536778D01*
X131858229Y-138534990D01*
X131851299Y-138532510D01*
X131844645Y-138529363D01*
X131838332Y-138525579D01*
X131832421Y-138521195D01*
X131826967Y-138516252D01*
X131822024Y-138510798D01*
X131817640Y-138504887D01*
X131813856Y-138498574D01*
X131810709Y-138491920D01*
X131808229Y-138484990D01*
X131806441Y-138477851D01*
X131805361Y-138470570D01*
X131805000Y-138463219D01*
X131805000Y-138313219D01*
X131805361Y-138305868D01*
X131806441Y-138298587D01*
X131808229Y-138291448D01*
X131810709Y-138284518D01*
X131813856Y-138277864D01*
X131817640Y-138271551D01*
X131822024Y-138265640D01*
X131826967Y-138260186D01*
X131832421Y-138255243D01*
X131838332Y-138250859D01*
X131844645Y-138247075D01*
X131851299Y-138243928D01*
X131858229Y-138241448D01*
X131865368Y-138239660D01*
X131872649Y-138238580D01*
X131880000Y-138238219D01*
X133205000Y-138238219D01*
X133212351Y-138238580D01*
G37*
G36*
X133212351Y-138738580D02*
G01*
X133219632Y-138739660D01*
X133226771Y-138741448D01*
X133233701Y-138743928D01*
X133240355Y-138747075D01*
X133246668Y-138750859D01*
X133252579Y-138755243D01*
X133258033Y-138760186D01*
X133262976Y-138765640D01*
X133267360Y-138771551D01*
X133271144Y-138777864D01*
X133274291Y-138784518D01*
X133276771Y-138791448D01*
X133278559Y-138798587D01*
X133279639Y-138805868D01*
X133280000Y-138813219D01*
X133280000Y-138963219D01*
X133279639Y-138970570D01*
X133278559Y-138977851D01*
X133276771Y-138984990D01*
X133274291Y-138991920D01*
X133271144Y-138998574D01*
X133267360Y-139004887D01*
X133262976Y-139010798D01*
X133258033Y-139016252D01*
X133252579Y-139021195D01*
X133246668Y-139025579D01*
X133240355Y-139029363D01*
X133233701Y-139032510D01*
X133226771Y-139034990D01*
X133219632Y-139036778D01*
X133212351Y-139037858D01*
X133205000Y-139038219D01*
X131880000Y-139038219D01*
X131872649Y-139037858D01*
X131865368Y-139036778D01*
X131858229Y-139034990D01*
X131851299Y-139032510D01*
X131844645Y-139029363D01*
X131838332Y-139025579D01*
X131832421Y-139021195D01*
X131826967Y-139016252D01*
X131822024Y-139010798D01*
X131817640Y-139004887D01*
X131813856Y-138998574D01*
X131810709Y-138991920D01*
X131808229Y-138984990D01*
X131806441Y-138977851D01*
X131805361Y-138970570D01*
X131805000Y-138963219D01*
X131805000Y-138813219D01*
X131805361Y-138805868D01*
X131806441Y-138798587D01*
X131808229Y-138791448D01*
X131810709Y-138784518D01*
X131813856Y-138777864D01*
X131817640Y-138771551D01*
X131822024Y-138765640D01*
X131826967Y-138760186D01*
X131832421Y-138755243D01*
X131838332Y-138750859D01*
X131844645Y-138747075D01*
X131851299Y-138743928D01*
X131858229Y-138741448D01*
X131865368Y-138739660D01*
X131872649Y-138738580D01*
X131880000Y-138738219D01*
X133205000Y-138738219D01*
X133212351Y-138738580D01*
G37*
G36*
X133212351Y-139238580D02*
G01*
X133219632Y-139239660D01*
X133226771Y-139241448D01*
X133233701Y-139243928D01*
X133240355Y-139247075D01*
X133246668Y-139250859D01*
X133252579Y-139255243D01*
X133258033Y-139260186D01*
X133262976Y-139265640D01*
X133267360Y-139271551D01*
X133271144Y-139277864D01*
X133274291Y-139284518D01*
X133276771Y-139291448D01*
X133278559Y-139298587D01*
X133279639Y-139305868D01*
X133280000Y-139313219D01*
X133280000Y-139463219D01*
X133279639Y-139470570D01*
X133278559Y-139477851D01*
X133276771Y-139484990D01*
X133274291Y-139491920D01*
X133271144Y-139498574D01*
X133267360Y-139504887D01*
X133262976Y-139510798D01*
X133258033Y-139516252D01*
X133252579Y-139521195D01*
X133246668Y-139525579D01*
X133240355Y-139529363D01*
X133233701Y-139532510D01*
X133226771Y-139534990D01*
X133219632Y-139536778D01*
X133212351Y-139537858D01*
X133205000Y-139538219D01*
X131880000Y-139538219D01*
X131872649Y-139537858D01*
X131865368Y-139536778D01*
X131858229Y-139534990D01*
X131851299Y-139532510D01*
X131844645Y-139529363D01*
X131838332Y-139525579D01*
X131832421Y-139521195D01*
X131826967Y-139516252D01*
X131822024Y-139510798D01*
X131817640Y-139504887D01*
X131813856Y-139498574D01*
X131810709Y-139491920D01*
X131808229Y-139484990D01*
X131806441Y-139477851D01*
X131805361Y-139470570D01*
X131805000Y-139463219D01*
X131805000Y-139313219D01*
X131805361Y-139305868D01*
X131806441Y-139298587D01*
X131808229Y-139291448D01*
X131810709Y-139284518D01*
X131813856Y-139277864D01*
X131817640Y-139271551D01*
X131822024Y-139265640D01*
X131826967Y-139260186D01*
X131832421Y-139255243D01*
X131838332Y-139250859D01*
X131844645Y-139247075D01*
X131851299Y-139243928D01*
X131858229Y-139241448D01*
X131865368Y-139239660D01*
X131872649Y-139238580D01*
X131880000Y-139238219D01*
X133205000Y-139238219D01*
X133212351Y-139238580D01*
G37*
G36*
X133212351Y-139738580D02*
G01*
X133219632Y-139739660D01*
X133226771Y-139741448D01*
X133233701Y-139743928D01*
X133240355Y-139747075D01*
X133246668Y-139750859D01*
X133252579Y-139755243D01*
X133258033Y-139760186D01*
X133262976Y-139765640D01*
X133267360Y-139771551D01*
X133271144Y-139777864D01*
X133274291Y-139784518D01*
X133276771Y-139791448D01*
X133278559Y-139798587D01*
X133279639Y-139805868D01*
X133280000Y-139813219D01*
X133280000Y-139963219D01*
X133279639Y-139970570D01*
X133278559Y-139977851D01*
X133276771Y-139984990D01*
X133274291Y-139991920D01*
X133271144Y-139998574D01*
X133267360Y-140004887D01*
X133262976Y-140010798D01*
X133258033Y-140016252D01*
X133252579Y-140021195D01*
X133246668Y-140025579D01*
X133240355Y-140029363D01*
X133233701Y-140032510D01*
X133226771Y-140034990D01*
X133219632Y-140036778D01*
X133212351Y-140037858D01*
X133205000Y-140038219D01*
X131880000Y-140038219D01*
X131872649Y-140037858D01*
X131865368Y-140036778D01*
X131858229Y-140034990D01*
X131851299Y-140032510D01*
X131844645Y-140029363D01*
X131838332Y-140025579D01*
X131832421Y-140021195D01*
X131826967Y-140016252D01*
X131822024Y-140010798D01*
X131817640Y-140004887D01*
X131813856Y-139998574D01*
X131810709Y-139991920D01*
X131808229Y-139984990D01*
X131806441Y-139977851D01*
X131805361Y-139970570D01*
X131805000Y-139963219D01*
X131805000Y-139813219D01*
X131805361Y-139805868D01*
X131806441Y-139798587D01*
X131808229Y-139791448D01*
X131810709Y-139784518D01*
X131813856Y-139777864D01*
X131817640Y-139771551D01*
X131822024Y-139765640D01*
X131826967Y-139760186D01*
X131832421Y-139755243D01*
X131838332Y-139750859D01*
X131844645Y-139747075D01*
X131851299Y-139743928D01*
X131858229Y-139741448D01*
X131865368Y-139739660D01*
X131872649Y-139738580D01*
X131880000Y-139738219D01*
X133205000Y-139738219D01*
X133212351Y-139738580D01*
G37*
G36*
X133212351Y-140238580D02*
G01*
X133219632Y-140239660D01*
X133226771Y-140241448D01*
X133233701Y-140243928D01*
X133240355Y-140247075D01*
X133246668Y-140250859D01*
X133252579Y-140255243D01*
X133258033Y-140260186D01*
X133262976Y-140265640D01*
X133267360Y-140271551D01*
X133271144Y-140277864D01*
X133274291Y-140284518D01*
X133276771Y-140291448D01*
X133278559Y-140298587D01*
X133279639Y-140305868D01*
X133280000Y-140313219D01*
X133280000Y-140463219D01*
X133279639Y-140470570D01*
X133278559Y-140477851D01*
X133276771Y-140484990D01*
X133274291Y-140491920D01*
X133271144Y-140498574D01*
X133267360Y-140504887D01*
X133262976Y-140510798D01*
X133258033Y-140516252D01*
X133252579Y-140521195D01*
X133246668Y-140525579D01*
X133240355Y-140529363D01*
X133233701Y-140532510D01*
X133226771Y-140534990D01*
X133219632Y-140536778D01*
X133212351Y-140537858D01*
X133205000Y-140538219D01*
X131880000Y-140538219D01*
X131872649Y-140537858D01*
X131865368Y-140536778D01*
X131858229Y-140534990D01*
X131851299Y-140532510D01*
X131844645Y-140529363D01*
X131838332Y-140525579D01*
X131832421Y-140521195D01*
X131826967Y-140516252D01*
X131822024Y-140510798D01*
X131817640Y-140504887D01*
X131813856Y-140498574D01*
X131810709Y-140491920D01*
X131808229Y-140484990D01*
X131806441Y-140477851D01*
X131805361Y-140470570D01*
X131805000Y-140463219D01*
X131805000Y-140313219D01*
X131805361Y-140305868D01*
X131806441Y-140298587D01*
X131808229Y-140291448D01*
X131810709Y-140284518D01*
X131813856Y-140277864D01*
X131817640Y-140271551D01*
X131822024Y-140265640D01*
X131826967Y-140260186D01*
X131832421Y-140255243D01*
X131838332Y-140250859D01*
X131844645Y-140247075D01*
X131851299Y-140243928D01*
X131858229Y-140241448D01*
X131865368Y-140239660D01*
X131872649Y-140238580D01*
X131880000Y-140238219D01*
X133205000Y-140238219D01*
X133212351Y-140238580D01*
G37*
G36*
X133212351Y-140738580D02*
G01*
X133219632Y-140739660D01*
X133226771Y-140741448D01*
X133233701Y-140743928D01*
X133240355Y-140747075D01*
X133246668Y-140750859D01*
X133252579Y-140755243D01*
X133258033Y-140760186D01*
X133262976Y-140765640D01*
X133267360Y-140771551D01*
X133271144Y-140777864D01*
X133274291Y-140784518D01*
X133276771Y-140791448D01*
X133278559Y-140798587D01*
X133279639Y-140805868D01*
X133280000Y-140813219D01*
X133280000Y-140963219D01*
X133279639Y-140970570D01*
X133278559Y-140977851D01*
X133276771Y-140984990D01*
X133274291Y-140991920D01*
X133271144Y-140998574D01*
X133267360Y-141004887D01*
X133262976Y-141010798D01*
X133258033Y-141016252D01*
X133252579Y-141021195D01*
X133246668Y-141025579D01*
X133240355Y-141029363D01*
X133233701Y-141032510D01*
X133226771Y-141034990D01*
X133219632Y-141036778D01*
X133212351Y-141037858D01*
X133205000Y-141038219D01*
X131880000Y-141038219D01*
X131872649Y-141037858D01*
X131865368Y-141036778D01*
X131858229Y-141034990D01*
X131851299Y-141032510D01*
X131844645Y-141029363D01*
X131838332Y-141025579D01*
X131832421Y-141021195D01*
X131826967Y-141016252D01*
X131822024Y-141010798D01*
X131817640Y-141004887D01*
X131813856Y-140998574D01*
X131810709Y-140991920D01*
X131808229Y-140984990D01*
X131806441Y-140977851D01*
X131805361Y-140970570D01*
X131805000Y-140963219D01*
X131805000Y-140813219D01*
X131805361Y-140805868D01*
X131806441Y-140798587D01*
X131808229Y-140791448D01*
X131810709Y-140784518D01*
X131813856Y-140777864D01*
X131817640Y-140771551D01*
X131822024Y-140765640D01*
X131826967Y-140760186D01*
X131832421Y-140755243D01*
X131838332Y-140750859D01*
X131844645Y-140747075D01*
X131851299Y-140743928D01*
X131858229Y-140741448D01*
X131865368Y-140739660D01*
X131872649Y-140738580D01*
X131880000Y-140738219D01*
X133205000Y-140738219D01*
X133212351Y-140738580D01*
G37*
G36*
X133212351Y-141238580D02*
G01*
X133219632Y-141239660D01*
X133226771Y-141241448D01*
X133233701Y-141243928D01*
X133240355Y-141247075D01*
X133246668Y-141250859D01*
X133252579Y-141255243D01*
X133258033Y-141260186D01*
X133262976Y-141265640D01*
X133267360Y-141271551D01*
X133271144Y-141277864D01*
X133274291Y-141284518D01*
X133276771Y-141291448D01*
X133278559Y-141298587D01*
X133279639Y-141305868D01*
X133280000Y-141313219D01*
X133280000Y-141463219D01*
X133279639Y-141470570D01*
X133278559Y-141477851D01*
X133276771Y-141484990D01*
X133274291Y-141491920D01*
X133271144Y-141498574D01*
X133267360Y-141504887D01*
X133262976Y-141510798D01*
X133258033Y-141516252D01*
X133252579Y-141521195D01*
X133246668Y-141525579D01*
X133240355Y-141529363D01*
X133233701Y-141532510D01*
X133226771Y-141534990D01*
X133219632Y-141536778D01*
X133212351Y-141537858D01*
X133205000Y-141538219D01*
X131880000Y-141538219D01*
X131872649Y-141537858D01*
X131865368Y-141536778D01*
X131858229Y-141534990D01*
X131851299Y-141532510D01*
X131844645Y-141529363D01*
X131838332Y-141525579D01*
X131832421Y-141521195D01*
X131826967Y-141516252D01*
X131822024Y-141510798D01*
X131817640Y-141504887D01*
X131813856Y-141498574D01*
X131810709Y-141491920D01*
X131808229Y-141484990D01*
X131806441Y-141477851D01*
X131805361Y-141470570D01*
X131805000Y-141463219D01*
X131805000Y-141313219D01*
X131805361Y-141305868D01*
X131806441Y-141298587D01*
X131808229Y-141291448D01*
X131810709Y-141284518D01*
X131813856Y-141277864D01*
X131817640Y-141271551D01*
X131822024Y-141265640D01*
X131826967Y-141260186D01*
X131832421Y-141255243D01*
X131838332Y-141250859D01*
X131844645Y-141247075D01*
X131851299Y-141243928D01*
X131858229Y-141241448D01*
X131865368Y-141239660D01*
X131872649Y-141238580D01*
X131880000Y-141238219D01*
X133205000Y-141238219D01*
X133212351Y-141238580D01*
G37*
G36*
X133212351Y-141738580D02*
G01*
X133219632Y-141739660D01*
X133226771Y-141741448D01*
X133233701Y-141743928D01*
X133240355Y-141747075D01*
X133246668Y-141750859D01*
X133252579Y-141755243D01*
X133258033Y-141760186D01*
X133262976Y-141765640D01*
X133267360Y-141771551D01*
X133271144Y-141777864D01*
X133274291Y-141784518D01*
X133276771Y-141791448D01*
X133278559Y-141798587D01*
X133279639Y-141805868D01*
X133280000Y-141813219D01*
X133280000Y-141963219D01*
X133279639Y-141970570D01*
X133278559Y-141977851D01*
X133276771Y-141984990D01*
X133274291Y-141991920D01*
X133271144Y-141998574D01*
X133267360Y-142004887D01*
X133262976Y-142010798D01*
X133258033Y-142016252D01*
X133252579Y-142021195D01*
X133246668Y-142025579D01*
X133240355Y-142029363D01*
X133233701Y-142032510D01*
X133226771Y-142034990D01*
X133219632Y-142036778D01*
X133212351Y-142037858D01*
X133205000Y-142038219D01*
X131880000Y-142038219D01*
X131872649Y-142037858D01*
X131865368Y-142036778D01*
X131858229Y-142034990D01*
X131851299Y-142032510D01*
X131844645Y-142029363D01*
X131838332Y-142025579D01*
X131832421Y-142021195D01*
X131826967Y-142016252D01*
X131822024Y-142010798D01*
X131817640Y-142004887D01*
X131813856Y-141998574D01*
X131810709Y-141991920D01*
X131808229Y-141984990D01*
X131806441Y-141977851D01*
X131805361Y-141970570D01*
X131805000Y-141963219D01*
X131805000Y-141813219D01*
X131805361Y-141805868D01*
X131806441Y-141798587D01*
X131808229Y-141791448D01*
X131810709Y-141784518D01*
X131813856Y-141777864D01*
X131817640Y-141771551D01*
X131822024Y-141765640D01*
X131826967Y-141760186D01*
X131832421Y-141755243D01*
X131838332Y-141750859D01*
X131844645Y-141747075D01*
X131851299Y-141743928D01*
X131858229Y-141741448D01*
X131865368Y-141739660D01*
X131872649Y-141738580D01*
X131880000Y-141738219D01*
X133205000Y-141738219D01*
X133212351Y-141738580D01*
G37*
G36*
X131212351Y-142563580D02*
G01*
X131219632Y-142564660D01*
X131226771Y-142566448D01*
X131233701Y-142568928D01*
X131240355Y-142572075D01*
X131246668Y-142575859D01*
X131252579Y-142580243D01*
X131258033Y-142585186D01*
X131262976Y-142590640D01*
X131267360Y-142596551D01*
X131271144Y-142602864D01*
X131274291Y-142609518D01*
X131276771Y-142616448D01*
X131278559Y-142623587D01*
X131279639Y-142630868D01*
X131280000Y-142638219D01*
X131280000Y-143963219D01*
X131279639Y-143970570D01*
X131278559Y-143977851D01*
X131276771Y-143984990D01*
X131274291Y-143991920D01*
X131271144Y-143998574D01*
X131267360Y-144004887D01*
X131262976Y-144010798D01*
X131258033Y-144016252D01*
X131252579Y-144021195D01*
X131246668Y-144025579D01*
X131240355Y-144029363D01*
X131233701Y-144032510D01*
X131226771Y-144034990D01*
X131219632Y-144036778D01*
X131212351Y-144037858D01*
X131205000Y-144038219D01*
X131055000Y-144038219D01*
X131047649Y-144037858D01*
X131040368Y-144036778D01*
X131033229Y-144034990D01*
X131026299Y-144032510D01*
X131019645Y-144029363D01*
X131013332Y-144025579D01*
X131007421Y-144021195D01*
X131001967Y-144016252D01*
X130997024Y-144010798D01*
X130992640Y-144004887D01*
X130988856Y-143998574D01*
X130985709Y-143991920D01*
X130983229Y-143984990D01*
X130981441Y-143977851D01*
X130980361Y-143970570D01*
X130980000Y-143963219D01*
X130980000Y-142638219D01*
X130980361Y-142630868D01*
X130981441Y-142623587D01*
X130983229Y-142616448D01*
X130985709Y-142609518D01*
X130988856Y-142602864D01*
X130992640Y-142596551D01*
X130997024Y-142590640D01*
X131001967Y-142585186D01*
X131007421Y-142580243D01*
X131013332Y-142575859D01*
X131019645Y-142572075D01*
X131026299Y-142568928D01*
X131033229Y-142566448D01*
X131040368Y-142564660D01*
X131047649Y-142563580D01*
X131055000Y-142563219D01*
X131205000Y-142563219D01*
X131212351Y-142563580D01*
G37*
G36*
X130712351Y-142563580D02*
G01*
X130719632Y-142564660D01*
X130726771Y-142566448D01*
X130733701Y-142568928D01*
X130740355Y-142572075D01*
X130746668Y-142575859D01*
X130752579Y-142580243D01*
X130758033Y-142585186D01*
X130762976Y-142590640D01*
X130767360Y-142596551D01*
X130771144Y-142602864D01*
X130774291Y-142609518D01*
X130776771Y-142616448D01*
X130778559Y-142623587D01*
X130779639Y-142630868D01*
X130780000Y-142638219D01*
X130780000Y-143963219D01*
X130779639Y-143970570D01*
X130778559Y-143977851D01*
X130776771Y-143984990D01*
X130774291Y-143991920D01*
X130771144Y-143998574D01*
X130767360Y-144004887D01*
X130762976Y-144010798D01*
X130758033Y-144016252D01*
X130752579Y-144021195D01*
X130746668Y-144025579D01*
X130740355Y-144029363D01*
X130733701Y-144032510D01*
X130726771Y-144034990D01*
X130719632Y-144036778D01*
X130712351Y-144037858D01*
X130705000Y-144038219D01*
X130555000Y-144038219D01*
X130547649Y-144037858D01*
X130540368Y-144036778D01*
X130533229Y-144034990D01*
X130526299Y-144032510D01*
X130519645Y-144029363D01*
X130513332Y-144025579D01*
X130507421Y-144021195D01*
X130501967Y-144016252D01*
X130497024Y-144010798D01*
X130492640Y-144004887D01*
X130488856Y-143998574D01*
X130485709Y-143991920D01*
X130483229Y-143984990D01*
X130481441Y-143977851D01*
X130480361Y-143970570D01*
X130480000Y-143963219D01*
X130480000Y-142638219D01*
X130480361Y-142630868D01*
X130481441Y-142623587D01*
X130483229Y-142616448D01*
X130485709Y-142609518D01*
X130488856Y-142602864D01*
X130492640Y-142596551D01*
X130497024Y-142590640D01*
X130501967Y-142585186D01*
X130507421Y-142580243D01*
X130513332Y-142575859D01*
X130519645Y-142572075D01*
X130526299Y-142568928D01*
X130533229Y-142566448D01*
X130540368Y-142564660D01*
X130547649Y-142563580D01*
X130555000Y-142563219D01*
X130705000Y-142563219D01*
X130712351Y-142563580D01*
G37*
G36*
X130212351Y-142563580D02*
G01*
X130219632Y-142564660D01*
X130226771Y-142566448D01*
X130233701Y-142568928D01*
X130240355Y-142572075D01*
X130246668Y-142575859D01*
X130252579Y-142580243D01*
X130258033Y-142585186D01*
X130262976Y-142590640D01*
X130267360Y-142596551D01*
X130271144Y-142602864D01*
X130274291Y-142609518D01*
X130276771Y-142616448D01*
X130278559Y-142623587D01*
X130279639Y-142630868D01*
X130280000Y-142638219D01*
X130280000Y-143963219D01*
X130279639Y-143970570D01*
X130278559Y-143977851D01*
X130276771Y-143984990D01*
X130274291Y-143991920D01*
X130271144Y-143998574D01*
X130267360Y-144004887D01*
X130262976Y-144010798D01*
X130258033Y-144016252D01*
X130252579Y-144021195D01*
X130246668Y-144025579D01*
X130240355Y-144029363D01*
X130233701Y-144032510D01*
X130226771Y-144034990D01*
X130219632Y-144036778D01*
X130212351Y-144037858D01*
X130205000Y-144038219D01*
X130055000Y-144038219D01*
X130047649Y-144037858D01*
X130040368Y-144036778D01*
X130033229Y-144034990D01*
X130026299Y-144032510D01*
X130019645Y-144029363D01*
X130013332Y-144025579D01*
X130007421Y-144021195D01*
X130001967Y-144016252D01*
X129997024Y-144010798D01*
X129992640Y-144004887D01*
X129988856Y-143998574D01*
X129985709Y-143991920D01*
X129983229Y-143984990D01*
X129981441Y-143977851D01*
X129980361Y-143970570D01*
X129980000Y-143963219D01*
X129980000Y-142638219D01*
X129980361Y-142630868D01*
X129981441Y-142623587D01*
X129983229Y-142616448D01*
X129985709Y-142609518D01*
X129988856Y-142602864D01*
X129992640Y-142596551D01*
X129997024Y-142590640D01*
X130001967Y-142585186D01*
X130007421Y-142580243D01*
X130013332Y-142575859D01*
X130019645Y-142572075D01*
X130026299Y-142568928D01*
X130033229Y-142566448D01*
X130040368Y-142564660D01*
X130047649Y-142563580D01*
X130055000Y-142563219D01*
X130205000Y-142563219D01*
X130212351Y-142563580D01*
G37*
G36*
X129712351Y-142563580D02*
G01*
X129719632Y-142564660D01*
X129726771Y-142566448D01*
X129733701Y-142568928D01*
X129740355Y-142572075D01*
X129746668Y-142575859D01*
X129752579Y-142580243D01*
X129758033Y-142585186D01*
X129762976Y-142590640D01*
X129767360Y-142596551D01*
X129771144Y-142602864D01*
X129774291Y-142609518D01*
X129776771Y-142616448D01*
X129778559Y-142623587D01*
X129779639Y-142630868D01*
X129780000Y-142638219D01*
X129780000Y-143963219D01*
X129779639Y-143970570D01*
X129778559Y-143977851D01*
X129776771Y-143984990D01*
X129774291Y-143991920D01*
X129771144Y-143998574D01*
X129767360Y-144004887D01*
X129762976Y-144010798D01*
X129758033Y-144016252D01*
X129752579Y-144021195D01*
X129746668Y-144025579D01*
X129740355Y-144029363D01*
X129733701Y-144032510D01*
X129726771Y-144034990D01*
X129719632Y-144036778D01*
X129712351Y-144037858D01*
X129705000Y-144038219D01*
X129555000Y-144038219D01*
X129547649Y-144037858D01*
X129540368Y-144036778D01*
X129533229Y-144034990D01*
X129526299Y-144032510D01*
X129519645Y-144029363D01*
X129513332Y-144025579D01*
X129507421Y-144021195D01*
X129501967Y-144016252D01*
X129497024Y-144010798D01*
X129492640Y-144004887D01*
X129488856Y-143998574D01*
X129485709Y-143991920D01*
X129483229Y-143984990D01*
X129481441Y-143977851D01*
X129480361Y-143970570D01*
X129480000Y-143963219D01*
X129480000Y-142638219D01*
X129480361Y-142630868D01*
X129481441Y-142623587D01*
X129483229Y-142616448D01*
X129485709Y-142609518D01*
X129488856Y-142602864D01*
X129492640Y-142596551D01*
X129497024Y-142590640D01*
X129501967Y-142585186D01*
X129507421Y-142580243D01*
X129513332Y-142575859D01*
X129519645Y-142572075D01*
X129526299Y-142568928D01*
X129533229Y-142566448D01*
X129540368Y-142564660D01*
X129547649Y-142563580D01*
X129555000Y-142563219D01*
X129705000Y-142563219D01*
X129712351Y-142563580D01*
G37*
G36*
X129212351Y-142563580D02*
G01*
X129219632Y-142564660D01*
X129226771Y-142566448D01*
X129233701Y-142568928D01*
X129240355Y-142572075D01*
X129246668Y-142575859D01*
X129252579Y-142580243D01*
X129258033Y-142585186D01*
X129262976Y-142590640D01*
X129267360Y-142596551D01*
X129271144Y-142602864D01*
X129274291Y-142609518D01*
X129276771Y-142616448D01*
X129278559Y-142623587D01*
X129279639Y-142630868D01*
X129280000Y-142638219D01*
X129280000Y-143963219D01*
X129279639Y-143970570D01*
X129278559Y-143977851D01*
X129276771Y-143984990D01*
X129274291Y-143991920D01*
X129271144Y-143998574D01*
X129267360Y-144004887D01*
X129262976Y-144010798D01*
X129258033Y-144016252D01*
X129252579Y-144021195D01*
X129246668Y-144025579D01*
X129240355Y-144029363D01*
X129233701Y-144032510D01*
X129226771Y-144034990D01*
X129219632Y-144036778D01*
X129212351Y-144037858D01*
X129205000Y-144038219D01*
X129055000Y-144038219D01*
X129047649Y-144037858D01*
X129040368Y-144036778D01*
X129033229Y-144034990D01*
X129026299Y-144032510D01*
X129019645Y-144029363D01*
X129013332Y-144025579D01*
X129007421Y-144021195D01*
X129001967Y-144016252D01*
X128997024Y-144010798D01*
X128992640Y-144004887D01*
X128988856Y-143998574D01*
X128985709Y-143991920D01*
X128983229Y-143984990D01*
X128981441Y-143977851D01*
X128980361Y-143970570D01*
X128980000Y-143963219D01*
X128980000Y-142638219D01*
X128980361Y-142630868D01*
X128981441Y-142623587D01*
X128983229Y-142616448D01*
X128985709Y-142609518D01*
X128988856Y-142602864D01*
X128992640Y-142596551D01*
X128997024Y-142590640D01*
X129001967Y-142585186D01*
X129007421Y-142580243D01*
X129013332Y-142575859D01*
X129019645Y-142572075D01*
X129026299Y-142568928D01*
X129033229Y-142566448D01*
X129040368Y-142564660D01*
X129047649Y-142563580D01*
X129055000Y-142563219D01*
X129205000Y-142563219D01*
X129212351Y-142563580D01*
G37*
G36*
X128712351Y-142563580D02*
G01*
X128719632Y-142564660D01*
X128726771Y-142566448D01*
X128733701Y-142568928D01*
X128740355Y-142572075D01*
X128746668Y-142575859D01*
X128752579Y-142580243D01*
X128758033Y-142585186D01*
X128762976Y-142590640D01*
X128767360Y-142596551D01*
X128771144Y-142602864D01*
X128774291Y-142609518D01*
X128776771Y-142616448D01*
X128778559Y-142623587D01*
X128779639Y-142630868D01*
X128780000Y-142638219D01*
X128780000Y-143963219D01*
X128779639Y-143970570D01*
X128778559Y-143977851D01*
X128776771Y-143984990D01*
X128774291Y-143991920D01*
X128771144Y-143998574D01*
X128767360Y-144004887D01*
X128762976Y-144010798D01*
X128758033Y-144016252D01*
X128752579Y-144021195D01*
X128746668Y-144025579D01*
X128740355Y-144029363D01*
X128733701Y-144032510D01*
X128726771Y-144034990D01*
X128719632Y-144036778D01*
X128712351Y-144037858D01*
X128705000Y-144038219D01*
X128555000Y-144038219D01*
X128547649Y-144037858D01*
X128540368Y-144036778D01*
X128533229Y-144034990D01*
X128526299Y-144032510D01*
X128519645Y-144029363D01*
X128513332Y-144025579D01*
X128507421Y-144021195D01*
X128501967Y-144016252D01*
X128497024Y-144010798D01*
X128492640Y-144004887D01*
X128488856Y-143998574D01*
X128485709Y-143991920D01*
X128483229Y-143984990D01*
X128481441Y-143977851D01*
X128480361Y-143970570D01*
X128480000Y-143963219D01*
X128480000Y-142638219D01*
X128480361Y-142630868D01*
X128481441Y-142623587D01*
X128483229Y-142616448D01*
X128485709Y-142609518D01*
X128488856Y-142602864D01*
X128492640Y-142596551D01*
X128497024Y-142590640D01*
X128501967Y-142585186D01*
X128507421Y-142580243D01*
X128513332Y-142575859D01*
X128519645Y-142572075D01*
X128526299Y-142568928D01*
X128533229Y-142566448D01*
X128540368Y-142564660D01*
X128547649Y-142563580D01*
X128555000Y-142563219D01*
X128705000Y-142563219D01*
X128712351Y-142563580D01*
G37*
G36*
X128212351Y-142563580D02*
G01*
X128219632Y-142564660D01*
X128226771Y-142566448D01*
X128233701Y-142568928D01*
X128240355Y-142572075D01*
X128246668Y-142575859D01*
X128252579Y-142580243D01*
X128258033Y-142585186D01*
X128262976Y-142590640D01*
X128267360Y-142596551D01*
X128271144Y-142602864D01*
X128274291Y-142609518D01*
X128276771Y-142616448D01*
X128278559Y-142623587D01*
X128279639Y-142630868D01*
X128280000Y-142638219D01*
X128280000Y-143963219D01*
X128279639Y-143970570D01*
X128278559Y-143977851D01*
X128276771Y-143984990D01*
X128274291Y-143991920D01*
X128271144Y-143998574D01*
X128267360Y-144004887D01*
X128262976Y-144010798D01*
X128258033Y-144016252D01*
X128252579Y-144021195D01*
X128246668Y-144025579D01*
X128240355Y-144029363D01*
X128233701Y-144032510D01*
X128226771Y-144034990D01*
X128219632Y-144036778D01*
X128212351Y-144037858D01*
X128205000Y-144038219D01*
X128055000Y-144038219D01*
X128047649Y-144037858D01*
X128040368Y-144036778D01*
X128033229Y-144034990D01*
X128026299Y-144032510D01*
X128019645Y-144029363D01*
X128013332Y-144025579D01*
X128007421Y-144021195D01*
X128001967Y-144016252D01*
X127997024Y-144010798D01*
X127992640Y-144004887D01*
X127988856Y-143998574D01*
X127985709Y-143991920D01*
X127983229Y-143984990D01*
X127981441Y-143977851D01*
X127980361Y-143970570D01*
X127980000Y-143963219D01*
X127980000Y-142638219D01*
X127980361Y-142630868D01*
X127981441Y-142623587D01*
X127983229Y-142616448D01*
X127985709Y-142609518D01*
X127988856Y-142602864D01*
X127992640Y-142596551D01*
X127997024Y-142590640D01*
X128001967Y-142585186D01*
X128007421Y-142580243D01*
X128013332Y-142575859D01*
X128019645Y-142572075D01*
X128026299Y-142568928D01*
X128033229Y-142566448D01*
X128040368Y-142564660D01*
X128047649Y-142563580D01*
X128055000Y-142563219D01*
X128205000Y-142563219D01*
X128212351Y-142563580D01*
G37*
G36*
X127712351Y-142563580D02*
G01*
X127719632Y-142564660D01*
X127726771Y-142566448D01*
X127733701Y-142568928D01*
X127740355Y-142572075D01*
X127746668Y-142575859D01*
X127752579Y-142580243D01*
X127758033Y-142585186D01*
X127762976Y-142590640D01*
X127767360Y-142596551D01*
X127771144Y-142602864D01*
X127774291Y-142609518D01*
X127776771Y-142616448D01*
X127778559Y-142623587D01*
X127779639Y-142630868D01*
X127780000Y-142638219D01*
X127780000Y-143963219D01*
X127779639Y-143970570D01*
X127778559Y-143977851D01*
X127776771Y-143984990D01*
X127774291Y-143991920D01*
X127771144Y-143998574D01*
X127767360Y-144004887D01*
X127762976Y-144010798D01*
X127758033Y-144016252D01*
X127752579Y-144021195D01*
X127746668Y-144025579D01*
X127740355Y-144029363D01*
X127733701Y-144032510D01*
X127726771Y-144034990D01*
X127719632Y-144036778D01*
X127712351Y-144037858D01*
X127705000Y-144038219D01*
X127555000Y-144038219D01*
X127547649Y-144037858D01*
X127540368Y-144036778D01*
X127533229Y-144034990D01*
X127526299Y-144032510D01*
X127519645Y-144029363D01*
X127513332Y-144025579D01*
X127507421Y-144021195D01*
X127501967Y-144016252D01*
X127497024Y-144010798D01*
X127492640Y-144004887D01*
X127488856Y-143998574D01*
X127485709Y-143991920D01*
X127483229Y-143984990D01*
X127481441Y-143977851D01*
X127480361Y-143970570D01*
X127480000Y-143963219D01*
X127480000Y-142638219D01*
X127480361Y-142630868D01*
X127481441Y-142623587D01*
X127483229Y-142616448D01*
X127485709Y-142609518D01*
X127488856Y-142602864D01*
X127492640Y-142596551D01*
X127497024Y-142590640D01*
X127501967Y-142585186D01*
X127507421Y-142580243D01*
X127513332Y-142575859D01*
X127519645Y-142572075D01*
X127526299Y-142568928D01*
X127533229Y-142566448D01*
X127540368Y-142564660D01*
X127547649Y-142563580D01*
X127555000Y-142563219D01*
X127705000Y-142563219D01*
X127712351Y-142563580D01*
G37*
G36*
X127212351Y-142563580D02*
G01*
X127219632Y-142564660D01*
X127226771Y-142566448D01*
X127233701Y-142568928D01*
X127240355Y-142572075D01*
X127246668Y-142575859D01*
X127252579Y-142580243D01*
X127258033Y-142585186D01*
X127262976Y-142590640D01*
X127267360Y-142596551D01*
X127271144Y-142602864D01*
X127274291Y-142609518D01*
X127276771Y-142616448D01*
X127278559Y-142623587D01*
X127279639Y-142630868D01*
X127280000Y-142638219D01*
X127280000Y-143963219D01*
X127279639Y-143970570D01*
X127278559Y-143977851D01*
X127276771Y-143984990D01*
X127274291Y-143991920D01*
X127271144Y-143998574D01*
X127267360Y-144004887D01*
X127262976Y-144010798D01*
X127258033Y-144016252D01*
X127252579Y-144021195D01*
X127246668Y-144025579D01*
X127240355Y-144029363D01*
X127233701Y-144032510D01*
X127226771Y-144034990D01*
X127219632Y-144036778D01*
X127212351Y-144037858D01*
X127205000Y-144038219D01*
X127055000Y-144038219D01*
X127047649Y-144037858D01*
X127040368Y-144036778D01*
X127033229Y-144034990D01*
X127026299Y-144032510D01*
X127019645Y-144029363D01*
X127013332Y-144025579D01*
X127007421Y-144021195D01*
X127001967Y-144016252D01*
X126997024Y-144010798D01*
X126992640Y-144004887D01*
X126988856Y-143998574D01*
X126985709Y-143991920D01*
X126983229Y-143984990D01*
X126981441Y-143977851D01*
X126980361Y-143970570D01*
X126980000Y-143963219D01*
X126980000Y-142638219D01*
X126980361Y-142630868D01*
X126981441Y-142623587D01*
X126983229Y-142616448D01*
X126985709Y-142609518D01*
X126988856Y-142602864D01*
X126992640Y-142596551D01*
X126997024Y-142590640D01*
X127001967Y-142585186D01*
X127007421Y-142580243D01*
X127013332Y-142575859D01*
X127019645Y-142572075D01*
X127026299Y-142568928D01*
X127033229Y-142566448D01*
X127040368Y-142564660D01*
X127047649Y-142563580D01*
X127055000Y-142563219D01*
X127205000Y-142563219D01*
X127212351Y-142563580D01*
G37*
G36*
X126712351Y-142563580D02*
G01*
X126719632Y-142564660D01*
X126726771Y-142566448D01*
X126733701Y-142568928D01*
X126740355Y-142572075D01*
X126746668Y-142575859D01*
X126752579Y-142580243D01*
X126758033Y-142585186D01*
X126762976Y-142590640D01*
X126767360Y-142596551D01*
X126771144Y-142602864D01*
X126774291Y-142609518D01*
X126776771Y-142616448D01*
X126778559Y-142623587D01*
X126779639Y-142630868D01*
X126780000Y-142638219D01*
X126780000Y-143963219D01*
X126779639Y-143970570D01*
X126778559Y-143977851D01*
X126776771Y-143984990D01*
X126774291Y-143991920D01*
X126771144Y-143998574D01*
X126767360Y-144004887D01*
X126762976Y-144010798D01*
X126758033Y-144016252D01*
X126752579Y-144021195D01*
X126746668Y-144025579D01*
X126740355Y-144029363D01*
X126733701Y-144032510D01*
X126726771Y-144034990D01*
X126719632Y-144036778D01*
X126712351Y-144037858D01*
X126705000Y-144038219D01*
X126555000Y-144038219D01*
X126547649Y-144037858D01*
X126540368Y-144036778D01*
X126533229Y-144034990D01*
X126526299Y-144032510D01*
X126519645Y-144029363D01*
X126513332Y-144025579D01*
X126507421Y-144021195D01*
X126501967Y-144016252D01*
X126497024Y-144010798D01*
X126492640Y-144004887D01*
X126488856Y-143998574D01*
X126485709Y-143991920D01*
X126483229Y-143984990D01*
X126481441Y-143977851D01*
X126480361Y-143970570D01*
X126480000Y-143963219D01*
X126480000Y-142638219D01*
X126480361Y-142630868D01*
X126481441Y-142623587D01*
X126483229Y-142616448D01*
X126485709Y-142609518D01*
X126488856Y-142602864D01*
X126492640Y-142596551D01*
X126497024Y-142590640D01*
X126501967Y-142585186D01*
X126507421Y-142580243D01*
X126513332Y-142575859D01*
X126519645Y-142572075D01*
X126526299Y-142568928D01*
X126533229Y-142566448D01*
X126540368Y-142564660D01*
X126547649Y-142563580D01*
X126555000Y-142563219D01*
X126705000Y-142563219D01*
X126712351Y-142563580D01*
G37*
G36*
X126212351Y-142563580D02*
G01*
X126219632Y-142564660D01*
X126226771Y-142566448D01*
X126233701Y-142568928D01*
X126240355Y-142572075D01*
X126246668Y-142575859D01*
X126252579Y-142580243D01*
X126258033Y-142585186D01*
X126262976Y-142590640D01*
X126267360Y-142596551D01*
X126271144Y-142602864D01*
X126274291Y-142609518D01*
X126276771Y-142616448D01*
X126278559Y-142623587D01*
X126279639Y-142630868D01*
X126280000Y-142638219D01*
X126280000Y-143963219D01*
X126279639Y-143970570D01*
X126278559Y-143977851D01*
X126276771Y-143984990D01*
X126274291Y-143991920D01*
X126271144Y-143998574D01*
X126267360Y-144004887D01*
X126262976Y-144010798D01*
X126258033Y-144016252D01*
X126252579Y-144021195D01*
X126246668Y-144025579D01*
X126240355Y-144029363D01*
X126233701Y-144032510D01*
X126226771Y-144034990D01*
X126219632Y-144036778D01*
X126212351Y-144037858D01*
X126205000Y-144038219D01*
X126055000Y-144038219D01*
X126047649Y-144037858D01*
X126040368Y-144036778D01*
X126033229Y-144034990D01*
X126026299Y-144032510D01*
X126019645Y-144029363D01*
X126013332Y-144025579D01*
X126007421Y-144021195D01*
X126001967Y-144016252D01*
X125997024Y-144010798D01*
X125992640Y-144004887D01*
X125988856Y-143998574D01*
X125985709Y-143991920D01*
X125983229Y-143984990D01*
X125981441Y-143977851D01*
X125980361Y-143970570D01*
X125980000Y-143963219D01*
X125980000Y-142638219D01*
X125980361Y-142630868D01*
X125981441Y-142623587D01*
X125983229Y-142616448D01*
X125985709Y-142609518D01*
X125988856Y-142602864D01*
X125992640Y-142596551D01*
X125997024Y-142590640D01*
X126001967Y-142585186D01*
X126007421Y-142580243D01*
X126013332Y-142575859D01*
X126019645Y-142572075D01*
X126026299Y-142568928D01*
X126033229Y-142566448D01*
X126040368Y-142564660D01*
X126047649Y-142563580D01*
X126055000Y-142563219D01*
X126205000Y-142563219D01*
X126212351Y-142563580D01*
G37*
G36*
X125712351Y-142563580D02*
G01*
X125719632Y-142564660D01*
X125726771Y-142566448D01*
X125733701Y-142568928D01*
X125740355Y-142572075D01*
X125746668Y-142575859D01*
X125752579Y-142580243D01*
X125758033Y-142585186D01*
X125762976Y-142590640D01*
X125767360Y-142596551D01*
X125771144Y-142602864D01*
X125774291Y-142609518D01*
X125776771Y-142616448D01*
X125778559Y-142623587D01*
X125779639Y-142630868D01*
X125780000Y-142638219D01*
X125780000Y-143963219D01*
X125779639Y-143970570D01*
X125778559Y-143977851D01*
X125776771Y-143984990D01*
X125774291Y-143991920D01*
X125771144Y-143998574D01*
X125767360Y-144004887D01*
X125762976Y-144010798D01*
X125758033Y-144016252D01*
X125752579Y-144021195D01*
X125746668Y-144025579D01*
X125740355Y-144029363D01*
X125733701Y-144032510D01*
X125726771Y-144034990D01*
X125719632Y-144036778D01*
X125712351Y-144037858D01*
X125705000Y-144038219D01*
X125555000Y-144038219D01*
X125547649Y-144037858D01*
X125540368Y-144036778D01*
X125533229Y-144034990D01*
X125526299Y-144032510D01*
X125519645Y-144029363D01*
X125513332Y-144025579D01*
X125507421Y-144021195D01*
X125501967Y-144016252D01*
X125497024Y-144010798D01*
X125492640Y-144004887D01*
X125488856Y-143998574D01*
X125485709Y-143991920D01*
X125483229Y-143984990D01*
X125481441Y-143977851D01*
X125480361Y-143970570D01*
X125480000Y-143963219D01*
X125480000Y-142638219D01*
X125480361Y-142630868D01*
X125481441Y-142623587D01*
X125483229Y-142616448D01*
X125485709Y-142609518D01*
X125488856Y-142602864D01*
X125492640Y-142596551D01*
X125497024Y-142590640D01*
X125501967Y-142585186D01*
X125507421Y-142580243D01*
X125513332Y-142575859D01*
X125519645Y-142572075D01*
X125526299Y-142568928D01*
X125533229Y-142566448D01*
X125540368Y-142564660D01*
X125547649Y-142563580D01*
X125555000Y-142563219D01*
X125705000Y-142563219D01*
X125712351Y-142563580D01*
G37*
D12*
X122400000Y-123200000D03*
X122400000Y-118600000D03*
X122400000Y-120900000D03*
D13*
X116100000Y-120900000D03*
D14*
X115190000Y-125320000D03*
X115190000Y-128720000D03*
D10*
G36*
X127480182Y-126173433D02*
G01*
X127501417Y-126176583D01*
X127522241Y-126181799D01*
X127542453Y-126189031D01*
X127561859Y-126198210D01*
X127580272Y-126209246D01*
X127597515Y-126222034D01*
X127613421Y-126236450D01*
X127975814Y-126598843D01*
X127990230Y-126614749D01*
X128003018Y-126631992D01*
X128014054Y-126650405D01*
X128023233Y-126669811D01*
X128030465Y-126690023D01*
X128035681Y-126710847D01*
X128038831Y-126732082D01*
X128039884Y-126753523D01*
X128038831Y-126774964D01*
X128035681Y-126796199D01*
X128030465Y-126817023D01*
X128023233Y-126837235D01*
X128014054Y-126856641D01*
X128003018Y-126875054D01*
X127990230Y-126892297D01*
X127975814Y-126908203D01*
X127666455Y-127217562D01*
X127650549Y-127231978D01*
X127633306Y-127244766D01*
X127614893Y-127255802D01*
X127595487Y-127264981D01*
X127575275Y-127272213D01*
X127554451Y-127277429D01*
X127533216Y-127280579D01*
X127511775Y-127281632D01*
X127490334Y-127280579D01*
X127469099Y-127277429D01*
X127448275Y-127272213D01*
X127428063Y-127264981D01*
X127408657Y-127255802D01*
X127390244Y-127244766D01*
X127373001Y-127231978D01*
X127357095Y-127217562D01*
X126994702Y-126855169D01*
X126980286Y-126839263D01*
X126967498Y-126822020D01*
X126956462Y-126803607D01*
X126947283Y-126784201D01*
X126940051Y-126763989D01*
X126934835Y-126743165D01*
X126931685Y-126721930D01*
X126930632Y-126700489D01*
X126931685Y-126679048D01*
X126934835Y-126657813D01*
X126940051Y-126636989D01*
X126947283Y-126616777D01*
X126956462Y-126597371D01*
X126967498Y-126578958D01*
X126980286Y-126561715D01*
X126994702Y-126545809D01*
X127304061Y-126236450D01*
X127319967Y-126222034D01*
X127337210Y-126209246D01*
X127355623Y-126198210D01*
X127375029Y-126189031D01*
X127395241Y-126181799D01*
X127416065Y-126176583D01*
X127437300Y-126173433D01*
X127458741Y-126172380D01*
X127480182Y-126173433D01*
G37*
G36*
X128593876Y-125059739D02*
G01*
X128615111Y-125062889D01*
X128635935Y-125068105D01*
X128656147Y-125075337D01*
X128675553Y-125084516D01*
X128693966Y-125095552D01*
X128711209Y-125108340D01*
X128727115Y-125122756D01*
X129089508Y-125485149D01*
X129103924Y-125501055D01*
X129116712Y-125518298D01*
X129127748Y-125536711D01*
X129136927Y-125556117D01*
X129144159Y-125576329D01*
X129149375Y-125597153D01*
X129152525Y-125618388D01*
X129153578Y-125639829D01*
X129152525Y-125661270D01*
X129149375Y-125682505D01*
X129144159Y-125703329D01*
X129136927Y-125723541D01*
X129127748Y-125742947D01*
X129116712Y-125761360D01*
X129103924Y-125778603D01*
X129089508Y-125794509D01*
X128780149Y-126103868D01*
X128764243Y-126118284D01*
X128747000Y-126131072D01*
X128728587Y-126142108D01*
X128709181Y-126151287D01*
X128688969Y-126158519D01*
X128668145Y-126163735D01*
X128646910Y-126166885D01*
X128625469Y-126167938D01*
X128604028Y-126166885D01*
X128582793Y-126163735D01*
X128561969Y-126158519D01*
X128541757Y-126151287D01*
X128522351Y-126142108D01*
X128503938Y-126131072D01*
X128486695Y-126118284D01*
X128470789Y-126103868D01*
X128108396Y-125741475D01*
X128093980Y-125725569D01*
X128081192Y-125708326D01*
X128070156Y-125689913D01*
X128060977Y-125670507D01*
X128053745Y-125650295D01*
X128048529Y-125629471D01*
X128045379Y-125608236D01*
X128044326Y-125586795D01*
X128045379Y-125565354D01*
X128048529Y-125544119D01*
X128053745Y-125523295D01*
X128060977Y-125503083D01*
X128070156Y-125483677D01*
X128081192Y-125465264D01*
X128093980Y-125448021D01*
X128108396Y-125432115D01*
X128417755Y-125122756D01*
X128433661Y-125108340D01*
X128450904Y-125095552D01*
X128469317Y-125084516D01*
X128488723Y-125075337D01*
X128508935Y-125068105D01*
X128529759Y-125062889D01*
X128550994Y-125059739D01*
X128572435Y-125058686D01*
X128593876Y-125059739D01*
G37*
G36*
X128553726Y-127240434D02*
G01*
X128574961Y-127243584D01*
X128595785Y-127248800D01*
X128615997Y-127256032D01*
X128635403Y-127265211D01*
X128653816Y-127276247D01*
X128671059Y-127289035D01*
X128686965Y-127303451D01*
X129049358Y-127665844D01*
X129063774Y-127681750D01*
X129076562Y-127698993D01*
X129087598Y-127717406D01*
X129096777Y-127736812D01*
X129104009Y-127757024D01*
X129109225Y-127777848D01*
X129112375Y-127799083D01*
X129113428Y-127820524D01*
X129112375Y-127841965D01*
X129109225Y-127863200D01*
X129104009Y-127884024D01*
X129096777Y-127904236D01*
X129087598Y-127923642D01*
X129076562Y-127942055D01*
X129063774Y-127959298D01*
X129049358Y-127975204D01*
X128739999Y-128284563D01*
X128724093Y-128298979D01*
X128706850Y-128311767D01*
X128688437Y-128322803D01*
X128669031Y-128331982D01*
X128648819Y-128339214D01*
X128627995Y-128344430D01*
X128606760Y-128347580D01*
X128585319Y-128348633D01*
X128563878Y-128347580D01*
X128542643Y-128344430D01*
X128521819Y-128339214D01*
X128501607Y-128331982D01*
X128482201Y-128322803D01*
X128463788Y-128311767D01*
X128446545Y-128298979D01*
X128430639Y-128284563D01*
X128068246Y-127922170D01*
X128053830Y-127906264D01*
X128041042Y-127889021D01*
X128030006Y-127870608D01*
X128020827Y-127851202D01*
X128013595Y-127830990D01*
X128008379Y-127810166D01*
X128005229Y-127788931D01*
X128004176Y-127767490D01*
X128005229Y-127746049D01*
X128008379Y-127724814D01*
X128013595Y-127703990D01*
X128020827Y-127683778D01*
X128030006Y-127664372D01*
X128041042Y-127645959D01*
X128053830Y-127628716D01*
X128068246Y-127612810D01*
X128377605Y-127303451D01*
X128393511Y-127289035D01*
X128410754Y-127276247D01*
X128429167Y-127265211D01*
X128448573Y-127256032D01*
X128468785Y-127248800D01*
X128489609Y-127243584D01*
X128510844Y-127240434D01*
X128532285Y-127239381D01*
X128553726Y-127240434D01*
G37*
G36*
X129667420Y-126126740D02*
G01*
X129688655Y-126129890D01*
X129709479Y-126135106D01*
X129729691Y-126142338D01*
X129749097Y-126151517D01*
X129767510Y-126162553D01*
X129784753Y-126175341D01*
X129800659Y-126189757D01*
X130163052Y-126552150D01*
X130177468Y-126568056D01*
X130190256Y-126585299D01*
X130201292Y-126603712D01*
X130210471Y-126623118D01*
X130217703Y-126643330D01*
X130222919Y-126664154D01*
X130226069Y-126685389D01*
X130227122Y-126706830D01*
X130226069Y-126728271D01*
X130222919Y-126749506D01*
X130217703Y-126770330D01*
X130210471Y-126790542D01*
X130201292Y-126809948D01*
X130190256Y-126828361D01*
X130177468Y-126845604D01*
X130163052Y-126861510D01*
X129853693Y-127170869D01*
X129837787Y-127185285D01*
X129820544Y-127198073D01*
X129802131Y-127209109D01*
X129782725Y-127218288D01*
X129762513Y-127225520D01*
X129741689Y-127230736D01*
X129720454Y-127233886D01*
X129699013Y-127234939D01*
X129677572Y-127233886D01*
X129656337Y-127230736D01*
X129635513Y-127225520D01*
X129615301Y-127218288D01*
X129595895Y-127209109D01*
X129577482Y-127198073D01*
X129560239Y-127185285D01*
X129544333Y-127170869D01*
X129181940Y-126808476D01*
X129167524Y-126792570D01*
X129154736Y-126775327D01*
X129143700Y-126756914D01*
X129134521Y-126737508D01*
X129127289Y-126717296D01*
X129122073Y-126696472D01*
X129118923Y-126675237D01*
X129117870Y-126653796D01*
X129118923Y-126632355D01*
X129122073Y-126611120D01*
X129127289Y-126590296D01*
X129134521Y-126570084D01*
X129143700Y-126550678D01*
X129154736Y-126532265D01*
X129167524Y-126515022D01*
X129181940Y-126499116D01*
X129491299Y-126189757D01*
X129507205Y-126175341D01*
X129524448Y-126162553D01*
X129542861Y-126151517D01*
X129562267Y-126142338D01*
X129582479Y-126135106D01*
X129603303Y-126129890D01*
X129624538Y-126126740D01*
X129645979Y-126125687D01*
X129667420Y-126126740D01*
G37*
G36*
X129667691Y-146821053D02*
G01*
X129688926Y-146824203D01*
X129709750Y-146829419D01*
X129729962Y-146836651D01*
X129749368Y-146845830D01*
X129767781Y-146856866D01*
X129785024Y-146869654D01*
X129800930Y-146884070D01*
X129815346Y-146899976D01*
X129828134Y-146917219D01*
X129839170Y-146935632D01*
X129848349Y-146955038D01*
X129855581Y-146975250D01*
X129860797Y-146996074D01*
X129863947Y-147017309D01*
X129865000Y-147038750D01*
X129865000Y-147476250D01*
X129863947Y-147497691D01*
X129860797Y-147518926D01*
X129855581Y-147539750D01*
X129848349Y-147559962D01*
X129839170Y-147579368D01*
X129828134Y-147597781D01*
X129815346Y-147615024D01*
X129800930Y-147630930D01*
X129785024Y-147645346D01*
X129767781Y-147658134D01*
X129749368Y-147669170D01*
X129729962Y-147678349D01*
X129709750Y-147685581D01*
X129688926Y-147690797D01*
X129667691Y-147693947D01*
X129646250Y-147695000D01*
X129133750Y-147695000D01*
X129112309Y-147693947D01*
X129091074Y-147690797D01*
X129070250Y-147685581D01*
X129050038Y-147678349D01*
X129030632Y-147669170D01*
X129012219Y-147658134D01*
X128994976Y-147645346D01*
X128979070Y-147630930D01*
X128964654Y-147615024D01*
X128951866Y-147597781D01*
X128940830Y-147579368D01*
X128931651Y-147559962D01*
X128924419Y-147539750D01*
X128919203Y-147518926D01*
X128916053Y-147497691D01*
X128915000Y-147476250D01*
X128915000Y-147038750D01*
X128916053Y-147017309D01*
X128919203Y-146996074D01*
X128924419Y-146975250D01*
X128931651Y-146955038D01*
X128940830Y-146935632D01*
X128951866Y-146917219D01*
X128964654Y-146899976D01*
X128979070Y-146884070D01*
X128994976Y-146869654D01*
X129012219Y-146856866D01*
X129030632Y-146845830D01*
X129050038Y-146836651D01*
X129070250Y-146829419D01*
X129091074Y-146824203D01*
X129112309Y-146821053D01*
X129133750Y-146820000D01*
X129646250Y-146820000D01*
X129667691Y-146821053D01*
G37*
G36*
X129667691Y-145246053D02*
G01*
X129688926Y-145249203D01*
X129709750Y-145254419D01*
X129729962Y-145261651D01*
X129749368Y-145270830D01*
X129767781Y-145281866D01*
X129785024Y-145294654D01*
X129800930Y-145309070D01*
X129815346Y-145324976D01*
X129828134Y-145342219D01*
X129839170Y-145360632D01*
X129848349Y-145380038D01*
X129855581Y-145400250D01*
X129860797Y-145421074D01*
X129863947Y-145442309D01*
X129865000Y-145463750D01*
X129865000Y-145901250D01*
X129863947Y-145922691D01*
X129860797Y-145943926D01*
X129855581Y-145964750D01*
X129848349Y-145984962D01*
X129839170Y-146004368D01*
X129828134Y-146022781D01*
X129815346Y-146040024D01*
X129800930Y-146055930D01*
X129785024Y-146070346D01*
X129767781Y-146083134D01*
X129749368Y-146094170D01*
X129729962Y-146103349D01*
X129709750Y-146110581D01*
X129688926Y-146115797D01*
X129667691Y-146118947D01*
X129646250Y-146120000D01*
X129133750Y-146120000D01*
X129112309Y-146118947D01*
X129091074Y-146115797D01*
X129070250Y-146110581D01*
X129050038Y-146103349D01*
X129030632Y-146094170D01*
X129012219Y-146083134D01*
X128994976Y-146070346D01*
X128979070Y-146055930D01*
X128964654Y-146040024D01*
X128951866Y-146022781D01*
X128940830Y-146004368D01*
X128931651Y-145984962D01*
X128924419Y-145964750D01*
X128919203Y-145943926D01*
X128916053Y-145922691D01*
X128915000Y-145901250D01*
X128915000Y-145463750D01*
X128916053Y-145442309D01*
X128919203Y-145421074D01*
X128924419Y-145400250D01*
X128931651Y-145380038D01*
X128940830Y-145360632D01*
X128951866Y-145342219D01*
X128964654Y-145324976D01*
X128979070Y-145309070D01*
X128994976Y-145294654D01*
X129012219Y-145281866D01*
X129030632Y-145270830D01*
X129050038Y-145261651D01*
X129070250Y-145254419D01*
X129091074Y-145249203D01*
X129112309Y-145246053D01*
X129133750Y-145245000D01*
X129646250Y-145245000D01*
X129667691Y-145246053D01*
G37*
G36*
X126152691Y-118876053D02*
G01*
X126173926Y-118879203D01*
X126194750Y-118884419D01*
X126214962Y-118891651D01*
X126234368Y-118900830D01*
X126252781Y-118911866D01*
X126270024Y-118924654D01*
X126285930Y-118939070D01*
X126300346Y-118954976D01*
X126313134Y-118972219D01*
X126324170Y-118990632D01*
X126333349Y-119010038D01*
X126340581Y-119030250D01*
X126345797Y-119051074D01*
X126348947Y-119072309D01*
X126350000Y-119093750D01*
X126350000Y-119606250D01*
X126348947Y-119627691D01*
X126345797Y-119648926D01*
X126340581Y-119669750D01*
X126333349Y-119689962D01*
X126324170Y-119709368D01*
X126313134Y-119727781D01*
X126300346Y-119745024D01*
X126285930Y-119760930D01*
X126270024Y-119775346D01*
X126252781Y-119788134D01*
X126234368Y-119799170D01*
X126214962Y-119808349D01*
X126194750Y-119815581D01*
X126173926Y-119820797D01*
X126152691Y-119823947D01*
X126131250Y-119825000D01*
X125693750Y-119825000D01*
X125672309Y-119823947D01*
X125651074Y-119820797D01*
X125630250Y-119815581D01*
X125610038Y-119808349D01*
X125590632Y-119799170D01*
X125572219Y-119788134D01*
X125554976Y-119775346D01*
X125539070Y-119760930D01*
X125524654Y-119745024D01*
X125511866Y-119727781D01*
X125500830Y-119709368D01*
X125491651Y-119689962D01*
X125484419Y-119669750D01*
X125479203Y-119648926D01*
X125476053Y-119627691D01*
X125475000Y-119606250D01*
X125475000Y-119093750D01*
X125476053Y-119072309D01*
X125479203Y-119051074D01*
X125484419Y-119030250D01*
X125491651Y-119010038D01*
X125500830Y-118990632D01*
X125511866Y-118972219D01*
X125524654Y-118954976D01*
X125539070Y-118939070D01*
X125554976Y-118924654D01*
X125572219Y-118911866D01*
X125590632Y-118900830D01*
X125610038Y-118891651D01*
X125630250Y-118884419D01*
X125651074Y-118879203D01*
X125672309Y-118876053D01*
X125693750Y-118875000D01*
X126131250Y-118875000D01*
X126152691Y-118876053D01*
G37*
G36*
X127727691Y-118876053D02*
G01*
X127748926Y-118879203D01*
X127769750Y-118884419D01*
X127789962Y-118891651D01*
X127809368Y-118900830D01*
X127827781Y-118911866D01*
X127845024Y-118924654D01*
X127860930Y-118939070D01*
X127875346Y-118954976D01*
X127888134Y-118972219D01*
X127899170Y-118990632D01*
X127908349Y-119010038D01*
X127915581Y-119030250D01*
X127920797Y-119051074D01*
X127923947Y-119072309D01*
X127925000Y-119093750D01*
X127925000Y-119606250D01*
X127923947Y-119627691D01*
X127920797Y-119648926D01*
X127915581Y-119669750D01*
X127908349Y-119689962D01*
X127899170Y-119709368D01*
X127888134Y-119727781D01*
X127875346Y-119745024D01*
X127860930Y-119760930D01*
X127845024Y-119775346D01*
X127827781Y-119788134D01*
X127809368Y-119799170D01*
X127789962Y-119808349D01*
X127769750Y-119815581D01*
X127748926Y-119820797D01*
X127727691Y-119823947D01*
X127706250Y-119825000D01*
X127268750Y-119825000D01*
X127247309Y-119823947D01*
X127226074Y-119820797D01*
X127205250Y-119815581D01*
X127185038Y-119808349D01*
X127165632Y-119799170D01*
X127147219Y-119788134D01*
X127129976Y-119775346D01*
X127114070Y-119760930D01*
X127099654Y-119745024D01*
X127086866Y-119727781D01*
X127075830Y-119709368D01*
X127066651Y-119689962D01*
X127059419Y-119669750D01*
X127054203Y-119648926D01*
X127051053Y-119627691D01*
X127050000Y-119606250D01*
X127050000Y-119093750D01*
X127051053Y-119072309D01*
X127054203Y-119051074D01*
X127059419Y-119030250D01*
X127066651Y-119010038D01*
X127075830Y-118990632D01*
X127086866Y-118972219D01*
X127099654Y-118954976D01*
X127114070Y-118939070D01*
X127129976Y-118924654D01*
X127147219Y-118911866D01*
X127165632Y-118900830D01*
X127185038Y-118891651D01*
X127205250Y-118884419D01*
X127226074Y-118879203D01*
X127247309Y-118876053D01*
X127268750Y-118875000D01*
X127706250Y-118875000D01*
X127727691Y-118876053D01*
G37*
G36*
X121397691Y-126811053D02*
G01*
X121418926Y-126814203D01*
X121439750Y-126819419D01*
X121459962Y-126826651D01*
X121479368Y-126835830D01*
X121497781Y-126846866D01*
X121515024Y-126859654D01*
X121530930Y-126874070D01*
X121545346Y-126889976D01*
X121558134Y-126907219D01*
X121569170Y-126925632D01*
X121578349Y-126945038D01*
X121585581Y-126965250D01*
X121590797Y-126986074D01*
X121593947Y-127007309D01*
X121595000Y-127028750D01*
X121595000Y-127466250D01*
X121593947Y-127487691D01*
X121590797Y-127508926D01*
X121585581Y-127529750D01*
X121578349Y-127549962D01*
X121569170Y-127569368D01*
X121558134Y-127587781D01*
X121545346Y-127605024D01*
X121530930Y-127620930D01*
X121515024Y-127635346D01*
X121497781Y-127648134D01*
X121479368Y-127659170D01*
X121459962Y-127668349D01*
X121439750Y-127675581D01*
X121418926Y-127680797D01*
X121397691Y-127683947D01*
X121376250Y-127685000D01*
X120863750Y-127685000D01*
X120842309Y-127683947D01*
X120821074Y-127680797D01*
X120800250Y-127675581D01*
X120780038Y-127668349D01*
X120760632Y-127659170D01*
X120742219Y-127648134D01*
X120724976Y-127635346D01*
X120709070Y-127620930D01*
X120694654Y-127605024D01*
X120681866Y-127587781D01*
X120670830Y-127569368D01*
X120661651Y-127549962D01*
X120654419Y-127529750D01*
X120649203Y-127508926D01*
X120646053Y-127487691D01*
X120645000Y-127466250D01*
X120645000Y-127028750D01*
X120646053Y-127007309D01*
X120649203Y-126986074D01*
X120654419Y-126965250D01*
X120661651Y-126945038D01*
X120670830Y-126925632D01*
X120681866Y-126907219D01*
X120694654Y-126889976D01*
X120709070Y-126874070D01*
X120724976Y-126859654D01*
X120742219Y-126846866D01*
X120760632Y-126835830D01*
X120780038Y-126826651D01*
X120800250Y-126819419D01*
X120821074Y-126814203D01*
X120842309Y-126811053D01*
X120863750Y-126810000D01*
X121376250Y-126810000D01*
X121397691Y-126811053D01*
G37*
G36*
X121397691Y-125236053D02*
G01*
X121418926Y-125239203D01*
X121439750Y-125244419D01*
X121459962Y-125251651D01*
X121479368Y-125260830D01*
X121497781Y-125271866D01*
X121515024Y-125284654D01*
X121530930Y-125299070D01*
X121545346Y-125314976D01*
X121558134Y-125332219D01*
X121569170Y-125350632D01*
X121578349Y-125370038D01*
X121585581Y-125390250D01*
X121590797Y-125411074D01*
X121593947Y-125432309D01*
X121595000Y-125453750D01*
X121595000Y-125891250D01*
X121593947Y-125912691D01*
X121590797Y-125933926D01*
X121585581Y-125954750D01*
X121578349Y-125974962D01*
X121569170Y-125994368D01*
X121558134Y-126012781D01*
X121545346Y-126030024D01*
X121530930Y-126045930D01*
X121515024Y-126060346D01*
X121497781Y-126073134D01*
X121479368Y-126084170D01*
X121459962Y-126093349D01*
X121439750Y-126100581D01*
X121418926Y-126105797D01*
X121397691Y-126108947D01*
X121376250Y-126110000D01*
X120863750Y-126110000D01*
X120842309Y-126108947D01*
X120821074Y-126105797D01*
X120800250Y-126100581D01*
X120780038Y-126093349D01*
X120760632Y-126084170D01*
X120742219Y-126073134D01*
X120724976Y-126060346D01*
X120709070Y-126045930D01*
X120694654Y-126030024D01*
X120681866Y-126012781D01*
X120670830Y-125994368D01*
X120661651Y-125974962D01*
X120654419Y-125954750D01*
X120649203Y-125933926D01*
X120646053Y-125912691D01*
X120645000Y-125891250D01*
X120645000Y-125453750D01*
X120646053Y-125432309D01*
X120649203Y-125411074D01*
X120654419Y-125390250D01*
X120661651Y-125370038D01*
X120670830Y-125350632D01*
X120681866Y-125332219D01*
X120694654Y-125314976D01*
X120709070Y-125299070D01*
X120724976Y-125284654D01*
X120742219Y-125271866D01*
X120760632Y-125260830D01*
X120780038Y-125251651D01*
X120800250Y-125244419D01*
X120821074Y-125239203D01*
X120842309Y-125236053D01*
X120863750Y-125235000D01*
X121376250Y-125235000D01*
X121397691Y-125236053D01*
G37*
D15*
X126830000Y-114700000D03*
D16*
X129530000Y-114700000D03*
D17*
X125005000Y-114700000D03*
X131755000Y-114700000D03*
D18*
X125892500Y-117275000D03*
X130867500Y-117275000D03*
D19*
X127080000Y-117360000D03*
X127730000Y-117360000D03*
X128380000Y-117360000D03*
X129030000Y-117360000D03*
X129680000Y-117360000D03*
D10*
G36*
X134687691Y-143156053D02*
G01*
X134708926Y-143159203D01*
X134729750Y-143164419D01*
X134749962Y-143171651D01*
X134769368Y-143180830D01*
X134787781Y-143191866D01*
X134805024Y-143204654D01*
X134820930Y-143219070D01*
X134835346Y-143234976D01*
X134848134Y-143252219D01*
X134859170Y-143270632D01*
X134868349Y-143290038D01*
X134875581Y-143310250D01*
X134880797Y-143331074D01*
X134883947Y-143352309D01*
X134885000Y-143373750D01*
X134885000Y-143886250D01*
X134883947Y-143907691D01*
X134880797Y-143928926D01*
X134875581Y-143949750D01*
X134868349Y-143969962D01*
X134859170Y-143989368D01*
X134848134Y-144007781D01*
X134835346Y-144025024D01*
X134820930Y-144040930D01*
X134805024Y-144055346D01*
X134787781Y-144068134D01*
X134769368Y-144079170D01*
X134749962Y-144088349D01*
X134729750Y-144095581D01*
X134708926Y-144100797D01*
X134687691Y-144103947D01*
X134666250Y-144105000D01*
X134228750Y-144105000D01*
X134207309Y-144103947D01*
X134186074Y-144100797D01*
X134165250Y-144095581D01*
X134145038Y-144088349D01*
X134125632Y-144079170D01*
X134107219Y-144068134D01*
X134089976Y-144055346D01*
X134074070Y-144040930D01*
X134059654Y-144025024D01*
X134046866Y-144007781D01*
X134035830Y-143989368D01*
X134026651Y-143969962D01*
X134019419Y-143949750D01*
X134014203Y-143928926D01*
X134011053Y-143907691D01*
X134010000Y-143886250D01*
X134010000Y-143373750D01*
X134011053Y-143352309D01*
X134014203Y-143331074D01*
X134019419Y-143310250D01*
X134026651Y-143290038D01*
X134035830Y-143270632D01*
X134046866Y-143252219D01*
X134059654Y-143234976D01*
X134074070Y-143219070D01*
X134089976Y-143204654D01*
X134107219Y-143191866D01*
X134125632Y-143180830D01*
X134145038Y-143171651D01*
X134165250Y-143164419D01*
X134186074Y-143159203D01*
X134207309Y-143156053D01*
X134228750Y-143155000D01*
X134666250Y-143155000D01*
X134687691Y-143156053D01*
G37*
G36*
X133112691Y-143156053D02*
G01*
X133133926Y-143159203D01*
X133154750Y-143164419D01*
X133174962Y-143171651D01*
X133194368Y-143180830D01*
X133212781Y-143191866D01*
X133230024Y-143204654D01*
X133245930Y-143219070D01*
X133260346Y-143234976D01*
X133273134Y-143252219D01*
X133284170Y-143270632D01*
X133293349Y-143290038D01*
X133300581Y-143310250D01*
X133305797Y-143331074D01*
X133308947Y-143352309D01*
X133310000Y-143373750D01*
X133310000Y-143886250D01*
X133308947Y-143907691D01*
X133305797Y-143928926D01*
X133300581Y-143949750D01*
X133293349Y-143969962D01*
X133284170Y-143989368D01*
X133273134Y-144007781D01*
X133260346Y-144025024D01*
X133245930Y-144040930D01*
X133230024Y-144055346D01*
X133212781Y-144068134D01*
X133194368Y-144079170D01*
X133174962Y-144088349D01*
X133154750Y-144095581D01*
X133133926Y-144100797D01*
X133112691Y-144103947D01*
X133091250Y-144105000D01*
X132653750Y-144105000D01*
X132632309Y-144103947D01*
X132611074Y-144100797D01*
X132590250Y-144095581D01*
X132570038Y-144088349D01*
X132550632Y-144079170D01*
X132532219Y-144068134D01*
X132514976Y-144055346D01*
X132499070Y-144040930D01*
X132484654Y-144025024D01*
X132471866Y-144007781D01*
X132460830Y-143989368D01*
X132451651Y-143969962D01*
X132444419Y-143949750D01*
X132439203Y-143928926D01*
X132436053Y-143907691D01*
X132435000Y-143886250D01*
X132435000Y-143373750D01*
X132436053Y-143352309D01*
X132439203Y-143331074D01*
X132444419Y-143310250D01*
X132451651Y-143290038D01*
X132460830Y-143270632D01*
X132471866Y-143252219D01*
X132484654Y-143234976D01*
X132499070Y-143219070D01*
X132514976Y-143204654D01*
X132532219Y-143191866D01*
X132550632Y-143180830D01*
X132570038Y-143171651D01*
X132590250Y-143164419D01*
X132611074Y-143159203D01*
X132632309Y-143156053D01*
X132653750Y-143155000D01*
X133091250Y-143155000D01*
X133112691Y-143156053D01*
G37*
G36*
X134687691Y-144666053D02*
G01*
X134708926Y-144669203D01*
X134729750Y-144674419D01*
X134749962Y-144681651D01*
X134769368Y-144690830D01*
X134787781Y-144701866D01*
X134805024Y-144714654D01*
X134820930Y-144729070D01*
X134835346Y-144744976D01*
X134848134Y-144762219D01*
X134859170Y-144780632D01*
X134868349Y-144800038D01*
X134875581Y-144820250D01*
X134880797Y-144841074D01*
X134883947Y-144862309D01*
X134885000Y-144883750D01*
X134885000Y-145396250D01*
X134883947Y-145417691D01*
X134880797Y-145438926D01*
X134875581Y-145459750D01*
X134868349Y-145479962D01*
X134859170Y-145499368D01*
X134848134Y-145517781D01*
X134835346Y-145535024D01*
X134820930Y-145550930D01*
X134805024Y-145565346D01*
X134787781Y-145578134D01*
X134769368Y-145589170D01*
X134749962Y-145598349D01*
X134729750Y-145605581D01*
X134708926Y-145610797D01*
X134687691Y-145613947D01*
X134666250Y-145615000D01*
X134228750Y-145615000D01*
X134207309Y-145613947D01*
X134186074Y-145610797D01*
X134165250Y-145605581D01*
X134145038Y-145598349D01*
X134125632Y-145589170D01*
X134107219Y-145578134D01*
X134089976Y-145565346D01*
X134074070Y-145550930D01*
X134059654Y-145535024D01*
X134046866Y-145517781D01*
X134035830Y-145499368D01*
X134026651Y-145479962D01*
X134019419Y-145459750D01*
X134014203Y-145438926D01*
X134011053Y-145417691D01*
X134010000Y-145396250D01*
X134010000Y-144883750D01*
X134011053Y-144862309D01*
X134014203Y-144841074D01*
X134019419Y-144820250D01*
X134026651Y-144800038D01*
X134035830Y-144780632D01*
X134046866Y-144762219D01*
X134059654Y-144744976D01*
X134074070Y-144729070D01*
X134089976Y-144714654D01*
X134107219Y-144701866D01*
X134125632Y-144690830D01*
X134145038Y-144681651D01*
X134165250Y-144674419D01*
X134186074Y-144669203D01*
X134207309Y-144666053D01*
X134228750Y-144665000D01*
X134666250Y-144665000D01*
X134687691Y-144666053D01*
G37*
G36*
X133112691Y-144666053D02*
G01*
X133133926Y-144669203D01*
X133154750Y-144674419D01*
X133174962Y-144681651D01*
X133194368Y-144690830D01*
X133212781Y-144701866D01*
X133230024Y-144714654D01*
X133245930Y-144729070D01*
X133260346Y-144744976D01*
X133273134Y-144762219D01*
X133284170Y-144780632D01*
X133293349Y-144800038D01*
X133300581Y-144820250D01*
X133305797Y-144841074D01*
X133308947Y-144862309D01*
X133310000Y-144883750D01*
X133310000Y-145396250D01*
X133308947Y-145417691D01*
X133305797Y-145438926D01*
X133300581Y-145459750D01*
X133293349Y-145479962D01*
X133284170Y-145499368D01*
X133273134Y-145517781D01*
X133260346Y-145535024D01*
X133245930Y-145550930D01*
X133230024Y-145565346D01*
X133212781Y-145578134D01*
X133194368Y-145589170D01*
X133174962Y-145598349D01*
X133154750Y-145605581D01*
X133133926Y-145610797D01*
X133112691Y-145613947D01*
X133091250Y-145615000D01*
X132653750Y-145615000D01*
X132632309Y-145613947D01*
X132611074Y-145610797D01*
X132590250Y-145605581D01*
X132570038Y-145598349D01*
X132550632Y-145589170D01*
X132532219Y-145578134D01*
X132514976Y-145565346D01*
X132499070Y-145550930D01*
X132484654Y-145535024D01*
X132471866Y-145517781D01*
X132460830Y-145499368D01*
X132451651Y-145479962D01*
X132444419Y-145459750D01*
X132439203Y-145438926D01*
X132436053Y-145417691D01*
X132435000Y-145396250D01*
X132435000Y-144883750D01*
X132436053Y-144862309D01*
X132439203Y-144841074D01*
X132444419Y-144820250D01*
X132451651Y-144800038D01*
X132460830Y-144780632D01*
X132471866Y-144762219D01*
X132484654Y-144744976D01*
X132499070Y-144729070D01*
X132514976Y-144714654D01*
X132532219Y-144701866D01*
X132550632Y-144690830D01*
X132570038Y-144681651D01*
X132590250Y-144674419D01*
X132611074Y-144669203D01*
X132632309Y-144666053D01*
X132653750Y-144665000D01*
X133091250Y-144665000D01*
X133112691Y-144666053D01*
G37*
G36*
X122627691Y-132646053D02*
G01*
X122648926Y-132649203D01*
X122669750Y-132654419D01*
X122689962Y-132661651D01*
X122709368Y-132670830D01*
X122727781Y-132681866D01*
X122745024Y-132694654D01*
X122760930Y-132709070D01*
X122775346Y-132724976D01*
X122788134Y-132742219D01*
X122799170Y-132760632D01*
X122808349Y-132780038D01*
X122815581Y-132800250D01*
X122820797Y-132821074D01*
X122823947Y-132842309D01*
X122825000Y-132863750D01*
X122825000Y-133301250D01*
X122823947Y-133322691D01*
X122820797Y-133343926D01*
X122815581Y-133364750D01*
X122808349Y-133384962D01*
X122799170Y-133404368D01*
X122788134Y-133422781D01*
X122775346Y-133440024D01*
X122760930Y-133455930D01*
X122745024Y-133470346D01*
X122727781Y-133483134D01*
X122709368Y-133494170D01*
X122689962Y-133503349D01*
X122669750Y-133510581D01*
X122648926Y-133515797D01*
X122627691Y-133518947D01*
X122606250Y-133520000D01*
X122093750Y-133520000D01*
X122072309Y-133518947D01*
X122051074Y-133515797D01*
X122030250Y-133510581D01*
X122010038Y-133503349D01*
X121990632Y-133494170D01*
X121972219Y-133483134D01*
X121954976Y-133470346D01*
X121939070Y-133455930D01*
X121924654Y-133440024D01*
X121911866Y-133422781D01*
X121900830Y-133404368D01*
X121891651Y-133384962D01*
X121884419Y-133364750D01*
X121879203Y-133343926D01*
X121876053Y-133322691D01*
X121875000Y-133301250D01*
X121875000Y-132863750D01*
X121876053Y-132842309D01*
X121879203Y-132821074D01*
X121884419Y-132800250D01*
X121891651Y-132780038D01*
X121900830Y-132760632D01*
X121911866Y-132742219D01*
X121924654Y-132724976D01*
X121939070Y-132709070D01*
X121954976Y-132694654D01*
X121972219Y-132681866D01*
X121990632Y-132670830D01*
X122010038Y-132661651D01*
X122030250Y-132654419D01*
X122051074Y-132649203D01*
X122072309Y-132646053D01*
X122093750Y-132645000D01*
X122606250Y-132645000D01*
X122627691Y-132646053D01*
G37*
G36*
X122627691Y-134221053D02*
G01*
X122648926Y-134224203D01*
X122669750Y-134229419D01*
X122689962Y-134236651D01*
X122709368Y-134245830D01*
X122727781Y-134256866D01*
X122745024Y-134269654D01*
X122760930Y-134284070D01*
X122775346Y-134299976D01*
X122788134Y-134317219D01*
X122799170Y-134335632D01*
X122808349Y-134355038D01*
X122815581Y-134375250D01*
X122820797Y-134396074D01*
X122823947Y-134417309D01*
X122825000Y-134438750D01*
X122825000Y-134876250D01*
X122823947Y-134897691D01*
X122820797Y-134918926D01*
X122815581Y-134939750D01*
X122808349Y-134959962D01*
X122799170Y-134979368D01*
X122788134Y-134997781D01*
X122775346Y-135015024D01*
X122760930Y-135030930D01*
X122745024Y-135045346D01*
X122727781Y-135058134D01*
X122709368Y-135069170D01*
X122689962Y-135078349D01*
X122669750Y-135085581D01*
X122648926Y-135090797D01*
X122627691Y-135093947D01*
X122606250Y-135095000D01*
X122093750Y-135095000D01*
X122072309Y-135093947D01*
X122051074Y-135090797D01*
X122030250Y-135085581D01*
X122010038Y-135078349D01*
X121990632Y-135069170D01*
X121972219Y-135058134D01*
X121954976Y-135045346D01*
X121939070Y-135030930D01*
X121924654Y-135015024D01*
X121911866Y-134997781D01*
X121900830Y-134979368D01*
X121891651Y-134959962D01*
X121884419Y-134939750D01*
X121879203Y-134918926D01*
X121876053Y-134897691D01*
X121875000Y-134876250D01*
X121875000Y-134438750D01*
X121876053Y-134417309D01*
X121879203Y-134396074D01*
X121884419Y-134375250D01*
X121891651Y-134355038D01*
X121900830Y-134335632D01*
X121911866Y-134317219D01*
X121924654Y-134299976D01*
X121939070Y-134284070D01*
X121954976Y-134269654D01*
X121972219Y-134256866D01*
X121990632Y-134245830D01*
X122010038Y-134236651D01*
X122030250Y-134229419D01*
X122051074Y-134224203D01*
X122072309Y-134221053D01*
X122093750Y-134220000D01*
X122606250Y-134220000D01*
X122627691Y-134221053D01*
G37*
G36*
X136552691Y-134951053D02*
G01*
X136573926Y-134954203D01*
X136594750Y-134959419D01*
X136614962Y-134966651D01*
X136634368Y-134975830D01*
X136652781Y-134986866D01*
X136670024Y-134999654D01*
X136685930Y-135014070D01*
X136700346Y-135029976D01*
X136713134Y-135047219D01*
X136724170Y-135065632D01*
X136733349Y-135085038D01*
X136740581Y-135105250D01*
X136745797Y-135126074D01*
X136748947Y-135147309D01*
X136750000Y-135168750D01*
X136750000Y-135681250D01*
X136748947Y-135702691D01*
X136745797Y-135723926D01*
X136740581Y-135744750D01*
X136733349Y-135764962D01*
X136724170Y-135784368D01*
X136713134Y-135802781D01*
X136700346Y-135820024D01*
X136685930Y-135835930D01*
X136670024Y-135850346D01*
X136652781Y-135863134D01*
X136634368Y-135874170D01*
X136614962Y-135883349D01*
X136594750Y-135890581D01*
X136573926Y-135895797D01*
X136552691Y-135898947D01*
X136531250Y-135900000D01*
X136093750Y-135900000D01*
X136072309Y-135898947D01*
X136051074Y-135895797D01*
X136030250Y-135890581D01*
X136010038Y-135883349D01*
X135990632Y-135874170D01*
X135972219Y-135863134D01*
X135954976Y-135850346D01*
X135939070Y-135835930D01*
X135924654Y-135820024D01*
X135911866Y-135802781D01*
X135900830Y-135784368D01*
X135891651Y-135764962D01*
X135884419Y-135744750D01*
X135879203Y-135723926D01*
X135876053Y-135702691D01*
X135875000Y-135681250D01*
X135875000Y-135168750D01*
X135876053Y-135147309D01*
X135879203Y-135126074D01*
X135884419Y-135105250D01*
X135891651Y-135085038D01*
X135900830Y-135065632D01*
X135911866Y-135047219D01*
X135924654Y-135029976D01*
X135939070Y-135014070D01*
X135954976Y-134999654D01*
X135972219Y-134986866D01*
X135990632Y-134975830D01*
X136010038Y-134966651D01*
X136030250Y-134959419D01*
X136051074Y-134954203D01*
X136072309Y-134951053D01*
X136093750Y-134950000D01*
X136531250Y-134950000D01*
X136552691Y-134951053D01*
G37*
G36*
X134977691Y-134951053D02*
G01*
X134998926Y-134954203D01*
X135019750Y-134959419D01*
X135039962Y-134966651D01*
X135059368Y-134975830D01*
X135077781Y-134986866D01*
X135095024Y-134999654D01*
X135110930Y-135014070D01*
X135125346Y-135029976D01*
X135138134Y-135047219D01*
X135149170Y-135065632D01*
X135158349Y-135085038D01*
X135165581Y-135105250D01*
X135170797Y-135126074D01*
X135173947Y-135147309D01*
X135175000Y-135168750D01*
X135175000Y-135681250D01*
X135173947Y-135702691D01*
X135170797Y-135723926D01*
X135165581Y-135744750D01*
X135158349Y-135764962D01*
X135149170Y-135784368D01*
X135138134Y-135802781D01*
X135125346Y-135820024D01*
X135110930Y-135835930D01*
X135095024Y-135850346D01*
X135077781Y-135863134D01*
X135059368Y-135874170D01*
X135039962Y-135883349D01*
X135019750Y-135890581D01*
X134998926Y-135895797D01*
X134977691Y-135898947D01*
X134956250Y-135900000D01*
X134518750Y-135900000D01*
X134497309Y-135898947D01*
X134476074Y-135895797D01*
X134455250Y-135890581D01*
X134435038Y-135883349D01*
X134415632Y-135874170D01*
X134397219Y-135863134D01*
X134379976Y-135850346D01*
X134364070Y-135835930D01*
X134349654Y-135820024D01*
X134336866Y-135802781D01*
X134325830Y-135784368D01*
X134316651Y-135764962D01*
X134309419Y-135744750D01*
X134304203Y-135723926D01*
X134301053Y-135702691D01*
X134300000Y-135681250D01*
X134300000Y-135168750D01*
X134301053Y-135147309D01*
X134304203Y-135126074D01*
X134309419Y-135105250D01*
X134316651Y-135085038D01*
X134325830Y-135065632D01*
X134336866Y-135047219D01*
X134349654Y-135029976D01*
X134364070Y-135014070D01*
X134379976Y-134999654D01*
X134397219Y-134986866D01*
X134415632Y-134975830D01*
X134435038Y-134966651D01*
X134455250Y-134959419D01*
X134476074Y-134954203D01*
X134497309Y-134951053D01*
X134518750Y-134950000D01*
X134956250Y-134950000D01*
X134977691Y-134951053D01*
G37*
G36*
X122627691Y-144751053D02*
G01*
X122648926Y-144754203D01*
X122669750Y-144759419D01*
X122689962Y-144766651D01*
X122709368Y-144775830D01*
X122727781Y-144786866D01*
X122745024Y-144799654D01*
X122760930Y-144814070D01*
X122775346Y-144829976D01*
X122788134Y-144847219D01*
X122799170Y-144865632D01*
X122808349Y-144885038D01*
X122815581Y-144905250D01*
X122820797Y-144926074D01*
X122823947Y-144947309D01*
X122825000Y-144968750D01*
X122825000Y-145406250D01*
X122823947Y-145427691D01*
X122820797Y-145448926D01*
X122815581Y-145469750D01*
X122808349Y-145489962D01*
X122799170Y-145509368D01*
X122788134Y-145527781D01*
X122775346Y-145545024D01*
X122760930Y-145560930D01*
X122745024Y-145575346D01*
X122727781Y-145588134D01*
X122709368Y-145599170D01*
X122689962Y-145608349D01*
X122669750Y-145615581D01*
X122648926Y-145620797D01*
X122627691Y-145623947D01*
X122606250Y-145625000D01*
X122093750Y-145625000D01*
X122072309Y-145623947D01*
X122051074Y-145620797D01*
X122030250Y-145615581D01*
X122010038Y-145608349D01*
X121990632Y-145599170D01*
X121972219Y-145588134D01*
X121954976Y-145575346D01*
X121939070Y-145560930D01*
X121924654Y-145545024D01*
X121911866Y-145527781D01*
X121900830Y-145509368D01*
X121891651Y-145489962D01*
X121884419Y-145469750D01*
X121879203Y-145448926D01*
X121876053Y-145427691D01*
X121875000Y-145406250D01*
X121875000Y-144968750D01*
X121876053Y-144947309D01*
X121879203Y-144926074D01*
X121884419Y-144905250D01*
X121891651Y-144885038D01*
X121900830Y-144865632D01*
X121911866Y-144847219D01*
X121924654Y-144829976D01*
X121939070Y-144814070D01*
X121954976Y-144799654D01*
X121972219Y-144786866D01*
X121990632Y-144775830D01*
X122010038Y-144766651D01*
X122030250Y-144759419D01*
X122051074Y-144754203D01*
X122072309Y-144751053D01*
X122093750Y-144750000D01*
X122606250Y-144750000D01*
X122627691Y-144751053D01*
G37*
G36*
X122627691Y-143176053D02*
G01*
X122648926Y-143179203D01*
X122669750Y-143184419D01*
X122689962Y-143191651D01*
X122709368Y-143200830D01*
X122727781Y-143211866D01*
X122745024Y-143224654D01*
X122760930Y-143239070D01*
X122775346Y-143254976D01*
X122788134Y-143272219D01*
X122799170Y-143290632D01*
X122808349Y-143310038D01*
X122815581Y-143330250D01*
X122820797Y-143351074D01*
X122823947Y-143372309D01*
X122825000Y-143393750D01*
X122825000Y-143831250D01*
X122823947Y-143852691D01*
X122820797Y-143873926D01*
X122815581Y-143894750D01*
X122808349Y-143914962D01*
X122799170Y-143934368D01*
X122788134Y-143952781D01*
X122775346Y-143970024D01*
X122760930Y-143985930D01*
X122745024Y-144000346D01*
X122727781Y-144013134D01*
X122709368Y-144024170D01*
X122689962Y-144033349D01*
X122669750Y-144040581D01*
X122648926Y-144045797D01*
X122627691Y-144048947D01*
X122606250Y-144050000D01*
X122093750Y-144050000D01*
X122072309Y-144048947D01*
X122051074Y-144045797D01*
X122030250Y-144040581D01*
X122010038Y-144033349D01*
X121990632Y-144024170D01*
X121972219Y-144013134D01*
X121954976Y-144000346D01*
X121939070Y-143985930D01*
X121924654Y-143970024D01*
X121911866Y-143952781D01*
X121900830Y-143934368D01*
X121891651Y-143914962D01*
X121884419Y-143894750D01*
X121879203Y-143873926D01*
X121876053Y-143852691D01*
X121875000Y-143831250D01*
X121875000Y-143393750D01*
X121876053Y-143372309D01*
X121879203Y-143351074D01*
X121884419Y-143330250D01*
X121891651Y-143310038D01*
X121900830Y-143290632D01*
X121911866Y-143272219D01*
X121924654Y-143254976D01*
X121939070Y-143239070D01*
X121954976Y-143224654D01*
X121972219Y-143211866D01*
X121990632Y-143200830D01*
X122010038Y-143191651D01*
X122030250Y-143184419D01*
X122051074Y-143179203D01*
X122072309Y-143176053D01*
X122093750Y-143175000D01*
X122606250Y-143175000D01*
X122627691Y-143176053D01*
G37*
G36*
X124147691Y-144751053D02*
G01*
X124168926Y-144754203D01*
X124189750Y-144759419D01*
X124209962Y-144766651D01*
X124229368Y-144775830D01*
X124247781Y-144786866D01*
X124265024Y-144799654D01*
X124280930Y-144814070D01*
X124295346Y-144829976D01*
X124308134Y-144847219D01*
X124319170Y-144865632D01*
X124328349Y-144885038D01*
X124335581Y-144905250D01*
X124340797Y-144926074D01*
X124343947Y-144947309D01*
X124345000Y-144968750D01*
X124345000Y-145406250D01*
X124343947Y-145427691D01*
X124340797Y-145448926D01*
X124335581Y-145469750D01*
X124328349Y-145489962D01*
X124319170Y-145509368D01*
X124308134Y-145527781D01*
X124295346Y-145545024D01*
X124280930Y-145560930D01*
X124265024Y-145575346D01*
X124247781Y-145588134D01*
X124229368Y-145599170D01*
X124209962Y-145608349D01*
X124189750Y-145615581D01*
X124168926Y-145620797D01*
X124147691Y-145623947D01*
X124126250Y-145625000D01*
X123613750Y-145625000D01*
X123592309Y-145623947D01*
X123571074Y-145620797D01*
X123550250Y-145615581D01*
X123530038Y-145608349D01*
X123510632Y-145599170D01*
X123492219Y-145588134D01*
X123474976Y-145575346D01*
X123459070Y-145560930D01*
X123444654Y-145545024D01*
X123431866Y-145527781D01*
X123420830Y-145509368D01*
X123411651Y-145489962D01*
X123404419Y-145469750D01*
X123399203Y-145448926D01*
X123396053Y-145427691D01*
X123395000Y-145406250D01*
X123395000Y-144968750D01*
X123396053Y-144947309D01*
X123399203Y-144926074D01*
X123404419Y-144905250D01*
X123411651Y-144885038D01*
X123420830Y-144865632D01*
X123431866Y-144847219D01*
X123444654Y-144829976D01*
X123459070Y-144814070D01*
X123474976Y-144799654D01*
X123492219Y-144786866D01*
X123510632Y-144775830D01*
X123530038Y-144766651D01*
X123550250Y-144759419D01*
X123571074Y-144754203D01*
X123592309Y-144751053D01*
X123613750Y-144750000D01*
X124126250Y-144750000D01*
X124147691Y-144751053D01*
G37*
G36*
X124147691Y-143176053D02*
G01*
X124168926Y-143179203D01*
X124189750Y-143184419D01*
X124209962Y-143191651D01*
X124229368Y-143200830D01*
X124247781Y-143211866D01*
X124265024Y-143224654D01*
X124280930Y-143239070D01*
X124295346Y-143254976D01*
X124308134Y-143272219D01*
X124319170Y-143290632D01*
X124328349Y-143310038D01*
X124335581Y-143330250D01*
X124340797Y-143351074D01*
X124343947Y-143372309D01*
X124345000Y-143393750D01*
X124345000Y-143831250D01*
X124343947Y-143852691D01*
X124340797Y-143873926D01*
X124335581Y-143894750D01*
X124328349Y-143914962D01*
X124319170Y-143934368D01*
X124308134Y-143952781D01*
X124295346Y-143970024D01*
X124280930Y-143985930D01*
X124265024Y-144000346D01*
X124247781Y-144013134D01*
X124229368Y-144024170D01*
X124209962Y-144033349D01*
X124189750Y-144040581D01*
X124168926Y-144045797D01*
X124147691Y-144048947D01*
X124126250Y-144050000D01*
X123613750Y-144050000D01*
X123592309Y-144048947D01*
X123571074Y-144045797D01*
X123550250Y-144040581D01*
X123530038Y-144033349D01*
X123510632Y-144024170D01*
X123492219Y-144013134D01*
X123474976Y-144000346D01*
X123459070Y-143985930D01*
X123444654Y-143970024D01*
X123431866Y-143952781D01*
X123420830Y-143934368D01*
X123411651Y-143914962D01*
X123404419Y-143894750D01*
X123399203Y-143873926D01*
X123396053Y-143852691D01*
X123395000Y-143831250D01*
X123395000Y-143393750D01*
X123396053Y-143372309D01*
X123399203Y-143351074D01*
X123404419Y-143330250D01*
X123411651Y-143310038D01*
X123420830Y-143290632D01*
X123431866Y-143272219D01*
X123444654Y-143254976D01*
X123459070Y-143239070D01*
X123474976Y-143224654D01*
X123492219Y-143211866D01*
X123510632Y-143200830D01*
X123530038Y-143191651D01*
X123550250Y-143184419D01*
X123571074Y-143179203D01*
X123592309Y-143176053D01*
X123613750Y-143175000D01*
X124126250Y-143175000D01*
X124147691Y-143176053D01*
G37*
G36*
X117845191Y-125196053D02*
G01*
X117866426Y-125199203D01*
X117887250Y-125204419D01*
X117907462Y-125211651D01*
X117926868Y-125220830D01*
X117945281Y-125231866D01*
X117962524Y-125244654D01*
X117978430Y-125259070D01*
X117992846Y-125274976D01*
X118005634Y-125292219D01*
X118016670Y-125310632D01*
X118025849Y-125330038D01*
X118033081Y-125350250D01*
X118038297Y-125371074D01*
X118041447Y-125392309D01*
X118042500Y-125413750D01*
X118042500Y-125926250D01*
X118041447Y-125947691D01*
X118038297Y-125968926D01*
X118033081Y-125989750D01*
X118025849Y-126009962D01*
X118016670Y-126029368D01*
X118005634Y-126047781D01*
X117992846Y-126065024D01*
X117978430Y-126080930D01*
X117962524Y-126095346D01*
X117945281Y-126108134D01*
X117926868Y-126119170D01*
X117907462Y-126128349D01*
X117887250Y-126135581D01*
X117866426Y-126140797D01*
X117845191Y-126143947D01*
X117823750Y-126145000D01*
X117386250Y-126145000D01*
X117364809Y-126143947D01*
X117343574Y-126140797D01*
X117322750Y-126135581D01*
X117302538Y-126128349D01*
X117283132Y-126119170D01*
X117264719Y-126108134D01*
X117247476Y-126095346D01*
X117231570Y-126080930D01*
X117217154Y-126065024D01*
X117204366Y-126047781D01*
X117193330Y-126029368D01*
X117184151Y-126009962D01*
X117176919Y-125989750D01*
X117171703Y-125968926D01*
X117168553Y-125947691D01*
X117167500Y-125926250D01*
X117167500Y-125413750D01*
X117168553Y-125392309D01*
X117171703Y-125371074D01*
X117176919Y-125350250D01*
X117184151Y-125330038D01*
X117193330Y-125310632D01*
X117204366Y-125292219D01*
X117217154Y-125274976D01*
X117231570Y-125259070D01*
X117247476Y-125244654D01*
X117264719Y-125231866D01*
X117283132Y-125220830D01*
X117302538Y-125211651D01*
X117322750Y-125204419D01*
X117343574Y-125199203D01*
X117364809Y-125196053D01*
X117386250Y-125195000D01*
X117823750Y-125195000D01*
X117845191Y-125196053D01*
G37*
G36*
X119420191Y-125196053D02*
G01*
X119441426Y-125199203D01*
X119462250Y-125204419D01*
X119482462Y-125211651D01*
X119501868Y-125220830D01*
X119520281Y-125231866D01*
X119537524Y-125244654D01*
X119553430Y-125259070D01*
X119567846Y-125274976D01*
X119580634Y-125292219D01*
X119591670Y-125310632D01*
X119600849Y-125330038D01*
X119608081Y-125350250D01*
X119613297Y-125371074D01*
X119616447Y-125392309D01*
X119617500Y-125413750D01*
X119617500Y-125926250D01*
X119616447Y-125947691D01*
X119613297Y-125968926D01*
X119608081Y-125989750D01*
X119600849Y-126009962D01*
X119591670Y-126029368D01*
X119580634Y-126047781D01*
X119567846Y-126065024D01*
X119553430Y-126080930D01*
X119537524Y-126095346D01*
X119520281Y-126108134D01*
X119501868Y-126119170D01*
X119482462Y-126128349D01*
X119462250Y-126135581D01*
X119441426Y-126140797D01*
X119420191Y-126143947D01*
X119398750Y-126145000D01*
X118961250Y-126145000D01*
X118939809Y-126143947D01*
X118918574Y-126140797D01*
X118897750Y-126135581D01*
X118877538Y-126128349D01*
X118858132Y-126119170D01*
X118839719Y-126108134D01*
X118822476Y-126095346D01*
X118806570Y-126080930D01*
X118792154Y-126065024D01*
X118779366Y-126047781D01*
X118768330Y-126029368D01*
X118759151Y-126009962D01*
X118751919Y-125989750D01*
X118746703Y-125968926D01*
X118743553Y-125947691D01*
X118742500Y-125926250D01*
X118742500Y-125413750D01*
X118743553Y-125392309D01*
X118746703Y-125371074D01*
X118751919Y-125350250D01*
X118759151Y-125330038D01*
X118768330Y-125310632D01*
X118779366Y-125292219D01*
X118792154Y-125274976D01*
X118806570Y-125259070D01*
X118822476Y-125244654D01*
X118839719Y-125231866D01*
X118858132Y-125220830D01*
X118877538Y-125211651D01*
X118897750Y-125204419D01*
X118918574Y-125199203D01*
X118939809Y-125196053D01*
X118961250Y-125195000D01*
X119398750Y-125195000D01*
X119420191Y-125196053D01*
G37*
G36*
X128157691Y-146746053D02*
G01*
X128178926Y-146749203D01*
X128199750Y-146754419D01*
X128219962Y-146761651D01*
X128239368Y-146770830D01*
X128257781Y-146781866D01*
X128275024Y-146794654D01*
X128290930Y-146809070D01*
X128305346Y-146824976D01*
X128318134Y-146842219D01*
X128329170Y-146860632D01*
X128338349Y-146880038D01*
X128345581Y-146900250D01*
X128350797Y-146921074D01*
X128353947Y-146942309D01*
X128355000Y-146963750D01*
X128355000Y-147476250D01*
X128353947Y-147497691D01*
X128350797Y-147518926D01*
X128345581Y-147539750D01*
X128338349Y-147559962D01*
X128329170Y-147579368D01*
X128318134Y-147597781D01*
X128305346Y-147615024D01*
X128290930Y-147630930D01*
X128275024Y-147645346D01*
X128257781Y-147658134D01*
X128239368Y-147669170D01*
X128219962Y-147678349D01*
X128199750Y-147685581D01*
X128178926Y-147690797D01*
X128157691Y-147693947D01*
X128136250Y-147695000D01*
X127698750Y-147695000D01*
X127677309Y-147693947D01*
X127656074Y-147690797D01*
X127635250Y-147685581D01*
X127615038Y-147678349D01*
X127595632Y-147669170D01*
X127577219Y-147658134D01*
X127559976Y-147645346D01*
X127544070Y-147630930D01*
X127529654Y-147615024D01*
X127516866Y-147597781D01*
X127505830Y-147579368D01*
X127496651Y-147559962D01*
X127489419Y-147539750D01*
X127484203Y-147518926D01*
X127481053Y-147497691D01*
X127480000Y-147476250D01*
X127480000Y-146963750D01*
X127481053Y-146942309D01*
X127484203Y-146921074D01*
X127489419Y-146900250D01*
X127496651Y-146880038D01*
X127505830Y-146860632D01*
X127516866Y-146842219D01*
X127529654Y-146824976D01*
X127544070Y-146809070D01*
X127559976Y-146794654D01*
X127577219Y-146781866D01*
X127595632Y-146770830D01*
X127615038Y-146761651D01*
X127635250Y-146754419D01*
X127656074Y-146749203D01*
X127677309Y-146746053D01*
X127698750Y-146745000D01*
X128136250Y-146745000D01*
X128157691Y-146746053D01*
G37*
G36*
X126582691Y-146746053D02*
G01*
X126603926Y-146749203D01*
X126624750Y-146754419D01*
X126644962Y-146761651D01*
X126664368Y-146770830D01*
X126682781Y-146781866D01*
X126700024Y-146794654D01*
X126715930Y-146809070D01*
X126730346Y-146824976D01*
X126743134Y-146842219D01*
X126754170Y-146860632D01*
X126763349Y-146880038D01*
X126770581Y-146900250D01*
X126775797Y-146921074D01*
X126778947Y-146942309D01*
X126780000Y-146963750D01*
X126780000Y-147476250D01*
X126778947Y-147497691D01*
X126775797Y-147518926D01*
X126770581Y-147539750D01*
X126763349Y-147559962D01*
X126754170Y-147579368D01*
X126743134Y-147597781D01*
X126730346Y-147615024D01*
X126715930Y-147630930D01*
X126700024Y-147645346D01*
X126682781Y-147658134D01*
X126664368Y-147669170D01*
X126644962Y-147678349D01*
X126624750Y-147685581D01*
X126603926Y-147690797D01*
X126582691Y-147693947D01*
X126561250Y-147695000D01*
X126123750Y-147695000D01*
X126102309Y-147693947D01*
X126081074Y-147690797D01*
X126060250Y-147685581D01*
X126040038Y-147678349D01*
X126020632Y-147669170D01*
X126002219Y-147658134D01*
X125984976Y-147645346D01*
X125969070Y-147630930D01*
X125954654Y-147615024D01*
X125941866Y-147597781D01*
X125930830Y-147579368D01*
X125921651Y-147559962D01*
X125914419Y-147539750D01*
X125909203Y-147518926D01*
X125906053Y-147497691D01*
X125905000Y-147476250D01*
X125905000Y-146963750D01*
X125906053Y-146942309D01*
X125909203Y-146921074D01*
X125914419Y-146900250D01*
X125921651Y-146880038D01*
X125930830Y-146860632D01*
X125941866Y-146842219D01*
X125954654Y-146824976D01*
X125969070Y-146809070D01*
X125984976Y-146794654D01*
X126002219Y-146781866D01*
X126020632Y-146770830D01*
X126040038Y-146761651D01*
X126060250Y-146754419D01*
X126081074Y-146749203D01*
X126102309Y-146746053D01*
X126123750Y-146745000D01*
X126561250Y-146745000D01*
X126582691Y-146746053D01*
G37*
G36*
X126492691Y-151736053D02*
G01*
X126513926Y-151739203D01*
X126534750Y-151744419D01*
X126554962Y-151751651D01*
X126574368Y-151760830D01*
X126592781Y-151771866D01*
X126610024Y-151784654D01*
X126625930Y-151799070D01*
X126640346Y-151814976D01*
X126653134Y-151832219D01*
X126664170Y-151850632D01*
X126673349Y-151870038D01*
X126680581Y-151890250D01*
X126685797Y-151911074D01*
X126688947Y-151932309D01*
X126690000Y-151953750D01*
X126690000Y-152466250D01*
X126688947Y-152487691D01*
X126685797Y-152508926D01*
X126680581Y-152529750D01*
X126673349Y-152549962D01*
X126664170Y-152569368D01*
X126653134Y-152587781D01*
X126640346Y-152605024D01*
X126625930Y-152620930D01*
X126610024Y-152635346D01*
X126592781Y-152648134D01*
X126574368Y-152659170D01*
X126554962Y-152668349D01*
X126534750Y-152675581D01*
X126513926Y-152680797D01*
X126492691Y-152683947D01*
X126471250Y-152685000D01*
X126033750Y-152685000D01*
X126012309Y-152683947D01*
X125991074Y-152680797D01*
X125970250Y-152675581D01*
X125950038Y-152668349D01*
X125930632Y-152659170D01*
X125912219Y-152648134D01*
X125894976Y-152635346D01*
X125879070Y-152620930D01*
X125864654Y-152605024D01*
X125851866Y-152587781D01*
X125840830Y-152569368D01*
X125831651Y-152549962D01*
X125824419Y-152529750D01*
X125819203Y-152508926D01*
X125816053Y-152487691D01*
X125815000Y-152466250D01*
X125815000Y-151953750D01*
X125816053Y-151932309D01*
X125819203Y-151911074D01*
X125824419Y-151890250D01*
X125831651Y-151870038D01*
X125840830Y-151850632D01*
X125851866Y-151832219D01*
X125864654Y-151814976D01*
X125879070Y-151799070D01*
X125894976Y-151784654D01*
X125912219Y-151771866D01*
X125930632Y-151760830D01*
X125950038Y-151751651D01*
X125970250Y-151744419D01*
X125991074Y-151739203D01*
X126012309Y-151736053D01*
X126033750Y-151735000D01*
X126471250Y-151735000D01*
X126492691Y-151736053D01*
G37*
G36*
X128067691Y-151736053D02*
G01*
X128088926Y-151739203D01*
X128109750Y-151744419D01*
X128129962Y-151751651D01*
X128149368Y-151760830D01*
X128167781Y-151771866D01*
X128185024Y-151784654D01*
X128200930Y-151799070D01*
X128215346Y-151814976D01*
X128228134Y-151832219D01*
X128239170Y-151850632D01*
X128248349Y-151870038D01*
X128255581Y-151890250D01*
X128260797Y-151911074D01*
X128263947Y-151932309D01*
X128265000Y-151953750D01*
X128265000Y-152466250D01*
X128263947Y-152487691D01*
X128260797Y-152508926D01*
X128255581Y-152529750D01*
X128248349Y-152549962D01*
X128239170Y-152569368D01*
X128228134Y-152587781D01*
X128215346Y-152605024D01*
X128200930Y-152620930D01*
X128185024Y-152635346D01*
X128167781Y-152648134D01*
X128149368Y-152659170D01*
X128129962Y-152668349D01*
X128109750Y-152675581D01*
X128088926Y-152680797D01*
X128067691Y-152683947D01*
X128046250Y-152685000D01*
X127608750Y-152685000D01*
X127587309Y-152683947D01*
X127566074Y-152680797D01*
X127545250Y-152675581D01*
X127525038Y-152668349D01*
X127505632Y-152659170D01*
X127487219Y-152648134D01*
X127469976Y-152635346D01*
X127454070Y-152620930D01*
X127439654Y-152605024D01*
X127426866Y-152587781D01*
X127415830Y-152569368D01*
X127406651Y-152549962D01*
X127399419Y-152529750D01*
X127394203Y-152508926D01*
X127391053Y-152487691D01*
X127390000Y-152466250D01*
X127390000Y-151953750D01*
X127391053Y-151932309D01*
X127394203Y-151911074D01*
X127399419Y-151890250D01*
X127406651Y-151870038D01*
X127415830Y-151850632D01*
X127426866Y-151832219D01*
X127439654Y-151814976D01*
X127454070Y-151799070D01*
X127469976Y-151784654D01*
X127487219Y-151771866D01*
X127505632Y-151760830D01*
X127525038Y-151751651D01*
X127545250Y-151744419D01*
X127566074Y-151739203D01*
X127587309Y-151736053D01*
X127608750Y-151735000D01*
X128046250Y-151735000D01*
X128067691Y-151736053D01*
G37*
G36*
X124717691Y-120441053D02*
G01*
X124738926Y-120444203D01*
X124759750Y-120449419D01*
X124779962Y-120456651D01*
X124799368Y-120465830D01*
X124817781Y-120476866D01*
X124835024Y-120489654D01*
X124850930Y-120504070D01*
X124865346Y-120519976D01*
X124878134Y-120537219D01*
X124889170Y-120555632D01*
X124898349Y-120575038D01*
X124905581Y-120595250D01*
X124910797Y-120616074D01*
X124913947Y-120637309D01*
X124915000Y-120658750D01*
X124915000Y-121096250D01*
X124913947Y-121117691D01*
X124910797Y-121138926D01*
X124905581Y-121159750D01*
X124898349Y-121179962D01*
X124889170Y-121199368D01*
X124878134Y-121217781D01*
X124865346Y-121235024D01*
X124850930Y-121250930D01*
X124835024Y-121265346D01*
X124817781Y-121278134D01*
X124799368Y-121289170D01*
X124779962Y-121298349D01*
X124759750Y-121305581D01*
X124738926Y-121310797D01*
X124717691Y-121313947D01*
X124696250Y-121315000D01*
X124183750Y-121315000D01*
X124162309Y-121313947D01*
X124141074Y-121310797D01*
X124120250Y-121305581D01*
X124100038Y-121298349D01*
X124080632Y-121289170D01*
X124062219Y-121278134D01*
X124044976Y-121265346D01*
X124029070Y-121250930D01*
X124014654Y-121235024D01*
X124001866Y-121217781D01*
X123990830Y-121199368D01*
X123981651Y-121179962D01*
X123974419Y-121159750D01*
X123969203Y-121138926D01*
X123966053Y-121117691D01*
X123965000Y-121096250D01*
X123965000Y-120658750D01*
X123966053Y-120637309D01*
X123969203Y-120616074D01*
X123974419Y-120595250D01*
X123981651Y-120575038D01*
X123990830Y-120555632D01*
X124001866Y-120537219D01*
X124014654Y-120519976D01*
X124029070Y-120504070D01*
X124044976Y-120489654D01*
X124062219Y-120476866D01*
X124080632Y-120465830D01*
X124100038Y-120456651D01*
X124120250Y-120449419D01*
X124141074Y-120444203D01*
X124162309Y-120441053D01*
X124183750Y-120440000D01*
X124696250Y-120440000D01*
X124717691Y-120441053D01*
G37*
G36*
X124717691Y-118866053D02*
G01*
X124738926Y-118869203D01*
X124759750Y-118874419D01*
X124779962Y-118881651D01*
X124799368Y-118890830D01*
X124817781Y-118901866D01*
X124835024Y-118914654D01*
X124850930Y-118929070D01*
X124865346Y-118944976D01*
X124878134Y-118962219D01*
X124889170Y-118980632D01*
X124898349Y-119000038D01*
X124905581Y-119020250D01*
X124910797Y-119041074D01*
X124913947Y-119062309D01*
X124915000Y-119083750D01*
X124915000Y-119521250D01*
X124913947Y-119542691D01*
X124910797Y-119563926D01*
X124905581Y-119584750D01*
X124898349Y-119604962D01*
X124889170Y-119624368D01*
X124878134Y-119642781D01*
X124865346Y-119660024D01*
X124850930Y-119675930D01*
X124835024Y-119690346D01*
X124817781Y-119703134D01*
X124799368Y-119714170D01*
X124779962Y-119723349D01*
X124759750Y-119730581D01*
X124738926Y-119735797D01*
X124717691Y-119738947D01*
X124696250Y-119740000D01*
X124183750Y-119740000D01*
X124162309Y-119738947D01*
X124141074Y-119735797D01*
X124120250Y-119730581D01*
X124100038Y-119723349D01*
X124080632Y-119714170D01*
X124062219Y-119703134D01*
X124044976Y-119690346D01*
X124029070Y-119675930D01*
X124014654Y-119660024D01*
X124001866Y-119642781D01*
X123990830Y-119624368D01*
X123981651Y-119604962D01*
X123974419Y-119584750D01*
X123969203Y-119563926D01*
X123966053Y-119542691D01*
X123965000Y-119521250D01*
X123965000Y-119083750D01*
X123966053Y-119062309D01*
X123969203Y-119041074D01*
X123974419Y-119020250D01*
X123981651Y-119000038D01*
X123990830Y-118980632D01*
X124001866Y-118962219D01*
X124014654Y-118944976D01*
X124029070Y-118929070D01*
X124044976Y-118914654D01*
X124062219Y-118901866D01*
X124080632Y-118890830D01*
X124100038Y-118881651D01*
X124120250Y-118874419D01*
X124141074Y-118869203D01*
X124162309Y-118866053D01*
X124183750Y-118865000D01*
X124696250Y-118865000D01*
X124717691Y-118866053D01*
G37*
G36*
X124147691Y-132646053D02*
G01*
X124168926Y-132649203D01*
X124189750Y-132654419D01*
X124209962Y-132661651D01*
X124229368Y-132670830D01*
X124247781Y-132681866D01*
X124265024Y-132694654D01*
X124280930Y-132709070D01*
X124295346Y-132724976D01*
X124308134Y-132742219D01*
X124319170Y-132760632D01*
X124328349Y-132780038D01*
X124335581Y-132800250D01*
X124340797Y-132821074D01*
X124343947Y-132842309D01*
X124345000Y-132863750D01*
X124345000Y-133301250D01*
X124343947Y-133322691D01*
X124340797Y-133343926D01*
X124335581Y-133364750D01*
X124328349Y-133384962D01*
X124319170Y-133404368D01*
X124308134Y-133422781D01*
X124295346Y-133440024D01*
X124280930Y-133455930D01*
X124265024Y-133470346D01*
X124247781Y-133483134D01*
X124229368Y-133494170D01*
X124209962Y-133503349D01*
X124189750Y-133510581D01*
X124168926Y-133515797D01*
X124147691Y-133518947D01*
X124126250Y-133520000D01*
X123613750Y-133520000D01*
X123592309Y-133518947D01*
X123571074Y-133515797D01*
X123550250Y-133510581D01*
X123530038Y-133503349D01*
X123510632Y-133494170D01*
X123492219Y-133483134D01*
X123474976Y-133470346D01*
X123459070Y-133455930D01*
X123444654Y-133440024D01*
X123431866Y-133422781D01*
X123420830Y-133404368D01*
X123411651Y-133384962D01*
X123404419Y-133364750D01*
X123399203Y-133343926D01*
X123396053Y-133322691D01*
X123395000Y-133301250D01*
X123395000Y-132863750D01*
X123396053Y-132842309D01*
X123399203Y-132821074D01*
X123404419Y-132800250D01*
X123411651Y-132780038D01*
X123420830Y-132760632D01*
X123431866Y-132742219D01*
X123444654Y-132724976D01*
X123459070Y-132709070D01*
X123474976Y-132694654D01*
X123492219Y-132681866D01*
X123510632Y-132670830D01*
X123530038Y-132661651D01*
X123550250Y-132654419D01*
X123571074Y-132649203D01*
X123592309Y-132646053D01*
X123613750Y-132645000D01*
X124126250Y-132645000D01*
X124147691Y-132646053D01*
G37*
G36*
X124147691Y-134221053D02*
G01*
X124168926Y-134224203D01*
X124189750Y-134229419D01*
X124209962Y-134236651D01*
X124229368Y-134245830D01*
X124247781Y-134256866D01*
X124265024Y-134269654D01*
X124280930Y-134284070D01*
X124295346Y-134299976D01*
X124308134Y-134317219D01*
X124319170Y-134335632D01*
X124328349Y-134355038D01*
X124335581Y-134375250D01*
X124340797Y-134396074D01*
X124343947Y-134417309D01*
X124345000Y-134438750D01*
X124345000Y-134876250D01*
X124343947Y-134897691D01*
X124340797Y-134918926D01*
X124335581Y-134939750D01*
X124328349Y-134959962D01*
X124319170Y-134979368D01*
X124308134Y-134997781D01*
X124295346Y-135015024D01*
X124280930Y-135030930D01*
X124265024Y-135045346D01*
X124247781Y-135058134D01*
X124229368Y-135069170D01*
X124209962Y-135078349D01*
X124189750Y-135085581D01*
X124168926Y-135090797D01*
X124147691Y-135093947D01*
X124126250Y-135095000D01*
X123613750Y-135095000D01*
X123592309Y-135093947D01*
X123571074Y-135090797D01*
X123550250Y-135085581D01*
X123530038Y-135078349D01*
X123510632Y-135069170D01*
X123492219Y-135058134D01*
X123474976Y-135045346D01*
X123459070Y-135030930D01*
X123444654Y-135015024D01*
X123431866Y-134997781D01*
X123420830Y-134979368D01*
X123411651Y-134959962D01*
X123404419Y-134939750D01*
X123399203Y-134918926D01*
X123396053Y-134897691D01*
X123395000Y-134876250D01*
X123395000Y-134438750D01*
X123396053Y-134417309D01*
X123399203Y-134396074D01*
X123404419Y-134375250D01*
X123411651Y-134355038D01*
X123420830Y-134335632D01*
X123431866Y-134317219D01*
X123444654Y-134299976D01*
X123459070Y-134284070D01*
X123474976Y-134269654D01*
X123492219Y-134256866D01*
X123510632Y-134245830D01*
X123530038Y-134236651D01*
X123550250Y-134229419D01*
X123571074Y-134224203D01*
X123592309Y-134221053D01*
X123613750Y-134220000D01*
X124126250Y-134220000D01*
X124147691Y-134221053D01*
G37*
M02*
