G04 #@! TF.GenerationSoftware,KiCad,Pcbnew,(5.1.5)-3*
G04 #@! TF.CreationDate,2020-02-20T17:55:49-08:00*
G04 #@! TF.ProjectId,SimpleF303,53696d70-6c65-4463-9330-332e6b696361,0.1*
G04 #@! TF.SameCoordinates,Original*
G04 #@! TF.FileFunction,Soldermask,Top*
G04 #@! TF.FilePolarity,Negative*
%FSLAX46Y46*%
G04 Gerber Fmt 4.6, Leading zero omitted, Abs format (unit mm)*
G04 Created by KiCad (PCBNEW (5.1.5)-3) date 2020-02-20 17:55:49*
%MOMM*%
%LPD*%
G04 APERTURE LIST*
%ADD10C,0.100000*%
G04 APERTURE END LIST*
D10*
G36*
X146114794Y-170870155D02*
G01*
X146221150Y-170891311D01*
X146421520Y-170974307D01*
X146601844Y-171094795D01*
X146755205Y-171248156D01*
X146875693Y-171428480D01*
X146958689Y-171628851D01*
X147001000Y-171841560D01*
X147001000Y-172058440D01*
X146958689Y-172271149D01*
X146875693Y-172471520D01*
X146755205Y-172651844D01*
X146601844Y-172805205D01*
X146421520Y-172925693D01*
X146321334Y-172967191D01*
X146221150Y-173008689D01*
X146114795Y-173029844D01*
X146008440Y-173051000D01*
X145791560Y-173051000D01*
X145685205Y-173029844D01*
X145578850Y-173008689D01*
X145478666Y-172967191D01*
X145378480Y-172925693D01*
X145198156Y-172805205D01*
X145044795Y-172651844D01*
X144924307Y-172471520D01*
X144841311Y-172271149D01*
X144799000Y-172058440D01*
X144799000Y-171841560D01*
X144841311Y-171628851D01*
X144924307Y-171428480D01*
X145044795Y-171248156D01*
X145198156Y-171094795D01*
X145378480Y-170974307D01*
X145478666Y-170932809D01*
X145578850Y-170891311D01*
X145685206Y-170870155D01*
X145791560Y-170849000D01*
X146008440Y-170849000D01*
X146114794Y-170870155D01*
G37*
G36*
X111114794Y-170870155D02*
G01*
X111221150Y-170891311D01*
X111421520Y-170974307D01*
X111601844Y-171094795D01*
X111755205Y-171248156D01*
X111875693Y-171428480D01*
X111958689Y-171628851D01*
X112001000Y-171841560D01*
X112001000Y-172058440D01*
X111958689Y-172271149D01*
X111875693Y-172471520D01*
X111755205Y-172651844D01*
X111601844Y-172805205D01*
X111421520Y-172925693D01*
X111321334Y-172967191D01*
X111221150Y-173008689D01*
X111114795Y-173029844D01*
X111008440Y-173051000D01*
X110791560Y-173051000D01*
X110685205Y-173029844D01*
X110578850Y-173008689D01*
X110478666Y-172967191D01*
X110378480Y-172925693D01*
X110198156Y-172805205D01*
X110044795Y-172651844D01*
X109924307Y-172471520D01*
X109841311Y-172271149D01*
X109799000Y-172058440D01*
X109799000Y-171841560D01*
X109841311Y-171628851D01*
X109924307Y-171428480D01*
X110044795Y-171248156D01*
X110198156Y-171094795D01*
X110378480Y-170974307D01*
X110578850Y-170891311D01*
X110685206Y-170870155D01*
X110791560Y-170849000D01*
X111008440Y-170849000D01*
X111114794Y-170870155D01*
G37*
G36*
X146013512Y-166913927D02*
G01*
X146162812Y-166943624D01*
X146326784Y-167011544D01*
X146474354Y-167110147D01*
X146599853Y-167235646D01*
X146698456Y-167383216D01*
X146766376Y-167547188D01*
X146801000Y-167721259D01*
X146801000Y-167898741D01*
X146766376Y-168072812D01*
X146698456Y-168236784D01*
X146599853Y-168384354D01*
X146474354Y-168509853D01*
X146326784Y-168608456D01*
X146162812Y-168676376D01*
X146013512Y-168706073D01*
X145988742Y-168711000D01*
X145811258Y-168711000D01*
X145786488Y-168706073D01*
X145637188Y-168676376D01*
X145473216Y-168608456D01*
X145325646Y-168509853D01*
X145200147Y-168384354D01*
X145101544Y-168236784D01*
X145033624Y-168072812D01*
X144999000Y-167898741D01*
X144999000Y-167721259D01*
X145033624Y-167547188D01*
X145101544Y-167383216D01*
X145200147Y-167235646D01*
X145325646Y-167110147D01*
X145473216Y-167011544D01*
X145637188Y-166943624D01*
X145786488Y-166913927D01*
X145811258Y-166909000D01*
X145988742Y-166909000D01*
X146013512Y-166913927D01*
G37*
G36*
X111013512Y-166913927D02*
G01*
X111162812Y-166943624D01*
X111326784Y-167011544D01*
X111474354Y-167110147D01*
X111599853Y-167235646D01*
X111698456Y-167383216D01*
X111766376Y-167547188D01*
X111801000Y-167721259D01*
X111801000Y-167898741D01*
X111766376Y-168072812D01*
X111698456Y-168236784D01*
X111599853Y-168384354D01*
X111474354Y-168509853D01*
X111326784Y-168608456D01*
X111162812Y-168676376D01*
X111013512Y-168706073D01*
X110988742Y-168711000D01*
X110811258Y-168711000D01*
X110786488Y-168706073D01*
X110637188Y-168676376D01*
X110473216Y-168608456D01*
X110325646Y-168509853D01*
X110200147Y-168384354D01*
X110101544Y-168236784D01*
X110033624Y-168072812D01*
X109999000Y-167898741D01*
X109999000Y-167721259D01*
X110033624Y-167547188D01*
X110101544Y-167383216D01*
X110200147Y-167235646D01*
X110325646Y-167110147D01*
X110473216Y-167011544D01*
X110637188Y-166943624D01*
X110786488Y-166913927D01*
X110811258Y-166909000D01*
X110988742Y-166909000D01*
X111013512Y-166913927D01*
G37*
G36*
X146013512Y-164373927D02*
G01*
X146162812Y-164403624D01*
X146326784Y-164471544D01*
X146474354Y-164570147D01*
X146599853Y-164695646D01*
X146698456Y-164843216D01*
X146766376Y-165007188D01*
X146801000Y-165181259D01*
X146801000Y-165358741D01*
X146766376Y-165532812D01*
X146698456Y-165696784D01*
X146599853Y-165844354D01*
X146474354Y-165969853D01*
X146326784Y-166068456D01*
X146162812Y-166136376D01*
X146013512Y-166166073D01*
X145988742Y-166171000D01*
X145811258Y-166171000D01*
X145786488Y-166166073D01*
X145637188Y-166136376D01*
X145473216Y-166068456D01*
X145325646Y-165969853D01*
X145200147Y-165844354D01*
X145101544Y-165696784D01*
X145033624Y-165532812D01*
X144999000Y-165358741D01*
X144999000Y-165181259D01*
X145033624Y-165007188D01*
X145101544Y-164843216D01*
X145200147Y-164695646D01*
X145325646Y-164570147D01*
X145473216Y-164471544D01*
X145637188Y-164403624D01*
X145786488Y-164373927D01*
X145811258Y-164369000D01*
X145988742Y-164369000D01*
X146013512Y-164373927D01*
G37*
G36*
X111013512Y-164373927D02*
G01*
X111162812Y-164403624D01*
X111326784Y-164471544D01*
X111474354Y-164570147D01*
X111599853Y-164695646D01*
X111698456Y-164843216D01*
X111766376Y-165007188D01*
X111801000Y-165181259D01*
X111801000Y-165358741D01*
X111766376Y-165532812D01*
X111698456Y-165696784D01*
X111599853Y-165844354D01*
X111474354Y-165969853D01*
X111326784Y-166068456D01*
X111162812Y-166136376D01*
X111013512Y-166166073D01*
X110988742Y-166171000D01*
X110811258Y-166171000D01*
X110786488Y-166166073D01*
X110637188Y-166136376D01*
X110473216Y-166068456D01*
X110325646Y-165969853D01*
X110200147Y-165844354D01*
X110101544Y-165696784D01*
X110033624Y-165532812D01*
X109999000Y-165358741D01*
X109999000Y-165181259D01*
X110033624Y-165007188D01*
X110101544Y-164843216D01*
X110200147Y-164695646D01*
X110325646Y-164570147D01*
X110473216Y-164471544D01*
X110637188Y-164403624D01*
X110786488Y-164373927D01*
X110811258Y-164369000D01*
X110988742Y-164369000D01*
X111013512Y-164373927D01*
G37*
G36*
X146013512Y-161833927D02*
G01*
X146162812Y-161863624D01*
X146326784Y-161931544D01*
X146474354Y-162030147D01*
X146599853Y-162155646D01*
X146698456Y-162303216D01*
X146766376Y-162467188D01*
X146801000Y-162641259D01*
X146801000Y-162818741D01*
X146766376Y-162992812D01*
X146698456Y-163156784D01*
X146599853Y-163304354D01*
X146474354Y-163429853D01*
X146326784Y-163528456D01*
X146162812Y-163596376D01*
X146013512Y-163626073D01*
X145988742Y-163631000D01*
X145811258Y-163631000D01*
X145786488Y-163626073D01*
X145637188Y-163596376D01*
X145473216Y-163528456D01*
X145325646Y-163429853D01*
X145200147Y-163304354D01*
X145101544Y-163156784D01*
X145033624Y-162992812D01*
X144999000Y-162818741D01*
X144999000Y-162641259D01*
X145033624Y-162467188D01*
X145101544Y-162303216D01*
X145200147Y-162155646D01*
X145325646Y-162030147D01*
X145473216Y-161931544D01*
X145637188Y-161863624D01*
X145786488Y-161833927D01*
X145811258Y-161829000D01*
X145988742Y-161829000D01*
X146013512Y-161833927D01*
G37*
G36*
X111013512Y-161833927D02*
G01*
X111162812Y-161863624D01*
X111326784Y-161931544D01*
X111474354Y-162030147D01*
X111599853Y-162155646D01*
X111698456Y-162303216D01*
X111766376Y-162467188D01*
X111801000Y-162641259D01*
X111801000Y-162818741D01*
X111766376Y-162992812D01*
X111698456Y-163156784D01*
X111599853Y-163304354D01*
X111474354Y-163429853D01*
X111326784Y-163528456D01*
X111162812Y-163596376D01*
X111013512Y-163626073D01*
X110988742Y-163631000D01*
X110811258Y-163631000D01*
X110786488Y-163626073D01*
X110637188Y-163596376D01*
X110473216Y-163528456D01*
X110325646Y-163429853D01*
X110200147Y-163304354D01*
X110101544Y-163156784D01*
X110033624Y-162992812D01*
X109999000Y-162818741D01*
X109999000Y-162641259D01*
X110033624Y-162467188D01*
X110101544Y-162303216D01*
X110200147Y-162155646D01*
X110325646Y-162030147D01*
X110473216Y-161931544D01*
X110637188Y-161863624D01*
X110786488Y-161833927D01*
X110811258Y-161829000D01*
X110988742Y-161829000D01*
X111013512Y-161833927D01*
G37*
G36*
X146013512Y-159293927D02*
G01*
X146162812Y-159323624D01*
X146326784Y-159391544D01*
X146474354Y-159490147D01*
X146599853Y-159615646D01*
X146698456Y-159763216D01*
X146766376Y-159927188D01*
X146801000Y-160101259D01*
X146801000Y-160278741D01*
X146766376Y-160452812D01*
X146698456Y-160616784D01*
X146599853Y-160764354D01*
X146474354Y-160889853D01*
X146326784Y-160988456D01*
X146162812Y-161056376D01*
X146013512Y-161086073D01*
X145988742Y-161091000D01*
X145811258Y-161091000D01*
X145786488Y-161086073D01*
X145637188Y-161056376D01*
X145473216Y-160988456D01*
X145325646Y-160889853D01*
X145200147Y-160764354D01*
X145101544Y-160616784D01*
X145033624Y-160452812D01*
X144999000Y-160278741D01*
X144999000Y-160101259D01*
X145033624Y-159927188D01*
X145101544Y-159763216D01*
X145200147Y-159615646D01*
X145325646Y-159490147D01*
X145473216Y-159391544D01*
X145637188Y-159323624D01*
X145786488Y-159293927D01*
X145811258Y-159289000D01*
X145988742Y-159289000D01*
X146013512Y-159293927D01*
G37*
G36*
X111013512Y-159293927D02*
G01*
X111162812Y-159323624D01*
X111326784Y-159391544D01*
X111474354Y-159490147D01*
X111599853Y-159615646D01*
X111698456Y-159763216D01*
X111766376Y-159927188D01*
X111801000Y-160101259D01*
X111801000Y-160278741D01*
X111766376Y-160452812D01*
X111698456Y-160616784D01*
X111599853Y-160764354D01*
X111474354Y-160889853D01*
X111326784Y-160988456D01*
X111162812Y-161056376D01*
X111013512Y-161086073D01*
X110988742Y-161091000D01*
X110811258Y-161091000D01*
X110786488Y-161086073D01*
X110637188Y-161056376D01*
X110473216Y-160988456D01*
X110325646Y-160889853D01*
X110200147Y-160764354D01*
X110101544Y-160616784D01*
X110033624Y-160452812D01*
X109999000Y-160278741D01*
X109999000Y-160101259D01*
X110033624Y-159927188D01*
X110101544Y-159763216D01*
X110200147Y-159615646D01*
X110325646Y-159490147D01*
X110473216Y-159391544D01*
X110637188Y-159323624D01*
X110786488Y-159293927D01*
X110811258Y-159289000D01*
X110988742Y-159289000D01*
X111013512Y-159293927D01*
G37*
G36*
X111013512Y-156753927D02*
G01*
X111162812Y-156783624D01*
X111326784Y-156851544D01*
X111474354Y-156950147D01*
X111599853Y-157075646D01*
X111698456Y-157223216D01*
X111766376Y-157387188D01*
X111801000Y-157561259D01*
X111801000Y-157738741D01*
X111766376Y-157912812D01*
X111698456Y-158076784D01*
X111599853Y-158224354D01*
X111474354Y-158349853D01*
X111326784Y-158448456D01*
X111162812Y-158516376D01*
X111013512Y-158546073D01*
X110988742Y-158551000D01*
X110811258Y-158551000D01*
X110786488Y-158546073D01*
X110637188Y-158516376D01*
X110473216Y-158448456D01*
X110325646Y-158349853D01*
X110200147Y-158224354D01*
X110101544Y-158076784D01*
X110033624Y-157912812D01*
X109999000Y-157738741D01*
X109999000Y-157561259D01*
X110033624Y-157387188D01*
X110101544Y-157223216D01*
X110200147Y-157075646D01*
X110325646Y-156950147D01*
X110473216Y-156851544D01*
X110637188Y-156783624D01*
X110786488Y-156753927D01*
X110811258Y-156749000D01*
X110988742Y-156749000D01*
X111013512Y-156753927D01*
G37*
G36*
X146013512Y-156753927D02*
G01*
X146162812Y-156783624D01*
X146326784Y-156851544D01*
X146474354Y-156950147D01*
X146599853Y-157075646D01*
X146698456Y-157223216D01*
X146766376Y-157387188D01*
X146801000Y-157561259D01*
X146801000Y-157738741D01*
X146766376Y-157912812D01*
X146698456Y-158076784D01*
X146599853Y-158224354D01*
X146474354Y-158349853D01*
X146326784Y-158448456D01*
X146162812Y-158516376D01*
X146013512Y-158546073D01*
X145988742Y-158551000D01*
X145811258Y-158551000D01*
X145786488Y-158546073D01*
X145637188Y-158516376D01*
X145473216Y-158448456D01*
X145325646Y-158349853D01*
X145200147Y-158224354D01*
X145101544Y-158076784D01*
X145033624Y-157912812D01*
X144999000Y-157738741D01*
X144999000Y-157561259D01*
X145033624Y-157387188D01*
X145101544Y-157223216D01*
X145200147Y-157075646D01*
X145325646Y-156950147D01*
X145473216Y-156851544D01*
X145637188Y-156783624D01*
X145786488Y-156753927D01*
X145811258Y-156749000D01*
X145988742Y-156749000D01*
X146013512Y-156753927D01*
G37*
G36*
X111013512Y-154213927D02*
G01*
X111162812Y-154243624D01*
X111326784Y-154311544D01*
X111474354Y-154410147D01*
X111599853Y-154535646D01*
X111698456Y-154683216D01*
X111766376Y-154847188D01*
X111801000Y-155021259D01*
X111801000Y-155198741D01*
X111766376Y-155372812D01*
X111698456Y-155536784D01*
X111599853Y-155684354D01*
X111474354Y-155809853D01*
X111326784Y-155908456D01*
X111162812Y-155976376D01*
X111013512Y-156006073D01*
X110988742Y-156011000D01*
X110811258Y-156011000D01*
X110786488Y-156006073D01*
X110637188Y-155976376D01*
X110473216Y-155908456D01*
X110325646Y-155809853D01*
X110200147Y-155684354D01*
X110101544Y-155536784D01*
X110033624Y-155372812D01*
X109999000Y-155198741D01*
X109999000Y-155021259D01*
X110033624Y-154847188D01*
X110101544Y-154683216D01*
X110200147Y-154535646D01*
X110325646Y-154410147D01*
X110473216Y-154311544D01*
X110637188Y-154243624D01*
X110786488Y-154213927D01*
X110811258Y-154209000D01*
X110988742Y-154209000D01*
X111013512Y-154213927D01*
G37*
G36*
X146013512Y-154213927D02*
G01*
X146162812Y-154243624D01*
X146326784Y-154311544D01*
X146474354Y-154410147D01*
X146599853Y-154535646D01*
X146698456Y-154683216D01*
X146766376Y-154847188D01*
X146801000Y-155021259D01*
X146801000Y-155198741D01*
X146766376Y-155372812D01*
X146698456Y-155536784D01*
X146599853Y-155684354D01*
X146474354Y-155809853D01*
X146326784Y-155908456D01*
X146162812Y-155976376D01*
X146013512Y-156006073D01*
X145988742Y-156011000D01*
X145811258Y-156011000D01*
X145786488Y-156006073D01*
X145637188Y-155976376D01*
X145473216Y-155908456D01*
X145325646Y-155809853D01*
X145200147Y-155684354D01*
X145101544Y-155536784D01*
X145033624Y-155372812D01*
X144999000Y-155198741D01*
X144999000Y-155021259D01*
X145033624Y-154847188D01*
X145101544Y-154683216D01*
X145200147Y-154535646D01*
X145325646Y-154410147D01*
X145473216Y-154311544D01*
X145637188Y-154243624D01*
X145786488Y-154213927D01*
X145811258Y-154209000D01*
X145988742Y-154209000D01*
X146013512Y-154213927D01*
G37*
G36*
X128329591Y-153353085D02*
G01*
X128363569Y-153363393D01*
X128394890Y-153380134D01*
X128422339Y-153402661D01*
X128444866Y-153430110D01*
X128461607Y-153461431D01*
X128471915Y-153495409D01*
X128476000Y-153536890D01*
X128476000Y-154138110D01*
X128471915Y-154179591D01*
X128461607Y-154213569D01*
X128444866Y-154244890D01*
X128422339Y-154272339D01*
X128394890Y-154294866D01*
X128363569Y-154311607D01*
X128329591Y-154321915D01*
X128288110Y-154326000D01*
X127611890Y-154326000D01*
X127570409Y-154321915D01*
X127536431Y-154311607D01*
X127505110Y-154294866D01*
X127477661Y-154272339D01*
X127455134Y-154244890D01*
X127438393Y-154213569D01*
X127428085Y-154179591D01*
X127424000Y-154138110D01*
X127424000Y-153536890D01*
X127428085Y-153495409D01*
X127438393Y-153461431D01*
X127455134Y-153430110D01*
X127477661Y-153402661D01*
X127505110Y-153380134D01*
X127536431Y-153363393D01*
X127570409Y-153353085D01*
X127611890Y-153349000D01*
X128288110Y-153349000D01*
X128329591Y-153353085D01*
G37*
G36*
X124979591Y-153353085D02*
G01*
X125013569Y-153363393D01*
X125044890Y-153380134D01*
X125072339Y-153402661D01*
X125094866Y-153430110D01*
X125111607Y-153461431D01*
X125121915Y-153495409D01*
X125126000Y-153536890D01*
X125126000Y-154138110D01*
X125121915Y-154179591D01*
X125111607Y-154213569D01*
X125094866Y-154244890D01*
X125072339Y-154272339D01*
X125044890Y-154294866D01*
X125013569Y-154311607D01*
X124979591Y-154321915D01*
X124938110Y-154326000D01*
X124261890Y-154326000D01*
X124220409Y-154321915D01*
X124186431Y-154311607D01*
X124155110Y-154294866D01*
X124127661Y-154272339D01*
X124105134Y-154244890D01*
X124088393Y-154213569D01*
X124078085Y-154179591D01*
X124074000Y-154138110D01*
X124074000Y-153536890D01*
X124078085Y-153495409D01*
X124088393Y-153461431D01*
X124105134Y-153430110D01*
X124127661Y-153402661D01*
X124155110Y-153380134D01*
X124186431Y-153363393D01*
X124220409Y-153353085D01*
X124261890Y-153349000D01*
X124938110Y-153349000D01*
X124979591Y-153353085D01*
G37*
G36*
X146013512Y-151673927D02*
G01*
X146162812Y-151703624D01*
X146326784Y-151771544D01*
X146474354Y-151870147D01*
X146599853Y-151995646D01*
X146698456Y-152143216D01*
X146766376Y-152307188D01*
X146801000Y-152481259D01*
X146801000Y-152658741D01*
X146766376Y-152832812D01*
X146698456Y-152996784D01*
X146599853Y-153144354D01*
X146474354Y-153269853D01*
X146326784Y-153368456D01*
X146162812Y-153436376D01*
X146013512Y-153466073D01*
X145988742Y-153471000D01*
X145811258Y-153471000D01*
X145786488Y-153466073D01*
X145637188Y-153436376D01*
X145473216Y-153368456D01*
X145325646Y-153269853D01*
X145200147Y-153144354D01*
X145101544Y-152996784D01*
X145033624Y-152832812D01*
X144999000Y-152658741D01*
X144999000Y-152481259D01*
X145033624Y-152307188D01*
X145101544Y-152143216D01*
X145200147Y-151995646D01*
X145325646Y-151870147D01*
X145473216Y-151771544D01*
X145637188Y-151703624D01*
X145786488Y-151673927D01*
X145811258Y-151669000D01*
X145988742Y-151669000D01*
X146013512Y-151673927D01*
G37*
G36*
X111013512Y-151673927D02*
G01*
X111162812Y-151703624D01*
X111326784Y-151771544D01*
X111474354Y-151870147D01*
X111599853Y-151995646D01*
X111698456Y-152143216D01*
X111766376Y-152307188D01*
X111801000Y-152481259D01*
X111801000Y-152658741D01*
X111766376Y-152832812D01*
X111698456Y-152996784D01*
X111599853Y-153144354D01*
X111474354Y-153269853D01*
X111326784Y-153368456D01*
X111162812Y-153436376D01*
X111013512Y-153466073D01*
X110988742Y-153471000D01*
X110811258Y-153471000D01*
X110786488Y-153466073D01*
X110637188Y-153436376D01*
X110473216Y-153368456D01*
X110325646Y-153269853D01*
X110200147Y-153144354D01*
X110101544Y-152996784D01*
X110033624Y-152832812D01*
X109999000Y-152658741D01*
X109999000Y-152481259D01*
X110033624Y-152307188D01*
X110101544Y-152143216D01*
X110200147Y-151995646D01*
X110325646Y-151870147D01*
X110473216Y-151771544D01*
X110637188Y-151703624D01*
X110786488Y-151673927D01*
X110811258Y-151669000D01*
X110988742Y-151669000D01*
X111013512Y-151673927D01*
G37*
G36*
X124979591Y-151778085D02*
G01*
X125013569Y-151788393D01*
X125044890Y-151805134D01*
X125072339Y-151827661D01*
X125094866Y-151855110D01*
X125111607Y-151886431D01*
X125121915Y-151920409D01*
X125126000Y-151961890D01*
X125126000Y-152563110D01*
X125121915Y-152604591D01*
X125111607Y-152638569D01*
X125094866Y-152669890D01*
X125072339Y-152697339D01*
X125044890Y-152719866D01*
X125013569Y-152736607D01*
X124979591Y-152746915D01*
X124938110Y-152751000D01*
X124261890Y-152751000D01*
X124220409Y-152746915D01*
X124186431Y-152736607D01*
X124155110Y-152719866D01*
X124127661Y-152697339D01*
X124105134Y-152669890D01*
X124088393Y-152638569D01*
X124078085Y-152604591D01*
X124074000Y-152563110D01*
X124074000Y-151961890D01*
X124078085Y-151920409D01*
X124088393Y-151886431D01*
X124105134Y-151855110D01*
X124127661Y-151827661D01*
X124155110Y-151805134D01*
X124186431Y-151788393D01*
X124220409Y-151778085D01*
X124261890Y-151774000D01*
X124938110Y-151774000D01*
X124979591Y-151778085D01*
G37*
G36*
X128329591Y-151778085D02*
G01*
X128363569Y-151788393D01*
X128394890Y-151805134D01*
X128422339Y-151827661D01*
X128444866Y-151855110D01*
X128461607Y-151886431D01*
X128471915Y-151920409D01*
X128476000Y-151961890D01*
X128476000Y-152563110D01*
X128471915Y-152604591D01*
X128461607Y-152638569D01*
X128444866Y-152669890D01*
X128422339Y-152697339D01*
X128394890Y-152719866D01*
X128363569Y-152736607D01*
X128329591Y-152746915D01*
X128288110Y-152751000D01*
X127611890Y-152751000D01*
X127570409Y-152746915D01*
X127536431Y-152736607D01*
X127505110Y-152719866D01*
X127477661Y-152697339D01*
X127455134Y-152669890D01*
X127438393Y-152638569D01*
X127428085Y-152604591D01*
X127424000Y-152563110D01*
X127424000Y-151961890D01*
X127428085Y-151920409D01*
X127438393Y-151886431D01*
X127455134Y-151855110D01*
X127477661Y-151827661D01*
X127505110Y-151805134D01*
X127536431Y-151788393D01*
X127570409Y-151778085D01*
X127611890Y-151774000D01*
X128288110Y-151774000D01*
X128329591Y-151778085D01*
G37*
G36*
X126892000Y-151292000D02*
G01*
X125590000Y-151292000D01*
X125590000Y-149790000D01*
X126892000Y-149790000D01*
X126892000Y-151292000D01*
G37*
G36*
X128592000Y-151292000D02*
G01*
X127290000Y-151292000D01*
X127290000Y-149790000D01*
X128592000Y-149790000D01*
X128592000Y-151292000D01*
G37*
G36*
X111013512Y-149133927D02*
G01*
X111162812Y-149163624D01*
X111326784Y-149231544D01*
X111474354Y-149330147D01*
X111599853Y-149455646D01*
X111698456Y-149603216D01*
X111766376Y-149767188D01*
X111801000Y-149941259D01*
X111801000Y-150118741D01*
X111766376Y-150292812D01*
X111698456Y-150456784D01*
X111599853Y-150604354D01*
X111474354Y-150729853D01*
X111326784Y-150828456D01*
X111162812Y-150896376D01*
X111013512Y-150926073D01*
X110988742Y-150931000D01*
X110811258Y-150931000D01*
X110786488Y-150926073D01*
X110637188Y-150896376D01*
X110473216Y-150828456D01*
X110325646Y-150729853D01*
X110200147Y-150604354D01*
X110101544Y-150456784D01*
X110033624Y-150292812D01*
X109999000Y-150118741D01*
X109999000Y-149941259D01*
X110033624Y-149767188D01*
X110101544Y-149603216D01*
X110200147Y-149455646D01*
X110325646Y-149330147D01*
X110473216Y-149231544D01*
X110637188Y-149163624D01*
X110786488Y-149133927D01*
X110811258Y-149129000D01*
X110988742Y-149129000D01*
X111013512Y-149133927D01*
G37*
G36*
X146013512Y-149133927D02*
G01*
X146162812Y-149163624D01*
X146326784Y-149231544D01*
X146474354Y-149330147D01*
X146599853Y-149455646D01*
X146698456Y-149603216D01*
X146766376Y-149767188D01*
X146801000Y-149941259D01*
X146801000Y-150118741D01*
X146766376Y-150292812D01*
X146698456Y-150456784D01*
X146599853Y-150604354D01*
X146474354Y-150729853D01*
X146326784Y-150828456D01*
X146162812Y-150896376D01*
X146013512Y-150926073D01*
X145988742Y-150931000D01*
X145811258Y-150931000D01*
X145786488Y-150926073D01*
X145637188Y-150896376D01*
X145473216Y-150828456D01*
X145325646Y-150729853D01*
X145200147Y-150604354D01*
X145101544Y-150456784D01*
X145033624Y-150292812D01*
X144999000Y-150118741D01*
X144999000Y-149941259D01*
X145033624Y-149767188D01*
X145101544Y-149603216D01*
X145200147Y-149455646D01*
X145325646Y-149330147D01*
X145473216Y-149231544D01*
X145637188Y-149163624D01*
X145786488Y-149133927D01*
X145811258Y-149129000D01*
X145988742Y-149129000D01*
X146013512Y-149133927D01*
G37*
G36*
X128592000Y-149092000D02*
G01*
X127290000Y-149092000D01*
X127290000Y-147590000D01*
X128592000Y-147590000D01*
X128592000Y-149092000D01*
G37*
G36*
X126892000Y-149092000D02*
G01*
X125590000Y-149092000D01*
X125590000Y-147590000D01*
X126892000Y-147590000D01*
X126892000Y-149092000D01*
G37*
G36*
X111013512Y-146593927D02*
G01*
X111162812Y-146623624D01*
X111326784Y-146691544D01*
X111474354Y-146790147D01*
X111599853Y-146915646D01*
X111698456Y-147063216D01*
X111766376Y-147227188D01*
X111801000Y-147401259D01*
X111801000Y-147578741D01*
X111766376Y-147752812D01*
X111698456Y-147916784D01*
X111599853Y-148064354D01*
X111474354Y-148189853D01*
X111326784Y-148288456D01*
X111162812Y-148356376D01*
X111013512Y-148386073D01*
X110988742Y-148391000D01*
X110811258Y-148391000D01*
X110786488Y-148386073D01*
X110637188Y-148356376D01*
X110473216Y-148288456D01*
X110325646Y-148189853D01*
X110200147Y-148064354D01*
X110101544Y-147916784D01*
X110033624Y-147752812D01*
X109999000Y-147578741D01*
X109999000Y-147401259D01*
X110033624Y-147227188D01*
X110101544Y-147063216D01*
X110200147Y-146915646D01*
X110325646Y-146790147D01*
X110473216Y-146691544D01*
X110637188Y-146623624D01*
X110786488Y-146593927D01*
X110811258Y-146589000D01*
X110988742Y-146589000D01*
X111013512Y-146593927D01*
G37*
G36*
X146013512Y-146593927D02*
G01*
X146162812Y-146623624D01*
X146326784Y-146691544D01*
X146474354Y-146790147D01*
X146599853Y-146915646D01*
X146698456Y-147063216D01*
X146766376Y-147227188D01*
X146801000Y-147401259D01*
X146801000Y-147578741D01*
X146766376Y-147752812D01*
X146698456Y-147916784D01*
X146599853Y-148064354D01*
X146474354Y-148189853D01*
X146326784Y-148288456D01*
X146162812Y-148356376D01*
X146013512Y-148386073D01*
X145988742Y-148391000D01*
X145811258Y-148391000D01*
X145786488Y-148386073D01*
X145637188Y-148356376D01*
X145473216Y-148288456D01*
X145325646Y-148189853D01*
X145200147Y-148064354D01*
X145101544Y-147916784D01*
X145033624Y-147752812D01*
X144999000Y-147578741D01*
X144999000Y-147401259D01*
X145033624Y-147227188D01*
X145101544Y-147063216D01*
X145200147Y-146915646D01*
X145325646Y-146790147D01*
X145473216Y-146691544D01*
X145637188Y-146623624D01*
X145786488Y-146593927D01*
X145811258Y-146589000D01*
X145988742Y-146589000D01*
X146013512Y-146593927D01*
G37*
G36*
X129379591Y-146053085D02*
G01*
X129413569Y-146063393D01*
X129444890Y-146080134D01*
X129472339Y-146102661D01*
X129494866Y-146130110D01*
X129511607Y-146161431D01*
X129521915Y-146195409D01*
X129526000Y-146236890D01*
X129526000Y-146913110D01*
X129521915Y-146954591D01*
X129511607Y-146988569D01*
X129494866Y-147019890D01*
X129472339Y-147047339D01*
X129444890Y-147069866D01*
X129413569Y-147086607D01*
X129379591Y-147096915D01*
X129338110Y-147101000D01*
X128736890Y-147101000D01*
X128695409Y-147096915D01*
X128661431Y-147086607D01*
X128630110Y-147069866D01*
X128602661Y-147047339D01*
X128580134Y-147019890D01*
X128563393Y-146988569D01*
X128553085Y-146954591D01*
X128549000Y-146913110D01*
X128549000Y-146236890D01*
X128553085Y-146195409D01*
X128563393Y-146161431D01*
X128580134Y-146130110D01*
X128602661Y-146102661D01*
X128630110Y-146080134D01*
X128661431Y-146063393D01*
X128695409Y-146053085D01*
X128736890Y-146049000D01*
X129338110Y-146049000D01*
X129379591Y-146053085D01*
G37*
G36*
X127804591Y-146053085D02*
G01*
X127838569Y-146063393D01*
X127869890Y-146080134D01*
X127897339Y-146102661D01*
X127919866Y-146130110D01*
X127936607Y-146161431D01*
X127946915Y-146195409D01*
X127951000Y-146236890D01*
X127951000Y-146913110D01*
X127946915Y-146954591D01*
X127936607Y-146988569D01*
X127919866Y-147019890D01*
X127897339Y-147047339D01*
X127869890Y-147069866D01*
X127838569Y-147086607D01*
X127804591Y-147096915D01*
X127763110Y-147101000D01*
X127161890Y-147101000D01*
X127120409Y-147096915D01*
X127086431Y-147086607D01*
X127055110Y-147069866D01*
X127027661Y-147047339D01*
X127005134Y-147019890D01*
X126988393Y-146988569D01*
X126978085Y-146954591D01*
X126974000Y-146913110D01*
X126974000Y-146236890D01*
X126978085Y-146195409D01*
X126988393Y-146161431D01*
X127005134Y-146130110D01*
X127027661Y-146102661D01*
X127055110Y-146080134D01*
X127086431Y-146063393D01*
X127120409Y-146053085D01*
X127161890Y-146049000D01*
X127763110Y-146049000D01*
X127804591Y-146053085D01*
G37*
G36*
X134149591Y-146038085D02*
G01*
X134183569Y-146048393D01*
X134214890Y-146065134D01*
X134242339Y-146087661D01*
X134264866Y-146115110D01*
X134281607Y-146146431D01*
X134291915Y-146180409D01*
X134296000Y-146221890D01*
X134296000Y-146823110D01*
X134291915Y-146864591D01*
X134281607Y-146898569D01*
X134264866Y-146929890D01*
X134242339Y-146957339D01*
X134214890Y-146979866D01*
X134183569Y-146996607D01*
X134149591Y-147006915D01*
X134108110Y-147011000D01*
X133431890Y-147011000D01*
X133390409Y-147006915D01*
X133356431Y-146996607D01*
X133325110Y-146979866D01*
X133297661Y-146957339D01*
X133275134Y-146929890D01*
X133258393Y-146898569D01*
X133248085Y-146864591D01*
X133244000Y-146823110D01*
X133244000Y-146221890D01*
X133248085Y-146180409D01*
X133258393Y-146146431D01*
X133275134Y-146115110D01*
X133297661Y-146087661D01*
X133325110Y-146065134D01*
X133356431Y-146048393D01*
X133390409Y-146038085D01*
X133431890Y-146034000D01*
X134108110Y-146034000D01*
X134149591Y-146038085D01*
G37*
G36*
X132639591Y-146038085D02*
G01*
X132673569Y-146048393D01*
X132704890Y-146065134D01*
X132732339Y-146087661D01*
X132754866Y-146115110D01*
X132771607Y-146146431D01*
X132781915Y-146180409D01*
X132786000Y-146221890D01*
X132786000Y-146823110D01*
X132781915Y-146864591D01*
X132771607Y-146898569D01*
X132754866Y-146929890D01*
X132732339Y-146957339D01*
X132704890Y-146979866D01*
X132673569Y-146996607D01*
X132639591Y-147006915D01*
X132598110Y-147011000D01*
X131921890Y-147011000D01*
X131880409Y-147006915D01*
X131846431Y-146996607D01*
X131815110Y-146979866D01*
X131787661Y-146957339D01*
X131765134Y-146929890D01*
X131748393Y-146898569D01*
X131738085Y-146864591D01*
X131734000Y-146823110D01*
X131734000Y-146221890D01*
X131738085Y-146180409D01*
X131748393Y-146146431D01*
X131765134Y-146115110D01*
X131787661Y-146087661D01*
X131815110Y-146065134D01*
X131846431Y-146048393D01*
X131880409Y-146038085D01*
X131921890Y-146034000D01*
X132598110Y-146034000D01*
X132639591Y-146038085D01*
G37*
G36*
X111013512Y-144053927D02*
G01*
X111162812Y-144083624D01*
X111326784Y-144151544D01*
X111474354Y-144250147D01*
X111599853Y-144375646D01*
X111698456Y-144523216D01*
X111766376Y-144687188D01*
X111796073Y-144836488D01*
X111801000Y-144861258D01*
X111801000Y-145038742D01*
X111798868Y-145049461D01*
X111766376Y-145212812D01*
X111698456Y-145376784D01*
X111599853Y-145524354D01*
X111474354Y-145649853D01*
X111326784Y-145748456D01*
X111162812Y-145816376D01*
X111013512Y-145846073D01*
X110988742Y-145851000D01*
X110811258Y-145851000D01*
X110786488Y-145846073D01*
X110637188Y-145816376D01*
X110473216Y-145748456D01*
X110325646Y-145649853D01*
X110200147Y-145524354D01*
X110101544Y-145376784D01*
X110033624Y-145212812D01*
X110001132Y-145049461D01*
X109999000Y-145038742D01*
X109999000Y-144861258D01*
X110003927Y-144836488D01*
X110033624Y-144687188D01*
X110101544Y-144523216D01*
X110200147Y-144375646D01*
X110325646Y-144250147D01*
X110473216Y-144151544D01*
X110637188Y-144083624D01*
X110786488Y-144053927D01*
X110811258Y-144049000D01*
X110988742Y-144049000D01*
X111013512Y-144053927D01*
G37*
G36*
X146013512Y-144053927D02*
G01*
X146162812Y-144083624D01*
X146326784Y-144151544D01*
X146474354Y-144250147D01*
X146599853Y-144375646D01*
X146698456Y-144523216D01*
X146766376Y-144687188D01*
X146796073Y-144836488D01*
X146801000Y-144861258D01*
X146801000Y-145038742D01*
X146798868Y-145049461D01*
X146766376Y-145212812D01*
X146698456Y-145376784D01*
X146599853Y-145524354D01*
X146474354Y-145649853D01*
X146326784Y-145748456D01*
X146162812Y-145816376D01*
X146013512Y-145846073D01*
X145988742Y-145851000D01*
X145811258Y-145851000D01*
X145786488Y-145846073D01*
X145637188Y-145816376D01*
X145473216Y-145748456D01*
X145325646Y-145649853D01*
X145200147Y-145524354D01*
X145101544Y-145376784D01*
X145033624Y-145212812D01*
X145001132Y-145049461D01*
X144999000Y-145038742D01*
X144999000Y-144861258D01*
X145003927Y-144836488D01*
X145033624Y-144687188D01*
X145101544Y-144523216D01*
X145200147Y-144375646D01*
X145325646Y-144250147D01*
X145473216Y-144151544D01*
X145637188Y-144083624D01*
X145786488Y-144053927D01*
X145811258Y-144049000D01*
X145988742Y-144049000D01*
X146013512Y-144053927D01*
G37*
G36*
X132639591Y-144463085D02*
G01*
X132673569Y-144473393D01*
X132704890Y-144490134D01*
X132732339Y-144512661D01*
X132754866Y-144540110D01*
X132771607Y-144571431D01*
X132781915Y-144605409D01*
X132786000Y-144646890D01*
X132786000Y-145248110D01*
X132781915Y-145289591D01*
X132771607Y-145323569D01*
X132754866Y-145354890D01*
X132732339Y-145382339D01*
X132704890Y-145404866D01*
X132673569Y-145421607D01*
X132639591Y-145431915D01*
X132598110Y-145436000D01*
X131921890Y-145436000D01*
X131880409Y-145431915D01*
X131846431Y-145421607D01*
X131815110Y-145404866D01*
X131787661Y-145382339D01*
X131765134Y-145354890D01*
X131748393Y-145323569D01*
X131738085Y-145289591D01*
X131734000Y-145248110D01*
X131734000Y-144646890D01*
X131738085Y-144605409D01*
X131748393Y-144571431D01*
X131765134Y-144540110D01*
X131787661Y-144512661D01*
X131815110Y-144490134D01*
X131846431Y-144473393D01*
X131880409Y-144463085D01*
X131921890Y-144459000D01*
X132598110Y-144459000D01*
X132639591Y-144463085D01*
G37*
G36*
X134149591Y-144463085D02*
G01*
X134183569Y-144473393D01*
X134214890Y-144490134D01*
X134242339Y-144512661D01*
X134264866Y-144540110D01*
X134281607Y-144571431D01*
X134291915Y-144605409D01*
X134296000Y-144646890D01*
X134296000Y-145248110D01*
X134291915Y-145289591D01*
X134281607Y-145323569D01*
X134264866Y-145354890D01*
X134242339Y-145382339D01*
X134214890Y-145404866D01*
X134183569Y-145421607D01*
X134149591Y-145431915D01*
X134108110Y-145436000D01*
X133431890Y-145436000D01*
X133390409Y-145431915D01*
X133356431Y-145421607D01*
X133325110Y-145404866D01*
X133297661Y-145382339D01*
X133275134Y-145354890D01*
X133258393Y-145323569D01*
X133248085Y-145289591D01*
X133244000Y-145248110D01*
X133244000Y-144646890D01*
X133248085Y-144605409D01*
X133258393Y-144571431D01*
X133275134Y-144540110D01*
X133297661Y-144512661D01*
X133325110Y-144490134D01*
X133356431Y-144473393D01*
X133390409Y-144463085D01*
X133431890Y-144459000D01*
X134108110Y-144459000D01*
X134149591Y-144463085D01*
G37*
G36*
X121304591Y-144073085D02*
G01*
X121338569Y-144083393D01*
X121369890Y-144100134D01*
X121397339Y-144122661D01*
X121419866Y-144150110D01*
X121436607Y-144181431D01*
X121446915Y-144215409D01*
X121451000Y-144256890D01*
X121451000Y-144933110D01*
X121446915Y-144974591D01*
X121436607Y-145008569D01*
X121419866Y-145039890D01*
X121397339Y-145067339D01*
X121369890Y-145089866D01*
X121338569Y-145106607D01*
X121304591Y-145116915D01*
X121263110Y-145121000D01*
X120661890Y-145121000D01*
X120620409Y-145116915D01*
X120586431Y-145106607D01*
X120555110Y-145089866D01*
X120527661Y-145067339D01*
X120505134Y-145039890D01*
X120488393Y-145008569D01*
X120478085Y-144974591D01*
X120474000Y-144933110D01*
X120474000Y-144256890D01*
X120478085Y-144215409D01*
X120488393Y-144181431D01*
X120505134Y-144150110D01*
X120527661Y-144122661D01*
X120555110Y-144100134D01*
X120586431Y-144083393D01*
X120620409Y-144073085D01*
X120661890Y-144069000D01*
X121263110Y-144069000D01*
X121304591Y-144073085D01*
G37*
G36*
X122879591Y-144073085D02*
G01*
X122913569Y-144083393D01*
X122944890Y-144100134D01*
X122972339Y-144122661D01*
X122994866Y-144150110D01*
X123011607Y-144181431D01*
X123021915Y-144215409D01*
X123026000Y-144256890D01*
X123026000Y-144933110D01*
X123021915Y-144974591D01*
X123011607Y-145008569D01*
X122994866Y-145039890D01*
X122972339Y-145067339D01*
X122944890Y-145089866D01*
X122913569Y-145106607D01*
X122879591Y-145116915D01*
X122838110Y-145121000D01*
X122236890Y-145121000D01*
X122195409Y-145116915D01*
X122161431Y-145106607D01*
X122130110Y-145089866D01*
X122102661Y-145067339D01*
X122080134Y-145039890D01*
X122063393Y-145008569D01*
X122053085Y-144974591D01*
X122049000Y-144933110D01*
X122049000Y-144256890D01*
X122053085Y-144215409D01*
X122063393Y-144181431D01*
X122080134Y-144150110D01*
X122102661Y-144122661D01*
X122130110Y-144100134D01*
X122161431Y-144083393D01*
X122195409Y-144073085D01*
X122236890Y-144069000D01*
X122838110Y-144069000D01*
X122879591Y-144073085D01*
G37*
G36*
X125800295Y-142513542D02*
G01*
X125807309Y-142515670D01*
X125821077Y-142523029D01*
X125843716Y-142532406D01*
X125867749Y-142537186D01*
X125892253Y-142537186D01*
X125916286Y-142532405D01*
X125938923Y-142523029D01*
X125952691Y-142515670D01*
X125959705Y-142513542D01*
X125973140Y-142512219D01*
X126286860Y-142512219D01*
X126300295Y-142513542D01*
X126307309Y-142515670D01*
X126321077Y-142523029D01*
X126343716Y-142532406D01*
X126367749Y-142537186D01*
X126392253Y-142537186D01*
X126416286Y-142532405D01*
X126438923Y-142523029D01*
X126452691Y-142515670D01*
X126459705Y-142513542D01*
X126473140Y-142512219D01*
X126786860Y-142512219D01*
X126800295Y-142513542D01*
X126807309Y-142515670D01*
X126821077Y-142523029D01*
X126843716Y-142532406D01*
X126867749Y-142537186D01*
X126892253Y-142537186D01*
X126916286Y-142532405D01*
X126938923Y-142523029D01*
X126952691Y-142515670D01*
X126959705Y-142513542D01*
X126973140Y-142512219D01*
X127286860Y-142512219D01*
X127300295Y-142513542D01*
X127307309Y-142515670D01*
X127321077Y-142523029D01*
X127343716Y-142532406D01*
X127367749Y-142537186D01*
X127392253Y-142537186D01*
X127416286Y-142532405D01*
X127438923Y-142523029D01*
X127452691Y-142515670D01*
X127459705Y-142513542D01*
X127473140Y-142512219D01*
X127786860Y-142512219D01*
X127800295Y-142513542D01*
X127807309Y-142515670D01*
X127821077Y-142523029D01*
X127843716Y-142532406D01*
X127867749Y-142537186D01*
X127892253Y-142537186D01*
X127916286Y-142532405D01*
X127938923Y-142523029D01*
X127952691Y-142515670D01*
X127959705Y-142513542D01*
X127973140Y-142512219D01*
X128286860Y-142512219D01*
X128300295Y-142513542D01*
X128307309Y-142515670D01*
X128321077Y-142523029D01*
X128343716Y-142532406D01*
X128367749Y-142537186D01*
X128392253Y-142537186D01*
X128416286Y-142532405D01*
X128438923Y-142523029D01*
X128452691Y-142515670D01*
X128459705Y-142513542D01*
X128473140Y-142512219D01*
X128786860Y-142512219D01*
X128800295Y-142513542D01*
X128807309Y-142515670D01*
X128821077Y-142523029D01*
X128843716Y-142532406D01*
X128867749Y-142537186D01*
X128892253Y-142537186D01*
X128916286Y-142532405D01*
X128938923Y-142523029D01*
X128952691Y-142515670D01*
X128959705Y-142513542D01*
X128973140Y-142512219D01*
X129286860Y-142512219D01*
X129300295Y-142513542D01*
X129307309Y-142515670D01*
X129321077Y-142523029D01*
X129343716Y-142532406D01*
X129367749Y-142537186D01*
X129392253Y-142537186D01*
X129416286Y-142532405D01*
X129438923Y-142523029D01*
X129452691Y-142515670D01*
X129459705Y-142513542D01*
X129473140Y-142512219D01*
X129786860Y-142512219D01*
X129800295Y-142513542D01*
X129807309Y-142515670D01*
X129821077Y-142523029D01*
X129843716Y-142532406D01*
X129867749Y-142537186D01*
X129892253Y-142537186D01*
X129916286Y-142532405D01*
X129938923Y-142523029D01*
X129952691Y-142515670D01*
X129959705Y-142513542D01*
X129973140Y-142512219D01*
X130286860Y-142512219D01*
X130300295Y-142513542D01*
X130307309Y-142515670D01*
X130321077Y-142523029D01*
X130343716Y-142532406D01*
X130367749Y-142537186D01*
X130392253Y-142537186D01*
X130416286Y-142532405D01*
X130438923Y-142523029D01*
X130452691Y-142515670D01*
X130459705Y-142513542D01*
X130473140Y-142512219D01*
X130786860Y-142512219D01*
X130800295Y-142513542D01*
X130807309Y-142515670D01*
X130821077Y-142523029D01*
X130843716Y-142532406D01*
X130867749Y-142537186D01*
X130892253Y-142537186D01*
X130916286Y-142532405D01*
X130938923Y-142523029D01*
X130952691Y-142515670D01*
X130959705Y-142513542D01*
X130973140Y-142512219D01*
X131286860Y-142512219D01*
X131300295Y-142513542D01*
X131307310Y-142515670D01*
X131313776Y-142519127D01*
X131319442Y-142523777D01*
X131324092Y-142529443D01*
X131327549Y-142535909D01*
X131329677Y-142542924D01*
X131331000Y-142556359D01*
X131331000Y-144045079D01*
X131329677Y-144058514D01*
X131327549Y-144065529D01*
X131324092Y-144071995D01*
X131319442Y-144077661D01*
X131313776Y-144082311D01*
X131307310Y-144085768D01*
X131300295Y-144087896D01*
X131286860Y-144089219D01*
X130973140Y-144089219D01*
X130959705Y-144087896D01*
X130952691Y-144085768D01*
X130938923Y-144078409D01*
X130916284Y-144069032D01*
X130892251Y-144064252D01*
X130867747Y-144064252D01*
X130843714Y-144069033D01*
X130821077Y-144078409D01*
X130807309Y-144085768D01*
X130800295Y-144087896D01*
X130786860Y-144089219D01*
X130473140Y-144089219D01*
X130459705Y-144087896D01*
X130452691Y-144085768D01*
X130438923Y-144078409D01*
X130416284Y-144069032D01*
X130392251Y-144064252D01*
X130367747Y-144064252D01*
X130343714Y-144069033D01*
X130321077Y-144078409D01*
X130307309Y-144085768D01*
X130300295Y-144087896D01*
X130286860Y-144089219D01*
X129973140Y-144089219D01*
X129959705Y-144087896D01*
X129952691Y-144085768D01*
X129938923Y-144078409D01*
X129916284Y-144069032D01*
X129892251Y-144064252D01*
X129867747Y-144064252D01*
X129843714Y-144069033D01*
X129821077Y-144078409D01*
X129807309Y-144085768D01*
X129800295Y-144087896D01*
X129786860Y-144089219D01*
X129473140Y-144089219D01*
X129459705Y-144087896D01*
X129452691Y-144085768D01*
X129438923Y-144078409D01*
X129416284Y-144069032D01*
X129392251Y-144064252D01*
X129367747Y-144064252D01*
X129343714Y-144069033D01*
X129321077Y-144078409D01*
X129307309Y-144085768D01*
X129300295Y-144087896D01*
X129286860Y-144089219D01*
X128973140Y-144089219D01*
X128959705Y-144087896D01*
X128952691Y-144085768D01*
X128938923Y-144078409D01*
X128916284Y-144069032D01*
X128892251Y-144064252D01*
X128867747Y-144064252D01*
X128843714Y-144069033D01*
X128821077Y-144078409D01*
X128807309Y-144085768D01*
X128800295Y-144087896D01*
X128786860Y-144089219D01*
X128473140Y-144089219D01*
X128459705Y-144087896D01*
X128452691Y-144085768D01*
X128438923Y-144078409D01*
X128416284Y-144069032D01*
X128392251Y-144064252D01*
X128367747Y-144064252D01*
X128343714Y-144069033D01*
X128321077Y-144078409D01*
X128307309Y-144085768D01*
X128300295Y-144087896D01*
X128286860Y-144089219D01*
X127973140Y-144089219D01*
X127959705Y-144087896D01*
X127952691Y-144085768D01*
X127938923Y-144078409D01*
X127916284Y-144069032D01*
X127892251Y-144064252D01*
X127867747Y-144064252D01*
X127843714Y-144069033D01*
X127821077Y-144078409D01*
X127807309Y-144085768D01*
X127800295Y-144087896D01*
X127786860Y-144089219D01*
X127473140Y-144089219D01*
X127459705Y-144087896D01*
X127452691Y-144085768D01*
X127438923Y-144078409D01*
X127416284Y-144069032D01*
X127392251Y-144064252D01*
X127367747Y-144064252D01*
X127343714Y-144069033D01*
X127321077Y-144078409D01*
X127307309Y-144085768D01*
X127300295Y-144087896D01*
X127286860Y-144089219D01*
X126973140Y-144089219D01*
X126959705Y-144087896D01*
X126952691Y-144085768D01*
X126938923Y-144078409D01*
X126916284Y-144069032D01*
X126892251Y-144064252D01*
X126867747Y-144064252D01*
X126843714Y-144069033D01*
X126821077Y-144078409D01*
X126807309Y-144085768D01*
X126800295Y-144087896D01*
X126786860Y-144089219D01*
X126473140Y-144089219D01*
X126459705Y-144087896D01*
X126452691Y-144085768D01*
X126438923Y-144078409D01*
X126416284Y-144069032D01*
X126392251Y-144064252D01*
X126367747Y-144064252D01*
X126343714Y-144069033D01*
X126321077Y-144078409D01*
X126307309Y-144085768D01*
X126300295Y-144087896D01*
X126286860Y-144089219D01*
X125973140Y-144089219D01*
X125959705Y-144087896D01*
X125952691Y-144085768D01*
X125938923Y-144078409D01*
X125916284Y-144069032D01*
X125892251Y-144064252D01*
X125867747Y-144064252D01*
X125843714Y-144069033D01*
X125821077Y-144078409D01*
X125807309Y-144085768D01*
X125800295Y-144087896D01*
X125786860Y-144089219D01*
X125473140Y-144089219D01*
X125459705Y-144087896D01*
X125452690Y-144085768D01*
X125446224Y-144082311D01*
X125440558Y-144077661D01*
X125435908Y-144071995D01*
X125432451Y-144065529D01*
X125430323Y-144058514D01*
X125429000Y-144045079D01*
X125429000Y-142556359D01*
X125430323Y-142542924D01*
X125432451Y-142535909D01*
X125435908Y-142529443D01*
X125440558Y-142523777D01*
X125446224Y-142519127D01*
X125452690Y-142515670D01*
X125459705Y-142513542D01*
X125473140Y-142512219D01*
X125786860Y-142512219D01*
X125800295Y-142513542D01*
G37*
G36*
X122879591Y-142553085D02*
G01*
X122913569Y-142563393D01*
X122944890Y-142580134D01*
X122972339Y-142602661D01*
X122994866Y-142630110D01*
X123011607Y-142661431D01*
X123021915Y-142695409D01*
X123026000Y-142736890D01*
X123026000Y-143413110D01*
X123021915Y-143454591D01*
X123011607Y-143488569D01*
X122994866Y-143519890D01*
X122972339Y-143547339D01*
X122944890Y-143569866D01*
X122913569Y-143586607D01*
X122879591Y-143596915D01*
X122838110Y-143601000D01*
X122236890Y-143601000D01*
X122195409Y-143596915D01*
X122161431Y-143586607D01*
X122130110Y-143569866D01*
X122102661Y-143547339D01*
X122080134Y-143519890D01*
X122063393Y-143488569D01*
X122053085Y-143454591D01*
X122049000Y-143413110D01*
X122049000Y-142736890D01*
X122053085Y-142695409D01*
X122063393Y-142661431D01*
X122080134Y-142630110D01*
X122102661Y-142602661D01*
X122130110Y-142580134D01*
X122161431Y-142563393D01*
X122195409Y-142553085D01*
X122236890Y-142549000D01*
X122838110Y-142549000D01*
X122879591Y-142553085D01*
G37*
G36*
X121304591Y-142553085D02*
G01*
X121338569Y-142563393D01*
X121369890Y-142580134D01*
X121397339Y-142602661D01*
X121419866Y-142630110D01*
X121436607Y-142661431D01*
X121446915Y-142695409D01*
X121451000Y-142736890D01*
X121451000Y-143413110D01*
X121446915Y-143454591D01*
X121436607Y-143488569D01*
X121419866Y-143519890D01*
X121397339Y-143547339D01*
X121369890Y-143569866D01*
X121338569Y-143586607D01*
X121304591Y-143596915D01*
X121263110Y-143601000D01*
X120661890Y-143601000D01*
X120620409Y-143596915D01*
X120586431Y-143586607D01*
X120555110Y-143569866D01*
X120527661Y-143547339D01*
X120505134Y-143519890D01*
X120488393Y-143488569D01*
X120478085Y-143454591D01*
X120474000Y-143413110D01*
X120474000Y-142736890D01*
X120478085Y-142695409D01*
X120488393Y-142661431D01*
X120505134Y-142630110D01*
X120527661Y-142602661D01*
X120555110Y-142580134D01*
X120586431Y-142563393D01*
X120620409Y-142553085D01*
X120661890Y-142549000D01*
X121263110Y-142549000D01*
X121304591Y-142553085D01*
G37*
G36*
X111013512Y-141513927D02*
G01*
X111162812Y-141543624D01*
X111326784Y-141611544D01*
X111474354Y-141710147D01*
X111599853Y-141835646D01*
X111698456Y-141983216D01*
X111766376Y-142147188D01*
X111796073Y-142296488D01*
X111801000Y-142321258D01*
X111801000Y-142498742D01*
X111796169Y-142523029D01*
X111766376Y-142672812D01*
X111698456Y-142836784D01*
X111599853Y-142984354D01*
X111474354Y-143109853D01*
X111326784Y-143208456D01*
X111162812Y-143276376D01*
X111013512Y-143306073D01*
X110988742Y-143311000D01*
X110811258Y-143311000D01*
X110786488Y-143306073D01*
X110637188Y-143276376D01*
X110473216Y-143208456D01*
X110325646Y-143109853D01*
X110200147Y-142984354D01*
X110101544Y-142836784D01*
X110033624Y-142672812D01*
X110003831Y-142523029D01*
X109999000Y-142498742D01*
X109999000Y-142321258D01*
X110003927Y-142296488D01*
X110033624Y-142147188D01*
X110101544Y-141983216D01*
X110200147Y-141835646D01*
X110325646Y-141710147D01*
X110473216Y-141611544D01*
X110637188Y-141543624D01*
X110786488Y-141513927D01*
X110811258Y-141509000D01*
X110988742Y-141509000D01*
X111013512Y-141513927D01*
G37*
G36*
X146013512Y-141513927D02*
G01*
X146162812Y-141543624D01*
X146326784Y-141611544D01*
X146474354Y-141710147D01*
X146599853Y-141835646D01*
X146698456Y-141983216D01*
X146766376Y-142147188D01*
X146796073Y-142296488D01*
X146801000Y-142321258D01*
X146801000Y-142498742D01*
X146796169Y-142523029D01*
X146766376Y-142672812D01*
X146698456Y-142836784D01*
X146599853Y-142984354D01*
X146474354Y-143109853D01*
X146326784Y-143208456D01*
X146162812Y-143276376D01*
X146013512Y-143306073D01*
X145988742Y-143311000D01*
X145811258Y-143311000D01*
X145786488Y-143306073D01*
X145637188Y-143276376D01*
X145473216Y-143208456D01*
X145325646Y-143109853D01*
X145200147Y-142984354D01*
X145101544Y-142836784D01*
X145033624Y-142672812D01*
X145003831Y-142523029D01*
X144999000Y-142498742D01*
X144999000Y-142321258D01*
X145003927Y-142296488D01*
X145033624Y-142147188D01*
X145101544Y-141983216D01*
X145200147Y-141835646D01*
X145325646Y-141710147D01*
X145473216Y-141611544D01*
X145637188Y-141543624D01*
X145786488Y-141513927D01*
X145811258Y-141509000D01*
X145988742Y-141509000D01*
X146013512Y-141513927D01*
G37*
G36*
X124975295Y-136188542D02*
G01*
X124982310Y-136190670D01*
X124988776Y-136194127D01*
X124994442Y-136198777D01*
X124999092Y-136204443D01*
X125002549Y-136210909D01*
X125004677Y-136217924D01*
X125006000Y-136231359D01*
X125006000Y-136545079D01*
X125004677Y-136558514D01*
X125002549Y-136565528D01*
X124995190Y-136579296D01*
X124985813Y-136601935D01*
X124981033Y-136625968D01*
X124981033Y-136650472D01*
X124985814Y-136674505D01*
X124995190Y-136697142D01*
X125002549Y-136710910D01*
X125004677Y-136717924D01*
X125006000Y-136731359D01*
X125006000Y-137045079D01*
X125004677Y-137058514D01*
X125002549Y-137065528D01*
X124995190Y-137079296D01*
X124985813Y-137101935D01*
X124981033Y-137125968D01*
X124981033Y-137150472D01*
X124985814Y-137174505D01*
X124995190Y-137197142D01*
X125002549Y-137210910D01*
X125004677Y-137217924D01*
X125006000Y-137231359D01*
X125006000Y-137545079D01*
X125004677Y-137558514D01*
X125002549Y-137565528D01*
X124995190Y-137579296D01*
X124985813Y-137601935D01*
X124981033Y-137625968D01*
X124981033Y-137650472D01*
X124985814Y-137674505D01*
X124995190Y-137697142D01*
X125002549Y-137710910D01*
X125004677Y-137717924D01*
X125006000Y-137731359D01*
X125006000Y-138045079D01*
X125004677Y-138058514D01*
X125002549Y-138065528D01*
X124995190Y-138079296D01*
X124985813Y-138101935D01*
X124981033Y-138125968D01*
X124981033Y-138150472D01*
X124985814Y-138174505D01*
X124995190Y-138197142D01*
X125002549Y-138210910D01*
X125004677Y-138217924D01*
X125006000Y-138231359D01*
X125006000Y-138545079D01*
X125004677Y-138558514D01*
X125002549Y-138565528D01*
X124995190Y-138579296D01*
X124985813Y-138601935D01*
X124981033Y-138625968D01*
X124981033Y-138650472D01*
X124985814Y-138674505D01*
X124995190Y-138697142D01*
X125002549Y-138710910D01*
X125004677Y-138717924D01*
X125006000Y-138731359D01*
X125006000Y-139045079D01*
X125004677Y-139058514D01*
X125002549Y-139065528D01*
X124995190Y-139079296D01*
X124985813Y-139101935D01*
X124981033Y-139125968D01*
X124981033Y-139150472D01*
X124985814Y-139174505D01*
X124995190Y-139197142D01*
X125002549Y-139210910D01*
X125004677Y-139217924D01*
X125006000Y-139231359D01*
X125006000Y-139545079D01*
X125004677Y-139558514D01*
X125002549Y-139565528D01*
X124995190Y-139579296D01*
X124985813Y-139601935D01*
X124981033Y-139625968D01*
X124981033Y-139650472D01*
X124985814Y-139674505D01*
X124995190Y-139697142D01*
X125002549Y-139710910D01*
X125004677Y-139717924D01*
X125006000Y-139731359D01*
X125006000Y-140045079D01*
X125004677Y-140058514D01*
X125002549Y-140065528D01*
X124995190Y-140079296D01*
X124985813Y-140101935D01*
X124981033Y-140125968D01*
X124981033Y-140150472D01*
X124985814Y-140174505D01*
X124995190Y-140197142D01*
X125002549Y-140210910D01*
X125004677Y-140217924D01*
X125006000Y-140231359D01*
X125006000Y-140545079D01*
X125004677Y-140558514D01*
X125002549Y-140565528D01*
X124995190Y-140579296D01*
X124985813Y-140601935D01*
X124981033Y-140625968D01*
X124981033Y-140650472D01*
X124985814Y-140674505D01*
X124995190Y-140697142D01*
X125002549Y-140710910D01*
X125004677Y-140717924D01*
X125006000Y-140731359D01*
X125006000Y-141045079D01*
X125004677Y-141058514D01*
X125002549Y-141065528D01*
X124995190Y-141079296D01*
X124985813Y-141101935D01*
X124981033Y-141125968D01*
X124981033Y-141150472D01*
X124985814Y-141174505D01*
X124995190Y-141197142D01*
X125002549Y-141210910D01*
X125004677Y-141217924D01*
X125006000Y-141231359D01*
X125006000Y-141545079D01*
X125004677Y-141558514D01*
X125002549Y-141565528D01*
X124995190Y-141579296D01*
X124985813Y-141601935D01*
X124981033Y-141625968D01*
X124981033Y-141650472D01*
X124985814Y-141674505D01*
X124995190Y-141697142D01*
X125002549Y-141710910D01*
X125004677Y-141717924D01*
X125006000Y-141731359D01*
X125006000Y-142045079D01*
X125004677Y-142058514D01*
X125002549Y-142065529D01*
X124999092Y-142071995D01*
X124994442Y-142077661D01*
X124988776Y-142082311D01*
X124982310Y-142085768D01*
X124975295Y-142087896D01*
X124961860Y-142089219D01*
X123473140Y-142089219D01*
X123459705Y-142087896D01*
X123452690Y-142085768D01*
X123446224Y-142082311D01*
X123440558Y-142077661D01*
X123435908Y-142071995D01*
X123432451Y-142065529D01*
X123430323Y-142058514D01*
X123429000Y-142045079D01*
X123429000Y-141731359D01*
X123430323Y-141717924D01*
X123432451Y-141710910D01*
X123439810Y-141697142D01*
X123449187Y-141674503D01*
X123453967Y-141650470D01*
X123453967Y-141625966D01*
X123449186Y-141601933D01*
X123439810Y-141579296D01*
X123432451Y-141565528D01*
X123430323Y-141558514D01*
X123429000Y-141545079D01*
X123429000Y-141231359D01*
X123430323Y-141217924D01*
X123432451Y-141210910D01*
X123439810Y-141197142D01*
X123449187Y-141174503D01*
X123453967Y-141150470D01*
X123453967Y-141125966D01*
X123449186Y-141101933D01*
X123439810Y-141079296D01*
X123432451Y-141065528D01*
X123430323Y-141058514D01*
X123429000Y-141045079D01*
X123429000Y-140731359D01*
X123430323Y-140717924D01*
X123432451Y-140710910D01*
X123439810Y-140697142D01*
X123449187Y-140674503D01*
X123453967Y-140650470D01*
X123453967Y-140625966D01*
X123449186Y-140601933D01*
X123439810Y-140579296D01*
X123432451Y-140565528D01*
X123430323Y-140558514D01*
X123429000Y-140545079D01*
X123429000Y-140231359D01*
X123430323Y-140217924D01*
X123432451Y-140210910D01*
X123439810Y-140197142D01*
X123449187Y-140174503D01*
X123453967Y-140150470D01*
X123453967Y-140125966D01*
X123449186Y-140101933D01*
X123439810Y-140079296D01*
X123432451Y-140065528D01*
X123430323Y-140058514D01*
X123429000Y-140045079D01*
X123429000Y-139731359D01*
X123430323Y-139717924D01*
X123432451Y-139710910D01*
X123439810Y-139697142D01*
X123449187Y-139674503D01*
X123453967Y-139650470D01*
X123453967Y-139625966D01*
X123449186Y-139601933D01*
X123439810Y-139579296D01*
X123432451Y-139565528D01*
X123430323Y-139558514D01*
X123429000Y-139545079D01*
X123429000Y-139231359D01*
X123430323Y-139217924D01*
X123432451Y-139210910D01*
X123439810Y-139197142D01*
X123449187Y-139174503D01*
X123453967Y-139150470D01*
X123453967Y-139125966D01*
X123449186Y-139101933D01*
X123439810Y-139079296D01*
X123432451Y-139065528D01*
X123430323Y-139058514D01*
X123429000Y-139045079D01*
X123429000Y-138731359D01*
X123430323Y-138717924D01*
X123432451Y-138710910D01*
X123439810Y-138697142D01*
X123449187Y-138674503D01*
X123453967Y-138650470D01*
X123453967Y-138625966D01*
X123449186Y-138601933D01*
X123439810Y-138579296D01*
X123432451Y-138565528D01*
X123430323Y-138558514D01*
X123429000Y-138545079D01*
X123429000Y-138231359D01*
X123430323Y-138217924D01*
X123432451Y-138210910D01*
X123439810Y-138197142D01*
X123449187Y-138174503D01*
X123453967Y-138150470D01*
X123453967Y-138125966D01*
X123449186Y-138101933D01*
X123439810Y-138079296D01*
X123432451Y-138065528D01*
X123430323Y-138058514D01*
X123429000Y-138045079D01*
X123429000Y-137731359D01*
X123430323Y-137717924D01*
X123432451Y-137710910D01*
X123439810Y-137697142D01*
X123449187Y-137674503D01*
X123453967Y-137650470D01*
X123453967Y-137625966D01*
X123449186Y-137601933D01*
X123439810Y-137579296D01*
X123432451Y-137565528D01*
X123430323Y-137558514D01*
X123429000Y-137545079D01*
X123429000Y-137231359D01*
X123430323Y-137217924D01*
X123432451Y-137210910D01*
X123439810Y-137197142D01*
X123449187Y-137174503D01*
X123453967Y-137150470D01*
X123453967Y-137125966D01*
X123449186Y-137101933D01*
X123439810Y-137079296D01*
X123432451Y-137065528D01*
X123430323Y-137058514D01*
X123429000Y-137045079D01*
X123429000Y-136731359D01*
X123430323Y-136717924D01*
X123432451Y-136710910D01*
X123439810Y-136697142D01*
X123449187Y-136674503D01*
X123453967Y-136650470D01*
X123453967Y-136625966D01*
X123449186Y-136601933D01*
X123439810Y-136579296D01*
X123432451Y-136565528D01*
X123430323Y-136558514D01*
X123429000Y-136545079D01*
X123429000Y-136231359D01*
X123430323Y-136217924D01*
X123432451Y-136210909D01*
X123435908Y-136204443D01*
X123440558Y-136198777D01*
X123446224Y-136194127D01*
X123452690Y-136190670D01*
X123459705Y-136188542D01*
X123473140Y-136187219D01*
X124961860Y-136187219D01*
X124975295Y-136188542D01*
G37*
G36*
X133300295Y-136188542D02*
G01*
X133307310Y-136190670D01*
X133313776Y-136194127D01*
X133319442Y-136198777D01*
X133324092Y-136204443D01*
X133327549Y-136210909D01*
X133329677Y-136217924D01*
X133331000Y-136231359D01*
X133331000Y-136545079D01*
X133329677Y-136558514D01*
X133327549Y-136565528D01*
X133320190Y-136579296D01*
X133310813Y-136601935D01*
X133306033Y-136625968D01*
X133306033Y-136650472D01*
X133310814Y-136674505D01*
X133320190Y-136697142D01*
X133327549Y-136710910D01*
X133329677Y-136717924D01*
X133331000Y-136731359D01*
X133331000Y-137045079D01*
X133329677Y-137058514D01*
X133327549Y-137065528D01*
X133320190Y-137079296D01*
X133310813Y-137101935D01*
X133306033Y-137125968D01*
X133306033Y-137150472D01*
X133310814Y-137174505D01*
X133320190Y-137197142D01*
X133327549Y-137210910D01*
X133329677Y-137217924D01*
X133331000Y-137231359D01*
X133331000Y-137545079D01*
X133329677Y-137558514D01*
X133327549Y-137565528D01*
X133320190Y-137579296D01*
X133310813Y-137601935D01*
X133306033Y-137625968D01*
X133306033Y-137650472D01*
X133310814Y-137674505D01*
X133320190Y-137697142D01*
X133327549Y-137710910D01*
X133329677Y-137717924D01*
X133331000Y-137731359D01*
X133331000Y-138045079D01*
X133329677Y-138058514D01*
X133327549Y-138065528D01*
X133320190Y-138079296D01*
X133310813Y-138101935D01*
X133306033Y-138125968D01*
X133306033Y-138150472D01*
X133310814Y-138174505D01*
X133320190Y-138197142D01*
X133327549Y-138210910D01*
X133329677Y-138217924D01*
X133331000Y-138231359D01*
X133331000Y-138545079D01*
X133329677Y-138558514D01*
X133327549Y-138565528D01*
X133320190Y-138579296D01*
X133310813Y-138601935D01*
X133306033Y-138625968D01*
X133306033Y-138650472D01*
X133310814Y-138674505D01*
X133320190Y-138697142D01*
X133327549Y-138710910D01*
X133329677Y-138717924D01*
X133331000Y-138731359D01*
X133331000Y-139045079D01*
X133329677Y-139058514D01*
X133327549Y-139065528D01*
X133320190Y-139079296D01*
X133310813Y-139101935D01*
X133306033Y-139125968D01*
X133306033Y-139150472D01*
X133310814Y-139174505D01*
X133320190Y-139197142D01*
X133327549Y-139210910D01*
X133329677Y-139217924D01*
X133331000Y-139231359D01*
X133331000Y-139545079D01*
X133329677Y-139558514D01*
X133327549Y-139565528D01*
X133320190Y-139579296D01*
X133310813Y-139601935D01*
X133306033Y-139625968D01*
X133306033Y-139650472D01*
X133310814Y-139674505D01*
X133320190Y-139697142D01*
X133327549Y-139710910D01*
X133329677Y-139717924D01*
X133331000Y-139731359D01*
X133331000Y-140045079D01*
X133329677Y-140058514D01*
X133327549Y-140065528D01*
X133320190Y-140079296D01*
X133310813Y-140101935D01*
X133306033Y-140125968D01*
X133306033Y-140150472D01*
X133310814Y-140174505D01*
X133320190Y-140197142D01*
X133327549Y-140210910D01*
X133329677Y-140217924D01*
X133331000Y-140231359D01*
X133331000Y-140545079D01*
X133329677Y-140558514D01*
X133327549Y-140565528D01*
X133320190Y-140579296D01*
X133310813Y-140601935D01*
X133306033Y-140625968D01*
X133306033Y-140650472D01*
X133310814Y-140674505D01*
X133320190Y-140697142D01*
X133327549Y-140710910D01*
X133329677Y-140717924D01*
X133331000Y-140731359D01*
X133331000Y-141045079D01*
X133329677Y-141058514D01*
X133327549Y-141065528D01*
X133320190Y-141079296D01*
X133310813Y-141101935D01*
X133306033Y-141125968D01*
X133306033Y-141150472D01*
X133310814Y-141174505D01*
X133320190Y-141197142D01*
X133327549Y-141210910D01*
X133329677Y-141217924D01*
X133331000Y-141231359D01*
X133331000Y-141545079D01*
X133329677Y-141558514D01*
X133327549Y-141565528D01*
X133320190Y-141579296D01*
X133310813Y-141601935D01*
X133306033Y-141625968D01*
X133306033Y-141650472D01*
X133310814Y-141674505D01*
X133320190Y-141697142D01*
X133327549Y-141710910D01*
X133329677Y-141717924D01*
X133331000Y-141731359D01*
X133331000Y-142045079D01*
X133329677Y-142058514D01*
X133327549Y-142065529D01*
X133324092Y-142071995D01*
X133319442Y-142077661D01*
X133313776Y-142082311D01*
X133307310Y-142085768D01*
X133300295Y-142087896D01*
X133286860Y-142089219D01*
X131798140Y-142089219D01*
X131784705Y-142087896D01*
X131777690Y-142085768D01*
X131771224Y-142082311D01*
X131765558Y-142077661D01*
X131760908Y-142071995D01*
X131757451Y-142065529D01*
X131755323Y-142058514D01*
X131754000Y-142045079D01*
X131754000Y-141731359D01*
X131755323Y-141717924D01*
X131757451Y-141710910D01*
X131764810Y-141697142D01*
X131774187Y-141674503D01*
X131778967Y-141650470D01*
X131778967Y-141625966D01*
X131774186Y-141601933D01*
X131764810Y-141579296D01*
X131757451Y-141565528D01*
X131755323Y-141558514D01*
X131754000Y-141545079D01*
X131754000Y-141231359D01*
X131755323Y-141217924D01*
X131757451Y-141210910D01*
X131764810Y-141197142D01*
X131774187Y-141174503D01*
X131778967Y-141150470D01*
X131778967Y-141125966D01*
X131774186Y-141101933D01*
X131764810Y-141079296D01*
X131757451Y-141065528D01*
X131755323Y-141058514D01*
X131754000Y-141045079D01*
X131754000Y-140731359D01*
X131755323Y-140717924D01*
X131757451Y-140710910D01*
X131764810Y-140697142D01*
X131774187Y-140674503D01*
X131778967Y-140650470D01*
X131778967Y-140625966D01*
X131774186Y-140601933D01*
X131764810Y-140579296D01*
X131757451Y-140565528D01*
X131755323Y-140558514D01*
X131754000Y-140545079D01*
X131754000Y-140231359D01*
X131755323Y-140217924D01*
X131757451Y-140210910D01*
X131764810Y-140197142D01*
X131774187Y-140174503D01*
X131778967Y-140150470D01*
X131778967Y-140125966D01*
X131774186Y-140101933D01*
X131764810Y-140079296D01*
X131757451Y-140065528D01*
X131755323Y-140058514D01*
X131754000Y-140045079D01*
X131754000Y-139731359D01*
X131755323Y-139717924D01*
X131757451Y-139710910D01*
X131764810Y-139697142D01*
X131774187Y-139674503D01*
X131778967Y-139650470D01*
X131778967Y-139625966D01*
X131774186Y-139601933D01*
X131764810Y-139579296D01*
X131757451Y-139565528D01*
X131755323Y-139558514D01*
X131754000Y-139545079D01*
X131754000Y-139231359D01*
X131755323Y-139217924D01*
X131757451Y-139210910D01*
X131764810Y-139197142D01*
X131774187Y-139174503D01*
X131778967Y-139150470D01*
X131778967Y-139125966D01*
X131774186Y-139101933D01*
X131764810Y-139079296D01*
X131757451Y-139065528D01*
X131755323Y-139058514D01*
X131754000Y-139045079D01*
X131754000Y-138731359D01*
X131755323Y-138717924D01*
X131757451Y-138710910D01*
X131764810Y-138697142D01*
X131774187Y-138674503D01*
X131778967Y-138650470D01*
X131778967Y-138625966D01*
X131774186Y-138601933D01*
X131764810Y-138579296D01*
X131757451Y-138565528D01*
X131755323Y-138558514D01*
X131754000Y-138545079D01*
X131754000Y-138231359D01*
X131755323Y-138217924D01*
X131757451Y-138210910D01*
X131764810Y-138197142D01*
X131774187Y-138174503D01*
X131778967Y-138150470D01*
X131778967Y-138125966D01*
X131774186Y-138101933D01*
X131764810Y-138079296D01*
X131757451Y-138065528D01*
X131755323Y-138058514D01*
X131754000Y-138045079D01*
X131754000Y-137731359D01*
X131755323Y-137717924D01*
X131757451Y-137710910D01*
X131764810Y-137697142D01*
X131774187Y-137674503D01*
X131778967Y-137650470D01*
X131778967Y-137625966D01*
X131774186Y-137601933D01*
X131764810Y-137579296D01*
X131757451Y-137565528D01*
X131755323Y-137558514D01*
X131754000Y-137545079D01*
X131754000Y-137231359D01*
X131755323Y-137217924D01*
X131757451Y-137210910D01*
X131764810Y-137197142D01*
X131774187Y-137174503D01*
X131778967Y-137150470D01*
X131778967Y-137125966D01*
X131774186Y-137101933D01*
X131764810Y-137079296D01*
X131757451Y-137065528D01*
X131755323Y-137058514D01*
X131754000Y-137045079D01*
X131754000Y-136731359D01*
X131755323Y-136717924D01*
X131757451Y-136710910D01*
X131764810Y-136697142D01*
X131774187Y-136674503D01*
X131778967Y-136650470D01*
X131778967Y-136625966D01*
X131774186Y-136601933D01*
X131764810Y-136579296D01*
X131757451Y-136565528D01*
X131755323Y-136558514D01*
X131754000Y-136545079D01*
X131754000Y-136231359D01*
X131755323Y-136217924D01*
X131757451Y-136210909D01*
X131760908Y-136204443D01*
X131765558Y-136198777D01*
X131771224Y-136194127D01*
X131777690Y-136190670D01*
X131784705Y-136188542D01*
X131798140Y-136187219D01*
X133286860Y-136187219D01*
X133300295Y-136188542D01*
G37*
G36*
X146013512Y-138973927D02*
G01*
X146162812Y-139003624D01*
X146326784Y-139071544D01*
X146474354Y-139170147D01*
X146599853Y-139295646D01*
X146698456Y-139443216D01*
X146766376Y-139607188D01*
X146801000Y-139781259D01*
X146801000Y-139958741D01*
X146766376Y-140132812D01*
X146698456Y-140296784D01*
X146599853Y-140444354D01*
X146474354Y-140569853D01*
X146326784Y-140668456D01*
X146162812Y-140736376D01*
X146013512Y-140766073D01*
X145988742Y-140771000D01*
X145811258Y-140771000D01*
X145786488Y-140766073D01*
X145637188Y-140736376D01*
X145473216Y-140668456D01*
X145325646Y-140569853D01*
X145200147Y-140444354D01*
X145101544Y-140296784D01*
X145033624Y-140132812D01*
X144999000Y-139958741D01*
X144999000Y-139781259D01*
X145033624Y-139607188D01*
X145101544Y-139443216D01*
X145200147Y-139295646D01*
X145325646Y-139170147D01*
X145473216Y-139071544D01*
X145637188Y-139003624D01*
X145786488Y-138973927D01*
X145811258Y-138969000D01*
X145988742Y-138969000D01*
X146013512Y-138973927D01*
G37*
G36*
X111013512Y-138973927D02*
G01*
X111162812Y-139003624D01*
X111326784Y-139071544D01*
X111474354Y-139170147D01*
X111599853Y-139295646D01*
X111698456Y-139443216D01*
X111766376Y-139607188D01*
X111801000Y-139781259D01*
X111801000Y-139958741D01*
X111766376Y-140132812D01*
X111698456Y-140296784D01*
X111599853Y-140444354D01*
X111474354Y-140569853D01*
X111326784Y-140668456D01*
X111162812Y-140736376D01*
X111013512Y-140766073D01*
X110988742Y-140771000D01*
X110811258Y-140771000D01*
X110786488Y-140766073D01*
X110637188Y-140736376D01*
X110473216Y-140668456D01*
X110325646Y-140569853D01*
X110200147Y-140444354D01*
X110101544Y-140296784D01*
X110033624Y-140132812D01*
X109999000Y-139958741D01*
X109999000Y-139781259D01*
X110033624Y-139607188D01*
X110101544Y-139443216D01*
X110200147Y-139295646D01*
X110325646Y-139170147D01*
X110473216Y-139071544D01*
X110637188Y-139003624D01*
X110786488Y-138973927D01*
X110811258Y-138969000D01*
X110988742Y-138969000D01*
X111013512Y-138973927D01*
G37*
G36*
X111013512Y-136433927D02*
G01*
X111162812Y-136463624D01*
X111326784Y-136531544D01*
X111474354Y-136630147D01*
X111599853Y-136755646D01*
X111698456Y-136903216D01*
X111766376Y-137067188D01*
X111787722Y-137174505D01*
X111796359Y-137217924D01*
X111801000Y-137241259D01*
X111801000Y-137418741D01*
X111766376Y-137592812D01*
X111698456Y-137756784D01*
X111599853Y-137904354D01*
X111474354Y-138029853D01*
X111326784Y-138128456D01*
X111162812Y-138196376D01*
X111013512Y-138226073D01*
X110988742Y-138231000D01*
X110811258Y-138231000D01*
X110786488Y-138226073D01*
X110637188Y-138196376D01*
X110473216Y-138128456D01*
X110325646Y-138029853D01*
X110200147Y-137904354D01*
X110101544Y-137756784D01*
X110033624Y-137592812D01*
X109999000Y-137418741D01*
X109999000Y-137241259D01*
X110003642Y-137217924D01*
X110012278Y-137174505D01*
X110033624Y-137067188D01*
X110101544Y-136903216D01*
X110200147Y-136755646D01*
X110325646Y-136630147D01*
X110473216Y-136531544D01*
X110637188Y-136463624D01*
X110786488Y-136433927D01*
X110811258Y-136429000D01*
X110988742Y-136429000D01*
X111013512Y-136433927D01*
G37*
G36*
X146013512Y-136433927D02*
G01*
X146162812Y-136463624D01*
X146326784Y-136531544D01*
X146474354Y-136630147D01*
X146599853Y-136755646D01*
X146698456Y-136903216D01*
X146766376Y-137067188D01*
X146787722Y-137174505D01*
X146796359Y-137217924D01*
X146801000Y-137241259D01*
X146801000Y-137418741D01*
X146766376Y-137592812D01*
X146698456Y-137756784D01*
X146599853Y-137904354D01*
X146474354Y-138029853D01*
X146326784Y-138128456D01*
X146162812Y-138196376D01*
X146013512Y-138226073D01*
X145988742Y-138231000D01*
X145811258Y-138231000D01*
X145786488Y-138226073D01*
X145637188Y-138196376D01*
X145473216Y-138128456D01*
X145325646Y-138029853D01*
X145200147Y-137904354D01*
X145101544Y-137756784D01*
X145033624Y-137592812D01*
X144999000Y-137418741D01*
X144999000Y-137241259D01*
X145003642Y-137217924D01*
X145012278Y-137174505D01*
X145033624Y-137067188D01*
X145101544Y-136903216D01*
X145200147Y-136755646D01*
X145325646Y-136630147D01*
X145473216Y-136531544D01*
X145637188Y-136463624D01*
X145786488Y-136433927D01*
X145811258Y-136429000D01*
X145988742Y-136429000D01*
X146013512Y-136433927D01*
G37*
G36*
X136654591Y-134903085D02*
G01*
X136688569Y-134913393D01*
X136719890Y-134930134D01*
X136747339Y-134952661D01*
X136769866Y-134980110D01*
X136786607Y-135011431D01*
X136796915Y-135045409D01*
X136801000Y-135086890D01*
X136801000Y-135763110D01*
X136796915Y-135804591D01*
X136786607Y-135838569D01*
X136769866Y-135869890D01*
X136747339Y-135897339D01*
X136719890Y-135919866D01*
X136688569Y-135936607D01*
X136654591Y-135946915D01*
X136613110Y-135951000D01*
X136011890Y-135951000D01*
X135970409Y-135946915D01*
X135936431Y-135936607D01*
X135905110Y-135919866D01*
X135877661Y-135897339D01*
X135855134Y-135869890D01*
X135838393Y-135838569D01*
X135828085Y-135804591D01*
X135824000Y-135763110D01*
X135824000Y-135086890D01*
X135828085Y-135045409D01*
X135838393Y-135011431D01*
X135855134Y-134980110D01*
X135877661Y-134952661D01*
X135905110Y-134930134D01*
X135936431Y-134913393D01*
X135970409Y-134903085D01*
X136011890Y-134899000D01*
X136613110Y-134899000D01*
X136654591Y-134903085D01*
G37*
G36*
X135079591Y-134903085D02*
G01*
X135113569Y-134913393D01*
X135144890Y-134930134D01*
X135172339Y-134952661D01*
X135194866Y-134980110D01*
X135211607Y-135011431D01*
X135221915Y-135045409D01*
X135226000Y-135086890D01*
X135226000Y-135763110D01*
X135221915Y-135804591D01*
X135211607Y-135838569D01*
X135194866Y-135869890D01*
X135172339Y-135897339D01*
X135144890Y-135919866D01*
X135113569Y-135936607D01*
X135079591Y-135946915D01*
X135038110Y-135951000D01*
X134436890Y-135951000D01*
X134395409Y-135946915D01*
X134361431Y-135936607D01*
X134330110Y-135919866D01*
X134302661Y-135897339D01*
X134280134Y-135869890D01*
X134263393Y-135838569D01*
X134253085Y-135804591D01*
X134249000Y-135763110D01*
X134249000Y-135086890D01*
X134253085Y-135045409D01*
X134263393Y-135011431D01*
X134280134Y-134980110D01*
X134302661Y-134952661D01*
X134330110Y-134930134D01*
X134361431Y-134913393D01*
X134395409Y-134903085D01*
X134436890Y-134899000D01*
X135038110Y-134899000D01*
X135079591Y-134903085D01*
G37*
G36*
X120329591Y-134778085D02*
G01*
X120363569Y-134788393D01*
X120394890Y-134805134D01*
X120422339Y-134827661D01*
X120444866Y-134855110D01*
X120461607Y-134886431D01*
X120471915Y-134920409D01*
X120476000Y-134961890D01*
X120476000Y-135638110D01*
X120471915Y-135679591D01*
X120461607Y-135713569D01*
X120444866Y-135744890D01*
X120422339Y-135772339D01*
X120394890Y-135794866D01*
X120363569Y-135811607D01*
X120329591Y-135821915D01*
X120288110Y-135826000D01*
X119686890Y-135826000D01*
X119645409Y-135821915D01*
X119611431Y-135811607D01*
X119580110Y-135794866D01*
X119552661Y-135772339D01*
X119530134Y-135744890D01*
X119513393Y-135713569D01*
X119503085Y-135679591D01*
X119499000Y-135638110D01*
X119499000Y-134961890D01*
X119503085Y-134920409D01*
X119513393Y-134886431D01*
X119530134Y-134855110D01*
X119552661Y-134827661D01*
X119580110Y-134805134D01*
X119611431Y-134788393D01*
X119645409Y-134778085D01*
X119686890Y-134774000D01*
X120288110Y-134774000D01*
X120329591Y-134778085D01*
G37*
G36*
X118754591Y-134778085D02*
G01*
X118788569Y-134788393D01*
X118819890Y-134805134D01*
X118847339Y-134827661D01*
X118869866Y-134855110D01*
X118886607Y-134886431D01*
X118896915Y-134920409D01*
X118901000Y-134961890D01*
X118901000Y-135638110D01*
X118896915Y-135679591D01*
X118886607Y-135713569D01*
X118869866Y-135744890D01*
X118847339Y-135772339D01*
X118819890Y-135794866D01*
X118788569Y-135811607D01*
X118754591Y-135821915D01*
X118713110Y-135826000D01*
X118111890Y-135826000D01*
X118070409Y-135821915D01*
X118036431Y-135811607D01*
X118005110Y-135794866D01*
X117977661Y-135772339D01*
X117955134Y-135744890D01*
X117938393Y-135713569D01*
X117928085Y-135679591D01*
X117924000Y-135638110D01*
X117924000Y-134961890D01*
X117928085Y-134920409D01*
X117938393Y-134886431D01*
X117955134Y-134855110D01*
X117977661Y-134827661D01*
X118005110Y-134805134D01*
X118036431Y-134788393D01*
X118070409Y-134778085D01*
X118111890Y-134774000D01*
X118713110Y-134774000D01*
X118754591Y-134778085D01*
G37*
G36*
X125800295Y-134188542D02*
G01*
X125807309Y-134190670D01*
X125821077Y-134198029D01*
X125843716Y-134207406D01*
X125867749Y-134212186D01*
X125892253Y-134212186D01*
X125916286Y-134207405D01*
X125938923Y-134198029D01*
X125952691Y-134190670D01*
X125959705Y-134188542D01*
X125973140Y-134187219D01*
X126286860Y-134187219D01*
X126300295Y-134188542D01*
X126307309Y-134190670D01*
X126321077Y-134198029D01*
X126343716Y-134207406D01*
X126367749Y-134212186D01*
X126392253Y-134212186D01*
X126416286Y-134207405D01*
X126438923Y-134198029D01*
X126452691Y-134190670D01*
X126459705Y-134188542D01*
X126473140Y-134187219D01*
X126786860Y-134187219D01*
X126800295Y-134188542D01*
X126807309Y-134190670D01*
X126821077Y-134198029D01*
X126843716Y-134207406D01*
X126867749Y-134212186D01*
X126892253Y-134212186D01*
X126916286Y-134207405D01*
X126938923Y-134198029D01*
X126952691Y-134190670D01*
X126959705Y-134188542D01*
X126973140Y-134187219D01*
X127286860Y-134187219D01*
X127300295Y-134188542D01*
X127307309Y-134190670D01*
X127321077Y-134198029D01*
X127343716Y-134207406D01*
X127367749Y-134212186D01*
X127392253Y-134212186D01*
X127416286Y-134207405D01*
X127438923Y-134198029D01*
X127452691Y-134190670D01*
X127459705Y-134188542D01*
X127473140Y-134187219D01*
X127786860Y-134187219D01*
X127800295Y-134188542D01*
X127807309Y-134190670D01*
X127821077Y-134198029D01*
X127843716Y-134207406D01*
X127867749Y-134212186D01*
X127892253Y-134212186D01*
X127916286Y-134207405D01*
X127938923Y-134198029D01*
X127952691Y-134190670D01*
X127959705Y-134188542D01*
X127973140Y-134187219D01*
X128286860Y-134187219D01*
X128300295Y-134188542D01*
X128307309Y-134190670D01*
X128321077Y-134198029D01*
X128343716Y-134207406D01*
X128367749Y-134212186D01*
X128392253Y-134212186D01*
X128416286Y-134207405D01*
X128438923Y-134198029D01*
X128452691Y-134190670D01*
X128459705Y-134188542D01*
X128473140Y-134187219D01*
X128786860Y-134187219D01*
X128800295Y-134188542D01*
X128807309Y-134190670D01*
X128821077Y-134198029D01*
X128843716Y-134207406D01*
X128867749Y-134212186D01*
X128892253Y-134212186D01*
X128916286Y-134207405D01*
X128938923Y-134198029D01*
X128952691Y-134190670D01*
X128959705Y-134188542D01*
X128973140Y-134187219D01*
X129286860Y-134187219D01*
X129300295Y-134188542D01*
X129307309Y-134190670D01*
X129321077Y-134198029D01*
X129343716Y-134207406D01*
X129367749Y-134212186D01*
X129392253Y-134212186D01*
X129416286Y-134207405D01*
X129438923Y-134198029D01*
X129452691Y-134190670D01*
X129459705Y-134188542D01*
X129473140Y-134187219D01*
X129786860Y-134187219D01*
X129800295Y-134188542D01*
X129807309Y-134190670D01*
X129821077Y-134198029D01*
X129843716Y-134207406D01*
X129867749Y-134212186D01*
X129892253Y-134212186D01*
X129916286Y-134207405D01*
X129938923Y-134198029D01*
X129952691Y-134190670D01*
X129959705Y-134188542D01*
X129973140Y-134187219D01*
X130286860Y-134187219D01*
X130300295Y-134188542D01*
X130307309Y-134190670D01*
X130321077Y-134198029D01*
X130343716Y-134207406D01*
X130367749Y-134212186D01*
X130392253Y-134212186D01*
X130416286Y-134207405D01*
X130438923Y-134198029D01*
X130452691Y-134190670D01*
X130459705Y-134188542D01*
X130473140Y-134187219D01*
X130786860Y-134187219D01*
X130800295Y-134188542D01*
X130807309Y-134190670D01*
X130821077Y-134198029D01*
X130843716Y-134207406D01*
X130867749Y-134212186D01*
X130892253Y-134212186D01*
X130916286Y-134207405D01*
X130938923Y-134198029D01*
X130952691Y-134190670D01*
X130959705Y-134188542D01*
X130973140Y-134187219D01*
X131286860Y-134187219D01*
X131300295Y-134188542D01*
X131307310Y-134190670D01*
X131313776Y-134194127D01*
X131319442Y-134198777D01*
X131324092Y-134204443D01*
X131327549Y-134210909D01*
X131329677Y-134217924D01*
X131331000Y-134231359D01*
X131331000Y-135720079D01*
X131329677Y-135733514D01*
X131327549Y-135740529D01*
X131324092Y-135746995D01*
X131319442Y-135752661D01*
X131313776Y-135757311D01*
X131307310Y-135760768D01*
X131300295Y-135762896D01*
X131286860Y-135764219D01*
X130973140Y-135764219D01*
X130959705Y-135762896D01*
X130952691Y-135760768D01*
X130938923Y-135753409D01*
X130916284Y-135744032D01*
X130892251Y-135739252D01*
X130867747Y-135739252D01*
X130843714Y-135744033D01*
X130821077Y-135753409D01*
X130807309Y-135760768D01*
X130800295Y-135762896D01*
X130786860Y-135764219D01*
X130473140Y-135764219D01*
X130459705Y-135762896D01*
X130452691Y-135760768D01*
X130438923Y-135753409D01*
X130416284Y-135744032D01*
X130392251Y-135739252D01*
X130367747Y-135739252D01*
X130343714Y-135744033D01*
X130321077Y-135753409D01*
X130307309Y-135760768D01*
X130300295Y-135762896D01*
X130286860Y-135764219D01*
X129973140Y-135764219D01*
X129959705Y-135762896D01*
X129952691Y-135760768D01*
X129938923Y-135753409D01*
X129916284Y-135744032D01*
X129892251Y-135739252D01*
X129867747Y-135739252D01*
X129843714Y-135744033D01*
X129821077Y-135753409D01*
X129807309Y-135760768D01*
X129800295Y-135762896D01*
X129786860Y-135764219D01*
X129473140Y-135764219D01*
X129459705Y-135762896D01*
X129452691Y-135760768D01*
X129438923Y-135753409D01*
X129416284Y-135744032D01*
X129392251Y-135739252D01*
X129367747Y-135739252D01*
X129343714Y-135744033D01*
X129321077Y-135753409D01*
X129307309Y-135760768D01*
X129300295Y-135762896D01*
X129286860Y-135764219D01*
X128973140Y-135764219D01*
X128959705Y-135762896D01*
X128952691Y-135760768D01*
X128938923Y-135753409D01*
X128916284Y-135744032D01*
X128892251Y-135739252D01*
X128867747Y-135739252D01*
X128843714Y-135744033D01*
X128821077Y-135753409D01*
X128807309Y-135760768D01*
X128800295Y-135762896D01*
X128786860Y-135764219D01*
X128473140Y-135764219D01*
X128459705Y-135762896D01*
X128452691Y-135760768D01*
X128438923Y-135753409D01*
X128416284Y-135744032D01*
X128392251Y-135739252D01*
X128367747Y-135739252D01*
X128343714Y-135744033D01*
X128321077Y-135753409D01*
X128307309Y-135760768D01*
X128300295Y-135762896D01*
X128286860Y-135764219D01*
X127973140Y-135764219D01*
X127959705Y-135762896D01*
X127952691Y-135760768D01*
X127938923Y-135753409D01*
X127916284Y-135744032D01*
X127892251Y-135739252D01*
X127867747Y-135739252D01*
X127843714Y-135744033D01*
X127821077Y-135753409D01*
X127807309Y-135760768D01*
X127800295Y-135762896D01*
X127786860Y-135764219D01*
X127473140Y-135764219D01*
X127459705Y-135762896D01*
X127452691Y-135760768D01*
X127438923Y-135753409D01*
X127416284Y-135744032D01*
X127392251Y-135739252D01*
X127367747Y-135739252D01*
X127343714Y-135744033D01*
X127321077Y-135753409D01*
X127307309Y-135760768D01*
X127300295Y-135762896D01*
X127286860Y-135764219D01*
X126973140Y-135764219D01*
X126959705Y-135762896D01*
X126952691Y-135760768D01*
X126938923Y-135753409D01*
X126916284Y-135744032D01*
X126892251Y-135739252D01*
X126867747Y-135739252D01*
X126843714Y-135744033D01*
X126821077Y-135753409D01*
X126807309Y-135760768D01*
X126800295Y-135762896D01*
X126786860Y-135764219D01*
X126473140Y-135764219D01*
X126459705Y-135762896D01*
X126452691Y-135760768D01*
X126438923Y-135753409D01*
X126416284Y-135744032D01*
X126392251Y-135739252D01*
X126367747Y-135739252D01*
X126343714Y-135744033D01*
X126321077Y-135753409D01*
X126307309Y-135760768D01*
X126300295Y-135762896D01*
X126286860Y-135764219D01*
X125973140Y-135764219D01*
X125959705Y-135762896D01*
X125952691Y-135760768D01*
X125938923Y-135753409D01*
X125916284Y-135744032D01*
X125892251Y-135739252D01*
X125867747Y-135739252D01*
X125843714Y-135744033D01*
X125821077Y-135753409D01*
X125807309Y-135760768D01*
X125800295Y-135762896D01*
X125786860Y-135764219D01*
X125473140Y-135764219D01*
X125459705Y-135762896D01*
X125452690Y-135760768D01*
X125446224Y-135757311D01*
X125440558Y-135752661D01*
X125435908Y-135746995D01*
X125432451Y-135740529D01*
X125430323Y-135733514D01*
X125429000Y-135720079D01*
X125429000Y-134231359D01*
X125430323Y-134217924D01*
X125432451Y-134210909D01*
X125435908Y-134204443D01*
X125440558Y-134198777D01*
X125446224Y-134194127D01*
X125452690Y-134190670D01*
X125459705Y-134188542D01*
X125473140Y-134187219D01*
X125786860Y-134187219D01*
X125800295Y-134188542D01*
G37*
G36*
X111013512Y-133893927D02*
G01*
X111162812Y-133923624D01*
X111326784Y-133991544D01*
X111474354Y-134090147D01*
X111599853Y-134215646D01*
X111698456Y-134363216D01*
X111766376Y-134527188D01*
X111796073Y-134676488D01*
X111801000Y-134701258D01*
X111801000Y-134878742D01*
X111796970Y-134899000D01*
X111766376Y-135052812D01*
X111698456Y-135216784D01*
X111599853Y-135364354D01*
X111474354Y-135489853D01*
X111326784Y-135588456D01*
X111162812Y-135656376D01*
X111013512Y-135686073D01*
X110988742Y-135691000D01*
X110811258Y-135691000D01*
X110786488Y-135686073D01*
X110637188Y-135656376D01*
X110473216Y-135588456D01*
X110325646Y-135489853D01*
X110200147Y-135364354D01*
X110101544Y-135216784D01*
X110033624Y-135052812D01*
X110003030Y-134899000D01*
X109999000Y-134878742D01*
X109999000Y-134701258D01*
X110003927Y-134676488D01*
X110033624Y-134527188D01*
X110101544Y-134363216D01*
X110200147Y-134215646D01*
X110325646Y-134090147D01*
X110473216Y-133991544D01*
X110637188Y-133923624D01*
X110786488Y-133893927D01*
X110811258Y-133889000D01*
X110988742Y-133889000D01*
X111013512Y-133893927D01*
G37*
G36*
X146013512Y-133893927D02*
G01*
X146162812Y-133923624D01*
X146326784Y-133991544D01*
X146474354Y-134090147D01*
X146599853Y-134215646D01*
X146698456Y-134363216D01*
X146766376Y-134527188D01*
X146796073Y-134676488D01*
X146801000Y-134701258D01*
X146801000Y-134878742D01*
X146796970Y-134899000D01*
X146766376Y-135052812D01*
X146698456Y-135216784D01*
X146599853Y-135364354D01*
X146474354Y-135489853D01*
X146326784Y-135588456D01*
X146162812Y-135656376D01*
X146013512Y-135686073D01*
X145988742Y-135691000D01*
X145811258Y-135691000D01*
X145786488Y-135686073D01*
X145637188Y-135656376D01*
X145473216Y-135588456D01*
X145325646Y-135489853D01*
X145200147Y-135364354D01*
X145101544Y-135216784D01*
X145033624Y-135052812D01*
X145003030Y-134899000D01*
X144999000Y-134878742D01*
X144999000Y-134701258D01*
X145003927Y-134676488D01*
X145033624Y-134527188D01*
X145101544Y-134363216D01*
X145200147Y-134215646D01*
X145325646Y-134090147D01*
X145473216Y-133991544D01*
X145637188Y-133923624D01*
X145786488Y-133893927D01*
X145811258Y-133889000D01*
X145988742Y-133889000D01*
X146013512Y-133893927D01*
G37*
G36*
X123249591Y-132728085D02*
G01*
X123283569Y-132738393D01*
X123314890Y-132755134D01*
X123342339Y-132777661D01*
X123364866Y-132805110D01*
X123381607Y-132836431D01*
X123391915Y-132870409D01*
X123396000Y-132911890D01*
X123396000Y-133588110D01*
X123391915Y-133629591D01*
X123381607Y-133663569D01*
X123364866Y-133694890D01*
X123342339Y-133722339D01*
X123314890Y-133744866D01*
X123283569Y-133761607D01*
X123249591Y-133771915D01*
X123208110Y-133776000D01*
X122606890Y-133776000D01*
X122565409Y-133771915D01*
X122531431Y-133761607D01*
X122500110Y-133744866D01*
X122472661Y-133722339D01*
X122450134Y-133694890D01*
X122433393Y-133663569D01*
X122423085Y-133629591D01*
X122419000Y-133588110D01*
X122419000Y-132911890D01*
X122423085Y-132870409D01*
X122433393Y-132836431D01*
X122450134Y-132805110D01*
X122472661Y-132777661D01*
X122500110Y-132755134D01*
X122531431Y-132738393D01*
X122565409Y-132728085D01*
X122606890Y-132724000D01*
X123208110Y-132724000D01*
X123249591Y-132728085D01*
G37*
G36*
X124824591Y-132728085D02*
G01*
X124858569Y-132738393D01*
X124889890Y-132755134D01*
X124917339Y-132777661D01*
X124939866Y-132805110D01*
X124956607Y-132836431D01*
X124966915Y-132870409D01*
X124971000Y-132911890D01*
X124971000Y-133588110D01*
X124966915Y-133629591D01*
X124956607Y-133663569D01*
X124939866Y-133694890D01*
X124917339Y-133722339D01*
X124889890Y-133744866D01*
X124858569Y-133761607D01*
X124824591Y-133771915D01*
X124783110Y-133776000D01*
X124181890Y-133776000D01*
X124140409Y-133771915D01*
X124106431Y-133761607D01*
X124075110Y-133744866D01*
X124047661Y-133722339D01*
X124025134Y-133694890D01*
X124008393Y-133663569D01*
X123998085Y-133629591D01*
X123994000Y-133588110D01*
X123994000Y-132911890D01*
X123998085Y-132870409D01*
X124008393Y-132836431D01*
X124025134Y-132805110D01*
X124047661Y-132777661D01*
X124075110Y-132755134D01*
X124106431Y-132738393D01*
X124140409Y-132728085D01*
X124181890Y-132724000D01*
X124783110Y-132724000D01*
X124824591Y-132728085D01*
G37*
G36*
X145995825Y-131350409D02*
G01*
X146162812Y-131383624D01*
X146326784Y-131451544D01*
X146474354Y-131550147D01*
X146599853Y-131675646D01*
X146698456Y-131823216D01*
X146766376Y-131987188D01*
X146801000Y-132161259D01*
X146801000Y-132338741D01*
X146766376Y-132512812D01*
X146698456Y-132676784D01*
X146599853Y-132824354D01*
X146474354Y-132949853D01*
X146326784Y-133048456D01*
X146162812Y-133116376D01*
X146013512Y-133146073D01*
X145988742Y-133151000D01*
X145811258Y-133151000D01*
X145786488Y-133146073D01*
X145637188Y-133116376D01*
X145473216Y-133048456D01*
X145325646Y-132949853D01*
X145200147Y-132824354D01*
X145101544Y-132676784D01*
X145033624Y-132512812D01*
X144999000Y-132338741D01*
X144999000Y-132161259D01*
X145033624Y-131987188D01*
X145101544Y-131823216D01*
X145200147Y-131675646D01*
X145325646Y-131550147D01*
X145473216Y-131451544D01*
X145637188Y-131383624D01*
X145804175Y-131350409D01*
X145811258Y-131349000D01*
X145988742Y-131349000D01*
X145995825Y-131350409D01*
G37*
G36*
X110995825Y-131350409D02*
G01*
X111162812Y-131383624D01*
X111326784Y-131451544D01*
X111474354Y-131550147D01*
X111599853Y-131675646D01*
X111698456Y-131823216D01*
X111766376Y-131987188D01*
X111801000Y-132161259D01*
X111801000Y-132338741D01*
X111766376Y-132512812D01*
X111698456Y-132676784D01*
X111599853Y-132824354D01*
X111474354Y-132949853D01*
X111326784Y-133048456D01*
X111162812Y-133116376D01*
X111013512Y-133146073D01*
X110988742Y-133151000D01*
X110811258Y-133151000D01*
X110786488Y-133146073D01*
X110637188Y-133116376D01*
X110473216Y-133048456D01*
X110325646Y-132949853D01*
X110200147Y-132824354D01*
X110101544Y-132676784D01*
X110033624Y-132512812D01*
X109999000Y-132338741D01*
X109999000Y-132161259D01*
X110033624Y-131987188D01*
X110101544Y-131823216D01*
X110200147Y-131675646D01*
X110325646Y-131550147D01*
X110473216Y-131451544D01*
X110637188Y-131383624D01*
X110804175Y-131350409D01*
X110811258Y-131349000D01*
X110988742Y-131349000D01*
X110995825Y-131350409D01*
G37*
G36*
X124824591Y-131208085D02*
G01*
X124858569Y-131218393D01*
X124889890Y-131235134D01*
X124917339Y-131257661D01*
X124939866Y-131285110D01*
X124956607Y-131316431D01*
X124966915Y-131350409D01*
X124971000Y-131391890D01*
X124971000Y-132068110D01*
X124966915Y-132109591D01*
X124956607Y-132143569D01*
X124939866Y-132174890D01*
X124917339Y-132202339D01*
X124889890Y-132224866D01*
X124858569Y-132241607D01*
X124824591Y-132251915D01*
X124783110Y-132256000D01*
X124181890Y-132256000D01*
X124140409Y-132251915D01*
X124106431Y-132241607D01*
X124075110Y-132224866D01*
X124047661Y-132202339D01*
X124025134Y-132174890D01*
X124008393Y-132143569D01*
X123998085Y-132109591D01*
X123994000Y-132068110D01*
X123994000Y-131391890D01*
X123998085Y-131350409D01*
X124008393Y-131316431D01*
X124025134Y-131285110D01*
X124047661Y-131257661D01*
X124075110Y-131235134D01*
X124106431Y-131218393D01*
X124140409Y-131208085D01*
X124181890Y-131204000D01*
X124783110Y-131204000D01*
X124824591Y-131208085D01*
G37*
G36*
X123249591Y-131208085D02*
G01*
X123283569Y-131218393D01*
X123314890Y-131235134D01*
X123342339Y-131257661D01*
X123364866Y-131285110D01*
X123381607Y-131316431D01*
X123391915Y-131350409D01*
X123396000Y-131391890D01*
X123396000Y-132068110D01*
X123391915Y-132109591D01*
X123381607Y-132143569D01*
X123364866Y-132174890D01*
X123342339Y-132202339D01*
X123314890Y-132224866D01*
X123283569Y-132241607D01*
X123249591Y-132251915D01*
X123208110Y-132256000D01*
X122606890Y-132256000D01*
X122565409Y-132251915D01*
X122531431Y-132241607D01*
X122500110Y-132224866D01*
X122472661Y-132202339D01*
X122450134Y-132174890D01*
X122433393Y-132143569D01*
X122423085Y-132109591D01*
X122419000Y-132068110D01*
X122419000Y-131391890D01*
X122423085Y-131350409D01*
X122433393Y-131316431D01*
X122450134Y-131285110D01*
X122472661Y-131257661D01*
X122500110Y-131235134D01*
X122531431Y-131218393D01*
X122565409Y-131208085D01*
X122606890Y-131204000D01*
X123208110Y-131204000D01*
X123249591Y-131208085D01*
G37*
G36*
X111013512Y-128813927D02*
G01*
X111162812Y-128843624D01*
X111326784Y-128911544D01*
X111474354Y-129010147D01*
X111599853Y-129135646D01*
X111698456Y-129283216D01*
X111766376Y-129447188D01*
X111801000Y-129621259D01*
X111801000Y-129798741D01*
X111766376Y-129972812D01*
X111698456Y-130136784D01*
X111599853Y-130284354D01*
X111474354Y-130409853D01*
X111326784Y-130508456D01*
X111162812Y-130576376D01*
X111013512Y-130606073D01*
X110988742Y-130611000D01*
X110811258Y-130611000D01*
X110786488Y-130606073D01*
X110637188Y-130576376D01*
X110473216Y-130508456D01*
X110325646Y-130409853D01*
X110200147Y-130284354D01*
X110101544Y-130136784D01*
X110033624Y-129972812D01*
X109999000Y-129798741D01*
X109999000Y-129621259D01*
X110033624Y-129447188D01*
X110101544Y-129283216D01*
X110200147Y-129135646D01*
X110325646Y-129010147D01*
X110473216Y-128911544D01*
X110637188Y-128843624D01*
X110786488Y-128813927D01*
X110811258Y-128809000D01*
X110988742Y-128809000D01*
X111013512Y-128813927D01*
G37*
G36*
X146013512Y-128813927D02*
G01*
X146162812Y-128843624D01*
X146326784Y-128911544D01*
X146474354Y-129010147D01*
X146599853Y-129135646D01*
X146698456Y-129283216D01*
X146766376Y-129447188D01*
X146801000Y-129621259D01*
X146801000Y-129798741D01*
X146766376Y-129972812D01*
X146698456Y-130136784D01*
X146599853Y-130284354D01*
X146474354Y-130409853D01*
X146326784Y-130508456D01*
X146162812Y-130576376D01*
X146013512Y-130606073D01*
X145988742Y-130611000D01*
X145811258Y-130611000D01*
X145786488Y-130606073D01*
X145637188Y-130576376D01*
X145473216Y-130508456D01*
X145325646Y-130409853D01*
X145200147Y-130284354D01*
X145101544Y-130136784D01*
X145033624Y-129972812D01*
X144999000Y-129798741D01*
X144999000Y-129621259D01*
X145033624Y-129447188D01*
X145101544Y-129283216D01*
X145200147Y-129135646D01*
X145325646Y-129010147D01*
X145473216Y-128911544D01*
X145637188Y-128843624D01*
X145786488Y-128813927D01*
X145811258Y-128809000D01*
X145988742Y-128809000D01*
X146013512Y-128813927D01*
G37*
G36*
X134154591Y-129078085D02*
G01*
X134188569Y-129088393D01*
X134219890Y-129105134D01*
X134247339Y-129127661D01*
X134269866Y-129155110D01*
X134286607Y-129186431D01*
X134296915Y-129220409D01*
X134301000Y-129261890D01*
X134301000Y-129938110D01*
X134296915Y-129979591D01*
X134286607Y-130013569D01*
X134269866Y-130044890D01*
X134247339Y-130072339D01*
X134219890Y-130094866D01*
X134188569Y-130111607D01*
X134154591Y-130121915D01*
X134113110Y-130126000D01*
X133511890Y-130126000D01*
X133470409Y-130121915D01*
X133436431Y-130111607D01*
X133405110Y-130094866D01*
X133377661Y-130072339D01*
X133355134Y-130044890D01*
X133338393Y-130013569D01*
X133328085Y-129979591D01*
X133324000Y-129938110D01*
X133324000Y-129261890D01*
X133328085Y-129220409D01*
X133338393Y-129186431D01*
X133355134Y-129155110D01*
X133377661Y-129127661D01*
X133405110Y-129105134D01*
X133436431Y-129088393D01*
X133470409Y-129078085D01*
X133511890Y-129074000D01*
X134113110Y-129074000D01*
X134154591Y-129078085D01*
G37*
G36*
X132579591Y-129078085D02*
G01*
X132613569Y-129088393D01*
X132644890Y-129105134D01*
X132672339Y-129127661D01*
X132694866Y-129155110D01*
X132711607Y-129186431D01*
X132721915Y-129220409D01*
X132726000Y-129261890D01*
X132726000Y-129938110D01*
X132721915Y-129979591D01*
X132711607Y-130013569D01*
X132694866Y-130044890D01*
X132672339Y-130072339D01*
X132644890Y-130094866D01*
X132613569Y-130111607D01*
X132579591Y-130121915D01*
X132538110Y-130126000D01*
X131936890Y-130126000D01*
X131895409Y-130121915D01*
X131861431Y-130111607D01*
X131830110Y-130094866D01*
X131802661Y-130072339D01*
X131780134Y-130044890D01*
X131763393Y-130013569D01*
X131753085Y-129979591D01*
X131749000Y-129938110D01*
X131749000Y-129261890D01*
X131753085Y-129220409D01*
X131763393Y-129186431D01*
X131780134Y-129155110D01*
X131802661Y-129127661D01*
X131830110Y-129105134D01*
X131861431Y-129088393D01*
X131895409Y-129078085D01*
X131936890Y-129074000D01*
X132538110Y-129074000D01*
X132579591Y-129078085D01*
G37*
G36*
X122747798Y-128478247D02*
G01*
X122783367Y-128489037D01*
X122816139Y-128506554D01*
X122844869Y-128530131D01*
X122868446Y-128558861D01*
X122885963Y-128591633D01*
X122896753Y-128627202D01*
X122901000Y-128670325D01*
X122901000Y-129729675D01*
X122896753Y-129772798D01*
X122885963Y-129808367D01*
X122868446Y-129841139D01*
X122844869Y-129869869D01*
X122816139Y-129893446D01*
X122783367Y-129910963D01*
X122747798Y-129921753D01*
X122704675Y-129926000D01*
X121595325Y-129926000D01*
X121552202Y-129921753D01*
X121516633Y-129910963D01*
X121483861Y-129893446D01*
X121455131Y-129869869D01*
X121431554Y-129841139D01*
X121414037Y-129808367D01*
X121403247Y-129772798D01*
X121399000Y-129729675D01*
X121399000Y-128670325D01*
X121403247Y-128627202D01*
X121414037Y-128591633D01*
X121431554Y-128558861D01*
X121455131Y-128530131D01*
X121483861Y-128506554D01*
X121516633Y-128489037D01*
X121552202Y-128478247D01*
X121595325Y-128474000D01*
X122704675Y-128474000D01*
X122747798Y-128478247D01*
G37*
G36*
X120047798Y-128478247D02*
G01*
X120083367Y-128489037D01*
X120116139Y-128506554D01*
X120144869Y-128530131D01*
X120168446Y-128558861D01*
X120185963Y-128591633D01*
X120196753Y-128627202D01*
X120201000Y-128670325D01*
X120201000Y-129729675D01*
X120196753Y-129772798D01*
X120185963Y-129808367D01*
X120168446Y-129841139D01*
X120144869Y-129869869D01*
X120116139Y-129893446D01*
X120083367Y-129910963D01*
X120047798Y-129921753D01*
X120004675Y-129926000D01*
X118895325Y-129926000D01*
X118852202Y-129921753D01*
X118816633Y-129910963D01*
X118783861Y-129893446D01*
X118755131Y-129869869D01*
X118731554Y-129841139D01*
X118714037Y-129808367D01*
X118703247Y-129772798D01*
X118699000Y-129729675D01*
X118699000Y-128670325D01*
X118703247Y-128627202D01*
X118714037Y-128591633D01*
X118731554Y-128558861D01*
X118755131Y-128530131D01*
X118783861Y-128506554D01*
X118816633Y-128489037D01*
X118852202Y-128478247D01*
X118895325Y-128474000D01*
X120004675Y-128474000D01*
X120047798Y-128478247D01*
G37*
G36*
X128567626Y-127156015D02*
G01*
X128601604Y-127166323D01*
X128632925Y-127183064D01*
X128665139Y-127209502D01*
X128704990Y-127249353D01*
X128704996Y-127249358D01*
X129103451Y-127647813D01*
X129103456Y-127647819D01*
X129143307Y-127687670D01*
X129169745Y-127719884D01*
X129186486Y-127751205D01*
X129196794Y-127785183D01*
X129200274Y-127820524D01*
X129196794Y-127855865D01*
X129186486Y-127889843D01*
X129169745Y-127921164D01*
X129143307Y-127953378D01*
X129103456Y-127993229D01*
X129103451Y-127993235D01*
X128758030Y-128338656D01*
X128758024Y-128338661D01*
X128718173Y-128378512D01*
X128685959Y-128404950D01*
X128654638Y-128421691D01*
X128620660Y-128431999D01*
X128585319Y-128435479D01*
X128549978Y-128431999D01*
X128516000Y-128421691D01*
X128484679Y-128404950D01*
X128452465Y-128378512D01*
X128412614Y-128338661D01*
X128412608Y-128338656D01*
X128014153Y-127940201D01*
X128014148Y-127940195D01*
X127974297Y-127900344D01*
X127947859Y-127868130D01*
X127931118Y-127836809D01*
X127920810Y-127802831D01*
X127917330Y-127767490D01*
X127920810Y-127732149D01*
X127931118Y-127698171D01*
X127947859Y-127666850D01*
X127974297Y-127634636D01*
X128014148Y-127594785D01*
X128014153Y-127594779D01*
X128359574Y-127249358D01*
X128359580Y-127249353D01*
X128399431Y-127209502D01*
X128431645Y-127183064D01*
X128462966Y-127166323D01*
X128496944Y-127156015D01*
X128532285Y-127152535D01*
X128567626Y-127156015D01*
G37*
G36*
X132671000Y-128151000D02*
G01*
X131269000Y-128151000D01*
X131269000Y-126049000D01*
X132671000Y-126049000D01*
X132671000Y-128151000D01*
G37*
G36*
X136381000Y-128151000D02*
G01*
X134979000Y-128151000D01*
X134979000Y-126049000D01*
X136381000Y-126049000D01*
X136381000Y-128151000D01*
G37*
G36*
X111013512Y-126273927D02*
G01*
X111162812Y-126303624D01*
X111326784Y-126371544D01*
X111474354Y-126470147D01*
X111599853Y-126595646D01*
X111698456Y-126743216D01*
X111766376Y-126907188D01*
X111801000Y-127081259D01*
X111801000Y-127258741D01*
X111766376Y-127432812D01*
X111698456Y-127596784D01*
X111599853Y-127744354D01*
X111474354Y-127869853D01*
X111326784Y-127968456D01*
X111162812Y-128036376D01*
X111013512Y-128066073D01*
X110988742Y-128071000D01*
X110811258Y-128071000D01*
X110786488Y-128066073D01*
X110637188Y-128036376D01*
X110473216Y-127968456D01*
X110325646Y-127869853D01*
X110200147Y-127744354D01*
X110101544Y-127596784D01*
X110033624Y-127432812D01*
X109999000Y-127258741D01*
X109999000Y-127081259D01*
X110033624Y-126907188D01*
X110101544Y-126743216D01*
X110200147Y-126595646D01*
X110325646Y-126470147D01*
X110473216Y-126371544D01*
X110637188Y-126303624D01*
X110786488Y-126273927D01*
X110811258Y-126269000D01*
X110988742Y-126269000D01*
X111013512Y-126273927D01*
G37*
G36*
X146013512Y-126273927D02*
G01*
X146162812Y-126303624D01*
X146326784Y-126371544D01*
X146474354Y-126470147D01*
X146599853Y-126595646D01*
X146698456Y-126743216D01*
X146766376Y-126907188D01*
X146801000Y-127081259D01*
X146801000Y-127258741D01*
X146766376Y-127432812D01*
X146698456Y-127596784D01*
X146599853Y-127744354D01*
X146474354Y-127869853D01*
X146326784Y-127968456D01*
X146162812Y-128036376D01*
X146013512Y-128066073D01*
X145988742Y-128071000D01*
X145811258Y-128071000D01*
X145786488Y-128066073D01*
X145637188Y-128036376D01*
X145473216Y-127968456D01*
X145325646Y-127869853D01*
X145200147Y-127744354D01*
X145101544Y-127596784D01*
X145033624Y-127432812D01*
X144999000Y-127258741D01*
X144999000Y-127081259D01*
X145033624Y-126907188D01*
X145101544Y-126743216D01*
X145200147Y-126595646D01*
X145325646Y-126470147D01*
X145473216Y-126371544D01*
X145637188Y-126303624D01*
X145786488Y-126273927D01*
X145811258Y-126269000D01*
X145988742Y-126269000D01*
X146013512Y-126273927D01*
G37*
G36*
X127494082Y-126089014D02*
G01*
X127528060Y-126099322D01*
X127559381Y-126116063D01*
X127591595Y-126142501D01*
X127631446Y-126182352D01*
X127631452Y-126182357D01*
X128029907Y-126580812D01*
X128029912Y-126580818D01*
X128069763Y-126620669D01*
X128096201Y-126652883D01*
X128112942Y-126684204D01*
X128123250Y-126718182D01*
X128126730Y-126753523D01*
X128123250Y-126788864D01*
X128112942Y-126822842D01*
X128096201Y-126854163D01*
X128069763Y-126886377D01*
X128029912Y-126926228D01*
X128029907Y-126926234D01*
X127684486Y-127271655D01*
X127684480Y-127271660D01*
X127644629Y-127311511D01*
X127612415Y-127337949D01*
X127581094Y-127354690D01*
X127547116Y-127364998D01*
X127511775Y-127368478D01*
X127476434Y-127364998D01*
X127442456Y-127354690D01*
X127411135Y-127337949D01*
X127378921Y-127311511D01*
X127339070Y-127271660D01*
X127339064Y-127271655D01*
X126940609Y-126873200D01*
X126940604Y-126873194D01*
X126900753Y-126833343D01*
X126874315Y-126801129D01*
X126857574Y-126769808D01*
X126847266Y-126735830D01*
X126843786Y-126700489D01*
X126847266Y-126665148D01*
X126857574Y-126631170D01*
X126874315Y-126599849D01*
X126900753Y-126567635D01*
X126940604Y-126527784D01*
X126940609Y-126527778D01*
X127286030Y-126182357D01*
X127286036Y-126182352D01*
X127325887Y-126142501D01*
X127358101Y-126116063D01*
X127389422Y-126099322D01*
X127423400Y-126089014D01*
X127458741Y-126085534D01*
X127494082Y-126089014D01*
G37*
G36*
X129681320Y-126042321D02*
G01*
X129715298Y-126052629D01*
X129746619Y-126069370D01*
X129778833Y-126095808D01*
X129818684Y-126135659D01*
X129818690Y-126135664D01*
X130217145Y-126534119D01*
X130217150Y-126534125D01*
X130257001Y-126573976D01*
X130283439Y-126606190D01*
X130300180Y-126637511D01*
X130310488Y-126671489D01*
X130313968Y-126706830D01*
X130310488Y-126742171D01*
X130300180Y-126776149D01*
X130283439Y-126807470D01*
X130257001Y-126839684D01*
X130217150Y-126879535D01*
X130217145Y-126879541D01*
X129871724Y-127224962D01*
X129871718Y-127224967D01*
X129831867Y-127264818D01*
X129799653Y-127291256D01*
X129768332Y-127307997D01*
X129734354Y-127318305D01*
X129699013Y-127321785D01*
X129663672Y-127318305D01*
X129629694Y-127307997D01*
X129598373Y-127291256D01*
X129566159Y-127264818D01*
X129526308Y-127224967D01*
X129526302Y-127224962D01*
X129127847Y-126826507D01*
X129127842Y-126826501D01*
X129087991Y-126786650D01*
X129061553Y-126754436D01*
X129044812Y-126723115D01*
X129034504Y-126689137D01*
X129031024Y-126653796D01*
X129034504Y-126618455D01*
X129044812Y-126584477D01*
X129061553Y-126553156D01*
X129087991Y-126520942D01*
X129127842Y-126481091D01*
X129127847Y-126481085D01*
X129473268Y-126135664D01*
X129473274Y-126135659D01*
X129513125Y-126095808D01*
X129545339Y-126069370D01*
X129576660Y-126052629D01*
X129610638Y-126042321D01*
X129645979Y-126038841D01*
X129681320Y-126042321D01*
G37*
G36*
X124101000Y-127251000D02*
G01*
X120199000Y-127251000D01*
X120199000Y-125149000D01*
X124101000Y-125149000D01*
X124101000Y-127251000D01*
G37*
G36*
X128607776Y-124975320D02*
G01*
X128641754Y-124985628D01*
X128673075Y-125002369D01*
X128705289Y-125028807D01*
X128745140Y-125068658D01*
X128745146Y-125068663D01*
X129143601Y-125467118D01*
X129143606Y-125467124D01*
X129183457Y-125506975D01*
X129209895Y-125539189D01*
X129226636Y-125570510D01*
X129236944Y-125604488D01*
X129240424Y-125639829D01*
X129236944Y-125675170D01*
X129226636Y-125709148D01*
X129209895Y-125740469D01*
X129183457Y-125772683D01*
X129143606Y-125812534D01*
X129143601Y-125812540D01*
X128798180Y-126157961D01*
X128798174Y-126157966D01*
X128758323Y-126197817D01*
X128726109Y-126224255D01*
X128694788Y-126240996D01*
X128660810Y-126251304D01*
X128625469Y-126254784D01*
X128590128Y-126251304D01*
X128556150Y-126240996D01*
X128524829Y-126224255D01*
X128492615Y-126197817D01*
X128452764Y-126157966D01*
X128452758Y-126157961D01*
X128054303Y-125759506D01*
X128054298Y-125759500D01*
X128014447Y-125719649D01*
X127988009Y-125687435D01*
X127971268Y-125656114D01*
X127960960Y-125622136D01*
X127957480Y-125586795D01*
X127960960Y-125551454D01*
X127971268Y-125517476D01*
X127988009Y-125486155D01*
X128014447Y-125453941D01*
X128054298Y-125414090D01*
X128054303Y-125414084D01*
X128399724Y-125068663D01*
X128399730Y-125068658D01*
X128439581Y-125028807D01*
X128471795Y-125002369D01*
X128503116Y-124985628D01*
X128537094Y-124975320D01*
X128572435Y-124971840D01*
X128607776Y-124975320D01*
G37*
G36*
X111013512Y-123733927D02*
G01*
X111162812Y-123763624D01*
X111326784Y-123831544D01*
X111474354Y-123930147D01*
X111599853Y-124055646D01*
X111698456Y-124203216D01*
X111766376Y-124367188D01*
X111801000Y-124541259D01*
X111801000Y-124718741D01*
X111766376Y-124892812D01*
X111698456Y-125056784D01*
X111599853Y-125204354D01*
X111474354Y-125329853D01*
X111326784Y-125428456D01*
X111162812Y-125496376D01*
X111013512Y-125526073D01*
X110988742Y-125531000D01*
X110811258Y-125531000D01*
X110786488Y-125526073D01*
X110637188Y-125496376D01*
X110473216Y-125428456D01*
X110325646Y-125329853D01*
X110200147Y-125204354D01*
X110101544Y-125056784D01*
X110033624Y-124892812D01*
X109999000Y-124718741D01*
X109999000Y-124541259D01*
X110033624Y-124367188D01*
X110101544Y-124203216D01*
X110200147Y-124055646D01*
X110325646Y-123930147D01*
X110473216Y-123831544D01*
X110637188Y-123763624D01*
X110786488Y-123733927D01*
X110811258Y-123729000D01*
X110988742Y-123729000D01*
X111013512Y-123733927D01*
G37*
G36*
X146013512Y-123733927D02*
G01*
X146162812Y-123763624D01*
X146326784Y-123831544D01*
X146474354Y-123930147D01*
X146599853Y-124055646D01*
X146698456Y-124203216D01*
X146766376Y-124367188D01*
X146801000Y-124541259D01*
X146801000Y-124718741D01*
X146766376Y-124892812D01*
X146698456Y-125056784D01*
X146599853Y-125204354D01*
X146474354Y-125329853D01*
X146326784Y-125428456D01*
X146162812Y-125496376D01*
X146013512Y-125526073D01*
X145988742Y-125531000D01*
X145811258Y-125531000D01*
X145786488Y-125526073D01*
X145637188Y-125496376D01*
X145473216Y-125428456D01*
X145325646Y-125329853D01*
X145200147Y-125204354D01*
X145101544Y-125056784D01*
X145033624Y-124892812D01*
X144999000Y-124718741D01*
X144999000Y-124541259D01*
X145033624Y-124367188D01*
X145101544Y-124203216D01*
X145200147Y-124055646D01*
X145325646Y-123930147D01*
X145473216Y-123831544D01*
X145637188Y-123763624D01*
X145786488Y-123733927D01*
X145811258Y-123729000D01*
X145988742Y-123729000D01*
X146013512Y-123733927D01*
G37*
G36*
X127829591Y-122940585D02*
G01*
X127863569Y-122950893D01*
X127894890Y-122967634D01*
X127922339Y-122990161D01*
X127944866Y-123017610D01*
X127961607Y-123048931D01*
X127971915Y-123082909D01*
X127976000Y-123124390D01*
X127976000Y-123725610D01*
X127971915Y-123767091D01*
X127961607Y-123801069D01*
X127944866Y-123832390D01*
X127922339Y-123859839D01*
X127894890Y-123882366D01*
X127863569Y-123899107D01*
X127829591Y-123909415D01*
X127788110Y-123913500D01*
X127111890Y-123913500D01*
X127070409Y-123909415D01*
X127036431Y-123899107D01*
X127005110Y-123882366D01*
X126977661Y-123859839D01*
X126955134Y-123832390D01*
X126938393Y-123801069D01*
X126928085Y-123767091D01*
X126924000Y-123725610D01*
X126924000Y-123124390D01*
X126928085Y-123082909D01*
X126938393Y-123048931D01*
X126955134Y-123017610D01*
X126977661Y-122990161D01*
X127005110Y-122967634D01*
X127036431Y-122950893D01*
X127070409Y-122940585D01*
X127111890Y-122936500D01*
X127788110Y-122936500D01*
X127829591Y-122940585D01*
G37*
G36*
X111013512Y-121193927D02*
G01*
X111162812Y-121223624D01*
X111326784Y-121291544D01*
X111474354Y-121390147D01*
X111599853Y-121515646D01*
X111698456Y-121663216D01*
X111766376Y-121827188D01*
X111801000Y-122001259D01*
X111801000Y-122178741D01*
X111766376Y-122352812D01*
X111698456Y-122516784D01*
X111599853Y-122664354D01*
X111474354Y-122789853D01*
X111326784Y-122888456D01*
X111162812Y-122956376D01*
X111013512Y-122986073D01*
X110988742Y-122991000D01*
X110811258Y-122991000D01*
X110786488Y-122986073D01*
X110637188Y-122956376D01*
X110473216Y-122888456D01*
X110325646Y-122789853D01*
X110200147Y-122664354D01*
X110101544Y-122516784D01*
X110033624Y-122352812D01*
X109999000Y-122178741D01*
X109999000Y-122001259D01*
X110033624Y-121827188D01*
X110101544Y-121663216D01*
X110200147Y-121515646D01*
X110325646Y-121390147D01*
X110473216Y-121291544D01*
X110637188Y-121223624D01*
X110786488Y-121193927D01*
X110811258Y-121189000D01*
X110988742Y-121189000D01*
X111013512Y-121193927D01*
G37*
G36*
X146013512Y-121193927D02*
G01*
X146162812Y-121223624D01*
X146326784Y-121291544D01*
X146474354Y-121390147D01*
X146599853Y-121515646D01*
X146698456Y-121663216D01*
X146766376Y-121827188D01*
X146801000Y-122001259D01*
X146801000Y-122178741D01*
X146766376Y-122352812D01*
X146698456Y-122516784D01*
X146599853Y-122664354D01*
X146474354Y-122789853D01*
X146326784Y-122888456D01*
X146162812Y-122956376D01*
X146013512Y-122986073D01*
X145988742Y-122991000D01*
X145811258Y-122991000D01*
X145786488Y-122986073D01*
X145637188Y-122956376D01*
X145473216Y-122888456D01*
X145325646Y-122789853D01*
X145200147Y-122664354D01*
X145101544Y-122516784D01*
X145033624Y-122352812D01*
X144999000Y-122178741D01*
X144999000Y-122001259D01*
X145033624Y-121827188D01*
X145101544Y-121663216D01*
X145200147Y-121515646D01*
X145325646Y-121390147D01*
X145473216Y-121291544D01*
X145637188Y-121223624D01*
X145786488Y-121193927D01*
X145811258Y-121189000D01*
X145988742Y-121189000D01*
X146013512Y-121193927D01*
G37*
G36*
X127829591Y-121365585D02*
G01*
X127863569Y-121375893D01*
X127894890Y-121392634D01*
X127922339Y-121415161D01*
X127944866Y-121442610D01*
X127961607Y-121473931D01*
X127971915Y-121507909D01*
X127976000Y-121549390D01*
X127976000Y-122150610D01*
X127971915Y-122192091D01*
X127961607Y-122226069D01*
X127944866Y-122257390D01*
X127922339Y-122284839D01*
X127894890Y-122307366D01*
X127863569Y-122324107D01*
X127829591Y-122334415D01*
X127788110Y-122338500D01*
X127111890Y-122338500D01*
X127070409Y-122334415D01*
X127036431Y-122324107D01*
X127005110Y-122307366D01*
X126977661Y-122284839D01*
X126955134Y-122257390D01*
X126938393Y-122226069D01*
X126928085Y-122192091D01*
X126924000Y-122150610D01*
X126924000Y-121549390D01*
X126928085Y-121507909D01*
X126938393Y-121473931D01*
X126955134Y-121442610D01*
X126977661Y-121415161D01*
X127005110Y-121392634D01*
X127036431Y-121375893D01*
X127070409Y-121365585D01*
X127111890Y-121361500D01*
X127788110Y-121361500D01*
X127829591Y-121365585D01*
G37*
G36*
X132671000Y-121951000D02*
G01*
X131269000Y-121951000D01*
X131269000Y-119849000D01*
X132671000Y-119849000D01*
X132671000Y-121951000D01*
G37*
G36*
X136381000Y-121951000D02*
G01*
X134979000Y-121951000D01*
X134979000Y-119849000D01*
X136381000Y-119849000D01*
X136381000Y-121951000D01*
G37*
G36*
X122951000Y-120951000D02*
G01*
X121349000Y-120951000D01*
X121349000Y-118849000D01*
X122951000Y-118849000D01*
X122951000Y-120951000D01*
G37*
G36*
X120651000Y-120951000D02*
G01*
X119049000Y-120951000D01*
X119049000Y-118849000D01*
X120651000Y-118849000D01*
X120651000Y-120951000D01*
G37*
G36*
X125251000Y-120951000D02*
G01*
X123649000Y-120951000D01*
X123649000Y-118849000D01*
X125251000Y-118849000D01*
X125251000Y-120951000D01*
G37*
G36*
X111801000Y-120451000D02*
G01*
X109999000Y-120451000D01*
X109999000Y-118649000D01*
X111801000Y-118649000D01*
X111801000Y-120451000D01*
G37*
G36*
X146801000Y-120451000D02*
G01*
X144999000Y-120451000D01*
X144999000Y-118649000D01*
X146801000Y-118649000D01*
X146801000Y-120451000D01*
G37*
G36*
X121767091Y-117353085D02*
G01*
X121801069Y-117363393D01*
X121832390Y-117380134D01*
X121859839Y-117402661D01*
X121882366Y-117430110D01*
X121899107Y-117461431D01*
X121909415Y-117495409D01*
X121913500Y-117536890D01*
X121913500Y-118213110D01*
X121909415Y-118254591D01*
X121899107Y-118288569D01*
X121882366Y-118319890D01*
X121859839Y-118347339D01*
X121832390Y-118369866D01*
X121801069Y-118386607D01*
X121767091Y-118396915D01*
X121725610Y-118401000D01*
X121124390Y-118401000D01*
X121082909Y-118396915D01*
X121048931Y-118386607D01*
X121017610Y-118369866D01*
X120990161Y-118347339D01*
X120967634Y-118319890D01*
X120950893Y-118288569D01*
X120940585Y-118254591D01*
X120936500Y-118213110D01*
X120936500Y-117536890D01*
X120940585Y-117495409D01*
X120950893Y-117461431D01*
X120967634Y-117430110D01*
X120990161Y-117402661D01*
X121017610Y-117380134D01*
X121048931Y-117363393D01*
X121082909Y-117353085D01*
X121124390Y-117349000D01*
X121725610Y-117349000D01*
X121767091Y-117353085D01*
G37*
G36*
X120192091Y-117353085D02*
G01*
X120226069Y-117363393D01*
X120257390Y-117380134D01*
X120284839Y-117402661D01*
X120307366Y-117430110D01*
X120324107Y-117461431D01*
X120334415Y-117495409D01*
X120338500Y-117536890D01*
X120338500Y-118213110D01*
X120334415Y-118254591D01*
X120324107Y-118288569D01*
X120307366Y-118319890D01*
X120284839Y-118347339D01*
X120257390Y-118369866D01*
X120226069Y-118386607D01*
X120192091Y-118396915D01*
X120150610Y-118401000D01*
X119549390Y-118401000D01*
X119507909Y-118396915D01*
X119473931Y-118386607D01*
X119442610Y-118369866D01*
X119415161Y-118347339D01*
X119392634Y-118319890D01*
X119375893Y-118288569D01*
X119365585Y-118254591D01*
X119361500Y-118213110D01*
X119361500Y-117536890D01*
X119365585Y-117495409D01*
X119375893Y-117461431D01*
X119392634Y-117430110D01*
X119415161Y-117402661D01*
X119442610Y-117380134D01*
X119473931Y-117363393D01*
X119507909Y-117353085D01*
X119549390Y-117349000D01*
X120150610Y-117349000D01*
X120192091Y-117353085D01*
G37*
G36*
X126651000Y-115844001D02*
G01*
X126653402Y-115868387D01*
X126660515Y-115891836D01*
X126672066Y-115913447D01*
X126687611Y-115932389D01*
X126706553Y-115947934D01*
X126728164Y-115959485D01*
X126751613Y-115966598D01*
X126775999Y-115969000D01*
X129974001Y-115969000D01*
X129998387Y-115966598D01*
X130021836Y-115959485D01*
X130043447Y-115947934D01*
X130062389Y-115932389D01*
X130077934Y-115913447D01*
X130089485Y-115891836D01*
X130096598Y-115868387D01*
X130099000Y-115844001D01*
X130099000Y-115799000D01*
X131626000Y-115799000D01*
X131626000Y-117451000D01*
X125124000Y-117451000D01*
X125124000Y-115799000D01*
X126651000Y-115799000D01*
X126651000Y-115844001D01*
G37*
G36*
X111114794Y-113870155D02*
G01*
X111221150Y-113891311D01*
X111321334Y-113932809D01*
X111421520Y-113974307D01*
X111601844Y-114094795D01*
X111755205Y-114248156D01*
X111875693Y-114428480D01*
X111958689Y-114628851D01*
X112001000Y-114841560D01*
X112001000Y-115058440D01*
X111958689Y-115271149D01*
X111875693Y-115471520D01*
X111755205Y-115651844D01*
X111601844Y-115805205D01*
X111421520Y-115925693D01*
X111322766Y-115966598D01*
X111221150Y-116008689D01*
X111114795Y-116029844D01*
X111008440Y-116051000D01*
X110791560Y-116051000D01*
X110685205Y-116029844D01*
X110578850Y-116008689D01*
X110477234Y-115966598D01*
X110378480Y-115925693D01*
X110198156Y-115805205D01*
X110044795Y-115651844D01*
X109924307Y-115471520D01*
X109841311Y-115271149D01*
X109799000Y-115058440D01*
X109799000Y-114841560D01*
X109841311Y-114628851D01*
X109924307Y-114428480D01*
X110044795Y-114248156D01*
X110198156Y-114094795D01*
X110378480Y-113974307D01*
X110478666Y-113932809D01*
X110578850Y-113891311D01*
X110685206Y-113870155D01*
X110791560Y-113849000D01*
X111008440Y-113849000D01*
X111114794Y-113870155D01*
G37*
G36*
X146114794Y-113870155D02*
G01*
X146221150Y-113891311D01*
X146321334Y-113932809D01*
X146421520Y-113974307D01*
X146601844Y-114094795D01*
X146755205Y-114248156D01*
X146875693Y-114428480D01*
X146958689Y-114628851D01*
X147001000Y-114841560D01*
X147001000Y-115058440D01*
X146958689Y-115271149D01*
X146875693Y-115471520D01*
X146755205Y-115651844D01*
X146601844Y-115805205D01*
X146421520Y-115925693D01*
X146322766Y-115966598D01*
X146221150Y-116008689D01*
X146114795Y-116029844D01*
X146008440Y-116051000D01*
X145791560Y-116051000D01*
X145685205Y-116029844D01*
X145578850Y-116008689D01*
X145477234Y-115966598D01*
X145378480Y-115925693D01*
X145198156Y-115805205D01*
X145044795Y-115651844D01*
X144924307Y-115471520D01*
X144841311Y-115271149D01*
X144799000Y-115058440D01*
X144799000Y-114841560D01*
X144841311Y-114628851D01*
X144924307Y-114428480D01*
X145044795Y-114248156D01*
X145198156Y-114094795D01*
X145378480Y-113974307D01*
X145478666Y-113932809D01*
X145578850Y-113891311D01*
X145685206Y-113870155D01*
X145791560Y-113849000D01*
X146008440Y-113849000D01*
X146114794Y-113870155D01*
G37*
G36*
X127376000Y-115051000D02*
G01*
X126274000Y-115051000D01*
X126274000Y-113049000D01*
X127376000Y-113049000D01*
X127376000Y-115051000D01*
G37*
G36*
X130476000Y-115051000D02*
G01*
X128574000Y-115051000D01*
X128574000Y-113049000D01*
X130476000Y-113049000D01*
X130476000Y-115051000D01*
G37*
G36*
X132626000Y-114751000D02*
G01*
X130874000Y-114751000D01*
X130874000Y-113349000D01*
X132626000Y-113349000D01*
X132626000Y-114751000D01*
G37*
G36*
X125876000Y-114751000D02*
G01*
X124124000Y-114751000D01*
X124124000Y-113349000D01*
X125876000Y-113349000D01*
X125876000Y-114751000D01*
G37*
M02*
