M48
; DRILL file {KiCad (5.1.5)-3} date 16/02/2020 15:54:29
; FORMAT={3:3/ absolute / metric / suppress leading zeros}
; #@! TF.CreationDate,2020-02-16T15:54:29-08:00
; #@! TF.GenerationSoftware,Kicad,Pcbnew,(5.1.5)-3
; #@! TF.FileFunction,Plated,1,2,PTH
FMAT,2
METRIC,TZ
T1C0.300
T2C0.400
T3C0.600
T4C1.000
%
G90
G05
T1
X118090Y-126380
X118090Y-128685
X120750Y-124525
X121100Y-128170
X123100Y-132350
X123125Y-146000
X123275Y-127000
X123525Y-114625
X124700Y-116950
X124700Y-117750
X125550Y-148025
X125660Y-139880
X128050Y-145825
X128450Y-138425
X128630Y-142220
X128725Y-130500
X128750Y-152250
X128850Y-144650
X132025Y-117375
X133200Y-114800
X133950Y-144350
X137400Y-136600
T2
X124823Y-134658
T3
X124402Y-122630
X127780Y-122720
T4
X110900Y-119550
X110900Y-122090
X110900Y-124630
X110900Y-127170
X110900Y-129710
X110900Y-132250
X110900Y-134790
X110900Y-137330
X110900Y-139870
X110900Y-142410
X110900Y-144950
X110900Y-147490
X110900Y-150030
X110900Y-152570
X110900Y-155110
X110900Y-157650
X110900Y-160190
X110900Y-162730
X110900Y-165270
X110900Y-167810
X145900Y-119550
X145900Y-122090
X145900Y-124630
X145900Y-127170
X145900Y-129710
X145900Y-132250
X145900Y-134790
X145900Y-137330
X145900Y-139870
X145900Y-142410
X145900Y-144950
X145900Y-147490
X145900Y-150030
X145900Y-152570
X145900Y-155110
X145900Y-157650
X145900Y-160190
X145900Y-162730
X145900Y-165270
X145900Y-167810
T0
M30
