G04 #@! TF.GenerationSoftware,KiCad,Pcbnew,(5.1.5)-3*
G04 #@! TF.CreationDate,2020-02-20T17:55:49-08:00*
G04 #@! TF.ProjectId,SimpleF303,53696d70-6c65-4463-9330-332e6b696361,0.1*
G04 #@! TF.SameCoordinates,Original*
G04 #@! TF.FileFunction,Legend,Bot*
G04 #@! TF.FilePolarity,Positive*
%FSLAX46Y46*%
G04 Gerber Fmt 4.6, Leading zero omitted, Abs format (unit mm)*
G04 Created by KiCad (PCBNEW (5.1.5)-3) date 2020-02-20 17:55:49*
%MOMM*%
%LPD*%
G04 APERTURE LIST*
%ADD10C,0.155000*%
%ADD11C,2.202000*%
%ADD12R,1.802000X1.802000*%
%ADD13O,1.802000X1.802000*%
G04 APERTURE END LIST*
D10*
X125705273Y-114717416D02*
X126312416Y-114717416D01*
X126433845Y-114684083D01*
X126514797Y-114617416D01*
X126555273Y-114517416D01*
X126555273Y-114450750D01*
X126555273Y-115384083D02*
X126555273Y-115050750D01*
X125705273Y-115050750D01*
X126474321Y-116017416D02*
X126514797Y-115984083D01*
X126555273Y-115884083D01*
X126555273Y-115817416D01*
X126514797Y-115717416D01*
X126433845Y-115650750D01*
X126352892Y-115617416D01*
X126190988Y-115584083D01*
X126069559Y-115584083D01*
X125907654Y-115617416D01*
X125826702Y-115650750D01*
X125745750Y-115717416D01*
X125705273Y-115817416D01*
X125705273Y-115884083D01*
X125745750Y-115984083D01*
X125786226Y-116017416D01*
X125705273Y-116517416D02*
X126312416Y-116517416D01*
X126433845Y-116484083D01*
X126514797Y-116417416D01*
X126555273Y-116317416D01*
X126555273Y-116250750D01*
X126555273Y-117184083D02*
X126555273Y-116850750D01*
X125705273Y-116850750D01*
X126474321Y-117817416D02*
X126514797Y-117784083D01*
X126555273Y-117684083D01*
X126555273Y-117617416D01*
X126514797Y-117517416D01*
X126433845Y-117450750D01*
X126352892Y-117417416D01*
X126190988Y-117384083D01*
X126069559Y-117384083D01*
X125907654Y-117417416D01*
X125826702Y-117450750D01*
X125745750Y-117517416D01*
X125705273Y-117617416D01*
X125705273Y-117684083D01*
X125745750Y-117784083D01*
X125786226Y-117817416D01*
X125705273Y-118317416D02*
X126312416Y-118317416D01*
X126433845Y-118284083D01*
X126514797Y-118217416D01*
X126555273Y-118117416D01*
X126555273Y-118050750D01*
X126555273Y-118984083D02*
X126555273Y-118650750D01*
X125705273Y-118650750D01*
X126474321Y-119617416D02*
X126514797Y-119584083D01*
X126555273Y-119484083D01*
X126555273Y-119417416D01*
X126514797Y-119317416D01*
X126433845Y-119250750D01*
X126352892Y-119217416D01*
X126190988Y-119184083D01*
X126069559Y-119184083D01*
X125907654Y-119217416D01*
X125826702Y-119250750D01*
X125745750Y-119317416D01*
X125705273Y-119417416D01*
X125705273Y-119484083D01*
X125745750Y-119584083D01*
X125786226Y-119617416D01*
X125705273Y-120117416D02*
X126312416Y-120117416D01*
X126433845Y-120084083D01*
X126514797Y-120017416D01*
X126555273Y-119917416D01*
X126555273Y-119850750D01*
X126555273Y-120784083D02*
X126555273Y-120450750D01*
X125705273Y-120450750D01*
X126474321Y-121417416D02*
X126514797Y-121384083D01*
X126555273Y-121284083D01*
X126555273Y-121217416D01*
X126514797Y-121117416D01*
X126433845Y-121050750D01*
X126352892Y-121017416D01*
X126190988Y-120984083D01*
X126069559Y-120984083D01*
X125907654Y-121017416D01*
X125826702Y-121050750D01*
X125745750Y-121117416D01*
X125705273Y-121217416D01*
X125705273Y-121284083D01*
X125745750Y-121384083D01*
X125786226Y-121417416D01*
X127944797Y-114484083D02*
X127985273Y-114584083D01*
X127985273Y-114750750D01*
X127944797Y-114817416D01*
X127904321Y-114850750D01*
X127823369Y-114884083D01*
X127742416Y-114884083D01*
X127661464Y-114850750D01*
X127620988Y-114817416D01*
X127580511Y-114750750D01*
X127540035Y-114617416D01*
X127499559Y-114550750D01*
X127459083Y-114517416D01*
X127378130Y-114484083D01*
X127297178Y-114484083D01*
X127216226Y-114517416D01*
X127175750Y-114550750D01*
X127135273Y-114617416D01*
X127135273Y-114784083D01*
X127175750Y-114884083D01*
X127985273Y-115184083D02*
X127418607Y-115184083D01*
X127135273Y-115184083D02*
X127175750Y-115150750D01*
X127216226Y-115184083D01*
X127175750Y-115217416D01*
X127135273Y-115184083D01*
X127216226Y-115184083D01*
X127985273Y-115517416D02*
X127418607Y-115517416D01*
X127499559Y-115517416D02*
X127459083Y-115550750D01*
X127418607Y-115617416D01*
X127418607Y-115717416D01*
X127459083Y-115784083D01*
X127540035Y-115817416D01*
X127985273Y-115817416D01*
X127540035Y-115817416D02*
X127459083Y-115850750D01*
X127418607Y-115917416D01*
X127418607Y-116017416D01*
X127459083Y-116084083D01*
X127540035Y-116117416D01*
X127985273Y-116117416D01*
X127418607Y-116450750D02*
X128268607Y-116450750D01*
X127459083Y-116450750D02*
X127418607Y-116517416D01*
X127418607Y-116650750D01*
X127459083Y-116717416D01*
X127499559Y-116750750D01*
X127580511Y-116784083D01*
X127823369Y-116784083D01*
X127904321Y-116750750D01*
X127944797Y-116717416D01*
X127985273Y-116650750D01*
X127985273Y-116517416D01*
X127944797Y-116450750D01*
X127985273Y-117184083D02*
X127944797Y-117117416D01*
X127863845Y-117084083D01*
X127135273Y-117084083D01*
X127944797Y-117717416D02*
X127985273Y-117650750D01*
X127985273Y-117517416D01*
X127944797Y-117450750D01*
X127863845Y-117417416D01*
X127540035Y-117417416D01*
X127459083Y-117450750D01*
X127418607Y-117517416D01*
X127418607Y-117650750D01*
X127459083Y-117717416D01*
X127540035Y-117750750D01*
X127620988Y-117750750D01*
X127701940Y-117417416D01*
X127540035Y-118284083D02*
X127540035Y-118050750D01*
X127985273Y-118050750D02*
X127135273Y-118050750D01*
X127135273Y-118384083D01*
X127135273Y-118584083D02*
X127135273Y-119017416D01*
X127459083Y-118784083D01*
X127459083Y-118884083D01*
X127499559Y-118950750D01*
X127540035Y-118984083D01*
X127620988Y-119017416D01*
X127823369Y-119017416D01*
X127904321Y-118984083D01*
X127944797Y-118950750D01*
X127985273Y-118884083D01*
X127985273Y-118684083D01*
X127944797Y-118617416D01*
X127904321Y-118584083D01*
X127135273Y-119450750D02*
X127135273Y-119517416D01*
X127175750Y-119584083D01*
X127216226Y-119617416D01*
X127297178Y-119650750D01*
X127459083Y-119684083D01*
X127661464Y-119684083D01*
X127823369Y-119650750D01*
X127904321Y-119617416D01*
X127944797Y-119584083D01*
X127985273Y-119517416D01*
X127985273Y-119450750D01*
X127944797Y-119384083D01*
X127904321Y-119350750D01*
X127823369Y-119317416D01*
X127661464Y-119284083D01*
X127459083Y-119284083D01*
X127297178Y-119317416D01*
X127216226Y-119350750D01*
X127175750Y-119384083D01*
X127135273Y-119450750D01*
X127135273Y-119917416D02*
X127135273Y-120350750D01*
X127459083Y-120117416D01*
X127459083Y-120217416D01*
X127499559Y-120284083D01*
X127540035Y-120317416D01*
X127620988Y-120350750D01*
X127823369Y-120350750D01*
X127904321Y-120317416D01*
X127944797Y-120284083D01*
X127985273Y-120217416D01*
X127985273Y-120017416D01*
X127944797Y-119950750D01*
X127904321Y-119917416D01*
X127985273Y-121584083D02*
X127580511Y-121350750D01*
X127985273Y-121184083D02*
X127135273Y-121184083D01*
X127135273Y-121450750D01*
X127175750Y-121517416D01*
X127216226Y-121550750D01*
X127297178Y-121584083D01*
X127418607Y-121584083D01*
X127499559Y-121550750D01*
X127540035Y-121517416D01*
X127580511Y-121450750D01*
X127580511Y-121184083D01*
X127944797Y-122150750D02*
X127985273Y-122084083D01*
X127985273Y-121950750D01*
X127944797Y-121884083D01*
X127863845Y-121850750D01*
X127540035Y-121850750D01*
X127459083Y-121884083D01*
X127418607Y-121950750D01*
X127418607Y-122084083D01*
X127459083Y-122150750D01*
X127540035Y-122184083D01*
X127620988Y-122184083D01*
X127701940Y-121850750D01*
X127418607Y-122417416D02*
X127985273Y-122584083D01*
X127418607Y-122750750D01*
X127904321Y-123017416D02*
X127944797Y-123050750D01*
X127985273Y-123017416D01*
X127944797Y-122984083D01*
X127904321Y-123017416D01*
X127985273Y-123017416D01*
X127459083Y-123017416D02*
X127499559Y-123050750D01*
X127540035Y-123017416D01*
X127499559Y-122984083D01*
X127459083Y-123017416D01*
X127540035Y-123017416D01*
X127135273Y-123484083D02*
X127135273Y-123550750D01*
X127175750Y-123617416D01*
X127216226Y-123650750D01*
X127297178Y-123684083D01*
X127459083Y-123717416D01*
X127661464Y-123717416D01*
X127823369Y-123684083D01*
X127904321Y-123650750D01*
X127944797Y-123617416D01*
X127985273Y-123550750D01*
X127985273Y-123484083D01*
X127944797Y-123417416D01*
X127904321Y-123384083D01*
X127823369Y-123350750D01*
X127661464Y-123317416D01*
X127459083Y-123317416D01*
X127297178Y-123350750D01*
X127216226Y-123384083D01*
X127175750Y-123417416D01*
X127135273Y-123484083D01*
X127904321Y-124017416D02*
X127944797Y-124050750D01*
X127985273Y-124017416D01*
X127944797Y-123984083D01*
X127904321Y-124017416D01*
X127985273Y-124017416D01*
X127985273Y-124717416D02*
X127985273Y-124317416D01*
X127985273Y-124517416D02*
X127135273Y-124517416D01*
X127256702Y-124450750D01*
X127337654Y-124384083D01*
X127378130Y-124317416D01*
X129415273Y-114517416D02*
X128565273Y-114517416D01*
X129172416Y-114750750D01*
X128565273Y-114984083D01*
X129415273Y-114984083D01*
X129415273Y-115317416D02*
X128565273Y-115317416D01*
X128565273Y-115550750D02*
X128565273Y-115950750D01*
X129415273Y-115750750D02*
X128565273Y-115750750D01*
X129415273Y-117050750D02*
X129415273Y-116717416D01*
X128565273Y-116717416D01*
X129415273Y-117284083D02*
X128848607Y-117284083D01*
X128565273Y-117284083D02*
X128605750Y-117250750D01*
X128646226Y-117284083D01*
X128605750Y-117317416D01*
X128565273Y-117284083D01*
X128646226Y-117284083D01*
X129374797Y-117917416D02*
X129415273Y-117850750D01*
X129415273Y-117717416D01*
X129374797Y-117650750D01*
X129334321Y-117617416D01*
X129253369Y-117584083D01*
X129010511Y-117584083D01*
X128929559Y-117617416D01*
X128889083Y-117650750D01*
X128848607Y-117717416D01*
X128848607Y-117850750D01*
X128889083Y-117917416D01*
X129374797Y-118484083D02*
X129415273Y-118417416D01*
X129415273Y-118284083D01*
X129374797Y-118217416D01*
X129293845Y-118184083D01*
X128970035Y-118184083D01*
X128889083Y-118217416D01*
X128848607Y-118284083D01*
X128848607Y-118417416D01*
X128889083Y-118484083D01*
X128970035Y-118517416D01*
X129050988Y-118517416D01*
X129131940Y-118184083D01*
X128848607Y-118817416D02*
X129415273Y-118817416D01*
X128929559Y-118817416D02*
X128889083Y-118850750D01*
X128848607Y-118917416D01*
X128848607Y-119017416D01*
X128889083Y-119084083D01*
X128970035Y-119117416D01*
X129415273Y-119117416D01*
X129374797Y-119417416D02*
X129415273Y-119484083D01*
X129415273Y-119617416D01*
X129374797Y-119684083D01*
X129293845Y-119717416D01*
X129253369Y-119717416D01*
X129172416Y-119684083D01*
X129131940Y-119617416D01*
X129131940Y-119517416D01*
X129091464Y-119450750D01*
X129010511Y-119417416D01*
X128970035Y-119417416D01*
X128889083Y-119450750D01*
X128848607Y-119517416D01*
X128848607Y-119617416D01*
X128889083Y-119684083D01*
X129374797Y-120284083D02*
X129415273Y-120217416D01*
X129415273Y-120084083D01*
X129374797Y-120017416D01*
X129293845Y-119984083D01*
X128970035Y-119984083D01*
X128889083Y-120017416D01*
X128848607Y-120084083D01*
X128848607Y-120217416D01*
X128889083Y-120284083D01*
X128970035Y-120317416D01*
X129050988Y-120317416D01*
X129131940Y-119984083D01*
X129334321Y-121550750D02*
X129374797Y-121517416D01*
X129415273Y-121417416D01*
X129415273Y-121350750D01*
X129374797Y-121250750D01*
X129293845Y-121184083D01*
X129212892Y-121150750D01*
X129050988Y-121117416D01*
X128929559Y-121117416D01*
X128767654Y-121150750D01*
X128686702Y-121184083D01*
X128605750Y-121250750D01*
X128565273Y-121350750D01*
X128565273Y-121417416D01*
X128605750Y-121517416D01*
X128646226Y-121550750D01*
X129415273Y-121950750D02*
X129374797Y-121884083D01*
X129334321Y-121850750D01*
X129253369Y-121817416D01*
X129010511Y-121817416D01*
X128929559Y-121850750D01*
X128889083Y-121884083D01*
X128848607Y-121950750D01*
X128848607Y-122050750D01*
X128889083Y-122117416D01*
X128929559Y-122150750D01*
X129010511Y-122184083D01*
X129253369Y-122184083D01*
X129334321Y-122150750D01*
X129374797Y-122117416D01*
X129415273Y-122050750D01*
X129415273Y-121950750D01*
X128848607Y-122484083D02*
X129698607Y-122484083D01*
X128889083Y-122484083D02*
X128848607Y-122550750D01*
X128848607Y-122684083D01*
X128889083Y-122750750D01*
X128929559Y-122784083D01*
X129010511Y-122817416D01*
X129253369Y-122817416D01*
X129334321Y-122784083D01*
X129374797Y-122750750D01*
X129415273Y-122684083D01*
X129415273Y-122550750D01*
X129374797Y-122484083D01*
X128848607Y-123050750D02*
X129415273Y-123217416D01*
X128848607Y-123384083D02*
X129415273Y-123217416D01*
X129617654Y-123150750D01*
X129658130Y-123117416D01*
X129698607Y-123050750D01*
X129415273Y-123650750D02*
X128848607Y-123650750D01*
X129010511Y-123650750D02*
X128929559Y-123684083D01*
X128889083Y-123717416D01*
X128848607Y-123784083D01*
X128848607Y-123850750D01*
X129415273Y-124084083D02*
X128848607Y-124084083D01*
X128565273Y-124084083D02*
X128605750Y-124050750D01*
X128646226Y-124084083D01*
X128605750Y-124117416D01*
X128565273Y-124084083D01*
X128646226Y-124084083D01*
X128848607Y-124717416D02*
X129536702Y-124717416D01*
X129617654Y-124684083D01*
X129658130Y-124650750D01*
X129698607Y-124584083D01*
X129698607Y-124484083D01*
X129658130Y-124417416D01*
X129374797Y-124717416D02*
X129415273Y-124650750D01*
X129415273Y-124517416D01*
X129374797Y-124450750D01*
X129334321Y-124417416D01*
X129253369Y-124384083D01*
X129010511Y-124384083D01*
X128929559Y-124417416D01*
X128889083Y-124450750D01*
X128848607Y-124517416D01*
X128848607Y-124650750D01*
X128889083Y-124717416D01*
X129415273Y-125050750D02*
X128565273Y-125050750D01*
X129415273Y-125350750D02*
X128970035Y-125350750D01*
X128889083Y-125317416D01*
X128848607Y-125250750D01*
X128848607Y-125150750D01*
X128889083Y-125084083D01*
X128929559Y-125050750D01*
X128848607Y-125584083D02*
X128848607Y-125850750D01*
X128565273Y-125684083D02*
X129293845Y-125684083D01*
X129374797Y-125717416D01*
X129415273Y-125784083D01*
X129415273Y-125850750D01*
X129739083Y-126817416D02*
X129698607Y-126784083D01*
X129577178Y-126717416D01*
X129496226Y-126684083D01*
X129374797Y-126650750D01*
X129172416Y-126617416D01*
X129010511Y-126617416D01*
X128808130Y-126650750D01*
X128686702Y-126684083D01*
X128605750Y-126717416D01*
X128484321Y-126784083D01*
X128443845Y-126817416D01*
X129374797Y-127384083D02*
X129415273Y-127317416D01*
X129415273Y-127184083D01*
X129374797Y-127117416D01*
X129334321Y-127084083D01*
X129253369Y-127050750D01*
X129010511Y-127050750D01*
X128929559Y-127084083D01*
X128889083Y-127117416D01*
X128848607Y-127184083D01*
X128848607Y-127317416D01*
X128889083Y-127384083D01*
X129739083Y-127617416D02*
X129698607Y-127650750D01*
X129577178Y-127717416D01*
X129496226Y-127750750D01*
X129374797Y-127784083D01*
X129172416Y-127817416D01*
X129010511Y-127817416D01*
X128808130Y-127784083D01*
X128686702Y-127750750D01*
X128605750Y-127717416D01*
X128484321Y-127650750D01*
X128443845Y-127617416D01*
X128646226Y-128650750D02*
X128605750Y-128684083D01*
X128565273Y-128750750D01*
X128565273Y-128917416D01*
X128605750Y-128984083D01*
X128646226Y-129017416D01*
X128727178Y-129050750D01*
X128808130Y-129050750D01*
X128929559Y-129017416D01*
X129415273Y-128617416D01*
X129415273Y-129050750D01*
X128565273Y-129484083D02*
X128565273Y-129550750D01*
X128605750Y-129617416D01*
X128646226Y-129650750D01*
X128727178Y-129684083D01*
X128889083Y-129717416D01*
X129091464Y-129717416D01*
X129253369Y-129684083D01*
X129334321Y-129650750D01*
X129374797Y-129617416D01*
X129415273Y-129550750D01*
X129415273Y-129484083D01*
X129374797Y-129417416D01*
X129334321Y-129384083D01*
X129253369Y-129350750D01*
X129091464Y-129317416D01*
X128889083Y-129317416D01*
X128727178Y-129350750D01*
X128646226Y-129384083D01*
X128605750Y-129417416D01*
X128565273Y-129484083D01*
X129415273Y-130384083D02*
X129415273Y-129984083D01*
X129415273Y-130184083D02*
X128565273Y-130184083D01*
X128686702Y-130117416D01*
X128767654Y-130050750D01*
X128808130Y-129984083D01*
X129415273Y-130717416D02*
X129415273Y-130850750D01*
X129374797Y-130917416D01*
X129334321Y-130950750D01*
X129212892Y-131017416D01*
X129050988Y-131050750D01*
X128727178Y-131050750D01*
X128646226Y-131017416D01*
X128605750Y-130984083D01*
X128565273Y-130917416D01*
X128565273Y-130784083D01*
X128605750Y-130717416D01*
X128646226Y-130684083D01*
X128727178Y-130650750D01*
X128929559Y-130650750D01*
X129010511Y-130684083D01*
X129050988Y-130717416D01*
X129091464Y-130784083D01*
X129091464Y-130917416D01*
X129050988Y-130984083D01*
X129010511Y-131017416D01*
X128929559Y-131050750D01*
X129010511Y-132017416D02*
X129415273Y-132017416D01*
X128565273Y-131784083D02*
X129010511Y-132017416D01*
X128565273Y-132250750D01*
X129415273Y-132484083D02*
X128848607Y-132484083D01*
X128565273Y-132484083D02*
X128605750Y-132450750D01*
X128646226Y-132484083D01*
X128605750Y-132517416D01*
X128565273Y-132484083D01*
X128646226Y-132484083D01*
X128848607Y-132717416D02*
X128848607Y-132984083D01*
X129415273Y-132817416D02*
X128686702Y-132817416D01*
X128605750Y-132850750D01*
X128565273Y-132917416D01*
X128565273Y-132984083D01*
X129374797Y-133484083D02*
X129415273Y-133417416D01*
X129415273Y-133284083D01*
X129374797Y-133217416D01*
X129293845Y-133184083D01*
X128970035Y-133184083D01*
X128889083Y-133217416D01*
X128848607Y-133284083D01*
X128848607Y-133417416D01*
X128889083Y-133484083D01*
X128970035Y-133517416D01*
X129050988Y-133517416D01*
X129131940Y-133184083D01*
X129415273Y-133817416D02*
X128848607Y-133817416D01*
X128565273Y-133817416D02*
X128605750Y-133784083D01*
X128646226Y-133817416D01*
X128605750Y-133850750D01*
X128565273Y-133817416D01*
X128646226Y-133817416D01*
X129415273Y-134684083D02*
X128565273Y-134684083D01*
X128565273Y-134850750D01*
X128605750Y-134950750D01*
X128686702Y-135017416D01*
X128767654Y-135050750D01*
X128929559Y-135084083D01*
X129050988Y-135084083D01*
X129212892Y-135050750D01*
X129293845Y-135017416D01*
X129374797Y-134950750D01*
X129415273Y-134850750D01*
X129415273Y-134684083D01*
X129415273Y-135384083D02*
X128848607Y-135384083D01*
X128565273Y-135384083D02*
X128605750Y-135350750D01*
X128646226Y-135384083D01*
X128605750Y-135417416D01*
X128565273Y-135384083D01*
X128646226Y-135384083D01*
X128848607Y-135717416D02*
X129415273Y-135717416D01*
X128929559Y-135717416D02*
X128889083Y-135750750D01*
X128848607Y-135817416D01*
X128848607Y-135917416D01*
X128889083Y-135984083D01*
X128970035Y-136017416D01*
X129415273Y-136017416D01*
X128848607Y-136650750D02*
X129536702Y-136650750D01*
X129617654Y-136617416D01*
X129658130Y-136584083D01*
X129698607Y-136517416D01*
X129698607Y-136417416D01*
X129658130Y-136350750D01*
X129374797Y-136650750D02*
X129415273Y-136584083D01*
X129415273Y-136450750D01*
X129374797Y-136384083D01*
X129334321Y-136350750D01*
X129253369Y-136317416D01*
X129010511Y-136317416D01*
X128929559Y-136350750D01*
X128889083Y-136384083D01*
X128848607Y-136450750D01*
X128848607Y-136584083D01*
X128889083Y-136650750D01*
X130845273Y-114517416D02*
X129995273Y-114517416D01*
X130845273Y-114817416D02*
X130400035Y-114817416D01*
X130319083Y-114784083D01*
X130278607Y-114717416D01*
X130278607Y-114617416D01*
X130319083Y-114550750D01*
X130359559Y-114517416D01*
X130278607Y-115050750D02*
X130278607Y-115317416D01*
X129995273Y-115150750D02*
X130723845Y-115150750D01*
X130804797Y-115184083D01*
X130845273Y-115250750D01*
X130845273Y-115317416D01*
X130278607Y-115450750D02*
X130278607Y-115717416D01*
X129995273Y-115550750D02*
X130723845Y-115550750D01*
X130804797Y-115584083D01*
X130845273Y-115650750D01*
X130845273Y-115717416D01*
X130278607Y-115950750D02*
X131128607Y-115950750D01*
X130319083Y-115950750D02*
X130278607Y-116017416D01*
X130278607Y-116150750D01*
X130319083Y-116217416D01*
X130359559Y-116250750D01*
X130440511Y-116284083D01*
X130683369Y-116284083D01*
X130764321Y-116250750D01*
X130804797Y-116217416D01*
X130845273Y-116150750D01*
X130845273Y-116017416D01*
X130804797Y-115950750D01*
X130804797Y-116550750D02*
X130845273Y-116617416D01*
X130845273Y-116750750D01*
X130804797Y-116817416D01*
X130723845Y-116850750D01*
X130683369Y-116850750D01*
X130602416Y-116817416D01*
X130561940Y-116750750D01*
X130561940Y-116650750D01*
X130521464Y-116584083D01*
X130440511Y-116550750D01*
X130400035Y-116550750D01*
X130319083Y-116584083D01*
X130278607Y-116650750D01*
X130278607Y-116750750D01*
X130319083Y-116817416D01*
X130764321Y-117150750D02*
X130804797Y-117184083D01*
X130845273Y-117150750D01*
X130804797Y-117117416D01*
X130764321Y-117150750D01*
X130845273Y-117150750D01*
X130319083Y-117150750D02*
X130359559Y-117184083D01*
X130400035Y-117150750D01*
X130359559Y-117117416D01*
X130319083Y-117150750D01*
X130400035Y-117150750D01*
X129954797Y-117984083D02*
X131047654Y-117384083D01*
X129954797Y-118717416D02*
X131047654Y-118117416D01*
X130278607Y-119250750D02*
X130966702Y-119250750D01*
X131047654Y-119217416D01*
X131088130Y-119184083D01*
X131128607Y-119117416D01*
X131128607Y-119017416D01*
X131088130Y-118950750D01*
X130804797Y-119250750D02*
X130845273Y-119184083D01*
X130845273Y-119050750D01*
X130804797Y-118984083D01*
X130764321Y-118950750D01*
X130683369Y-118917416D01*
X130440511Y-118917416D01*
X130359559Y-118950750D01*
X130319083Y-118984083D01*
X130278607Y-119050750D01*
X130278607Y-119184083D01*
X130319083Y-119250750D01*
X130845273Y-119584083D02*
X130278607Y-119584083D01*
X129995273Y-119584083D02*
X130035750Y-119550749D01*
X130076226Y-119584083D01*
X130035750Y-119617416D01*
X129995273Y-119584083D01*
X130076226Y-119584083D01*
X130278607Y-119817416D02*
X130278607Y-120084083D01*
X129995273Y-119917416D02*
X130723845Y-119917416D01*
X130804797Y-119950749D01*
X130845273Y-120017416D01*
X130845273Y-120084083D01*
X130845273Y-120317416D02*
X129995273Y-120317416D01*
X130845273Y-120617416D02*
X130400035Y-120617416D01*
X130319083Y-120584083D01*
X130278607Y-120517416D01*
X130278607Y-120417416D01*
X130319083Y-120350749D01*
X130359559Y-120317416D01*
X130278607Y-121250749D02*
X130845273Y-121250749D01*
X130278607Y-120950749D02*
X130723845Y-120950749D01*
X130804797Y-120984083D01*
X130845273Y-121050749D01*
X130845273Y-121150749D01*
X130804797Y-121217416D01*
X130764321Y-121250749D01*
X130845273Y-121584083D02*
X129995273Y-121584083D01*
X130319083Y-121584083D02*
X130278607Y-121650749D01*
X130278607Y-121784083D01*
X130319083Y-121850749D01*
X130359559Y-121884083D01*
X130440511Y-121917416D01*
X130683369Y-121917416D01*
X130764321Y-121884083D01*
X130804797Y-121850749D01*
X130845273Y-121784083D01*
X130845273Y-121650749D01*
X130804797Y-121584083D01*
X130764321Y-122217416D02*
X130804797Y-122250749D01*
X130845273Y-122217416D01*
X130804797Y-122184083D01*
X130764321Y-122217416D01*
X130845273Y-122217416D01*
X130804797Y-122850749D02*
X130845273Y-122784083D01*
X130845273Y-122650749D01*
X130804797Y-122584083D01*
X130764321Y-122550749D01*
X130683369Y-122517416D01*
X130440511Y-122517416D01*
X130359559Y-122550749D01*
X130319083Y-122584083D01*
X130278607Y-122650749D01*
X130278607Y-122784083D01*
X130319083Y-122850749D01*
X130845273Y-123250749D02*
X130804797Y-123184083D01*
X130764321Y-123150749D01*
X130683369Y-123117416D01*
X130440511Y-123117416D01*
X130359559Y-123150749D01*
X130319083Y-123184083D01*
X130278607Y-123250749D01*
X130278607Y-123350749D01*
X130319083Y-123417416D01*
X130359559Y-123450749D01*
X130440511Y-123484083D01*
X130683369Y-123484083D01*
X130764321Y-123450749D01*
X130804797Y-123417416D01*
X130845273Y-123350749D01*
X130845273Y-123250749D01*
X130845273Y-123784083D02*
X130278607Y-123784083D01*
X130359559Y-123784083D02*
X130319083Y-123817416D01*
X130278607Y-123884083D01*
X130278607Y-123984083D01*
X130319083Y-124050750D01*
X130400035Y-124084083D01*
X130845273Y-124084083D01*
X130400035Y-124084083D02*
X130319083Y-124117416D01*
X130278607Y-124184083D01*
X130278607Y-124284083D01*
X130319083Y-124350750D01*
X130400035Y-124384083D01*
X130845273Y-124384083D01*
X129954797Y-125217416D02*
X131047654Y-124617416D01*
X130845273Y-125750750D02*
X129995273Y-125750750D01*
X130804797Y-125750750D02*
X130845273Y-125684083D01*
X130845273Y-125550750D01*
X130804797Y-125484083D01*
X130764321Y-125450750D01*
X130683369Y-125417416D01*
X130440511Y-125417416D01*
X130359559Y-125450750D01*
X130319083Y-125484083D01*
X130278607Y-125550750D01*
X130278607Y-125684083D01*
X130319083Y-125750750D01*
X130845273Y-126084083D02*
X130278607Y-126084083D01*
X129995273Y-126084083D02*
X130035750Y-126050750D01*
X130076226Y-126084083D01*
X130035750Y-126117416D01*
X129995273Y-126084083D01*
X130076226Y-126084083D01*
X130278607Y-126417416D02*
X130845273Y-126417416D01*
X130359559Y-126417416D02*
X130319083Y-126450750D01*
X130278607Y-126517416D01*
X130278607Y-126617416D01*
X130319083Y-126684083D01*
X130400035Y-126717416D01*
X130845273Y-126717416D01*
X130278607Y-127350750D02*
X130966702Y-127350750D01*
X131047654Y-127317416D01*
X131088130Y-127284083D01*
X131128607Y-127217416D01*
X131128607Y-127117416D01*
X131088130Y-127050750D01*
X130804797Y-127350750D02*
X130845273Y-127284083D01*
X130845273Y-127150750D01*
X130804797Y-127084083D01*
X130764321Y-127050750D01*
X130683369Y-127017416D01*
X130440511Y-127017416D01*
X130359559Y-127050750D01*
X130319083Y-127084083D01*
X130278607Y-127150750D01*
X130278607Y-127284083D01*
X130319083Y-127350750D01*
X130278607Y-127617416D02*
X130845273Y-127784083D01*
X130278607Y-127950750D02*
X130845273Y-127784083D01*
X131047654Y-127717416D01*
X131088130Y-127684083D01*
X131128607Y-127617416D01*
X130845273Y-128217416D02*
X130278607Y-128217416D01*
X129995273Y-128217416D02*
X130035750Y-128184083D01*
X130076226Y-128217416D01*
X130035750Y-128250750D01*
X129995273Y-128217416D01*
X130076226Y-128217416D01*
X130278607Y-128450750D02*
X130278607Y-128717416D01*
X130845273Y-128550750D02*
X130116702Y-128550750D01*
X130035750Y-128584083D01*
X129995273Y-128650750D01*
X129995273Y-128717416D01*
X130804797Y-129217416D02*
X130845273Y-129150750D01*
X130845273Y-129017416D01*
X130804797Y-128950750D01*
X130723845Y-128917416D01*
X130400035Y-128917416D01*
X130319083Y-128950750D01*
X130278607Y-129017416D01*
X130278607Y-129150750D01*
X130319083Y-129217416D01*
X130400035Y-129250750D01*
X130480988Y-129250750D01*
X130561940Y-128917416D01*
X130845273Y-129550750D02*
X130278607Y-129550750D01*
X129995273Y-129550750D02*
X130035750Y-129517416D01*
X130076226Y-129550750D01*
X130035750Y-129584083D01*
X129995273Y-129550750D01*
X130076226Y-129550750D01*
X129954797Y-130384083D02*
X131047654Y-129784083D01*
X130804797Y-130584083D02*
X130845273Y-130684083D01*
X130845273Y-130850750D01*
X130804797Y-130917416D01*
X130764321Y-130950750D01*
X130683369Y-130984083D01*
X130602416Y-130984083D01*
X130521464Y-130950750D01*
X130480988Y-130917416D01*
X130440511Y-130850750D01*
X130400035Y-130717416D01*
X130359559Y-130650750D01*
X130319083Y-130617416D01*
X130238130Y-130584083D01*
X130157178Y-130584083D01*
X130076226Y-130617416D01*
X130035750Y-130650750D01*
X129995273Y-130717416D01*
X129995273Y-130884083D01*
X130035750Y-130984083D01*
X130845273Y-131284083D02*
X130278607Y-131284083D01*
X129995273Y-131284083D02*
X130035750Y-131250750D01*
X130076226Y-131284083D01*
X130035750Y-131317416D01*
X129995273Y-131284083D01*
X130076226Y-131284083D01*
X130845273Y-131617416D02*
X130278607Y-131617416D01*
X130359559Y-131617416D02*
X130319083Y-131650750D01*
X130278607Y-131717416D01*
X130278607Y-131817416D01*
X130319083Y-131884083D01*
X130400035Y-131917416D01*
X130845273Y-131917416D01*
X130400035Y-131917416D02*
X130319083Y-131950750D01*
X130278607Y-132017416D01*
X130278607Y-132117416D01*
X130319083Y-132184083D01*
X130400035Y-132217416D01*
X130845273Y-132217416D01*
X130278607Y-132550750D02*
X131128607Y-132550750D01*
X130319083Y-132550750D02*
X130278607Y-132617416D01*
X130278607Y-132750750D01*
X130319083Y-132817416D01*
X130359559Y-132850750D01*
X130440511Y-132884083D01*
X130683369Y-132884083D01*
X130764321Y-132850750D01*
X130804797Y-132817416D01*
X130845273Y-132750750D01*
X130845273Y-132617416D01*
X130804797Y-132550750D01*
X130845273Y-133284083D02*
X130804797Y-133217416D01*
X130723845Y-133184083D01*
X129995273Y-133184083D01*
X130804797Y-133817416D02*
X130845273Y-133750750D01*
X130845273Y-133617416D01*
X130804797Y-133550750D01*
X130723845Y-133517416D01*
X130400035Y-133517416D01*
X130319083Y-133550750D01*
X130278607Y-133617416D01*
X130278607Y-133750750D01*
X130319083Y-133817416D01*
X130400035Y-133850750D01*
X130480988Y-133850750D01*
X130561940Y-133517416D01*
X130400035Y-134384083D02*
X130400035Y-134150750D01*
X130845273Y-134150750D02*
X129995273Y-134150750D01*
X129995273Y-134484083D01*
X129995273Y-134684083D02*
X129995273Y-135117416D01*
X130319083Y-134884083D01*
X130319083Y-134984083D01*
X130359559Y-135050750D01*
X130400035Y-135084083D01*
X130480988Y-135117416D01*
X130683369Y-135117416D01*
X130764321Y-135084083D01*
X130804797Y-135050750D01*
X130845273Y-134984083D01*
X130845273Y-134784083D01*
X130804797Y-134717416D01*
X130764321Y-134684083D01*
X129995273Y-135550750D02*
X129995273Y-135617416D01*
X130035750Y-135684083D01*
X130076226Y-135717416D01*
X130157178Y-135750750D01*
X130319083Y-135784083D01*
X130521464Y-135784083D01*
X130683369Y-135750750D01*
X130764321Y-135717416D01*
X130804797Y-135684083D01*
X130845273Y-135617416D01*
X130845273Y-135550750D01*
X130804797Y-135484083D01*
X130764321Y-135450750D01*
X130683369Y-135417416D01*
X130521464Y-135384083D01*
X130319083Y-135384083D01*
X130157178Y-135417416D01*
X130076226Y-135450750D01*
X130035750Y-135484083D01*
X129995273Y-135550750D01*
X129995273Y-136017416D02*
X129995273Y-136450750D01*
X130319083Y-136217416D01*
X130319083Y-136317416D01*
X130359559Y-136384083D01*
X130400035Y-136417416D01*
X130480988Y-136450750D01*
X130683369Y-136450750D01*
X130764321Y-136417416D01*
X130804797Y-136384083D01*
X130845273Y-136317416D01*
X130845273Y-136117416D01*
X130804797Y-136050750D01*
X130764321Y-136017416D01*
X114814202Y-119173811D02*
X114356106Y-119173811D01*
X114602773Y-119455716D01*
X114497059Y-119455716D01*
X114426583Y-119490954D01*
X114391345Y-119526192D01*
X114356106Y-119596669D01*
X114356106Y-119772859D01*
X114391345Y-119843335D01*
X114426583Y-119878573D01*
X114497059Y-119913811D01*
X114708487Y-119913811D01*
X114778964Y-119878573D01*
X114814202Y-119843335D01*
X114038964Y-119843335D02*
X114003726Y-119878573D01*
X114038964Y-119913811D01*
X114074202Y-119878573D01*
X114038964Y-119843335D01*
X114038964Y-119913811D01*
X113757059Y-119173811D02*
X113298964Y-119173811D01*
X113545630Y-119455716D01*
X113439916Y-119455716D01*
X113369440Y-119490954D01*
X113334202Y-119526192D01*
X113298964Y-119596669D01*
X113298964Y-119772859D01*
X113334202Y-119843335D01*
X113369440Y-119878573D01*
X113439916Y-119913811D01*
X113651345Y-119913811D01*
X113721821Y-119878573D01*
X113757059Y-119843335D01*
X113087535Y-119173811D02*
X112840868Y-119913811D01*
X112594202Y-119173811D01*
X114215154Y-121739050D02*
X114285630Y-121703811D01*
X114391345Y-121703811D01*
X114497059Y-121739050D01*
X114567535Y-121809526D01*
X114602773Y-121880002D01*
X114638011Y-122020954D01*
X114638011Y-122126669D01*
X114602773Y-122267621D01*
X114567535Y-122338097D01*
X114497059Y-122408573D01*
X114391345Y-122443811D01*
X114320868Y-122443811D01*
X114215154Y-122408573D01*
X114179916Y-122373335D01*
X114179916Y-122126669D01*
X114320868Y-122126669D01*
X113862773Y-122443811D02*
X113862773Y-121703811D01*
X113439916Y-122443811D01*
X113439916Y-121703811D01*
X113087535Y-122443811D02*
X113087535Y-121703811D01*
X112911345Y-121703811D01*
X112805630Y-121739050D01*
X112735154Y-121809526D01*
X112699916Y-121880002D01*
X112664678Y-122020954D01*
X112664678Y-122126669D01*
X112699916Y-122267621D01*
X112735154Y-122338097D01*
X112805630Y-122408573D01*
X112911345Y-122443811D01*
X113087535Y-122443811D01*
X115659916Y-124586192D02*
X115554202Y-124621430D01*
X115518964Y-124656669D01*
X115483726Y-124727145D01*
X115483726Y-124832859D01*
X115518964Y-124903335D01*
X115554202Y-124938573D01*
X115624678Y-124973811D01*
X115906583Y-124973811D01*
X115906583Y-124233811D01*
X115659916Y-124233811D01*
X115589440Y-124269050D01*
X115554202Y-124304288D01*
X115518964Y-124374764D01*
X115518964Y-124445240D01*
X115554202Y-124515716D01*
X115589440Y-124550954D01*
X115659916Y-124586192D01*
X115906583Y-124586192D01*
X115025630Y-124233811D02*
X114884678Y-124233811D01*
X114814202Y-124269050D01*
X114743726Y-124339526D01*
X114708487Y-124480478D01*
X114708487Y-124727145D01*
X114743726Y-124868097D01*
X114814202Y-124938573D01*
X114884678Y-124973811D01*
X115025630Y-124973811D01*
X115096106Y-124938573D01*
X115166583Y-124868097D01*
X115201821Y-124727145D01*
X115201821Y-124480478D01*
X115166583Y-124339526D01*
X115096106Y-124269050D01*
X115025630Y-124233811D01*
X114250392Y-124233811D02*
X114109440Y-124233811D01*
X114038964Y-124269050D01*
X113968487Y-124339526D01*
X113933249Y-124480478D01*
X113933249Y-124727145D01*
X113968487Y-124868097D01*
X114038964Y-124938573D01*
X114109440Y-124973811D01*
X114250392Y-124973811D01*
X114320868Y-124938573D01*
X114391345Y-124868097D01*
X114426583Y-124727145D01*
X114426583Y-124480478D01*
X114391345Y-124339526D01*
X114320868Y-124269050D01*
X114250392Y-124233811D01*
X113721821Y-124233811D02*
X113298964Y-124233811D01*
X113510392Y-124973811D02*
X113510392Y-124233811D01*
X112911345Y-124233811D02*
X112840868Y-124233811D01*
X112770392Y-124269050D01*
X112735154Y-124304288D01*
X112699916Y-124374764D01*
X112664678Y-124515716D01*
X112664678Y-124691907D01*
X112699916Y-124832859D01*
X112735154Y-124903335D01*
X112770392Y-124938573D01*
X112840868Y-124973811D01*
X112911345Y-124973811D01*
X112981821Y-124938573D01*
X113017059Y-124903335D01*
X113052297Y-124832859D01*
X113087535Y-124691907D01*
X113087535Y-124515716D01*
X113052297Y-124374764D01*
X113017059Y-124304288D01*
X112981821Y-124269050D01*
X112911345Y-124233811D01*
X115131345Y-127503811D02*
X115131345Y-126763811D01*
X114849440Y-126763811D01*
X114778964Y-126799050D01*
X114743726Y-126834288D01*
X114708487Y-126904764D01*
X114708487Y-127010478D01*
X114743726Y-127080954D01*
X114778964Y-127116192D01*
X114849440Y-127151430D01*
X115131345Y-127151430D01*
X114426583Y-127292383D02*
X114074202Y-127292383D01*
X114497059Y-127503811D02*
X114250392Y-126763811D01*
X114003726Y-127503811D01*
X113369440Y-127503811D02*
X113792297Y-127503811D01*
X113580868Y-127503811D02*
X113580868Y-126763811D01*
X113651345Y-126869526D01*
X113721821Y-126940002D01*
X113792297Y-126975240D01*
X113122773Y-126763811D02*
X112664678Y-126763811D01*
X112911345Y-127045716D01*
X112805630Y-127045716D01*
X112735154Y-127080954D01*
X112699916Y-127116192D01*
X112664678Y-127186669D01*
X112664678Y-127362859D01*
X112699916Y-127433335D01*
X112735154Y-127468573D01*
X112805630Y-127503811D01*
X113017059Y-127503811D01*
X113087535Y-127468573D01*
X113122773Y-127433335D01*
X115131345Y-130033811D02*
X115131345Y-129293811D01*
X114849440Y-129293811D01*
X114778964Y-129329050D01*
X114743726Y-129364288D01*
X114708487Y-129434764D01*
X114708487Y-129540478D01*
X114743726Y-129610954D01*
X114778964Y-129646192D01*
X114849440Y-129681430D01*
X115131345Y-129681430D01*
X114426583Y-129822383D02*
X114074202Y-129822383D01*
X114497059Y-130033811D02*
X114250392Y-129293811D01*
X114003726Y-130033811D01*
X113369440Y-130033811D02*
X113792297Y-130033811D01*
X113580868Y-130033811D02*
X113580868Y-129293811D01*
X113651345Y-129399526D01*
X113721821Y-129470002D01*
X113792297Y-129505240D01*
X112735154Y-129540478D02*
X112735154Y-130033811D01*
X112911345Y-129258573D02*
X113087535Y-129787145D01*
X112629440Y-129787145D01*
X115131345Y-132563811D02*
X115131345Y-131823811D01*
X114849440Y-131823811D01*
X114778964Y-131859050D01*
X114743726Y-131894288D01*
X114708487Y-131964764D01*
X114708487Y-132070478D01*
X114743726Y-132140954D01*
X114778964Y-132176192D01*
X114849440Y-132211430D01*
X115131345Y-132211430D01*
X114426583Y-132352383D02*
X114074202Y-132352383D01*
X114497059Y-132563811D02*
X114250392Y-131823811D01*
X114003726Y-132563811D01*
X113369440Y-132563811D02*
X113792297Y-132563811D01*
X113580868Y-132563811D02*
X113580868Y-131823811D01*
X113651345Y-131929526D01*
X113721821Y-132000002D01*
X113792297Y-132035240D01*
X112699916Y-131823811D02*
X113052297Y-131823811D01*
X113087535Y-132176192D01*
X113052297Y-132140954D01*
X112981821Y-132105716D01*
X112805630Y-132105716D01*
X112735154Y-132140954D01*
X112699916Y-132176192D01*
X112664678Y-132246669D01*
X112664678Y-132422859D01*
X112699916Y-132493335D01*
X112735154Y-132528573D01*
X112805630Y-132563811D01*
X112981821Y-132563811D01*
X113052297Y-132528573D01*
X113087535Y-132493335D01*
X114532297Y-135093811D02*
X114532297Y-134353811D01*
X114250392Y-134353811D01*
X114179916Y-134389050D01*
X114144678Y-134424288D01*
X114109440Y-134494764D01*
X114109440Y-134600478D01*
X114144678Y-134670954D01*
X114179916Y-134706192D01*
X114250392Y-134741430D01*
X114532297Y-134741430D01*
X113545630Y-134706192D02*
X113439916Y-134741430D01*
X113404678Y-134776669D01*
X113369440Y-134847145D01*
X113369440Y-134952859D01*
X113404678Y-135023335D01*
X113439916Y-135058573D01*
X113510392Y-135093811D01*
X113792297Y-135093811D01*
X113792297Y-134353811D01*
X113545630Y-134353811D01*
X113475154Y-134389050D01*
X113439916Y-134424288D01*
X113404678Y-134494764D01*
X113404678Y-134565240D01*
X113439916Y-134635716D01*
X113475154Y-134670954D01*
X113545630Y-134706192D01*
X113792297Y-134706192D01*
X113122773Y-134353811D02*
X112664678Y-134353811D01*
X112911345Y-134635716D01*
X112805630Y-134635716D01*
X112735154Y-134670954D01*
X112699916Y-134706192D01*
X112664678Y-134776669D01*
X112664678Y-134952859D01*
X112699916Y-135023335D01*
X112735154Y-135058573D01*
X112805630Y-135093811D01*
X113017059Y-135093811D01*
X113087535Y-135058573D01*
X113122773Y-135023335D01*
X114532297Y-137623811D02*
X114532297Y-136883811D01*
X114250392Y-136883811D01*
X114179916Y-136919050D01*
X114144678Y-136954288D01*
X114109440Y-137024764D01*
X114109440Y-137130478D01*
X114144678Y-137200954D01*
X114179916Y-137236192D01*
X114250392Y-137271430D01*
X114532297Y-137271430D01*
X113545630Y-137236192D02*
X113439916Y-137271430D01*
X113404678Y-137306669D01*
X113369440Y-137377145D01*
X113369440Y-137482859D01*
X113404678Y-137553335D01*
X113439916Y-137588573D01*
X113510392Y-137623811D01*
X113792297Y-137623811D01*
X113792297Y-136883811D01*
X113545630Y-136883811D01*
X113475154Y-136919050D01*
X113439916Y-136954288D01*
X113404678Y-137024764D01*
X113404678Y-137095240D01*
X113439916Y-137165716D01*
X113475154Y-137200954D01*
X113545630Y-137236192D01*
X113792297Y-137236192D01*
X112735154Y-137130478D02*
X112735154Y-137623811D01*
X112911345Y-136848573D02*
X113087535Y-137377145D01*
X112629440Y-137377145D01*
X114532297Y-140153811D02*
X114532297Y-139413811D01*
X114250392Y-139413811D01*
X114179916Y-139449050D01*
X114144678Y-139484288D01*
X114109440Y-139554764D01*
X114109440Y-139660478D01*
X114144678Y-139730954D01*
X114179916Y-139766192D01*
X114250392Y-139801430D01*
X114532297Y-139801430D01*
X113545630Y-139766192D02*
X113439916Y-139801430D01*
X113404678Y-139836669D01*
X113369440Y-139907145D01*
X113369440Y-140012859D01*
X113404678Y-140083335D01*
X113439916Y-140118573D01*
X113510392Y-140153811D01*
X113792297Y-140153811D01*
X113792297Y-139413811D01*
X113545630Y-139413811D01*
X113475154Y-139449050D01*
X113439916Y-139484288D01*
X113404678Y-139554764D01*
X113404678Y-139625240D01*
X113439916Y-139695716D01*
X113475154Y-139730954D01*
X113545630Y-139766192D01*
X113792297Y-139766192D01*
X112699916Y-139413811D02*
X113052297Y-139413811D01*
X113087535Y-139766192D01*
X113052297Y-139730954D01*
X112981821Y-139695716D01*
X112805630Y-139695716D01*
X112735154Y-139730954D01*
X112699916Y-139766192D01*
X112664678Y-139836669D01*
X112664678Y-140012859D01*
X112699916Y-140083335D01*
X112735154Y-140118573D01*
X112805630Y-140153811D01*
X112981821Y-140153811D01*
X113052297Y-140118573D01*
X113087535Y-140083335D01*
X114532297Y-142683811D02*
X114532297Y-141943811D01*
X114250392Y-141943811D01*
X114179916Y-141979050D01*
X114144678Y-142014288D01*
X114109440Y-142084764D01*
X114109440Y-142190478D01*
X114144678Y-142260954D01*
X114179916Y-142296192D01*
X114250392Y-142331430D01*
X114532297Y-142331430D01*
X113545630Y-142296192D02*
X113439916Y-142331430D01*
X113404678Y-142366669D01*
X113369440Y-142437145D01*
X113369440Y-142542859D01*
X113404678Y-142613335D01*
X113439916Y-142648573D01*
X113510392Y-142683811D01*
X113792297Y-142683811D01*
X113792297Y-141943811D01*
X113545630Y-141943811D01*
X113475154Y-141979050D01*
X113439916Y-142014288D01*
X113404678Y-142084764D01*
X113404678Y-142155240D01*
X113439916Y-142225716D01*
X113475154Y-142260954D01*
X113545630Y-142296192D01*
X113792297Y-142296192D01*
X112735154Y-141943811D02*
X112876106Y-141943811D01*
X112946583Y-141979050D01*
X112981821Y-142014288D01*
X113052297Y-142120002D01*
X113087535Y-142260954D01*
X113087535Y-142542859D01*
X113052297Y-142613335D01*
X113017059Y-142648573D01*
X112946583Y-142683811D01*
X112805630Y-142683811D01*
X112735154Y-142648573D01*
X112699916Y-142613335D01*
X112664678Y-142542859D01*
X112664678Y-142366669D01*
X112699916Y-142296192D01*
X112735154Y-142260954D01*
X112805630Y-142225716D01*
X112946583Y-142225716D01*
X113017059Y-142260954D01*
X113052297Y-142296192D01*
X113087535Y-142366669D01*
X114532297Y-145213811D02*
X114532297Y-144473811D01*
X114250392Y-144473811D01*
X114179916Y-144509050D01*
X114144678Y-144544288D01*
X114109440Y-144614764D01*
X114109440Y-144720478D01*
X114144678Y-144790954D01*
X114179916Y-144826192D01*
X114250392Y-144861430D01*
X114532297Y-144861430D01*
X113545630Y-144826192D02*
X113439916Y-144861430D01*
X113404678Y-144896669D01*
X113369440Y-144967145D01*
X113369440Y-145072859D01*
X113404678Y-145143335D01*
X113439916Y-145178573D01*
X113510392Y-145213811D01*
X113792297Y-145213811D01*
X113792297Y-144473811D01*
X113545630Y-144473811D01*
X113475154Y-144509050D01*
X113439916Y-144544288D01*
X113404678Y-144614764D01*
X113404678Y-144685240D01*
X113439916Y-144755716D01*
X113475154Y-144790954D01*
X113545630Y-144826192D01*
X113792297Y-144826192D01*
X113122773Y-144473811D02*
X112629440Y-144473811D01*
X112946583Y-145213811D01*
X114532297Y-147743811D02*
X114532297Y-147003811D01*
X114250392Y-147003811D01*
X114179916Y-147039050D01*
X114144678Y-147074288D01*
X114109440Y-147144764D01*
X114109440Y-147250478D01*
X114144678Y-147320954D01*
X114179916Y-147356192D01*
X114250392Y-147391430D01*
X114532297Y-147391430D01*
X113545630Y-147356192D02*
X113439916Y-147391430D01*
X113404678Y-147426669D01*
X113369440Y-147497145D01*
X113369440Y-147602859D01*
X113404678Y-147673335D01*
X113439916Y-147708573D01*
X113510392Y-147743811D01*
X113792297Y-147743811D01*
X113792297Y-147003811D01*
X113545630Y-147003811D01*
X113475154Y-147039050D01*
X113439916Y-147074288D01*
X113404678Y-147144764D01*
X113404678Y-147215240D01*
X113439916Y-147285716D01*
X113475154Y-147320954D01*
X113545630Y-147356192D01*
X113792297Y-147356192D01*
X112946583Y-147320954D02*
X113017059Y-147285716D01*
X113052297Y-147250478D01*
X113087535Y-147180002D01*
X113087535Y-147144764D01*
X113052297Y-147074288D01*
X113017059Y-147039050D01*
X112946583Y-147003811D01*
X112805630Y-147003811D01*
X112735154Y-147039050D01*
X112699916Y-147074288D01*
X112664678Y-147144764D01*
X112664678Y-147180002D01*
X112699916Y-147250478D01*
X112735154Y-147285716D01*
X112805630Y-147320954D01*
X112946583Y-147320954D01*
X113017059Y-147356192D01*
X113052297Y-147391430D01*
X113087535Y-147461907D01*
X113087535Y-147602859D01*
X113052297Y-147673335D01*
X113017059Y-147708573D01*
X112946583Y-147743811D01*
X112805630Y-147743811D01*
X112735154Y-147708573D01*
X112699916Y-147673335D01*
X112664678Y-147602859D01*
X112664678Y-147461907D01*
X112699916Y-147391430D01*
X112735154Y-147356192D01*
X112805630Y-147320954D01*
X114532297Y-150273811D02*
X114532297Y-149533811D01*
X114250392Y-149533811D01*
X114179916Y-149569050D01*
X114144678Y-149604288D01*
X114109440Y-149674764D01*
X114109440Y-149780478D01*
X114144678Y-149850954D01*
X114179916Y-149886192D01*
X114250392Y-149921430D01*
X114532297Y-149921430D01*
X113545630Y-149886192D02*
X113439916Y-149921430D01*
X113404678Y-149956669D01*
X113369440Y-150027145D01*
X113369440Y-150132859D01*
X113404678Y-150203335D01*
X113439916Y-150238573D01*
X113510392Y-150273811D01*
X113792297Y-150273811D01*
X113792297Y-149533811D01*
X113545630Y-149533811D01*
X113475154Y-149569050D01*
X113439916Y-149604288D01*
X113404678Y-149674764D01*
X113404678Y-149745240D01*
X113439916Y-149815716D01*
X113475154Y-149850954D01*
X113545630Y-149886192D01*
X113792297Y-149886192D01*
X113017059Y-150273811D02*
X112876106Y-150273811D01*
X112805630Y-150238573D01*
X112770392Y-150203335D01*
X112699916Y-150097621D01*
X112664678Y-149956669D01*
X112664678Y-149674764D01*
X112699916Y-149604288D01*
X112735154Y-149569050D01*
X112805630Y-149533811D01*
X112946583Y-149533811D01*
X113017059Y-149569050D01*
X113052297Y-149604288D01*
X113087535Y-149674764D01*
X113087535Y-149850954D01*
X113052297Y-149921430D01*
X113017059Y-149956669D01*
X112946583Y-149991907D01*
X112805630Y-149991907D01*
X112735154Y-149956669D01*
X112699916Y-149921430D01*
X112664678Y-149850954D01*
X115237059Y-152803811D02*
X115237059Y-152063811D01*
X114955154Y-152063811D01*
X114884678Y-152099050D01*
X114849440Y-152134288D01*
X114814202Y-152204764D01*
X114814202Y-152310478D01*
X114849440Y-152380954D01*
X114884678Y-152416192D01*
X114955154Y-152451430D01*
X115237059Y-152451430D01*
X114074202Y-152733335D02*
X114109440Y-152768573D01*
X114215154Y-152803811D01*
X114285630Y-152803811D01*
X114391345Y-152768573D01*
X114461821Y-152698097D01*
X114497059Y-152627621D01*
X114532297Y-152486669D01*
X114532297Y-152380954D01*
X114497059Y-152240002D01*
X114461821Y-152169526D01*
X114391345Y-152099050D01*
X114285630Y-152063811D01*
X114215154Y-152063811D01*
X114109440Y-152099050D01*
X114074202Y-152134288D01*
X113369440Y-152803811D02*
X113792297Y-152803811D01*
X113580868Y-152803811D02*
X113580868Y-152063811D01*
X113651345Y-152169526D01*
X113721821Y-152240002D01*
X113792297Y-152275240D01*
X113122773Y-152063811D02*
X112664678Y-152063811D01*
X112911345Y-152345716D01*
X112805630Y-152345716D01*
X112735154Y-152380954D01*
X112699916Y-152416192D01*
X112664678Y-152486669D01*
X112664678Y-152662859D01*
X112699916Y-152733335D01*
X112735154Y-152768573D01*
X112805630Y-152803811D01*
X113017059Y-152803811D01*
X113087535Y-152768573D01*
X113122773Y-152733335D01*
X115237059Y-155333811D02*
X115237059Y-154593811D01*
X114955154Y-154593811D01*
X114884678Y-154629050D01*
X114849440Y-154664288D01*
X114814202Y-154734764D01*
X114814202Y-154840478D01*
X114849440Y-154910954D01*
X114884678Y-154946192D01*
X114955154Y-154981430D01*
X115237059Y-154981430D01*
X114074202Y-155263335D02*
X114109440Y-155298573D01*
X114215154Y-155333811D01*
X114285630Y-155333811D01*
X114391345Y-155298573D01*
X114461821Y-155228097D01*
X114497059Y-155157621D01*
X114532297Y-155016669D01*
X114532297Y-154910954D01*
X114497059Y-154770002D01*
X114461821Y-154699526D01*
X114391345Y-154629050D01*
X114285630Y-154593811D01*
X114215154Y-154593811D01*
X114109440Y-154629050D01*
X114074202Y-154664288D01*
X113369440Y-155333811D02*
X113792297Y-155333811D01*
X113580868Y-155333811D02*
X113580868Y-154593811D01*
X113651345Y-154699526D01*
X113721821Y-154770002D01*
X113792297Y-154805240D01*
X112735154Y-154840478D02*
X112735154Y-155333811D01*
X112911345Y-154558573D02*
X113087535Y-155087145D01*
X112629440Y-155087145D01*
X115237059Y-157863811D02*
X115237059Y-157123811D01*
X114955154Y-157123811D01*
X114884678Y-157159050D01*
X114849440Y-157194288D01*
X114814202Y-157264764D01*
X114814202Y-157370478D01*
X114849440Y-157440954D01*
X114884678Y-157476192D01*
X114955154Y-157511430D01*
X115237059Y-157511430D01*
X114074202Y-157793335D02*
X114109440Y-157828573D01*
X114215154Y-157863811D01*
X114285630Y-157863811D01*
X114391345Y-157828573D01*
X114461821Y-157758097D01*
X114497059Y-157687621D01*
X114532297Y-157546669D01*
X114532297Y-157440954D01*
X114497059Y-157300002D01*
X114461821Y-157229526D01*
X114391345Y-157159050D01*
X114285630Y-157123811D01*
X114215154Y-157123811D01*
X114109440Y-157159050D01*
X114074202Y-157194288D01*
X113369440Y-157863811D02*
X113792297Y-157863811D01*
X113580868Y-157863811D02*
X113580868Y-157123811D01*
X113651345Y-157229526D01*
X113721821Y-157300002D01*
X113792297Y-157335240D01*
X112699916Y-157123811D02*
X113052297Y-157123811D01*
X113087535Y-157476192D01*
X113052297Y-157440954D01*
X112981821Y-157405716D01*
X112805630Y-157405716D01*
X112735154Y-157440954D01*
X112699916Y-157476192D01*
X112664678Y-157546669D01*
X112664678Y-157722859D01*
X112699916Y-157793335D01*
X112735154Y-157828573D01*
X112805630Y-157863811D01*
X112981821Y-157863811D01*
X113052297Y-157828573D01*
X113087535Y-157793335D01*
X114426583Y-160393811D02*
X114426583Y-159653811D01*
X114144678Y-159653811D01*
X114074202Y-159689050D01*
X114038964Y-159724288D01*
X114003726Y-159794764D01*
X114003726Y-159900478D01*
X114038964Y-159970954D01*
X114074202Y-160006192D01*
X114144678Y-160041430D01*
X114426583Y-160041430D01*
X113721821Y-160182383D02*
X113369440Y-160182383D01*
X113792297Y-160393811D02*
X113545630Y-159653811D01*
X113298964Y-160393811D01*
X112911345Y-159653811D02*
X112840868Y-159653811D01*
X112770392Y-159689050D01*
X112735154Y-159724288D01*
X112699916Y-159794764D01*
X112664678Y-159935716D01*
X112664678Y-160111907D01*
X112699916Y-160252859D01*
X112735154Y-160323335D01*
X112770392Y-160358573D01*
X112840868Y-160393811D01*
X112911345Y-160393811D01*
X112981821Y-160358573D01*
X113017059Y-160323335D01*
X113052297Y-160252859D01*
X113087535Y-160111907D01*
X113087535Y-159935716D01*
X113052297Y-159794764D01*
X113017059Y-159724288D01*
X112981821Y-159689050D01*
X112911345Y-159653811D01*
X114426583Y-162923811D02*
X114426583Y-162183811D01*
X114144678Y-162183811D01*
X114074202Y-162219050D01*
X114038964Y-162254288D01*
X114003726Y-162324764D01*
X114003726Y-162430478D01*
X114038964Y-162500954D01*
X114074202Y-162536192D01*
X114144678Y-162571430D01*
X114426583Y-162571430D01*
X113721821Y-162712383D02*
X113369440Y-162712383D01*
X113792297Y-162923811D02*
X113545630Y-162183811D01*
X113298964Y-162923811D01*
X112664678Y-162923811D02*
X113087535Y-162923811D01*
X112876106Y-162923811D02*
X112876106Y-162183811D01*
X112946583Y-162289526D01*
X113017059Y-162360002D01*
X113087535Y-162395240D01*
X114426583Y-165453811D02*
X114426583Y-164713811D01*
X114144678Y-164713811D01*
X114074202Y-164749050D01*
X114038964Y-164784288D01*
X114003726Y-164854764D01*
X114003726Y-164960478D01*
X114038964Y-165030954D01*
X114074202Y-165066192D01*
X114144678Y-165101430D01*
X114426583Y-165101430D01*
X113721821Y-165242383D02*
X113369440Y-165242383D01*
X113792297Y-165453811D02*
X113545630Y-164713811D01*
X113298964Y-165453811D01*
X113087535Y-164784288D02*
X113052297Y-164749050D01*
X112981821Y-164713811D01*
X112805630Y-164713811D01*
X112735154Y-164749050D01*
X112699916Y-164784288D01*
X112664678Y-164854764D01*
X112664678Y-164925240D01*
X112699916Y-165030954D01*
X113122773Y-165453811D01*
X112664678Y-165453811D01*
X114215154Y-167279050D02*
X114285630Y-167243811D01*
X114391345Y-167243811D01*
X114497059Y-167279050D01*
X114567535Y-167349526D01*
X114602773Y-167420002D01*
X114638011Y-167560954D01*
X114638011Y-167666669D01*
X114602773Y-167807621D01*
X114567535Y-167878097D01*
X114497059Y-167948573D01*
X114391345Y-167983811D01*
X114320868Y-167983811D01*
X114215154Y-167948573D01*
X114179916Y-167913335D01*
X114179916Y-167666669D01*
X114320868Y-167666669D01*
X113862773Y-167983811D02*
X113862773Y-167243811D01*
X113439916Y-167983811D01*
X113439916Y-167243811D01*
X113087535Y-167983811D02*
X113087535Y-167243811D01*
X112911345Y-167243811D01*
X112805630Y-167279050D01*
X112735154Y-167349526D01*
X112699916Y-167420002D01*
X112664678Y-167560954D01*
X112664678Y-167666669D01*
X112699916Y-167807621D01*
X112735154Y-167878097D01*
X112805630Y-167948573D01*
X112911345Y-167983811D01*
X113087535Y-167983811D01*
X143792940Y-119173811D02*
X144145321Y-119173811D01*
X144180559Y-119526192D01*
X144145321Y-119490954D01*
X144074845Y-119455716D01*
X143898654Y-119455716D01*
X143828178Y-119490954D01*
X143792940Y-119526192D01*
X143757702Y-119596669D01*
X143757702Y-119772859D01*
X143792940Y-119843335D01*
X143828178Y-119878573D01*
X143898654Y-119913811D01*
X144074845Y-119913811D01*
X144145321Y-119878573D01*
X144180559Y-119843335D01*
X143546273Y-119173811D02*
X143299607Y-119913811D01*
X143052940Y-119173811D01*
X144145321Y-122443811D02*
X144145321Y-121703811D01*
X143722464Y-122443811D01*
X143722464Y-121703811D01*
X142947226Y-122443811D02*
X143193892Y-122091430D01*
X143370083Y-122443811D02*
X143370083Y-121703811D01*
X143088178Y-121703811D01*
X143017702Y-121739050D01*
X142982464Y-121774288D01*
X142947226Y-121844764D01*
X142947226Y-121950478D01*
X142982464Y-122020954D01*
X143017702Y-122056192D01*
X143088178Y-122091430D01*
X143370083Y-122091430D01*
X142665321Y-122408573D02*
X142559607Y-122443811D01*
X142383416Y-122443811D01*
X142312940Y-122408573D01*
X142277702Y-122373335D01*
X142242464Y-122302859D01*
X142242464Y-122232383D01*
X142277702Y-122161907D01*
X142312940Y-122126669D01*
X142383416Y-122091430D01*
X142524369Y-122056192D01*
X142594845Y-122020954D01*
X142630083Y-121985716D01*
X142665321Y-121915240D01*
X142665321Y-121844764D01*
X142630083Y-121774288D01*
X142594845Y-121739050D01*
X142524369Y-121703811D01*
X142348178Y-121703811D01*
X142242464Y-121739050D01*
X142031035Y-121703811D02*
X141608178Y-121703811D01*
X141819607Y-122443811D02*
X141819607Y-121703811D01*
X144145321Y-124973811D02*
X144145321Y-124233811D01*
X143863416Y-124233811D01*
X143792940Y-124269050D01*
X143757702Y-124304288D01*
X143722464Y-124374764D01*
X143722464Y-124480478D01*
X143757702Y-124550954D01*
X143792940Y-124586192D01*
X143863416Y-124621430D01*
X144145321Y-124621430D01*
X143440559Y-124762383D02*
X143088178Y-124762383D01*
X143511035Y-124973811D02*
X143264369Y-124233811D01*
X143017702Y-124973811D01*
X142383416Y-124973811D02*
X142806273Y-124973811D01*
X142594845Y-124973811D02*
X142594845Y-124233811D01*
X142665321Y-124339526D01*
X142735797Y-124410002D01*
X142806273Y-124445240D01*
X141925321Y-124233811D02*
X141854845Y-124233811D01*
X141784369Y-124269050D01*
X141749131Y-124304288D01*
X141713892Y-124374764D01*
X141678654Y-124515716D01*
X141678654Y-124691907D01*
X141713892Y-124832859D01*
X141749131Y-124903335D01*
X141784369Y-124938573D01*
X141854845Y-124973811D01*
X141925321Y-124973811D01*
X141995797Y-124938573D01*
X142031035Y-124903335D01*
X142066273Y-124832859D01*
X142101512Y-124691907D01*
X142101512Y-124515716D01*
X142066273Y-124374764D01*
X142031035Y-124304288D01*
X141995797Y-124269050D01*
X141925321Y-124233811D01*
X144145321Y-127503811D02*
X144145321Y-126763811D01*
X143863416Y-126763811D01*
X143792940Y-126799050D01*
X143757702Y-126834288D01*
X143722464Y-126904764D01*
X143722464Y-127010478D01*
X143757702Y-127080954D01*
X143792940Y-127116192D01*
X143863416Y-127151430D01*
X144145321Y-127151430D01*
X143440559Y-127292383D02*
X143088178Y-127292383D01*
X143511035Y-127503811D02*
X143264369Y-126763811D01*
X143017702Y-127503811D01*
X142735797Y-127503811D02*
X142594845Y-127503811D01*
X142524369Y-127468573D01*
X142489131Y-127433335D01*
X142418654Y-127327621D01*
X142383416Y-127186669D01*
X142383416Y-126904764D01*
X142418654Y-126834288D01*
X142453892Y-126799050D01*
X142524369Y-126763811D01*
X142665321Y-126763811D01*
X142735797Y-126799050D01*
X142771035Y-126834288D01*
X142806273Y-126904764D01*
X142806273Y-127080954D01*
X142771035Y-127151430D01*
X142735797Y-127186669D01*
X142665321Y-127221907D01*
X142524369Y-127221907D01*
X142453892Y-127186669D01*
X142418654Y-127151430D01*
X142383416Y-127080954D01*
X144145321Y-130033811D02*
X144145321Y-129293811D01*
X143863416Y-129293811D01*
X143792940Y-129329050D01*
X143757702Y-129364288D01*
X143722464Y-129434764D01*
X143722464Y-129540478D01*
X143757702Y-129610954D01*
X143792940Y-129646192D01*
X143863416Y-129681430D01*
X144145321Y-129681430D01*
X143440559Y-129822383D02*
X143088178Y-129822383D01*
X143511035Y-130033811D02*
X143264369Y-129293811D01*
X143017702Y-130033811D01*
X142665321Y-129610954D02*
X142735797Y-129575716D01*
X142771035Y-129540478D01*
X142806273Y-129470002D01*
X142806273Y-129434764D01*
X142771035Y-129364288D01*
X142735797Y-129329050D01*
X142665321Y-129293811D01*
X142524369Y-129293811D01*
X142453892Y-129329050D01*
X142418654Y-129364288D01*
X142383416Y-129434764D01*
X142383416Y-129470002D01*
X142418654Y-129540478D01*
X142453892Y-129575716D01*
X142524369Y-129610954D01*
X142665321Y-129610954D01*
X142735797Y-129646192D01*
X142771035Y-129681430D01*
X142806273Y-129751907D01*
X142806273Y-129892859D01*
X142771035Y-129963335D01*
X142735797Y-129998573D01*
X142665321Y-130033811D01*
X142524369Y-130033811D01*
X142453892Y-129998573D01*
X142418654Y-129963335D01*
X142383416Y-129892859D01*
X142383416Y-129751907D01*
X142418654Y-129681430D01*
X142453892Y-129646192D01*
X142524369Y-129610954D01*
X144145321Y-132563811D02*
X144145321Y-131823811D01*
X143863416Y-131823811D01*
X143792940Y-131859050D01*
X143757702Y-131894288D01*
X143722464Y-131964764D01*
X143722464Y-132070478D01*
X143757702Y-132140954D01*
X143792940Y-132176192D01*
X143863416Y-132211430D01*
X144145321Y-132211430D01*
X143158654Y-132176192D02*
X143052940Y-132211430D01*
X143017702Y-132246669D01*
X142982464Y-132317145D01*
X142982464Y-132422859D01*
X143017702Y-132493335D01*
X143052940Y-132528573D01*
X143123416Y-132563811D01*
X143405321Y-132563811D01*
X143405321Y-131823811D01*
X143158654Y-131823811D01*
X143088178Y-131859050D01*
X143052940Y-131894288D01*
X143017702Y-131964764D01*
X143017702Y-132035240D01*
X143052940Y-132105716D01*
X143088178Y-132140954D01*
X143158654Y-132176192D01*
X143405321Y-132176192D01*
X142277702Y-132563811D02*
X142700559Y-132563811D01*
X142489131Y-132563811D02*
X142489131Y-131823811D01*
X142559607Y-131929526D01*
X142630083Y-132000002D01*
X142700559Y-132035240D01*
X141608178Y-131823811D02*
X141960559Y-131823811D01*
X141995797Y-132176192D01*
X141960559Y-132140954D01*
X141890083Y-132105716D01*
X141713892Y-132105716D01*
X141643416Y-132140954D01*
X141608178Y-132176192D01*
X141572940Y-132246669D01*
X141572940Y-132422859D01*
X141608178Y-132493335D01*
X141643416Y-132528573D01*
X141713892Y-132563811D01*
X141890083Y-132563811D01*
X141960559Y-132528573D01*
X141995797Y-132493335D01*
X144145321Y-135093811D02*
X144145321Y-134353811D01*
X143863416Y-134353811D01*
X143792940Y-134389050D01*
X143757702Y-134424288D01*
X143722464Y-134494764D01*
X143722464Y-134600478D01*
X143757702Y-134670954D01*
X143792940Y-134706192D01*
X143863416Y-134741430D01*
X144145321Y-134741430D01*
X143158654Y-134706192D02*
X143052940Y-134741430D01*
X143017702Y-134776669D01*
X142982464Y-134847145D01*
X142982464Y-134952859D01*
X143017702Y-135023335D01*
X143052940Y-135058573D01*
X143123416Y-135093811D01*
X143405321Y-135093811D01*
X143405321Y-134353811D01*
X143158654Y-134353811D01*
X143088178Y-134389050D01*
X143052940Y-134424288D01*
X143017702Y-134494764D01*
X143017702Y-134565240D01*
X143052940Y-134635716D01*
X143088178Y-134670954D01*
X143158654Y-134706192D01*
X143405321Y-134706192D01*
X142277702Y-135093811D02*
X142700559Y-135093811D01*
X142489131Y-135093811D02*
X142489131Y-134353811D01*
X142559607Y-134459526D01*
X142630083Y-134530002D01*
X142700559Y-134565240D01*
X141643416Y-134600478D02*
X141643416Y-135093811D01*
X141819607Y-134318573D02*
X141995797Y-134847145D01*
X141537702Y-134847145D01*
X144145321Y-137623811D02*
X144145321Y-136883811D01*
X143863416Y-136883811D01*
X143792940Y-136919050D01*
X143757702Y-136954288D01*
X143722464Y-137024764D01*
X143722464Y-137130478D01*
X143757702Y-137200954D01*
X143792940Y-137236192D01*
X143863416Y-137271430D01*
X144145321Y-137271430D01*
X143158654Y-137236192D02*
X143052940Y-137271430D01*
X143017702Y-137306669D01*
X142982464Y-137377145D01*
X142982464Y-137482859D01*
X143017702Y-137553335D01*
X143052940Y-137588573D01*
X143123416Y-137623811D01*
X143405321Y-137623811D01*
X143405321Y-136883811D01*
X143158654Y-136883811D01*
X143088178Y-136919050D01*
X143052940Y-136954288D01*
X143017702Y-137024764D01*
X143017702Y-137095240D01*
X143052940Y-137165716D01*
X143088178Y-137200954D01*
X143158654Y-137236192D01*
X143405321Y-137236192D01*
X142277702Y-137623811D02*
X142700559Y-137623811D01*
X142489131Y-137623811D02*
X142489131Y-136883811D01*
X142559607Y-136989526D01*
X142630083Y-137060002D01*
X142700559Y-137095240D01*
X142031035Y-136883811D02*
X141572940Y-136883811D01*
X141819607Y-137165716D01*
X141713892Y-137165716D01*
X141643416Y-137200954D01*
X141608178Y-137236192D01*
X141572940Y-137306669D01*
X141572940Y-137482859D01*
X141608178Y-137553335D01*
X141643416Y-137588573D01*
X141713892Y-137623811D01*
X141925321Y-137623811D01*
X141995797Y-137588573D01*
X142031035Y-137553335D01*
X144145321Y-140153811D02*
X144145321Y-139413811D01*
X143863416Y-139413811D01*
X143792940Y-139449050D01*
X143757702Y-139484288D01*
X143722464Y-139554764D01*
X143722464Y-139660478D01*
X143757702Y-139730954D01*
X143792940Y-139766192D01*
X143863416Y-139801430D01*
X144145321Y-139801430D01*
X143158654Y-139766192D02*
X143052940Y-139801430D01*
X143017702Y-139836669D01*
X142982464Y-139907145D01*
X142982464Y-140012859D01*
X143017702Y-140083335D01*
X143052940Y-140118573D01*
X143123416Y-140153811D01*
X143405321Y-140153811D01*
X143405321Y-139413811D01*
X143158654Y-139413811D01*
X143088178Y-139449050D01*
X143052940Y-139484288D01*
X143017702Y-139554764D01*
X143017702Y-139625240D01*
X143052940Y-139695716D01*
X143088178Y-139730954D01*
X143158654Y-139766192D01*
X143405321Y-139766192D01*
X142277702Y-140153811D02*
X142700559Y-140153811D01*
X142489131Y-140153811D02*
X142489131Y-139413811D01*
X142559607Y-139519526D01*
X142630083Y-139590002D01*
X142700559Y-139625240D01*
X141995797Y-139484288D02*
X141960559Y-139449050D01*
X141890083Y-139413811D01*
X141713892Y-139413811D01*
X141643416Y-139449050D01*
X141608178Y-139484288D01*
X141572940Y-139554764D01*
X141572940Y-139625240D01*
X141608178Y-139730954D01*
X142031035Y-140153811D01*
X141572940Y-140153811D01*
X144145321Y-142683811D02*
X144145321Y-141943811D01*
X143863416Y-141943811D01*
X143792940Y-141979050D01*
X143757702Y-142014288D01*
X143722464Y-142084764D01*
X143722464Y-142190478D01*
X143757702Y-142260954D01*
X143792940Y-142296192D01*
X143863416Y-142331430D01*
X144145321Y-142331430D01*
X143158654Y-142296192D02*
X143052940Y-142331430D01*
X143017702Y-142366669D01*
X142982464Y-142437145D01*
X142982464Y-142542859D01*
X143017702Y-142613335D01*
X143052940Y-142648573D01*
X143123416Y-142683811D01*
X143405321Y-142683811D01*
X143405321Y-141943811D01*
X143158654Y-141943811D01*
X143088178Y-141979050D01*
X143052940Y-142014288D01*
X143017702Y-142084764D01*
X143017702Y-142155240D01*
X143052940Y-142225716D01*
X143088178Y-142260954D01*
X143158654Y-142296192D01*
X143405321Y-142296192D01*
X142277702Y-142683811D02*
X142700559Y-142683811D01*
X142489131Y-142683811D02*
X142489131Y-141943811D01*
X142559607Y-142049526D01*
X142630083Y-142120002D01*
X142700559Y-142155240D01*
X141572940Y-142683811D02*
X141995797Y-142683811D01*
X141784369Y-142683811D02*
X141784369Y-141943811D01*
X141854845Y-142049526D01*
X141925321Y-142120002D01*
X141995797Y-142155240D01*
X144145321Y-145213811D02*
X144145321Y-144473811D01*
X143863416Y-144473811D01*
X143792940Y-144509050D01*
X143757702Y-144544288D01*
X143722464Y-144614764D01*
X143722464Y-144720478D01*
X143757702Y-144790954D01*
X143792940Y-144826192D01*
X143863416Y-144861430D01*
X144145321Y-144861430D01*
X143158654Y-144826192D02*
X143052940Y-144861430D01*
X143017702Y-144896669D01*
X142982464Y-144967145D01*
X142982464Y-145072859D01*
X143017702Y-145143335D01*
X143052940Y-145178573D01*
X143123416Y-145213811D01*
X143405321Y-145213811D01*
X143405321Y-144473811D01*
X143158654Y-144473811D01*
X143088178Y-144509050D01*
X143052940Y-144544288D01*
X143017702Y-144614764D01*
X143017702Y-144685240D01*
X143052940Y-144755716D01*
X143088178Y-144790954D01*
X143158654Y-144826192D01*
X143405321Y-144826192D01*
X142277702Y-145213811D02*
X142700559Y-145213811D01*
X142489131Y-145213811D02*
X142489131Y-144473811D01*
X142559607Y-144579526D01*
X142630083Y-144650002D01*
X142700559Y-144685240D01*
X141819607Y-144473811D02*
X141749131Y-144473811D01*
X141678654Y-144509050D01*
X141643416Y-144544288D01*
X141608178Y-144614764D01*
X141572940Y-144755716D01*
X141572940Y-144931907D01*
X141608178Y-145072859D01*
X141643416Y-145143335D01*
X141678654Y-145178573D01*
X141749131Y-145213811D01*
X141819607Y-145213811D01*
X141890083Y-145178573D01*
X141925321Y-145143335D01*
X141960559Y-145072859D01*
X141995797Y-144931907D01*
X141995797Y-144755716D01*
X141960559Y-144614764D01*
X141925321Y-144544288D01*
X141890083Y-144509050D01*
X141819607Y-144473811D01*
X144145321Y-147743811D02*
X144145321Y-147003811D01*
X143863416Y-147003811D01*
X143792940Y-147039050D01*
X143757702Y-147074288D01*
X143722464Y-147144764D01*
X143722464Y-147250478D01*
X143757702Y-147320954D01*
X143792940Y-147356192D01*
X143863416Y-147391430D01*
X144145321Y-147391430D01*
X143158654Y-147356192D02*
X143052940Y-147391430D01*
X143017702Y-147426669D01*
X142982464Y-147497145D01*
X142982464Y-147602859D01*
X143017702Y-147673335D01*
X143052940Y-147708573D01*
X143123416Y-147743811D01*
X143405321Y-147743811D01*
X143405321Y-147003811D01*
X143158654Y-147003811D01*
X143088178Y-147039050D01*
X143052940Y-147074288D01*
X143017702Y-147144764D01*
X143017702Y-147215240D01*
X143052940Y-147285716D01*
X143088178Y-147320954D01*
X143158654Y-147356192D01*
X143405321Y-147356192D01*
X142700559Y-147074288D02*
X142665321Y-147039050D01*
X142594845Y-147003811D01*
X142418654Y-147003811D01*
X142348178Y-147039050D01*
X142312940Y-147074288D01*
X142277702Y-147144764D01*
X142277702Y-147215240D01*
X142312940Y-147320954D01*
X142735797Y-147743811D01*
X142277702Y-147743811D01*
X144145321Y-150273811D02*
X144145321Y-149533811D01*
X143863416Y-149533811D01*
X143792940Y-149569050D01*
X143757702Y-149604288D01*
X143722464Y-149674764D01*
X143722464Y-149780478D01*
X143757702Y-149850954D01*
X143792940Y-149886192D01*
X143863416Y-149921430D01*
X144145321Y-149921430D01*
X143158654Y-149886192D02*
X143052940Y-149921430D01*
X143017702Y-149956669D01*
X142982464Y-150027145D01*
X142982464Y-150132859D01*
X143017702Y-150203335D01*
X143052940Y-150238573D01*
X143123416Y-150273811D01*
X143405321Y-150273811D01*
X143405321Y-149533811D01*
X143158654Y-149533811D01*
X143088178Y-149569050D01*
X143052940Y-149604288D01*
X143017702Y-149674764D01*
X143017702Y-149745240D01*
X143052940Y-149815716D01*
X143088178Y-149850954D01*
X143158654Y-149886192D01*
X143405321Y-149886192D01*
X142277702Y-150273811D02*
X142700559Y-150273811D01*
X142489131Y-150273811D02*
X142489131Y-149533811D01*
X142559607Y-149639526D01*
X142630083Y-149710002D01*
X142700559Y-149745240D01*
X144145321Y-152803811D02*
X144145321Y-152063811D01*
X143863416Y-152063811D01*
X143792940Y-152099050D01*
X143757702Y-152134288D01*
X143722464Y-152204764D01*
X143722464Y-152310478D01*
X143757702Y-152380954D01*
X143792940Y-152416192D01*
X143863416Y-152451430D01*
X144145321Y-152451430D01*
X143158654Y-152416192D02*
X143052940Y-152451430D01*
X143017702Y-152486669D01*
X142982464Y-152557145D01*
X142982464Y-152662859D01*
X143017702Y-152733335D01*
X143052940Y-152768573D01*
X143123416Y-152803811D01*
X143405321Y-152803811D01*
X143405321Y-152063811D01*
X143158654Y-152063811D01*
X143088178Y-152099050D01*
X143052940Y-152134288D01*
X143017702Y-152204764D01*
X143017702Y-152275240D01*
X143052940Y-152345716D01*
X143088178Y-152380954D01*
X143158654Y-152416192D01*
X143405321Y-152416192D01*
X142524369Y-152063811D02*
X142453892Y-152063811D01*
X142383416Y-152099050D01*
X142348178Y-152134288D01*
X142312940Y-152204764D01*
X142277702Y-152345716D01*
X142277702Y-152521907D01*
X142312940Y-152662859D01*
X142348178Y-152733335D01*
X142383416Y-152768573D01*
X142453892Y-152803811D01*
X142524369Y-152803811D01*
X142594845Y-152768573D01*
X142630083Y-152733335D01*
X142665321Y-152662859D01*
X142700559Y-152521907D01*
X142700559Y-152345716D01*
X142665321Y-152204764D01*
X142630083Y-152134288D01*
X142594845Y-152099050D01*
X142524369Y-152063811D01*
X144145321Y-155333811D02*
X144145321Y-154593811D01*
X143863416Y-154593811D01*
X143792940Y-154629050D01*
X143757702Y-154664288D01*
X143722464Y-154734764D01*
X143722464Y-154840478D01*
X143757702Y-154910954D01*
X143792940Y-154946192D01*
X143863416Y-154981430D01*
X144145321Y-154981430D01*
X143440559Y-155122383D02*
X143088178Y-155122383D01*
X143511035Y-155333811D02*
X143264369Y-154593811D01*
X143017702Y-155333811D01*
X142841512Y-154593811D02*
X142348178Y-154593811D01*
X142665321Y-155333811D01*
X144145321Y-157863811D02*
X144145321Y-157123811D01*
X143863416Y-157123811D01*
X143792940Y-157159050D01*
X143757702Y-157194288D01*
X143722464Y-157264764D01*
X143722464Y-157370478D01*
X143757702Y-157440954D01*
X143792940Y-157476192D01*
X143863416Y-157511430D01*
X144145321Y-157511430D01*
X143440559Y-157652383D02*
X143088178Y-157652383D01*
X143511035Y-157863811D02*
X143264369Y-157123811D01*
X143017702Y-157863811D01*
X142453892Y-157123811D02*
X142594845Y-157123811D01*
X142665321Y-157159050D01*
X142700559Y-157194288D01*
X142771035Y-157300002D01*
X142806273Y-157440954D01*
X142806273Y-157722859D01*
X142771035Y-157793335D01*
X142735797Y-157828573D01*
X142665321Y-157863811D01*
X142524369Y-157863811D01*
X142453892Y-157828573D01*
X142418654Y-157793335D01*
X142383416Y-157722859D01*
X142383416Y-157546669D01*
X142418654Y-157476192D01*
X142453892Y-157440954D01*
X142524369Y-157405716D01*
X142665321Y-157405716D01*
X142735797Y-157440954D01*
X142771035Y-157476192D01*
X142806273Y-157546669D01*
X144145321Y-160393811D02*
X144145321Y-159653811D01*
X143863416Y-159653811D01*
X143792940Y-159689050D01*
X143757702Y-159724288D01*
X143722464Y-159794764D01*
X143722464Y-159900478D01*
X143757702Y-159970954D01*
X143792940Y-160006192D01*
X143863416Y-160041430D01*
X144145321Y-160041430D01*
X143440559Y-160182383D02*
X143088178Y-160182383D01*
X143511035Y-160393811D02*
X143264369Y-159653811D01*
X143017702Y-160393811D01*
X142418654Y-159653811D02*
X142771035Y-159653811D01*
X142806273Y-160006192D01*
X142771035Y-159970954D01*
X142700559Y-159935716D01*
X142524369Y-159935716D01*
X142453892Y-159970954D01*
X142418654Y-160006192D01*
X142383416Y-160076669D01*
X142383416Y-160252859D01*
X142418654Y-160323335D01*
X142453892Y-160358573D01*
X142524369Y-160393811D01*
X142700559Y-160393811D01*
X142771035Y-160358573D01*
X142806273Y-160323335D01*
X144145321Y-162923811D02*
X144145321Y-162183811D01*
X143863416Y-162183811D01*
X143792940Y-162219050D01*
X143757702Y-162254288D01*
X143722464Y-162324764D01*
X143722464Y-162430478D01*
X143757702Y-162500954D01*
X143792940Y-162536192D01*
X143863416Y-162571430D01*
X144145321Y-162571430D01*
X143440559Y-162712383D02*
X143088178Y-162712383D01*
X143511035Y-162923811D02*
X143264369Y-162183811D01*
X143017702Y-162923811D01*
X142453892Y-162430478D02*
X142453892Y-162923811D01*
X142630083Y-162148573D02*
X142806273Y-162677145D01*
X142348178Y-162677145D01*
X144145321Y-165453811D02*
X144145321Y-164713811D01*
X143863416Y-164713811D01*
X143792940Y-164749050D01*
X143757702Y-164784288D01*
X143722464Y-164854764D01*
X143722464Y-164960478D01*
X143757702Y-165030954D01*
X143792940Y-165066192D01*
X143863416Y-165101430D01*
X144145321Y-165101430D01*
X143440559Y-165242383D02*
X143088178Y-165242383D01*
X143511035Y-165453811D02*
X143264369Y-164713811D01*
X143017702Y-165453811D01*
X142841512Y-164713811D02*
X142383416Y-164713811D01*
X142630083Y-164995716D01*
X142524369Y-164995716D01*
X142453892Y-165030954D01*
X142418654Y-165066192D01*
X142383416Y-165136669D01*
X142383416Y-165312859D01*
X142418654Y-165383335D01*
X142453892Y-165418573D01*
X142524369Y-165453811D01*
X142735797Y-165453811D01*
X142806273Y-165418573D01*
X142841512Y-165383335D01*
X143757702Y-167279050D02*
X143828178Y-167243811D01*
X143933892Y-167243811D01*
X144039607Y-167279050D01*
X144110083Y-167349526D01*
X144145321Y-167420002D01*
X144180559Y-167560954D01*
X144180559Y-167666669D01*
X144145321Y-167807621D01*
X144110083Y-167878097D01*
X144039607Y-167948573D01*
X143933892Y-167983811D01*
X143863416Y-167983811D01*
X143757702Y-167948573D01*
X143722464Y-167913335D01*
X143722464Y-167666669D01*
X143863416Y-167666669D01*
X143405321Y-167983811D02*
X143405321Y-167243811D01*
X142982464Y-167983811D01*
X142982464Y-167243811D01*
X142630083Y-167983811D02*
X142630083Y-167243811D01*
X142453892Y-167243811D01*
X142348178Y-167279050D01*
X142277702Y-167349526D01*
X142242464Y-167420002D01*
X142207226Y-167560954D01*
X142207226Y-167666669D01*
X142242464Y-167807621D01*
X142277702Y-167878097D01*
X142348178Y-167948573D01*
X142453892Y-167983811D01*
X142630083Y-167983811D01*
%LPC*%
D11*
X145900000Y-171950000D03*
X110900000Y-171950000D03*
X145900000Y-114950000D03*
X110900000Y-114950000D03*
D12*
X145900000Y-119550000D03*
D13*
X145900000Y-122090000D03*
X145900000Y-124630000D03*
X145900000Y-127170000D03*
X145900000Y-129710000D03*
X145900000Y-132250000D03*
X145900000Y-134790000D03*
X145900000Y-137330000D03*
X145900000Y-139870000D03*
X145900000Y-142410000D03*
X145900000Y-144950000D03*
X145900000Y-147490000D03*
X145900000Y-150030000D03*
X145900000Y-152570000D03*
X145900000Y-155110000D03*
X145900000Y-157650000D03*
X145900000Y-160190000D03*
X145900000Y-162730000D03*
X145900000Y-165270000D03*
X145900000Y-167810000D03*
D12*
X110900000Y-119550000D03*
D13*
X110900000Y-122090000D03*
X110900000Y-124630000D03*
X110900000Y-127170000D03*
X110900000Y-129710000D03*
X110900000Y-132250000D03*
X110900000Y-134790000D03*
X110900000Y-137330000D03*
X110900000Y-139870000D03*
X110900000Y-142410000D03*
X110900000Y-144950000D03*
X110900000Y-147490000D03*
X110900000Y-150030000D03*
X110900000Y-152570000D03*
X110900000Y-155110000D03*
X110900000Y-157650000D03*
X110900000Y-160190000D03*
X110900000Y-162730000D03*
X110900000Y-165270000D03*
X110900000Y-167810000D03*
M02*
